<?xml version="1.0" encoding="utf-8"?>
<!-- Generator: Adobe Illustrator 21.0.0, SVG Export Plug-In . SVG Version: 6.00 Build 0)  -->
<svg version="1.1" id="Layer_1" xmlns="http://www.w3.org/2000/svg" xmlns:xlink="http://www.w3.org/1999/xlink" x="0px" y="0px"
	 viewBox="0 0 528.6 123.8" style="enable-background:new 0 0 528.6 123.8;" xml:space="preserve">
<style type="text/css">
	.st0{fill:#FDFEFF;}
	.st1{fill:#FFFFFF;stroke:#FFFFFF;stroke-width:1.0286;stroke-miterlimit:10;}
	.st2{fill:#EB5D2D;}
	.st3{fill:#FFFFFF;}
	.st4{fill:none;stroke:#FFFFFF;stroke-width:2.0572;stroke-miterlimit:10;}
	.st5{fill:#919191;}
</style>
<g>
	<g>
		<path class="st0" d="M476.3,30l0.4,1.2h0.1l0.4-1.2l4-11.6h2.3l-5.7,15.5h-1.8L470,18.4h2.3L476.3,30z"/>
		<path class="st0" d="M489,32.4c1,0,1.8-0.4,2.4-1.2c0.6-0.8,0.9-1.9,0.9-3.4v-0.7c-0.3,0.5-0.8,0.9-1.3,1.1
			c-0.5,0.3-1.1,0.4-1.7,0.4c-1.5,0-2.7-0.5-3.6-1.4c-0.9-0.9-1.3-2.2-1.3-3.8c0-1.6,0.5-2.8,1.4-3.8c0.9-1,2.1-1.5,3.4-1.5
			c1.6,0,2.9,0.5,3.8,1.5c0.9,1,1.4,2.5,1.4,4.5v3.7c0,2-0.5,3.6-1.5,4.6c-1,1.1-2.3,1.6-3.9,1.6c-0.5,0-1.1-0.1-1.7-0.2
			c-0.6-0.1-1.1-0.3-1.5-0.5l0.3-1.6c0.4,0.2,0.9,0.4,1.3,0.5C487.9,32.4,488.4,32.4,489,32.4z M489.3,27c0.8,0,1.4-0.2,1.9-0.5
			c0.5-0.3,0.9-0.8,1.1-1.3v-1.3c0-1.4-0.3-2.4-0.8-3.1c-0.5-0.7-1.3-1-2.3-1c-0.8,0-1.4,0.3-2,1c-0.5,0.7-0.8,1.6-0.8,2.6
			c0,1.1,0.2,1.9,0.7,2.6C487.8,26.7,488.5,27,489.3,27z"/>
		<path class="st0" d="M499.6,33.9h-2.1v-2.2h2.1V33.9z"/>
		<path class="st0" d="M512.7,28c0,2-0.4,3.5-1.3,4.5c-0.9,1.1-2.1,1.6-3.6,1.6c-1.5,0-2.7-0.5-3.6-1.6c-0.9-1.1-1.3-2.6-1.3-4.5
			v-3.7c0-2,0.4-3.5,1.3-4.5c0.9-1.1,2.1-1.6,3.6-1.6c1.5,0,2.7,0.5,3.6,1.6c0.9,1.1,1.3,2.6,1.3,4.5V28z M510.6,23.8
			c0-1.3-0.2-2.3-0.7-3c-0.5-0.7-1.2-1-2.1-1c-0.9,0-1.6,0.3-2.1,1s-0.7,1.7-0.7,3v4.5c0,1.3,0.2,2.3,0.7,3c0.5,0.7,1.2,1,2.1,1
			c0.9,0,1.6-0.3,2.1-1c0.5-0.7,0.7-1.7,0.7-3V23.8z"/>
	</g>
</g>
<g>
	<path class="st1" d="M97.2,21.8c0-0.9,0.7-1.6,1.7-1.6s1.7,0.7,1.7,1.7v33.6c0,1-0.7,1.7-1.7,1.7s-1.7-0.7-1.7-1.6V21.8z"/>
	<path class="st1" d="M133.5,21.8c0-0.9,0.7-1.6,1.7-1.6c1,0,1.6,0.7,1.6,1.6v31.3c0,2.3-1.8,4.1-4.1,4.1c-1.7,0-3.1-1-3.8-2.4
		l-14-30.7c-0.3-0.6-0.6-0.9-1.1-0.8c-0.4,0.1-0.7,0.4-0.7,1.1v31.2c0,0.9-0.7,1.6-1.7,1.6c-0.9,0-1.7-0.7-1.7-1.6V24.3
		c0-2.3,1.8-4.1,4.2-4.1c1.7,0,3.1,1,3.8,2.4l14,30.7c0.3,0.6,0.6,0.9,1,0.8c0.4-0.1,0.7-0.4,0.7-1.1L133.5,21.8z"/>
	<path class="st1" d="M166.5,21.6c0.2-0.8,0.8-1.4,1.9-1.3c1,0,1.4,0.8,1.4,1.5c0,0.1,0,0.3-0.1,0.4l-8.8,31.8
		c-0.5,1.8-2.4,3.2-4.5,3.2c-2.3,0-4-1.4-4.5-3.4l-8.8-31.6c0-0.1-0.1-0.3-0.1-0.4c0-0.8,0.6-1.5,1.5-1.6c1.1,0,1.6,0.6,1.8,1.4
		l8.8,31.6c0.2,0.6,0.6,0.9,1.3,0.9c0.7,0,1.1-0.3,1.2-0.9L166.5,21.6z"/>
	<path class="st1" d="M176.6,22.7c0-1.4,1.1-2.5,2.6-2.5h18c1.1,0,1.8,0.7,1.8,1.6c0,0.9-0.6,1.6-1.7,1.6h-17.3v13.1h14.2
		c1,0,1.8,0.7,1.8,1.6c0,0.9-0.7,1.6-1.7,1.6h-14.3V54h17.2c1.1,0,1.8,0.7,1.8,1.6c0,0.9-0.6,1.6-1.7,1.6h-18.1
		c-1.5,0-2.6-1-2.6-2.5V22.7z"/>
	<path class="st1" d="M205.4,57.2c-0.9,0-1.6-0.7-1.6-1.5c0-0.8,0.7-1.5,1.6-1.5h10.2c5.3,0,8.2-2.3,8.2-8c0-4.5-2.6-5.4-8.3-6.5
		c-6.2-1.2-11.6-2.3-11.6-10c0-6.8,4.5-9.4,11.7-9.4h8.9c1.1,0,1.7,0.8,1.7,1.5c0,0.8-0.7,1.5-1.6,1.5h-9c-5.5,0-8.5,1.6-8.5,6.3
		c0,5.3,3.4,6,9,7c6.8,1.2,10.9,3,10.9,9.5c0,7.8-4,11-11.4,11L205.4,57.2z"/>
	<path class="st1" d="M256.6,20.2c1.1,0,1.7,0.8,1.7,1.5c0,0.8-0.7,1.5-1.6,1.5h-10.2v32.4c0,0.8-0.8,1.5-1.6,1.5
		c-0.9,0-1.6-0.7-1.6-1.5V23.2h-10.3c-0.9,0-1.6-0.7-1.6-1.5c0-0.8,0.7-1.5,1.6-1.5L256.6,20.2z"/>
	<path class="st1" d="M289.8,22.8c0.5-1.5,2.1-2.6,3.8-2.6c2.2,0,4,1.8,4,3.9v31.5c0,0.9-0.7,1.6-1.7,1.6c-1,0-1.6-0.7-1.6-1.6V24.4
		c0-0.7-0.2-1.1-0.6-1.1c-0.4,0-0.7,0.3-0.9,0.9l-10.1,31.5c-0.3,0.8-0.9,1.5-2.1,1.5c-1.2,0-1.8-0.6-2.1-1.5l-9.4-31.5
		c-0.2-0.6-0.5-1-0.9-0.9c-0.4,0.1-0.6,0.4-0.6,1.1v31.2c0,0.9-0.7,1.6-1.6,1.6c-1,0-1.7-0.7-1.7-1.6V24.1c0-2.1,1.8-3.9,4-3.9
		c1.8,0,3.3,1.1,3.8,2.7l8.4,28.4L289.8,22.8z"/>
	<path class="st1" d="M307.4,22.7c0-1.4,1.1-2.5,2.6-2.5h18c1.1,0,1.8,0.7,1.8,1.6c0,0.9-0.6,1.6-1.7,1.6h-17.3v13.1h14.2
		c1,0,1.8,0.7,1.8,1.6c0,0.9-0.7,1.6-1.7,1.6h-14.3V54H328c1.1,0,1.8,0.7,1.8,1.6c0,0.9-0.6,1.6-1.7,1.6H310c-1.5,0-2.6-1-2.6-2.5
		V22.7z"/>
	<path class="st1" d="M360.2,21.8c0-0.9,0.7-1.6,1.7-1.6c1,0,1.6,0.7,1.6,1.6v31.3c0,2.3-1.8,4.1-4.1,4.1c-1.7,0-3.1-1-3.8-2.4
		l-14-30.7c-0.3-0.6-0.6-0.9-1.1-0.8c-0.4,0.1-0.7,0.4-0.7,1.1v31.2c0,0.9-0.7,1.6-1.7,1.6c-0.9,0-1.7-0.7-1.7-1.6V24.3
		c0-2.3,1.8-4.1,4.2-4.1c1.7,0,3.1,1,3.8,2.4l14,30.7c0.3,0.6,0.6,0.9,1,0.8c0.4-0.1,0.7-0.4,0.7-1.1L360.2,21.8z"/>
	<path class="st1" d="M395.1,20.2c1.1,0,1.7,0.8,1.7,1.5c0,0.8-0.7,1.5-1.6,1.5H385v32.4c0,0.8-0.8,1.5-1.6,1.5
		c-0.9,0-1.6-0.7-1.6-1.5V23.2h-10.3c-0.9,0-1.6-0.7-1.6-1.5c0-0.8,0.7-1.5,1.6-1.5L395.1,20.2z"/>
	<path class="st1" d="M421.3,20.2c2.1,0,3.7,1.6,3.7,3.6c0,0.8-0.4,1.7-0.8,2.3l-19.3,26.6c-0.3,0.4-0.5,0.7-0.5,0.9
		c0,0,0,0.1,0,0.1c0.1,0.3,0.4,0.4,1.1,0.4h17.7c1,0,1.8,0.6,1.8,1.5c0,0.9-0.7,1.5-1.7,1.5h-18.5c-2.1,0-3.7-1.6-3.7-3.6
		c0-0.8,0.2-1.4,0.6-2l19.5-26.8c0.3-0.4,0.5-0.7,0.5-1c0,0,0-0.1,0-0.1c-0.1-0.3-0.4-0.4-1.1-0.4h-17.8c-0.9,0-1.6-0.8-1.6-1.5
		c0-0.8,0.7-1.5,1.6-1.5L421.3,20.2z"/>
</g>
<g>
	<path class="st2" d="M190.7,72.6v11.7c0,0.2-0.1,0.3-0.3,0.3h-1.2c-0.2,0-0.3-0.1-0.3-0.3V72.6c0-0.2,0.1-0.3,0.3-0.3h1.2
		C190.6,72.2,190.7,72.3,190.7,72.6z"/>
	<path class="st2" d="M199,84.6h-1.2c-0.2,0-0.3-0.1-0.3-0.3V72.6c0-0.2,0.1-0.3,0.3-0.3h1.1c0.2,0,0.3,0.1,0.4,0.2l4.6,8.4h0.1
		v-8.2c0-0.2,0.1-0.3,0.3-0.3h1.2c0.2,0,0.3,0.1,0.3,0.3v11.7c0,0.2-0.1,0.3-0.3,0.3h-1c-0.2,0-0.4-0.1-0.5-0.3l-4.6-8.3h-0.1v8.2
		C199.3,84.5,199.2,84.6,199,84.6z"/>
	<path class="st2" d="M217,84.6h-1.9c-0.2,0-0.4-0.1-0.4-0.3l-3.2-11.7c-0.1-0.2,0-0.4,0.3-0.4h1.4c0.2,0,0.3,0.1,0.4,0.3l2.5,10
		h0.1l2.5-10c0.1-0.2,0.2-0.3,0.4-0.3h1.3c0.3,0,0.4,0.1,0.3,0.4l-3.2,11.7C217.3,84.5,217.2,84.6,217,84.6z"/>
	<path class="st2" d="M232.7,84.6h-6.1c-0.2,0-0.3-0.1-0.3-0.3V72.6c0-0.2,0.1-0.3,0.3-0.3h6.1c0.2,0,0.3,0.1,0.3,0.3v1
		c0,0.2-0.1,0.3-0.3,0.3h-4.4c-0.2,0-0.2,0.1-0.2,0.2v3.2c0,0.1,0.1,0.2,0.2,0.2h3.7c0.2,0,0.3,0.1,0.3,0.3v1c0,0.2-0.1,0.3-0.3,0.3
		h-3.7c-0.2,0-0.2,0.1-0.2,0.2v3.4c0,0.1,0.1,0.2,0.2,0.2h4.4c0.2,0,0.3,0.1,0.3,0.3v1C233,84.5,232.9,84.6,232.7,84.6z"/>
	<path class="st2" d="M239,81.6v-0.5c0-0.2,0.1-0.3,0.3-0.3h1.2c0.2,0,0.3,0.1,0.3,0.3v0.3c0,0.5,0.1,0.9,0.4,1.2
		c0.2,0.2,0.6,0.4,1.2,0.4h1.3c0.6,0,0.9-0.1,1.2-0.4c0.2-0.2,0.4-0.7,0.4-1.2v-0.4c0-0.4-0.2-0.7-0.5-1c-0.3-0.2-0.7-0.4-1.2-0.5
		c-0.5-0.1-1-0.2-1.5-0.3c-0.6-0.1-1.1-0.3-1.5-0.4s-0.8-0.5-1.2-0.9c-0.3-0.5-0.5-1-0.5-1.8v-0.8c0-0.9,0.3-1.7,0.8-2.2
		s1.3-0.8,2.2-0.8h2c0.9,0,1.7,0.3,2.2,0.8s0.8,1.3,0.8,2.2v0.4c0,0.2-0.1,0.3-0.3,0.3h-1.2c-0.2,0-0.3-0.1-0.3-0.3v-0.3
		c0-0.6-0.1-0.9-0.4-1.2c-0.2-0.2-0.6-0.4-1.2-0.4h-1.2c-0.6,0-0.9,0.1-1.2,0.4c-0.2,0.3-0.4,0.7-0.4,1.3v0.6c0,0.6,0.4,1,1.2,1.2
		c0.4,0.1,0.8,0.2,1.2,0.2c0.4,0.1,0.9,0.2,1.3,0.3c0.4,0.1,0.9,0.3,1.2,0.5c0.4,0.2,0.7,0.5,0.9,1c0.2,0.4,0.3,1,0.3,1.6v0.7
		c0,0.9-0.3,1.7-0.8,2.2s-1.3,0.8-2.2,0.8h-2.2c-0.9,0-1.7-0.3-2.2-0.8S239,82.5,239,81.6z"/>
	<path class="st2" d="M257,84.6h-1.2c-0.2,0-0.3-0.1-0.3-0.3V74.1c0-0.1-0.1-0.2-0.2-0.2h-2.4c-0.2,0-0.3-0.1-0.3-0.3v-1
		c0-0.2,0.1-0.3,0.3-0.3h7.1c0.2,0,0.3,0.1,0.3,0.3v1c0,0.2-0.1,0.3-0.3,0.3h-2.4c-0.1,0-0.2,0.1-0.2,0.2v10.2
		C257.3,84.5,257.2,84.6,257,84.6z"/>
	<path class="st2" d="M270.8,84.6h-2.2c-0.9,0-1.7-0.3-2.2-0.8c-0.5-0.5-0.8-1.3-0.8-2.2v-6.4c0-0.9,0.3-1.7,0.8-2.2
		c0.5-0.5,1.3-0.8,2.2-0.8h2.2c0.9,0,1.7,0.3,2.2,0.8s0.8,1.3,0.8,2.2v6.4c0,0.9-0.3,1.7-0.8,2.2C272.5,84.3,271.8,84.6,270.8,84.6z
		 M268.9,82.9h1.7c0.9,0,1.4-0.5,1.4-1.4v-6.2c0-0.9-0.5-1.4-1.4-1.4h-1.7c-0.9,0-1.4,0.5-1.4,1.4v6.2
		C267.5,82.5,267.9,82.9,268.9,82.9z"/>
	<path class="st2" d="M281.8,84.6h-1.2c-0.2,0-0.3-0.1-0.3-0.3V72.6c0-0.2,0.1-0.3,0.3-0.3h4.5c0.9,0,1.7,0.3,2.2,0.8
		s0.8,1.3,0.8,2.2v1.6c0,1.5-0.6,2.4-1.8,2.8v0.1l2.1,4.5c0.1,0.3,0.1,0.4-0.3,0.4h-1.2c-0.3,0-0.5-0.1-0.6-0.3l-2.1-4.4h-1.9
		c-0.2,0-0.2,0.1-0.2,0.2v4.2C282.1,84.5,282,84.6,281.8,84.6z M282.3,78.3h2.4c0.9,0,1.4-0.5,1.4-1.4v-1.6c0-0.9-0.5-1.4-1.4-1.4
		h-2.4c-0.1,0-0.2,0.1-0.2,0.2v4.1C282.1,78.2,282.2,78.3,282.3,78.3z"/>
	<path class="st2" d="M304.4,84.6h-1.2c-0.2,0-0.3-0.1-0.3-0.3V72.6c0-0.2,0.1-0.3,0.3-0.3h6c0.2,0,0.3,0.1,0.3,0.3v1
		c0,0.2-0.1,0.3-0.3,0.3H305c-0.2,0-0.2,0.1-0.2,0.2v3.6c0,0.1,0.1,0.2,0.2,0.2h3.7c0.2,0,0.3,0.1,0.3,0.3v1c0,0.2-0.1,0.3-0.3,0.3
		H305c-0.2,0-0.2,0.1-0.2,0.2v4.5C304.8,84.5,304.7,84.6,304.4,84.6z"/>
	<path class="st2" d="M317.4,72.6v11.7c0,0.2-0.1,0.3-0.3,0.3h-1.2c-0.2,0-0.3-0.1-0.3-0.3V72.6c0-0.2,0.1-0.3,0.3-0.3h1.2
		C317.3,72.2,317.4,72.3,317.4,72.6z"/>
	<path class="st2" d="M325.7,84.6h-1.2c-0.2,0-0.3-0.1-0.3-0.3V72.6c0-0.2,0.1-0.3,0.3-0.3h4.5c0.9,0,1.7,0.3,2.2,0.8
		s0.8,1.3,0.8,2.2v1.6c0,1.5-0.6,2.4-1.8,2.8v0.1l2.1,4.5c0.1,0.3,0.1,0.4-0.3,0.4h-1.2c-0.3,0-0.5-0.1-0.6-0.3l-2.1-4.4h-1.9
		c-0.2,0-0.2,0.1-0.2,0.2v4.2C326,84.5,325.9,84.6,325.7,84.6z M326.2,78.3h2.4c0.9,0,1.4-0.5,1.4-1.4v-1.6c0-0.9-0.5-1.4-1.4-1.4
		h-2.4c-0.1,0-0.2,0.1-0.2,0.2v4.1C326,78.2,326.1,78.3,326.2,78.3z"/>
	<path class="st2" d="M338.2,81.6v-0.5c0-0.2,0.1-0.3,0.3-0.3h1.2c0.2,0,0.3,0.1,0.3,0.3v0.3c0,0.5,0.1,0.9,0.4,1.2
		c0.2,0.2,0.6,0.4,1.2,0.4h1.3c0.5,0,0.9-0.1,1.2-0.4c0.2-0.2,0.4-0.7,0.4-1.2v-0.4c0-0.4-0.2-0.7-0.5-1c-0.3-0.2-0.7-0.4-1.2-0.5
		c-0.5-0.1-1-0.2-1.5-0.3c-0.6-0.1-1.1-0.3-1.5-0.4s-0.8-0.5-1.2-0.9c-0.3-0.5-0.5-1-0.5-1.8v-0.8c0-0.9,0.3-1.7,0.8-2.2
		s1.3-0.8,2.2-0.8h2c0.9,0,1.7,0.3,2.2,0.8s0.8,1.3,0.8,2.2v0.4c0,0.2-0.1,0.3-0.3,0.3h-1.2c-0.2,0-0.3-0.1-0.3-0.3v-0.3
		c0-0.6-0.1-0.9-0.4-1.2c-0.2-0.2-0.6-0.4-1.2-0.4h-1.2c-0.6,0-0.9,0.1-1.2,0.4c-0.2,0.3-0.4,0.7-0.4,1.3v0.6c0,0.6,0.4,1,1.2,1.2
		c0.4,0.1,0.8,0.2,1.2,0.2c0.4,0.1,0.9,0.2,1.3,0.3c0.4,0.1,0.9,0.3,1.2,0.5c0.4,0.2,0.7,0.5,0.9,1c0.2,0.4,0.3,1,0.3,1.6v0.7
		c0,0.9-0.3,1.7-0.8,2.2s-1.3,0.8-2.2,0.8h-2.2c-0.9,0-1.7-0.3-2.2-0.8S338.2,82.5,338.2,81.6z"/>
	<path class="st2" d="M356.2,84.6h-1.2c-0.2,0-0.3-0.1-0.3-0.3V74.1c0-0.1-0.1-0.2-0.2-0.2H352c-0.2,0-0.3-0.1-0.3-0.3v-1
		c0-0.2,0.1-0.3,0.3-0.3h7.1c0.2,0,0.3,0.1,0.3,0.3v1c0,0.2-0.1,0.3-0.3,0.3h-2.4c-0.1,0-0.2,0.1-0.2,0.2v10.2
		C356.5,84.5,356.4,84.6,356.2,84.6z"/>
</g>
<g>
	<g>
		<path class="st3" d="M66.5,67.4c-0.5-0.5-1.2-0.8-2.2-0.8c-0.7,0-1.8,0.1-3.3,0.2l-8,0.6c-0.3,0-0.7,0.1-1,0.1
			c0-0.3,0.1-0.5,0.1-0.8l0.7-8.5c0.1-0.8,0.1-1.6,0.1-2.3c0-1.3-0.2-2.3-0.5-3c-0.3-0.7-1-1-1.9-1c-0.8,0-1.4,0.3-1.9,0.8
			c-0.5,0.5-0.7,1.3-0.7,2.2c0,0.7,0,1.9,0.1,3.5l0.5,8.3c0,0.4,0.1,0.7,0.1,1c-0.3,0-0.6-0.1-0.9-0.1l-8.2-0.7
			c-0.8-0.1-1.5-0.1-2.2-0.1c-1.2,0-2.2,0.2-2.9,0.5c-0.7,0.3-1,1-1,2c0,0.8,0.3,1.5,0.8,2c0.5,0.5,1.2,0.8,2.2,0.8
			c0.7,0,1.8-0.1,3.3-0.2l8-0.6c0.4,0,0.7-0.1,1-0.1c0,0.3-0.1,0.6-0.1,0.9l-0.7,8.5C48,81.3,48,82.1,48,82.8c0,1.3,0.2,2.3,0.5,3
			c0.3,0.7,1,1,1.9,1c0.8,0,1.4-0.3,1.9-0.8c0.5-0.5,0.7-1.3,0.7-2.2c0-0.7,0-1.9-0.2-3.5L52.3,72c0-0.4-0.1-0.7-0.1-1
			c0.3,0,0.5,0.1,0.8,0.1l8.2,0.7c0.8,0.1,1.5,0.1,2.2,0.1c1.2,0,2.2-0.2,2.9-0.5c0.7-0.3,1-1,1-2C67.3,68.6,67,67.9,66.5,67.4
			L66.5,67.4z"/>
	</g>
	<g>
		<path class="st3" d="M66.5,66.9c-0.5-0.5-1.2-0.8-2.2-0.8c-0.7,0-1.8,0.1-3.3,0.2l-8,0.6c-0.3,0-0.7,0.1-1,0.1
			c0-0.2,0.1-0.5,0.1-0.8l0.7-8.6c0.1-0.8,0.1-1.6,0.1-2.3c0-1.3-0.2-2.3-0.5-3c-0.3-0.7-1-1-1.9-1c-0.8,0-1.4,0.3-1.9,0.8
			c-0.5,0.5-0.7,1.3-0.7,2.2c0,0.7,0,1.9,0.1,3.5l0.5,8.3c0,0.4,0.1,0.7,0.1,1c-0.3,0-0.6-0.1-0.9-0.1l-8.2-0.7
			c-0.8-0.1-1.5-0.1-2.2-0.1c-1.2,0-2.2,0.2-2.9,0.5c-0.7,0.3-1,1-1,2c0,0.8,0.3,1.5,0.8,2c0.5,0.5,1.2,0.8,2.2,0.8
			c0.7,0,1.8-0.1,3.3-0.2l8-0.6c0.4,0,0.7-0.1,1-0.1c0,0.3-0.1,0.6-0.1,0.9L48.1,80C48,80.7,48,81.5,48,82.3c0,1.3,0.2,2.3,0.5,3
			c0.3,0.7,1,1,1.9,1c0.8,0,1.4-0.3,1.9-0.8c0.5-0.5,0.7-1.3,0.7-2.2c0-0.7,0-1.9-0.2-3.5l-0.5-8.3c0-0.4-0.1-0.7-0.1-1
			c0.3,0,0.5,0.1,0.8,0.1l8.2,0.7c0.8,0.1,1.5,0.1,2.2,0.1c1.2,0,2.2-0.2,2.9-0.5c0.7-0.3,1-1,1-2C67.3,68.1,67,67.4,66.5,66.9
			L66.5,66.9z"/>
	</g>
	<g>
		<path class="st3" d="M66.5,66.9c-0.5-0.5-1.2-0.8-2.2-0.8c-0.7,0-1.8,0.1-3.3,0.2l-8,0.6c-0.3,0-0.7,0.1-1,0.1
			c0-0.2,0.1-0.5,0.1-0.8l0.7-8.6c0.1-0.8,0.1-1.6,0.1-2.3c0-1.3-0.2-2.3-0.5-3c-0.3-0.7-1-1-1.9-1c-0.8,0-1.4,0.3-1.9,0.8
			c-0.5,0.5-0.7,1.3-0.7,2.2c0,0.7,0,1.9,0.1,3.5l0.5,8.3c0,0.4,0.1,0.7,0.1,1c-0.3,0-0.6-0.1-0.9-0.1l-8.2-0.7
			c-0.8-0.1-1.5-0.1-2.2-0.1c-1.2,0-2.2,0.2-2.9,0.5c-0.7,0.3-1,1-1,2c0,0.8,0.3,1.5,0.8,2c0.5,0.5,1.2,0.8,2.2,0.8
			c0.7,0,1.8-0.1,3.3-0.2l8-0.6c0.4,0,0.7-0.1,1-0.1c0,0.3-0.1,0.6-0.1,0.9L48.1,80C48,80.7,48,81.5,48,82.3c0,1.3,0.2,2.3,0.5,3
			c0.3,0.7,1,1,1.9,1c0.8,0,1.4-0.3,1.9-0.8c0.5-0.5,0.7-1.3,0.7-2.2c0-0.7,0-1.9-0.2-3.5l-0.5-8.3c0-0.4-0.1-0.7-0.1-1
			c0.3,0,0.5,0.1,0.8,0.1l8.2,0.7c0.8,0.1,1.5,0.1,2.2,0.1c1.2,0,2.2-0.2,2.9-0.5c0.7-0.3,1-1,1-2C67.3,68.1,67,67.4,66.5,66.9
			L66.5,66.9z"/>
	</g>
	<g>
		<path class="st3" d="M67.4,54.4c-0.2-0.2-0.5-0.3-0.8-0.3c-0.2,0-0.7,0-1.2,0.1l-2.9,0.2c-0.1,0-0.2,0-0.4,0c0-0.1,0-0.2,0-0.3
			l0.3-3c0-0.3,0-0.6,0-0.8c0-0.5-0.1-0.8-0.2-1.1c-0.1-0.2-0.4-0.4-0.7-0.4c-0.3,0-0.5,0.1-0.7,0.3c-0.2,0.2-0.3,0.5-0.3,0.8
			c0,0.2,0,0.7,0.1,1.2l0.2,2.9c0,0.1,0,0.2,0,0.3c-0.1,0-0.2,0-0.3,0l-3-0.3c-0.3,0-0.6,0-0.8,0c-0.5,0-0.8,0.1-1.1,0.2
			c-0.2,0.1-0.4,0.4-0.4,0.7c0,0.3,0.1,0.5,0.3,0.7c0.2,0.2,0.5,0.3,0.8,0.3c0.3,0,0.7,0,1.2-0.1l2.9-0.2c0.1,0,0.3,0,0.4,0
			c0,0.1,0,0.2,0,0.3l-0.3,3c0,0.3,0,0.6,0,0.8c0,0.5,0.1,0.8,0.2,1.1c0.1,0.2,0.4,0.4,0.7,0.4c0.3,0,0.5-0.1,0.7-0.3
			c0.2-0.2,0.3-0.5,0.3-0.8c0-0.3,0-0.7-0.1-1.2L62.2,56c0-0.1,0-0.3,0-0.4c0.1,0,0.2,0,0.3,0l3,0.3c0.3,0,0.6,0,0.8,0
			c0.5,0,0.8-0.1,1.1-0.2c0.2-0.1,0.4-0.4,0.4-0.7C67.7,54.8,67.6,54.5,67.4,54.4L67.4,54.4z"/>
	</g>
	<g>
		<path class="st3" d="M53.8,43.2c-0.2-0.2-0.5-0.3-0.8-0.3c-0.3,0-0.7,0-1.2,0.1l-2.9,0.2c-0.1,0-0.2,0-0.4,0c0-0.1,0-0.2,0-0.3
			l0.3-3c0-0.3,0-0.6,0-0.8c0-0.5-0.1-0.8-0.2-1.1c-0.1-0.2-0.4-0.4-0.7-0.4c-0.3,0-0.5,0.1-0.7,0.3c-0.2,0.2-0.3,0.5-0.3,0.8
			c0,0.3,0,0.7,0.1,1.2l0.2,2.9c0,0.1,0,0.2,0,0.3c-0.1,0-0.2,0-0.3,0l-3-0.3c-0.3,0-0.6,0-0.8,0c-0.5,0-0.8,0.1-1.1,0.2
			c-0.2,0.1-0.4,0.4-0.4,0.7c0,0.3,0.1,0.5,0.3,0.7c0.2,0.2,0.5,0.3,0.8,0.3c0.3,0,0.7,0,1.2-0.1l2.9-0.2c0.1,0,0.3,0,0.4-0.1
			c0,0.1,0,0.2,0,0.3l-0.3,3c0,0.3,0,0.6,0,0.8c0,0.5,0.1,0.8,0.2,1.1c0.1,0.2,0.4,0.4,0.7,0.4c0.3,0,0.5-0.1,0.7-0.3
			c0.2-0.2,0.3-0.5,0.3-0.8c0-0.2,0-0.7-0.1-1.2l-0.2-2.9c0-0.1,0-0.3,0-0.4c0.1,0,0.2,0,0.3,0l3,0.3c0.3,0,0.6,0,0.8,0
			c0.5,0,0.8-0.1,1.1-0.2c0.2-0.1,0.4-0.4,0.4-0.7C54.1,43.6,54,43.4,53.8,43.2L53.8,43.2z"/>
	</g>
	<g>
		<path class="st3" d="M41.6,46.3c-0.2-0.2-0.5-0.3-0.8-0.3c-0.3,0-0.7,0-1.2,0.1l-2.9,0.2c-0.1,0-0.2,0-0.4,0c0-0.1,0-0.2,0-0.3
			l0.3-3c0-0.3,0-0.6,0-0.8c0-0.5-0.1-0.8-0.2-1.1c-0.1-0.2-0.4-0.4-0.7-0.4c-0.3,0-0.5,0.1-0.7,0.3c-0.2,0.2-0.3,0.5-0.3,0.8
			c0,0.2,0,0.7,0.1,1.2l0.2,2.9c0,0.1,0,0.2,0,0.3c-0.1,0-0.2,0-0.3,0l-3-0.3c-0.3,0-0.6,0-0.8,0c-0.5,0-0.8,0.1-1.1,0.2
			c-0.2,0.1-0.4,0.4-0.4,0.7c0,0.3,0.1,0.5,0.3,0.7c0.2,0.2,0.5,0.3,0.8,0.3c0.2,0,0.7,0,1.2-0.1l2.9-0.2c0.1,0,0.3,0,0.4-0.1
			c0,0.1,0,0.2,0,0.3l-0.3,3c0,0.3,0,0.6,0,0.8c0,0.5,0.1,0.8,0.2,1c0.1,0.2,0.4,0.4,0.7,0.4c0.3,0,0.5-0.1,0.7-0.3
			c0.2-0.2,0.3-0.5,0.3-0.8c0-0.3,0-0.7-0.1-1.2L36.3,48c0-0.1,0-0.3,0-0.4c0.1,0,0.2,0,0.3,0l3,0.3c0.3,0,0.6,0,0.8,0
			c0.5,0,0.8-0.1,1.1-0.2c0.2-0.1,0.4-0.4,0.4-0.7C41.9,46.8,41.8,46.5,41.6,46.3L41.6,46.3z"/>
	</g>
	<g>
		<path class="st3" d="M40.7,59.3C40.5,59.1,40.3,59,40,59c-0.2,0-0.6,0-1.1,0l-2.5,0.2c-0.1,0-0.2,0-0.3,0c0-0.1,0-0.2,0-0.2
			l0.2-2.6c0-0.2,0-0.5,0-0.7c0-0.4-0.1-0.7-0.2-0.9c-0.1-0.2-0.3-0.3-0.6-0.3c-0.2,0-0.5,0.1-0.6,0.2c-0.2,0.2-0.2,0.4-0.2,0.7
			c0,0.2,0,0.6,0,1.1L35,59c0,0.1,0,0.2,0,0.3c-0.1,0-0.2,0-0.3,0l-2.6-0.2c-0.2,0-0.5,0-0.7,0c-0.4,0-0.7,0.1-0.9,0.2
			c-0.2,0.1-0.3,0.3-0.3,0.6c0,0.3,0.1,0.5,0.2,0.6c0.2,0.2,0.4,0.2,0.7,0.2c0.2,0,0.6,0,1.1,0l2.5-0.2c0.1,0,0.2,0,0.3,0
			c0,0.1,0,0.2,0,0.3l-0.2,2.6c0,0.2,0,0.5,0,0.7c0,0.4,0.1,0.7,0.2,0.9c0.1,0.2,0.3,0.3,0.6,0.3c0.3,0,0.5-0.1,0.6-0.2
			c0.2-0.2,0.2-0.4,0.2-0.7c0-0.2,0-0.6,0-1.1l-0.2-2.5c0-0.1,0-0.2,0-0.3c0.1,0,0.2,0,0.3,0l2.6,0.2c0.2,0,0.5,0,0.7,0
			c0.4,0,0.7,0,0.9-0.2c0.2-0.1,0.3-0.3,0.3-0.6C40.9,59.6,40.8,59.4,40.7,59.3L40.7,59.3z"/>
	</g>
	<g>
		<path class="st3" d="M60.8,35.1c-0.2-0.2-0.5-0.3-0.8-0.3c-0.2,0-0.7,0-1.2,0.1l-2.9,0.2c-0.1,0-0.2,0-0.4,0c0-0.1,0-0.2,0-0.3
			l0.3-3c0-0.3,0-0.6,0-0.8c0-0.5-0.1-0.8-0.2-1.1c-0.1-0.2-0.4-0.4-0.7-0.4c-0.3,0-0.5,0.1-0.7,0.3c-0.2,0.2-0.3,0.5-0.3,0.8
			c0,0.3,0,0.7,0.1,1.2l0.2,2.9c0,0.1,0,0.2,0,0.3c-0.1,0-0.2,0-0.3,0l-3-0.3c-0.3,0-0.6,0-0.8,0c-0.5,0-0.8,0.1-1.1,0.2
			c-0.2,0.1-0.4,0.4-0.4,0.7c0,0.3,0.1,0.5,0.3,0.7c0.2,0.2,0.5,0.3,0.8,0.3c0.2,0,0.7,0,1.2-0.1l2.9-0.2c0.1,0,0.3,0,0.4-0.1
			c0,0.1,0,0.2,0,0.3l-0.3,3c0,0.3,0,0.6,0,0.8c0,0.5,0.1,0.8,0.2,1.1c0.1,0.2,0.4,0.4,0.7,0.4c0.3,0,0.5-0.1,0.7-0.3
			c0.2-0.2,0.3-0.5,0.3-0.8c0-0.3,0-0.7-0.1-1.2l-0.2-2.9c0-0.1,0-0.3,0-0.4c0.1,0,0.2,0,0.3,0l3,0.3c0.3,0,0.5,0,0.8,0
			c0.5,0,0.8-0.1,1.1-0.2c0.2-0.1,0.4-0.4,0.4-0.7C61.1,35.5,61,35.3,60.8,35.1L60.8,35.1z"/>
	</g>
	<g>
		<path class="st3" d="M82.2,56.6c-0.2-0.2-0.5-0.3-0.8-0.3c-0.2,0-0.7,0-1.2,0.1l-2.9,0.2c-0.1,0-0.2,0-0.4,0c0-0.1,0-0.2,0-0.3
			l0.3-3c0-0.3,0-0.6,0-0.8c0-0.5-0.1-0.8-0.2-1.1c-0.1-0.2-0.4-0.4-0.7-0.4c-0.3,0-0.5,0.1-0.7,0.3c-0.2,0.2-0.3,0.5-0.3,0.8
			c0,0.2,0,0.7,0.1,1.2l0.2,2.9c0,0.1,0,0.2,0,0.3c-0.1,0-0.2,0-0.3,0l-3-0.3c-0.3,0-0.6,0-0.8,0c-0.5,0-0.8,0.1-1.1,0.2
			c-0.2,0.1-0.4,0.4-0.4,0.7c0,0.3,0.1,0.5,0.3,0.7c0.2,0.2,0.5,0.3,0.8,0.3c0.3,0,0.7,0,1.2-0.1l2.9-0.2c0.1,0,0.3,0,0.4-0.1
			c0,0.1,0,0.2,0,0.3l-0.3,3c0,0.3,0,0.6,0,0.8c0,0.5,0.1,0.8,0.2,1.1c0.1,0.2,0.4,0.4,0.7,0.4c0.3,0,0.5-0.1,0.7-0.3
			c0.2-0.2,0.3-0.5,0.3-0.8c0-0.3,0-0.7-0.1-1.2L77,58.2c0-0.1,0-0.3,0-0.4c0.1,0,0.2,0,0.3,0l3,0.3c0.3,0,0.5,0,0.8,0
			c0.5,0,0.8-0.1,1.1-0.2c0.2-0.1,0.4-0.4,0.4-0.7C82.5,57,82.4,56.8,82.2,56.6L82.2,56.6z"/>
	</g>
	<g>
		<path class="st3" d="M70.8,61.2c-0.1-0.1-0.3-0.1-0.4-0.1c-0.1,0-0.4,0-0.7,0L68,61.2c-0.1,0-0.1,0-0.2,0c0-0.1,0-0.1,0-0.2
			l0.1-1.7c0-0.2,0-0.3,0-0.5c0-0.3,0-0.4-0.1-0.6c-0.1-0.1-0.2-0.2-0.4-0.2c-0.2,0-0.3,0.1-0.4,0.2C67,58.4,67,58.6,67,58.8
			c0,0.1,0,0.4,0,0.7l0.1,1.6c0,0.1,0,0.1,0,0.2c-0.1,0-0.1,0-0.2,0l-1.7-0.1c-0.2,0-0.3,0-0.5,0c-0.3,0-0.4,0-0.6,0.1
			c-0.1,0.1-0.2,0.2-0.2,0.4c0,0.2,0.1,0.3,0.2,0.4c0.1,0.1,0.3,0.1,0.4,0.1c0.1,0,0.4,0,0.7,0l1.6-0.1c0.1,0,0.1,0,0.2,0
			c0,0.1,0,0.1,0,0.2L67,63.8c0,0.2,0,0.3,0,0.5c0,0.3,0,0.4,0.1,0.6c0.1,0.1,0.2,0.2,0.4,0.2c0.2,0,0.3-0.1,0.4-0.2
			c0.1-0.1,0.1-0.3,0.1-0.4c0-0.1,0-0.4,0-0.7l-0.1-1.6c0-0.1,0-0.1,0-0.2c0.1,0,0.1,0,0.2,0l1.7,0.1c0.2,0,0.3,0,0.5,0
			c0.3,0,0.4,0,0.6-0.1c0.1-0.1,0.2-0.2,0.2-0.4C70.9,61.5,70.9,61.3,70.8,61.2L70.8,61.2z"/>
	</g>
	<g>
		<path class="st3" d="M76.2,65.2c-0.1-0.1-0.3-0.1-0.4-0.1c-0.1,0-0.4,0-0.7,0l-1.6,0.1c-0.1,0-0.1,0-0.2,0c0,0,0-0.1,0-0.2
			l0.1-1.7c0-0.2,0-0.3,0-0.5c0-0.3,0-0.4-0.1-0.6c-0.1-0.1-0.2-0.2-0.4-0.2c-0.2,0-0.3,0.1-0.4,0.2c-0.1,0.1-0.1,0.3-0.1,0.4
			c0,0.1,0,0.4,0,0.7l0.1,1.6c0,0.1,0,0.1,0,0.2c-0.1,0-0.1,0-0.2,0l-1.7-0.1c-0.2,0-0.3,0-0.5,0c-0.3,0-0.4,0-0.6,0.1
			c-0.1,0.1-0.2,0.2-0.2,0.4c0,0.2,0.1,0.3,0.2,0.4c0.1,0.1,0.3,0.1,0.4,0.1c0.1,0,0.4,0,0.7,0l1.6-0.1c0.1,0,0.1,0,0.2,0
			c0,0.1,0,0.1,0,0.2l-0.1,1.7c0,0.2,0,0.3,0,0.5c0,0.3,0,0.4,0.1,0.6c0.1,0.1,0.2,0.2,0.4,0.2c0.2,0,0.3-0.1,0.4-0.2
			c0.1-0.1,0.1-0.3,0.1-0.4c0-0.1,0-0.4,0-0.7l-0.1-1.6c0-0.1,0-0.1,0-0.2c0.1,0,0.1,0,0.2,0l1.7,0.1c0.2,0,0.3,0,0.5,0
			c0.3,0,0.5,0,0.6-0.1c0.1-0.1,0.2-0.2,0.2-0.4C76.3,65.4,76.3,65.3,76.2,65.2L76.2,65.2z"/>
	</g>
	<g>
		<path class="st3" d="M84.7,63.7c-0.1-0.1-0.3-0.1-0.4-0.1c-0.1,0-0.4,0-0.7,0l-1.6,0.1c-0.1,0-0.1,0-0.2,0c0,0,0-0.1,0-0.2
			l0.1-1.7c0-0.2,0-0.3,0-0.5c0-0.3,0-0.4-0.1-0.6c-0.1-0.1-0.2-0.2-0.4-0.2c-0.2,0-0.3,0.1-0.4,0.2c-0.1,0.1-0.1,0.3-0.1,0.4
			c0,0.1,0,0.4,0,0.7l0.1,1.6c0,0.1,0,0.1,0,0.2c-0.1,0-0.1,0-0.2,0l-1.7-0.1c-0.2,0-0.3,0-0.5,0c-0.3,0-0.4,0-0.6,0.1
			c-0.1,0.1-0.2,0.2-0.2,0.4c0,0.2,0.1,0.3,0.2,0.4c0.1,0.1,0.3,0.1,0.4,0.1c0.1,0,0.4,0,0.7,0l1.6-0.1c0.1,0,0.1,0,0.2,0
			c0,0.1,0,0.1,0,0.2l-0.1,1.7c0,0.2,0,0.3,0,0.5c0,0.3,0,0.5,0.1,0.6c0.1,0.1,0.2,0.2,0.4,0.2c0.2,0,0.3-0.1,0.4-0.2
			c0.1-0.1,0.1-0.3,0.1-0.4c0-0.1,0-0.4,0-0.7l-0.1-1.6c0-0.1,0-0.1,0-0.2c0.1,0,0.1,0,0.2,0l1.7,0.1c0.2,0,0.3,0,0.5,0
			c0.3,0,0.4,0,0.6-0.1c0.1-0.1,0.2-0.2,0.2-0.4C84.8,64,84.8,63.8,84.7,63.7L84.7,63.7z"/>
	</g>
	<g>
		<path class="st3" d="M59.3,47.9c-0.1-0.1-0.3-0.1-0.4-0.1c-0.1,0-0.4,0-0.7,0l-1.6,0.1c-0.1,0-0.1,0-0.2,0c0-0.1,0-0.1,0-0.2
			l0.1-1.7c0-0.2,0-0.3,0-0.5c0-0.3,0-0.4-0.1-0.6c-0.1-0.1-0.2-0.2-0.4-0.2c-0.2,0-0.3,0.1-0.4,0.2c-0.1,0.1-0.1,0.3-0.1,0.4
			c0,0.1,0,0.4,0,0.7l0.1,1.6c0,0.1,0,0.1,0,0.2c-0.1,0-0.1,0-0.2,0l-1.7-0.1c-0.2,0-0.3,0-0.5,0c-0.3,0-0.4,0-0.6,0.1
			c-0.1,0.1-0.2,0.2-0.2,0.4c0,0.2,0.1,0.3,0.2,0.4c0.1,0.1,0.3,0.1,0.4,0.1c0.1,0,0.4,0,0.7,0l1.6-0.1c0.1,0,0.1,0,0.2,0
			c0,0.1,0,0.1,0,0.2l-0.1,1.7c0,0.2,0,0.3,0,0.5c0,0.3,0,0.4,0.1,0.6c0.1,0.1,0.2,0.2,0.4,0.2c0.2,0,0.3-0.1,0.4-0.2
			c0.1-0.1,0.1-0.3,0.1-0.4c0-0.1,0-0.4,0-0.7l-0.1-1.6c0-0.1,0-0.1,0-0.2c0.1,0,0.1,0,0.2,0l1.7,0.1c0.2,0,0.3,0,0.5,0
			c0.3,0,0.5,0,0.6-0.1c0.1-0.1,0.2-0.2,0.2-0.4C59.5,48.1,59.5,48,59.3,47.9L59.3,47.9z"/>
	</g>
	<g>
		<path class="st3" d="M80.1,45.7c-0.1-0.1-0.3-0.2-0.4-0.2c-0.1,0-0.4,0-0.7,0l-1.6,0.1c-0.1,0-0.1,0-0.2,0c0-0.1,0-0.1,0-0.2
			l0.1-1.7c0-0.2,0-0.3,0-0.5c0-0.3,0-0.4-0.1-0.6c-0.1-0.1-0.2-0.2-0.4-0.2c-0.2,0-0.3,0.1-0.4,0.2c-0.1,0.1-0.1,0.3-0.1,0.4
			c0,0.1,0,0.4,0,0.7l0.1,1.6c0,0.1,0,0.1,0,0.2c-0.1,0-0.1,0-0.2,0l-1.7-0.1c-0.2,0-0.3,0-0.5,0c-0.3,0-0.5,0-0.6,0.1
			c-0.1,0.1-0.2,0.2-0.2,0.4c0,0.2,0.1,0.3,0.2,0.4c0.1,0.1,0.3,0.2,0.4,0.2c0.1,0,0.4,0,0.7,0l1.6-0.1c0.1,0,0.1,0,0.2,0
			c0,0.1,0,0.1,0,0.2l-0.1,1.7c0,0.2,0,0.3,0,0.5c0,0.3,0,0.4,0.1,0.6c0.1,0.1,0.2,0.2,0.4,0.2c0.2,0,0.3-0.1,0.4-0.2
			c0.1-0.1,0.1-0.3,0.1-0.4c0-0.1,0-0.4,0-0.7l-0.1-1.6c0-0.1,0-0.1,0-0.2c0.1,0,0.1,0,0.2,0l1.7,0.1c0.2,0,0.3,0,0.5,0
			c0.3,0,0.4,0,0.6-0.1c0.1-0.1,0.2-0.2,0.2-0.4C80.2,46,80.2,45.8,80.1,45.7L80.1,45.7z"/>
	</g>
	<g>
		<path class="st3" d="M69.8,37.1c-0.1-0.1-0.3-0.2-0.4-0.2c-0.1,0-0.4,0-0.7,0L67,37.1c-0.1,0-0.1,0-0.2,0c0-0.1,0-0.1,0-0.2
			l0.1-1.7c0-0.2,0-0.3,0-0.5c0-0.3,0-0.4-0.1-0.6c-0.1-0.1-0.2-0.2-0.4-0.2c-0.2,0-0.3,0.1-0.4,0.2C66,34.3,66,34.4,66,34.6
			c0,0.1,0,0.4,0,0.7l0.1,1.6c0,0.1,0,0.1,0,0.2c-0.1,0-0.1,0-0.2,0l-1.7-0.1c-0.2,0-0.3,0-0.5,0c-0.3,0-0.4,0-0.6,0.1
			c-0.1,0.1-0.2,0.2-0.2,0.4c0,0.2,0.1,0.3,0.2,0.4c0.1,0.1,0.3,0.1,0.4,0.1c0.1,0,0.4,0,0.7,0l1.6-0.1c0.1,0,0.1,0,0.2,0
			c0,0.1,0,0.1,0,0.2L66,39.6c0,0.2,0,0.3,0,0.5c0,0.3,0,0.5,0.1,0.6c0.1,0.1,0.2,0.2,0.4,0.2c0.2,0,0.3-0.1,0.4-0.2
			c0.1-0.1,0.1-0.3,0.1-0.4c0-0.1,0-0.4,0-0.7L66.9,38c0-0.1,0-0.1,0-0.2c0.1,0,0.1,0,0.2,0l1.7,0.1c0.2,0,0.3,0,0.5,0
			c0.3,0,0.4,0,0.6-0.1c0.1-0.1,0.2-0.2,0.2-0.4C69.9,37.3,69.9,37.2,69.8,37.1L69.8,37.1z"/>
	</g>
	<g>
		<path class="st3" d="M44,51.9c-0.1-0.1-0.3-0.1-0.4-0.1c-0.1,0-0.4,0-0.7,0l-1.6,0.1c-0.1,0-0.1,0-0.2,0c0,0,0-0.1,0-0.2l0.1-1.7
			c0-0.2,0-0.3,0-0.5c0-0.3,0-0.4-0.1-0.6c-0.1-0.1-0.2-0.2-0.4-0.2c-0.2,0-0.3,0.1-0.4,0.2c-0.1,0.1-0.1,0.3-0.1,0.4
			c0,0.1,0,0.4,0,0.7l0.1,1.6c0,0.1,0,0.1,0,0.2c-0.1,0-0.1,0-0.2,0l-1.7-0.1c-0.2,0-0.3,0-0.5,0c-0.3,0-0.4,0-0.6,0.1
			c-0.1,0.1-0.2,0.2-0.2,0.4c0,0.2,0.1,0.3,0.2,0.4c0.1,0.1,0.3,0.1,0.4,0.1c0.1,0,0.4,0,0.7,0l1.6-0.1c0.1,0,0.1,0,0.2,0
			c0,0.1,0,0.1,0,0.2l-0.1,1.7c0,0.2,0,0.3,0,0.5c0,0.3,0,0.5,0.1,0.6c0.1,0.1,0.2,0.2,0.4,0.2c0.2,0,0.3-0.1,0.4-0.2
			c0.1-0.1,0.1-0.3,0.1-0.4c0-0.1,0-0.4,0-0.7l-0.1-1.6c0-0.1,0-0.1,0-0.2c0.1,0,0.1,0,0.2,0l1.7,0.1c0.2,0,0.3,0,0.5,0
			c0.3,0,0.4,0,0.6-0.1c0.1-0.1,0.2-0.2,0.2-0.4C44.1,52.1,44.1,52,44,51.9L44,51.9z"/>
	</g>
	<g>
		<path class="st3" d="M47.3,57.4c-0.1-0.1-0.3-0.1-0.4-0.1c-0.1,0-0.4,0-0.7,0l-1.6,0.1c-0.1,0-0.1,0-0.2,0c0,0,0-0.1,0-0.2
			l0.1-1.7c0-0.2,0-0.3,0-0.5c0-0.3,0-0.4-0.1-0.6c-0.1-0.1-0.2-0.2-0.4-0.2c-0.2,0-0.3,0.1-0.4,0.2c-0.1,0.1-0.1,0.3-0.1,0.4
			c0,0.1,0,0.4,0,0.7l0.1,1.6c0,0.1,0,0.1,0,0.2c-0.1,0-0.1,0-0.2,0l-1.7-0.1c-0.2,0-0.3,0-0.5,0c-0.3,0-0.4,0-0.6,0.1
			c-0.1,0.1-0.2,0.2-0.2,0.4c0,0.2,0.1,0.3,0.2,0.4c0.1,0.1,0.3,0.1,0.4,0.1c0.1,0,0.4,0,0.7,0l1.6-0.1c0.1,0,0.1,0,0.2,0
			c0,0.1,0,0.1,0,0.2l-0.1,1.7c0,0.2,0,0.3,0,0.5c0,0.3,0,0.4,0.1,0.6c0.1,0.1,0.2,0.2,0.4,0.2c0.2,0,0.3-0.1,0.4-0.2
			c0.1-0.1,0.1-0.3,0.1-0.4c0-0.1,0-0.4,0-0.7l-0.1-1.6c0-0.1,0-0.1,0-0.2c0,0,0.1,0,0.2,0l1.7,0.1c0.2,0,0.3,0,0.5,0
			c0.3,0,0.4,0,0.6-0.1c0.1-0.1,0.2-0.2,0.2-0.4C47.4,57.6,47.4,57.5,47.3,57.4L47.3,57.4z"/>
	</g>
	<g>
		<path class="st3" d="M66.6,31.4c-0.1-0.1-0.3-0.1-0.4-0.1c-0.1,0-0.4,0-0.7,0l-1.6,0.1c-0.1,0-0.1,0-0.2,0c0,0,0-0.1,0-0.2
			l0.2-1.7c0-0.2,0-0.3,0-0.5c0-0.3,0-0.4-0.1-0.6c-0.1-0.1-0.2-0.2-0.4-0.2c-0.2,0-0.3,0.1-0.4,0.2c-0.1,0.1-0.1,0.3-0.1,0.4
			c0,0.1,0,0.4,0,0.7l0.1,1.6c0,0.1,0,0.1,0,0.2c-0.1,0-0.1,0-0.2,0l-1.7-0.1c-0.2,0-0.3,0-0.5,0c-0.3,0-0.4,0-0.6,0.1
			c-0.1,0.1-0.2,0.2-0.2,0.4c0,0.2,0.1,0.3,0.2,0.4c0.1,0.1,0.3,0.1,0.4,0.1c0.1,0,0.4,0,0.7,0l1.6-0.1c0.1,0,0.1,0,0.2,0
			c0,0.1,0,0.1,0,0.2l-0.1,1.7c0,0.2,0,0.3,0,0.5c0,0.3,0,0.4,0.1,0.6c0.1,0.1,0.2,0.2,0.4,0.2c0.2,0,0.3-0.1,0.4-0.2
			c0.1-0.1,0.1-0.3,0.1-0.4c0-0.1,0-0.4,0-0.7l-0.1-1.6c0-0.1,0-0.1,0-0.2c0.1,0,0.1,0,0.2,0l1.7,0.1c0.2,0,0.3,0,0.5,0
			c0.3,0,0.4,0,0.6-0.1c0.1-0.1,0.2-0.2,0.2-0.4C66.7,31.6,66.7,31.4,66.6,31.4L66.6,31.4z"/>
	</g>
	<g>
		<path class="st3" d="M74.3,50.4c-0.1-0.1-0.3-0.1-0.4-0.1c-0.1,0-0.4,0-0.7,0l-1.6,0.1c-0.1,0-0.1,0-0.2,0c0,0,0-0.1,0-0.2
			l0.1-1.7c0-0.2,0-0.3,0-0.5c0-0.3,0-0.4-0.1-0.6c-0.1-0.1-0.2-0.2-0.4-0.2c-0.2,0-0.3,0.1-0.4,0.2c-0.1,0.1-0.1,0.3-0.1,0.4
			c0,0.1,0,0.4,0,0.7l0.1,1.6c0,0.1,0,0.1,0,0.2c-0.1,0-0.1,0-0.2,0l-1.7-0.1c-0.2,0-0.3,0-0.5,0c-0.3,0-0.4,0-0.6,0.1
			c-0.1,0.1-0.2,0.2-0.2,0.4c0,0.2,0.1,0.3,0.2,0.4c0.1,0.1,0.3,0.1,0.4,0.1c0.1,0,0.4,0,0.7,0l1.6-0.1c0.1,0,0.1,0,0.2,0
			c0,0.1,0,0.1,0,0.2L70.6,53c0,0.2,0,0.3,0,0.5c0,0.3,0,0.5,0.1,0.6c0.1,0.1,0.2,0.2,0.4,0.2c0.2,0,0.3-0.1,0.4-0.2
			c0.1-0.1,0.1-0.3,0.1-0.4c0-0.1,0-0.4,0-0.7l-0.1-1.6c0-0.1,0-0.1,0-0.2c0.1,0,0.1,0,0.2,0l1.7,0.1c0.2,0,0.3,0,0.5,0
			c0.3,0,0.4,0,0.6-0.1c0.1-0.1,0.2-0.2,0.2-0.4C74.5,50.6,74.4,50.5,74.3,50.4L74.3,50.4z"/>
	</g>
	<g>
		<path class="st3" d="M53.9,27.5c-0.1-0.1-0.3-0.1-0.4-0.1c-0.1,0-0.4,0-0.7,0l-1.6,0.1c-0.1,0-0.1,0-0.2,0c0-0.1,0-0.1,0-0.2
			l0.2-1.7c0-0.2,0-0.3,0-0.5c0-0.3,0-0.4-0.1-0.6c-0.1-0.1-0.2-0.2-0.4-0.2c-0.2,0-0.3,0.1-0.4,0.2c-0.1,0.1-0.1,0.3-0.1,0.4
			c0,0.1,0,0.4,0,0.7l0.1,1.6c0,0.1,0,0.1,0,0.2c-0.1,0-0.1,0-0.2,0l-1.7-0.1c-0.2,0-0.3,0-0.5,0c-0.3,0-0.4,0-0.6,0.1
			c-0.1,0.1-0.2,0.2-0.2,0.4c0,0.2,0.1,0.3,0.2,0.4c0.1,0.1,0.3,0.1,0.4,0.1c0.1,0,0.4,0,0.7,0l1.6-0.1c0.1,0,0.1,0,0.2,0
			c0,0.1,0,0.1,0,0.2l-0.1,1.7c0,0.2,0,0.3,0,0.5c0,0.3,0,0.4,0.1,0.6c0.1,0.1,0.2,0.2,0.4,0.2c0.2,0,0.3-0.1,0.4-0.2
			c0.1-0.1,0.1-0.3,0.1-0.4c0-0.1,0-0.4,0-0.7L51,28.4c0-0.1,0-0.1,0-0.2c0.1,0,0.1,0,0.2,0l1.7,0.1c0.2,0,0.3,0,0.5,0
			c0.3,0,0.4,0,0.6-0.1c0.1-0.1,0.2-0.2,0.2-0.4C54.1,27.8,54,27.6,53.9,27.5L53.9,27.5z"/>
	</g>
	<g>
		<path class="st3" d="M48.6,33.4c-0.1-0.1-0.3-0.1-0.4-0.1c-0.1,0-0.4,0-0.7,0l-1.6,0.1c-0.1,0-0.1,0-0.2,0c0,0,0-0.1,0-0.2
			l0.1-1.7c0-0.2,0-0.3,0-0.5c0-0.3,0-0.4-0.1-0.6c-0.1-0.1-0.2-0.2-0.4-0.2c-0.2,0-0.3,0.1-0.4,0.2c-0.1,0.1-0.1,0.3-0.1,0.4
			c0,0.1,0,0.4,0,0.7l0.1,1.6c0,0.1,0,0.1,0,0.2c-0.1,0-0.1,0-0.2,0l-1.7-0.1c-0.2,0-0.3,0-0.5,0c-0.3,0-0.4,0-0.6,0.1
			c-0.1,0.1-0.2,0.2-0.2,0.4c0,0.2,0.1,0.3,0.2,0.4c0.1,0.1,0.3,0.2,0.4,0.2c0.1,0,0.4,0,0.7,0l1.6-0.1c0.1,0,0.1,0,0.2,0
			c0,0.1,0,0.1,0,0.2L44.8,36c0,0.2,0,0.3,0,0.5c0,0.3,0,0.5,0.1,0.6c0.1,0.1,0.2,0.2,0.4,0.2c0.2,0,0.3-0.1,0.4-0.2
			c0.1-0.1,0.1-0.3,0.1-0.4c0-0.1,0-0.4,0-0.7l-0.1-1.6c0-0.1,0-0.1,0-0.2c0.1,0,0.1,0,0.2,0l1.7,0.1c0.2,0,0.3,0,0.5,0
			c0.3,0,0.4,0,0.6-0.1c0.1-0.1,0.2-0.2,0.2-0.4C48.7,33.6,48.7,33.5,48.6,33.4L48.6,33.4z"/>
	</g>
	<g>
		<path class="st3" d="M44.3,38.9c-0.1-0.1-0.3-0.1-0.4-0.1c-0.1,0-0.4,0-0.7,0l-1.6,0.1c-0.1,0-0.1,0-0.2,0c0-0.1,0-0.1,0-0.2
			l0.1-1.7c0-0.2,0-0.3,0-0.5c0-0.3,0-0.5-0.1-0.6c-0.1-0.1-0.2-0.2-0.4-0.2c-0.2,0-0.3,0.1-0.4,0.2c-0.1,0.1-0.1,0.3-0.1,0.4
			c0,0.1,0,0.4,0,0.7l0.1,1.6c0,0.1,0,0.1,0,0.2c-0.1,0-0.1,0-0.2,0l-1.7-0.1c-0.2,0-0.3,0-0.5,0c-0.3,0-0.4,0-0.6,0.1
			c-0.1,0.1-0.2,0.2-0.2,0.4c0,0.2,0.1,0.3,0.2,0.4c0.1,0.1,0.3,0.2,0.4,0.2c0.1,0,0.4,0,0.7,0l1.6-0.1c0.1,0,0.1,0,0.2,0
			c0,0.1,0,0.1,0,0.2l-0.1,1.7c0,0.2,0,0.3,0,0.5c0,0.3,0,0.4,0.1,0.6c0.1,0.1,0.2,0.2,0.4,0.2c0.2,0,0.3-0.1,0.4-0.2
			c0.1-0.1,0.1-0.3,0.1-0.4c0-0.1,0-0.4,0-0.7l-0.1-1.6c0-0.1,0-0.1,0-0.2c0.1,0,0.1,0,0.2,0l1.7,0.1c0.2,0,0.3,0,0.5,0
			c0.3,0,0.4,0,0.6-0.1c0.1-0.1,0.2-0.2,0.2-0.4C44.5,39.2,44.5,39,44.3,38.9L44.3,38.9z"/>
	</g>
	<g>
		<path class="st3" d="M29.6,49.1C29.5,49,29.3,49,29.2,49c-0.1,0-0.4,0-0.7,0l-1.6,0.1c-0.1,0-0.1,0-0.2,0c0-0.1,0-0.1,0-0.2
			l0.1-1.7c0-0.2,0-0.3,0-0.5c0-0.3,0-0.4-0.1-0.6c-0.1-0.1-0.2-0.2-0.4-0.2c-0.2,0-0.3,0.1-0.4,0.2c-0.1,0.1-0.1,0.3-0.1,0.4
			c0,0.1,0,0.4,0,0.7l0.1,1.6c0,0.1,0,0.1,0,0.2c-0.1,0-0.1,0-0.2,0L24.1,49c-0.2,0-0.3,0-0.5,0c-0.3,0-0.4,0-0.6,0.1
			c-0.1,0.1-0.2,0.2-0.2,0.4c0,0.2,0.1,0.3,0.2,0.4c0.1,0.1,0.3,0.1,0.4,0.1c0.1,0,0.4,0,0.7,0l1.6-0.1c0.1,0,0.1,0,0.2,0
			c0,0.1,0,0.1,0,0.2l-0.1,1.7c0,0.2,0,0.3,0,0.5c0,0.3,0,0.5,0.1,0.6c0.1,0.1,0.2,0.2,0.4,0.2c0.2,0,0.3-0.1,0.4-0.2
			c0.1-0.1,0.1-0.3,0.1-0.4c0-0.1,0-0.4,0-0.7L26.7,50c0-0.1,0-0.1,0-0.2c0.1,0,0.1,0,0.2,0l1.7,0.1c0.2,0,0.3,0,0.5,0
			c0.3,0,0.4,0,0.6-0.1c0.1-0.1,0.2-0.2,0.2-0.4C29.8,49.3,29.7,49.2,29.6,49.1L29.6,49.1z"/>
	</g>
	<g>
		<path class="st3" d="M33.4,54.2C33.3,54.1,33.1,54,33,54c-0.1,0-0.4,0-0.7,0l-1.6,0.1c-0.1,0-0.1,0-0.2,0c0,0,0-0.1,0-0.2l0.1-1.7
			c0-0.2,0-0.3,0-0.5c0-0.3,0-0.4-0.1-0.6c-0.1-0.1-0.2-0.2-0.4-0.2c-0.2,0-0.3,0.1-0.4,0.2c-0.1,0.1-0.1,0.3-0.1,0.4
			c0,0.1,0,0.4,0,0.7l0.1,1.6c0,0.1,0,0.1,0,0.2c-0.1,0-0.1,0-0.2,0l-1.7-0.1c-0.2,0-0.3,0-0.5,0c-0.3,0-0.4,0-0.6,0.1
			c-0.1,0.1-0.2,0.2-0.2,0.4c0,0.2,0.1,0.3,0.2,0.4c0.1,0.1,0.3,0.1,0.4,0.1c0.1,0,0.4,0,0.7,0l1.6-0.1c0.1,0,0.1,0,0.2,0
			c0,0.1,0,0.1,0,0.2l-0.1,1.7c0,0.2,0,0.3,0,0.5c0,0.3,0,0.4,0.1,0.6c0.1,0.1,0.2,0.2,0.4,0.2c0.2,0,0.3-0.1,0.4-0.2
			c0.1-0.1,0.1-0.3,0.1-0.4c0-0.1,0-0.4,0-0.7l-0.1-1.6c0-0.1,0-0.1,0-0.2c0.1,0,0.1,0,0.2,0l1.7,0.1c0.2,0,0.3,0,0.5,0
			c0.3,0,0.4,0,0.6-0.1c0.1-0.1,0.2-0.2,0.2-0.4C33.6,54.4,33.5,54.3,33.4,54.2L33.4,54.2z"/>
	</g>
	<g>
		<path class="st3" d="M31.3,62c-0.1-0.1-0.3-0.1-0.4-0.1c-0.1,0-0.4,0-0.7,0L28.5,62c-0.1,0-0.1,0-0.2,0c0-0.1,0-0.1,0-0.2l0.1-1.7
			c0-0.2,0-0.3,0-0.5c0-0.3,0-0.4-0.1-0.6C28.3,59,28.2,59,28,59c-0.2,0-0.3,0.1-0.4,0.2c-0.1,0.1-0.1,0.3-0.1,0.4
			c0,0.1,0,0.4,0,0.7l0.1,1.6c0,0.1,0,0.1,0,0.2c-0.1,0-0.1,0-0.2,0l-1.7-0.1c-0.2,0-0.3,0-0.5,0c-0.3,0-0.4,0-0.6,0.1
			c-0.1,0.1-0.2,0.2-0.2,0.4c0,0.2,0.1,0.3,0.2,0.4c0.1,0.1,0.3,0.2,0.4,0.2c0.1,0,0.4,0,0.7,0l1.6-0.1c0.1,0,0.1,0,0.2,0
			c0,0.1,0,0.1,0,0.2l-0.1,1.7c0,0.2,0,0.3,0,0.5c0,0.3,0,0.4,0.1,0.6c0.1,0.1,0.2,0.2,0.4,0.2c0.2,0,0.3-0.1,0.4-0.2
			c0.1-0.1,0.1-0.3,0.1-0.4c0-0.1,0-0.4,0-0.7l-0.1-1.6c0-0.1,0-0.1,0-0.2c0.1,0,0.1,0,0.2,0l1.7,0.1c0.2,0,0.3,0,0.5,0
			c0.3,0,0.4,0,0.6-0.1c0.1-0.1,0.2-0.2,0.2-0.4C31.4,62.3,31.4,62.1,31.3,62L31.3,62z"/>
	</g>
	<g>
		<path class="st3" d="M26.2,67.4c-0.1-0.1-0.3-0.1-0.4-0.1c-0.1,0-0.4,0-0.7,0l-1.6,0.1c-0.1,0-0.1,0-0.2,0c0,0,0-0.1,0-0.2
			l0.1-1.7c0-0.2,0-0.3,0-0.5c0-0.3,0-0.4-0.1-0.6c-0.1-0.1-0.2-0.2-0.4-0.2c-0.2,0-0.3,0.1-0.4,0.2c-0.1,0.1-0.1,0.3-0.1,0.4
			c0,0.1,0,0.4,0,0.7l0.1,1.6c0,0.1,0,0.1,0,0.2c-0.1,0-0.1,0-0.2,0l-1.7-0.1c-0.2,0-0.3,0-0.5,0c-0.3,0-0.4,0-0.6,0.1
			c-0.1,0.1-0.2,0.2-0.2,0.4c0,0.2,0.1,0.3,0.2,0.4c0.1,0.1,0.3,0.1,0.4,0.1c0.1,0,0.4,0,0.7,0l1.6-0.1c0.1,0,0.2,0,0.2,0
			c0,0.1,0,0.1,0,0.2L22.4,70c0,0.2,0,0.3,0,0.5c0,0.3,0,0.4,0.1,0.6c0.1,0.1,0.2,0.2,0.4,0.2c0.2,0,0.3,0,0.4-0.2
			c0.1-0.1,0.1-0.3,0.1-0.4c0-0.1,0-0.4,0-0.7l-0.1-1.6c0-0.1,0-0.1,0-0.2c0,0,0.1,0,0.2,0l1.7,0.1c0.2,0,0.3,0,0.5,0
			c0.3,0,0.4,0,0.6-0.1c0.1-0.1,0.2-0.2,0.2-0.4C26.3,67.6,26.3,67.5,26.2,67.4L26.2,67.4z"/>
	</g>
	<g>
		<path class="st3" d="M26.4,56.3c-0.1-0.1-0.3-0.2-0.4-0.2c-0.1,0-0.4,0-0.7,0l-1.6,0.1c-0.1,0-0.1,0-0.2,0c0-0.1,0-0.1,0-0.2
			l0.1-1.7c0-0.2,0-0.3,0-0.5c0-0.3,0-0.4-0.1-0.6c-0.1-0.1-0.2-0.2-0.4-0.2c-0.2,0-0.3,0.1-0.4,0.2c-0.1,0.1-0.1,0.3-0.1,0.4
			c0,0.1,0,0.4,0,0.7l0.1,1.6c0,0.1,0,0.1,0,0.2c-0.1,0-0.1,0-0.2,0l-1.7-0.1c-0.2,0-0.3,0-0.5,0c-0.3,0-0.4,0-0.6,0.1
			c-0.1,0.1-0.2,0.2-0.2,0.4c0,0.2,0.1,0.3,0.2,0.4c0.1,0.1,0.3,0.2,0.4,0.2c0.1,0,0.4,0,0.7,0l1.6-0.1c0.1,0,0.2,0,0.2,0
			c0,0.1,0,0.1,0,0.2l-0.1,1.7c0,0.2,0,0.3,0,0.5c0,0.3,0,0.4,0.1,0.6c0.1,0.1,0.2,0.2,0.4,0.2c0.2,0,0.3-0.1,0.4-0.2
			c0.1-0.1,0.1-0.3,0.1-0.4c0-0.1,0-0.4,0-0.7l-0.1-1.6c0-0.1,0-0.1,0-0.2c0.1,0,0.1,0,0.2,0l1.7,0.1c0.2,0,0.3,0,0.5,0
			c0.3,0,0.4,0,0.6-0.1c0.1-0.1,0.2-0.2,0.2-0.4C26.6,56.6,26.5,56.4,26.4,56.3L26.4,56.3z"/>
	</g>
	<g>
		<path class="st3" d="M59.2,61.7c-0.1-0.1-0.2-0.1-0.3-0.1c-0.1,0-0.3,0-0.5,0L57,61.7c-0.1,0-0.1,0-0.2,0c0,0,0-0.1,0-0.1l0.1-1.3
			c0-0.1,0-0.2,0-0.4c0-0.2,0-0.4-0.1-0.5c-0.1-0.1-0.2-0.2-0.3-0.2c-0.1,0-0.2,0-0.3,0.1c-0.1,0.1-0.1,0.2-0.1,0.3
			c0,0.1,0,0.3,0,0.5l0.1,1.3c0,0.1,0,0.1,0,0.1c0,0-0.1,0-0.1,0l-1.3-0.1c-0.1,0-0.2,0-0.4,0c-0.2,0-0.3,0-0.5,0.1
			c-0.1,0.1-0.2,0.2-0.2,0.3c0,0.1,0,0.2,0.1,0.3c0.1,0.1,0.2,0.1,0.3,0.1c0.1,0,0.3,0,0.5,0l1.3-0.1c0.1,0,0.1,0,0.2,0
			c0,0,0,0.1,0,0.1l-0.1,1.3c0,0.1,0,0.2,0,0.4c0,0.2,0,0.4,0.1,0.5c0.1,0.1,0.2,0.2,0.3,0.2c0.1,0,0.2,0,0.3-0.1
			c0.1-0.1,0.1-0.2,0.1-0.3c0-0.1,0-0.3,0-0.5l-0.1-1.3c0-0.1,0-0.1,0-0.2c0,0,0.1,0,0.1,0l1.3,0.1c0.1,0,0.2,0,0.4,0
			c0.2,0,0.4,0,0.5-0.1c0.1-0.1,0.2-0.2,0.2-0.3C59.3,61.9,59.3,61.8,59.2,61.7L59.2,61.7z"/>
	</g>
	<g>
		<path class="st3" d="M74.9,40.4c-0.1-0.1-0.2-0.1-0.3-0.1c-0.1,0-0.3,0-0.5,0l-1.3,0.1c-0.1,0-0.1,0-0.2,0c0,0,0-0.1,0-0.1
			l0.1-1.3c0-0.1,0-0.2,0-0.4c0-0.2,0-0.4-0.1-0.5c-0.1-0.1-0.2-0.2-0.3-0.2c-0.1,0-0.2,0-0.3,0.1c-0.1,0.1-0.1,0.2-0.1,0.3
			c0,0.1,0,0.3,0,0.5l0.1,1.3c0,0.1,0,0.1,0,0.2c0,0-0.1,0-0.1,0l-1.3-0.1c-0.1,0-0.2,0-0.4,0c-0.2,0-0.4,0-0.5,0.1
			c-0.1,0.1-0.2,0.2-0.2,0.3c0,0.1,0,0.2,0.1,0.3c0.1,0.1,0.2,0.1,0.3,0.1c0.1,0,0.3,0,0.5,0l1.3-0.1c0.1,0,0.1,0,0.2,0
			c0,0,0,0.1,0,0.1L72,42.4c0,0.1,0,0.2,0,0.4c0,0.2,0,0.4,0.1,0.5c0.1,0.1,0.2,0.2,0.3,0.2c0.1,0,0.2,0,0.3-0.1
			c0.1-0.1,0.1-0.2,0.1-0.3c0-0.1,0-0.3,0-0.5l-0.1-1.3c0-0.1,0-0.1,0-0.2c0,0,0.1,0,0.1,0l1.3,0.1c0.1,0,0.2,0,0.4,0
			c0.2,0,0.3,0,0.5-0.1C75,41,75,40.9,75,40.7C75,40.6,75,40.5,74.9,40.4L74.9,40.4z"/>
	</g>
	<g>
		<path class="st3" d="M71.1,44.3c-0.1-0.1-0.2-0.1-0.3-0.1c-0.1,0-0.3,0-0.5,0l-1.3,0.1c-0.1,0-0.1,0-0.2,0c0,0,0-0.1,0-0.1
			l0.1-1.3c0-0.1,0-0.2,0-0.4c0-0.2,0-0.3-0.1-0.5c-0.1-0.1-0.2-0.2-0.3-0.2c-0.1,0-0.2,0-0.3,0.1c-0.1,0.1-0.1,0.2-0.1,0.3
			c0,0.1,0,0.3,0,0.5l0.1,1.3c0,0.1,0,0.1,0,0.2c0,0-0.1,0-0.1,0l-1.3-0.1c-0.1,0-0.2,0-0.4,0c-0.2,0-0.4,0-0.5,0.1
			c-0.1,0.1-0.2,0.2-0.2,0.3c0,0.1,0,0.2,0.1,0.3c0.1,0.1,0.2,0.1,0.3,0.1c0.1,0,0.3,0,0.5,0l1.3-0.1c0.1,0,0.1,0,0.2,0
			c0,0,0,0.1,0,0.1l-0.1,1.3c0,0.1,0,0.2,0,0.4c0,0.2,0,0.3,0.1,0.5c0.1,0.1,0.2,0.2,0.3,0.2c0.1,0,0.2,0,0.3-0.1
			c0.1-0.1,0.1-0.2,0.1-0.3c0-0.1,0-0.3,0-0.5L68.8,45c0-0.1,0-0.1,0-0.2c0,0,0.1,0,0.1,0l1.3,0.1c0.1,0,0.2,0,0.4,0
			c0.2,0,0.4,0,0.5-0.1c0.1-0.1,0.2-0.2,0.2-0.3C71.2,44.5,71.2,44.4,71.1,44.3L71.1,44.3z"/>
	</g>
	<g>
		<path class="st3" d="M49.5,22.4c-0.1-0.1-0.2-0.1-0.3-0.1c-0.1,0-0.3,0-0.5,0l-1.3,0.1c-0.1,0-0.1,0-0.2,0c0,0,0-0.1,0-0.1
			l0.1-1.3c0-0.1,0-0.2,0-0.4c0-0.2,0-0.4-0.1-0.5c0-0.1-0.2-0.2-0.3-0.2c-0.1,0-0.2,0-0.3,0.1c-0.1,0.1-0.1,0.2-0.1,0.3
			c0,0.1,0,0.3,0,0.5l0.1,1.3c0,0.1,0,0.1,0,0.2c0,0-0.1,0-0.1,0l-1.3-0.1c-0.1,0-0.2,0-0.4,0c-0.2,0-0.3,0-0.5,0.1
			c-0.1,0.1-0.2,0.2-0.2,0.3c0,0.1,0,0.2,0.1,0.3c0.1,0.1,0.2,0.1,0.3,0.1c0.1,0,0.3,0,0.5,0l1.3-0.1c0.1,0,0.1,0,0.2,0
			c0,0,0,0.1,0,0.1l-0.1,1.3c0,0.1,0,0.2,0,0.4c0,0.2,0,0.4,0.1,0.5c0.1,0.1,0.2,0.2,0.3,0.2c0.1,0,0.2,0,0.3-0.1
			c0.1-0.1,0.1-0.2,0.1-0.3c0-0.1,0-0.3,0-0.5l-0.1-1.3c0-0.1,0-0.1,0-0.2c0,0,0.1,0,0.1,0l1.3,0.1c0.1,0,0.2,0,0.4,0
			c0.2,0,0.4,0,0.5-0.1c0.1-0.1,0.2-0.2,0.2-0.3C49.6,22.6,49.6,22.5,49.5,22.4L49.5,22.4z"/>
	</g>
	<g>
		<path class="st3" d="M41.1,31.4c-0.1-0.1-0.3-0.2-0.5-0.2c-0.2,0-0.4,0-0.8,0L38,31.4c-0.1,0-0.2,0-0.2,0c0-0.1,0-0.1,0-0.2
			l0.2-1.9c0-0.2,0-0.3,0-0.5c0-0.3,0-0.5-0.1-0.7c-0.1-0.2-0.2-0.2-0.4-0.2c-0.2,0-0.3,0.1-0.4,0.2c-0.1,0.1-0.2,0.3-0.2,0.5
			c0,0.2,0,0.4,0,0.8l0.1,1.8c0,0.1,0,0.1,0,0.2c-0.1,0-0.1,0-0.2,0L35,31.2c-0.2,0-0.3,0-0.5,0c-0.3,0-0.5,0-0.7,0.1
			c-0.1,0.1-0.2,0.2-0.2,0.4c0,0.2,0.1,0.3,0.2,0.4c0.1,0.1,0.3,0.2,0.5,0.2c0.2,0,0.4,0,0.8,0l1.8-0.1c0.1,0,0.2,0,0.2,0
			c0,0.1,0,0.1,0,0.2l-0.2,1.9c0,0.2,0,0.3,0,0.5c0,0.3,0,0.5,0.1,0.7c0.1,0.2,0.2,0.2,0.4,0.2c0.2,0,0.3-0.1,0.4-0.2
			C38,35.3,38,35.2,38,35c0-0.2,0-0.4,0-0.8l-0.1-1.8c0-0.1,0-0.2,0-0.2c0.1,0,0.1,0,0.2,0l1.9,0.2c0.2,0,0.3,0,0.5,0
			c0.3,0,0.5,0,0.7-0.1c0.2-0.1,0.2-0.2,0.2-0.4C41.3,31.6,41.2,31.5,41.1,31.4L41.1,31.4z"/>
	</g>
	<g>
		<path class="st3" d="M35.3,36.6c-0.1-0.1-0.3-0.2-0.5-0.2c-0.1,0-0.4,0-0.7,0l-1.7,0.1c-0.1,0-0.1,0-0.2,0c0-0.1,0-0.1,0-0.2
			l0.2-1.7c0-0.2,0-0.3,0-0.5c0-0.3,0-0.5-0.1-0.6c-0.1-0.1-0.2-0.2-0.4-0.2c-0.2,0-0.3,0.1-0.4,0.2c-0.1,0.1-0.2,0.3-0.2,0.5
			c0,0.1,0,0.4,0,0.7l0.1,1.7c0,0.1,0,0.1,0,0.2c-0.1,0-0.1,0-0.2,0l-1.7-0.2c-0.2,0-0.3,0-0.5,0c-0.3,0-0.5,0-0.6,0.1
			c-0.1,0.1-0.2,0.2-0.2,0.4c0,0.2,0.1,0.3,0.2,0.4c0.1,0.1,0.3,0.2,0.5,0.2c0.1,0,0.4,0,0.7,0l1.7-0.1c0.1,0,0.2,0,0.2,0
			c0,0.1,0,0.1,0,0.2l-0.2,1.7c0,0.2,0,0.3,0,0.5c0,0.3,0,0.5,0.1,0.6c0.1,0.1,0.2,0.2,0.4,0.2c0.2,0,0.3-0.1,0.4-0.2
			c0.1-0.1,0.2-0.3,0.2-0.5c0-0.1,0-0.4,0-0.7l-0.1-1.7c0-0.1,0-0.1,0-0.2c0.1,0,0.1,0,0.2,0l1.7,0.2c0.2,0,0.3,0,0.5,0
			c0.3,0,0.5,0,0.6-0.1c0.1-0.1,0.2-0.2,0.2-0.4C35.4,36.8,35.4,36.7,35.3,36.6L35.3,36.6z"/>
	</g>
	<g>
		<path class="st3" d="M22.9,51.3c-0.1-0.1-0.2-0.1-0.3-0.1c-0.1,0-0.3,0-0.5,0l-1.3,0.1c-0.1,0-0.1,0-0.2,0c0,0,0-0.1,0-0.1
			l0.1-1.3c0-0.1,0-0.2,0-0.4c0-0.2,0-0.4-0.1-0.5c-0.1-0.1-0.2-0.2-0.3-0.2c-0.1,0-0.2,0-0.3,0.1c-0.1,0.1-0.1,0.2-0.1,0.3
			c0,0.1,0,0.3,0,0.5l0.1,1.3c0,0.1,0,0.1,0,0.2c0,0-0.1,0-0.1,0l-1.3-0.1c-0.1,0-0.2,0-0.4,0c-0.2,0-0.4,0-0.5,0.1
			c-0.1,0.1-0.2,0.2-0.2,0.3c0,0.1,0,0.2,0.1,0.3c0.1,0.1,0.2,0.1,0.3,0.1c0.1,0,0.3,0,0.5,0l1.3-0.1c0.1,0,0.1,0,0.2,0
			c0,0,0,0.1,0,0.1l-0.1,1.3c0,0.1,0,0.2,0,0.4c0,0.2,0,0.4,0.1,0.5c0.1,0.1,0.2,0.2,0.3,0.2c0.1,0,0.2,0,0.3-0.1
			c0.1-0.1,0.1-0.2,0.1-0.3c0-0.1,0-0.3,0-0.5L20.6,52c0-0.1,0-0.1,0-0.2c0,0,0.1,0,0.1,0l1.3,0.1c0.1,0,0.2,0,0.4,0
			c0.2,0,0.3,0,0.5-0.1c0.1-0.1,0.2-0.2,0.2-0.3C23,51.4,22.9,51.3,22.9,51.3L22.9,51.3z"/>
	</g>
	<g>
		<path class="st3" d="M57.1,22.6c-0.1-0.1-0.2-0.1-0.3-0.1c-0.1,0-0.3,0-0.5,0l-1.3,0.1c-0.1,0-0.1,0-0.2,0c0,0,0-0.1,0-0.1
			l0.1-1.3c0-0.1,0-0.2,0-0.4c0-0.2,0-0.4-0.1-0.5c0-0.1-0.2-0.2-0.3-0.2c-0.1,0-0.2,0-0.3,0.1c-0.1,0.1-0.1,0.2-0.1,0.3
			c0,0.1,0,0.3,0,0.5l0.1,1.3c0,0.1,0,0.1,0,0.2c0,0-0.1,0-0.1,0l-1.3-0.1c-0.1,0-0.2,0-0.4,0c-0.2,0-0.3,0-0.5,0.1
			c-0.1,0.1-0.2,0.2-0.2,0.3c0,0.1,0,0.2,0.1,0.3c0.1,0.1,0.2,0.1,0.3,0.1c0.1,0,0.3,0,0.5,0l1.3-0.1c0.1,0,0.1,0,0.2,0
			c0,0,0,0.1,0,0.1l-0.1,1.3c0,0.1,0,0.2,0,0.4c0,0.2,0,0.4,0.1,0.5c0.1,0.1,0.2,0.2,0.3,0.2c0.1,0,0.2,0,0.3-0.1
			c0.1-0.1,0.1-0.2,0.1-0.3c0-0.1,0-0.3,0-0.5l-0.1-1.3c0-0.1,0-0.1,0-0.2c0,0,0.1,0,0.1,0l1.3,0.1c0.1,0,0.2,0,0.4,0
			c0.2,0,0.3,0,0.5-0.1c0.1-0.1,0.2-0.2,0.2-0.3C57.2,22.8,57.2,22.7,57.1,22.6L57.1,22.6z"/>
	</g>
	<g>
		<path class="st3" d="M32.9,68.2c-0.1-0.1-0.2-0.1-0.3-0.1c-0.1,0-0.3,0-0.5,0l-1.3,0.1c-0.1,0-0.1,0-0.2,0c0,0,0-0.1,0-0.1
			l0.1-1.3c0-0.1,0-0.2,0-0.4c0-0.2,0-0.4-0.1-0.5c-0.1-0.1-0.2-0.2-0.3-0.2c-0.1,0-0.2,0-0.3,0.1c-0.1,0.1-0.1,0.2-0.1,0.3
			c0,0.1,0,0.3,0,0.5l0.1,1.3c0,0.1,0,0.1,0,0.2c0,0-0.1,0-0.1,0l-1.3-0.1c-0.1,0-0.2,0-0.4,0c-0.2,0-0.3,0-0.5,0.1
			c-0.1,0.1-0.2,0.2-0.2,0.3c0,0.1,0,0.2,0.1,0.3c0.1,0.1,0.2,0.1,0.3,0.1c0.1,0,0.3,0,0.5,0l1.3-0.1c0.1,0,0.1,0,0.2,0
			c0,0,0,0.1,0,0.1L30,70.2c0,0.1,0,0.2,0,0.4c0,0.2,0,0.3,0.1,0.5c0.1,0.1,0.2,0.2,0.3,0.2c0.1,0,0.2,0,0.3-0.1
			c0.1-0.1,0.1-0.2,0.1-0.3c0-0.1,0-0.3,0-0.5l-0.1-1.3c0-0.1,0-0.1,0-0.2c0,0,0.1,0,0.1,0l1.3,0.1c0.1,0,0.2,0,0.4,0
			c0.2,0,0.4,0,0.5-0.1c0.1-0.1,0.2-0.2,0.2-0.3C33,68.4,33,68.3,32.9,68.2L32.9,68.2z"/>
	</g>
	<g>
		<path class="st3" d="M31.2,42.3c-0.1-0.1-0.2-0.1-0.3-0.1c-0.1,0-0.3,0-0.5,0L29,42.3c-0.1,0-0.1,0-0.2,0c0,0,0-0.1,0-0.1l0.1-1.3
			c0-0.1,0-0.2,0-0.4c0-0.2,0-0.4-0.1-0.5c-0.1-0.1-0.2-0.2-0.3-0.2c-0.1,0-0.2,0-0.3,0.1c-0.1,0.1-0.1,0.2-0.1,0.3
			c0,0.1,0,0.3,0,0.5l0.1,1.3c0,0.1,0,0.1,0,0.2c0,0-0.1,0-0.1,0l-1.3-0.1c-0.1,0-0.2,0-0.4,0c-0.2,0-0.4,0-0.5,0.1
			c-0.1,0.1-0.2,0.2-0.2,0.3c0,0.1,0,0.2,0.1,0.3c0.1,0.1,0.2,0.1,0.3,0.1c0.1,0,0.3,0,0.5,0l1.3-0.1c0.1,0,0.1,0,0.2,0
			c0,0,0,0.1,0,0.1l-0.1,1.3c0,0.1,0,0.2,0,0.4c0,0.2,0,0.4,0.1,0.5c0.1,0.1,0.2,0.2,0.3,0.2c0.1,0,0.2,0,0.3-0.1
			C29,45.1,29,45,29,44.8c0-0.1,0-0.3,0-0.5L28.9,43c0-0.1,0-0.1,0-0.2c0,0,0.1,0,0.1,0l1.3,0.1c0.1,0,0.2,0,0.4,0
			c0.2,0,0.4,0,0.5-0.1c0.1-0.1,0.2-0.2,0.2-0.3C31.3,42.5,31.3,42.4,31.2,42.3L31.2,42.3z"/>
	</g>
	<g>
		<path class="st3" d="M22.1,62.3c-0.1-0.1-0.2-0.1-0.3-0.1c-0.1,0-0.3,0-0.5,0L20,62.3c-0.1,0-0.1,0-0.2,0c0,0,0-0.1,0-0.1l0.1-1.3
			c0-0.1,0-0.2,0-0.4c0-0.2,0-0.4-0.1-0.5c-0.1-0.1-0.2-0.2-0.3-0.2c-0.1,0-0.2,0-0.3,0.1c-0.1,0.1-0.1,0.2-0.1,0.3
			c0,0.1,0,0.3,0,0.5l0.1,1.3c0,0.1,0,0.1,0,0.2c0,0-0.1,0-0.1,0l-1.3-0.1c-0.1,0-0.2,0-0.4,0c-0.2,0-0.4,0-0.5,0.1
			c-0.1,0.1-0.2,0.2-0.2,0.3c0,0.1,0,0.2,0.1,0.3c0.1,0.1,0.2,0.1,0.3,0.1c0.1,0,0.3,0,0.5,0l1.3-0.1c0.1,0,0.1,0,0.2,0
			c0,0,0,0.1,0,0.1l-0.1,1.3c0,0.1,0,0.2,0,0.4c0,0.2,0,0.4,0.1,0.5c0.1,0.1,0.2,0.2,0.3,0.2c0.1,0,0.2,0,0.3-0.1
			c0.1-0.1,0.1-0.2,0.1-0.3c0-0.1,0-0.3,0-0.5L19.9,63c0-0.1,0-0.1,0-0.2c0,0,0.1,0,0.1,0l1.3,0.1c0.1,0,0.2,0,0.4,0
			c0.2,0,0.4,0,0.5-0.1c0.1,0,0.2-0.2,0.2-0.3C22.2,62.5,22.2,62.4,22.1,62.3L22.1,62.3z"/>
	</g>
	<g>
		<path class="st3" d="M61.7,26.4c-0.1-0.1-0.2-0.1-0.3-0.1c-0.1,0-0.3,0-0.5,0l-1.3,0.1c-0.1,0-0.1,0-0.2,0c0,0,0-0.1,0-0.1
			l0.1-1.3c0-0.1,0-0.2,0-0.4c0-0.2,0-0.3-0.1-0.5c-0.1-0.1-0.2-0.2-0.3-0.2c-0.1,0-0.2,0-0.3,0.1c-0.1,0.1-0.1,0.2-0.1,0.3
			c0,0.1,0,0.3,0,0.5l0.1,1.3c0,0.1,0,0.1,0,0.2c0,0-0.1,0-0.1,0l-1.3-0.1c-0.1,0-0.2,0-0.4,0c-0.2,0-0.3,0-0.5,0.1
			c-0.1,0.1-0.2,0.2-0.2,0.3c0,0.1,0,0.2,0.1,0.3c0.1,0.1,0.2,0.1,0.3,0.1c0.1,0,0.3,0,0.5,0l1.3-0.1c0.1,0,0.1,0,0.2,0
			c0,0,0,0.1,0,0.1l-0.1,1.3c0,0.1,0,0.2,0,0.4c0,0.2,0,0.3,0.1,0.5c0.1,0.1,0.2,0.2,0.3,0.2c0.1,0,0.2,0,0.3-0.1
			c0.1-0.1,0.1-0.2,0.1-0.3c0-0.1,0-0.3,0-0.5l-0.1-1.3c0-0.1,0-0.1,0-0.2c0,0,0.1,0,0.1,0l1.3,0.1c0.1,0,0.2,0,0.4,0
			c0.2,0,0.4,0,0.5-0.1c0.1-0.1,0.2-0.2,0.2-0.3C61.8,26.6,61.7,26.5,61.7,26.4L61.7,26.4z"/>
	</g>
	<g>
		<path class="st3" d="M85.5,52.3c-0.1-0.1-0.2-0.1-0.3-0.1c-0.1,0-0.3,0-0.5,0l-1.3,0.1c-0.1,0-0.1,0-0.2,0c0,0,0-0.1,0-0.1
			l0.1-1.3c0-0.1,0-0.2,0-0.4c0-0.2,0-0.4-0.1-0.5c-0.1-0.1-0.2-0.2-0.3-0.2c-0.1,0-0.2,0-0.3,0.1c-0.1,0.1-0.1,0.2-0.1,0.3
			c0,0.1,0,0.3,0,0.5l0.1,1.3c0,0.1,0,0.1,0,0.2c0,0-0.1,0-0.1,0l-1.3-0.1c-0.1,0-0.2,0-0.4,0c-0.2,0-0.4,0-0.5,0.1
			c-0.1,0-0.2,0.2-0.2,0.3c0,0.1,0,0.2,0.1,0.3c0.1,0.1,0.2,0.1,0.3,0.1c0.1,0,0.3,0,0.5,0l1.3-0.1c0.1,0,0.1,0,0.2,0
			c0,0,0,0.1,0,0.1l-0.1,1.3c0,0.1,0,0.2,0,0.4c0,0.2,0,0.4,0.1,0.5c0.1,0.1,0.2,0.2,0.3,0.2c0.1,0,0.2,0,0.3-0.1
			c0.1-0.1,0.1-0.2,0.1-0.3c0-0.1,0-0.3,0-0.5L83.3,53c0-0.1,0-0.1,0-0.2c0,0,0.1,0,0.1,0l1.3,0.1c0.1,0,0.2,0,0.4,0
			c0.2,0,0.4,0,0.5-0.1c0.1-0.1,0.2-0.2,0.2-0.3C85.7,52.5,85.6,52.4,85.5,52.3L85.5,52.3z"/>
	</g>
	<g>
		<path class="st3" d="M24.6,44.1C24.5,44,24.5,44,24.3,44c-0.1,0-0.2,0-0.4,0l-1,0.1c0,0-0.1,0-0.1,0c0,0,0-0.1,0-0.1l0.1-1
			c0-0.1,0-0.2,0-0.3c0-0.2,0-0.3-0.1-0.3c0-0.1-0.1-0.1-0.2-0.1c-0.1,0-0.2,0-0.2,0.1c-0.1,0.1-0.1,0.1-0.1,0.3c0,0.1,0,0.2,0,0.4
			l0.1,1c0,0,0,0.1,0,0.1c0,0-0.1,0-0.1,0l-1-0.1c-0.1,0-0.2,0-0.3,0c-0.1,0-0.3,0-0.3,0.1c-0.1,0-0.1,0.1-0.1,0.2
			c0,0.1,0,0.2,0.1,0.2c0.1,0.1,0.1,0.1,0.3,0.1c0.1,0,0.2,0,0.4,0l1-0.1c0,0,0.1,0,0.1,0c0,0,0,0.1,0,0.1l-0.1,1c0,0.1,0,0.2,0,0.3
			c0,0.1,0,0.3,0.1,0.3c0,0.1,0.1,0.1,0.2,0.1c0.1,0,0.2,0,0.2-0.1c0.1-0.1,0.1-0.1,0.1-0.3c0-0.1,0-0.2,0-0.4l-0.1-1
			c0,0,0-0.1,0-0.1c0,0,0.1,0,0.1,0l1,0.1c0.1,0,0.2,0,0.3,0c0.2,0,0.3,0,0.3-0.1c0.1,0,0.1-0.1,0.1-0.2
			C24.7,44.2,24.7,44.1,24.6,44.1L24.6,44.1z"/>
	</g>
	<g>
		<path class="st3" d="M44.5,26.2c-0.1-0.1-0.2-0.1-0.3-0.1c-0.1,0-0.2,0-0.4,0l-1,0.1c0,0-0.1,0-0.1,0c0,0,0-0.1,0-0.1l0.1-1
			c0-0.1,0-0.2,0-0.3c0-0.2,0-0.3-0.1-0.3c0-0.1-0.1-0.1-0.2-0.1c-0.1,0-0.2,0-0.2,0.1c-0.1,0.1-0.1,0.1-0.1,0.3c0,0.1,0,0.2,0,0.4
			l0.1,1c0,0,0,0.1,0,0.1c0,0-0.1,0-0.1,0l-1-0.1c-0.1,0-0.2,0-0.3,0c-0.1,0-0.3,0-0.3,0.1c-0.1,0-0.1,0.1-0.1,0.2
			c0,0.1,0,0.2,0.1,0.2c0.1,0.1,0.1,0.1,0.3,0.1c0.1,0,0.2,0,0.4,0l1-0.1c0,0,0.1,0,0.1,0c0,0,0,0.1,0,0.1l-0.1,1c0,0.1,0,0.2,0,0.3
			c0,0.2,0,0.3,0.1,0.3c0,0.1,0.1,0.1,0.2,0.1c0.1,0,0.2,0,0.2-0.1c0.1-0.1,0.1-0.2,0.1-0.3c0-0.1,0-0.2,0-0.4l-0.1-1
			c0,0,0-0.1,0-0.1c0,0,0.1,0,0.1,0l1,0.1c0.1,0,0.2,0,0.3,0c0.1,0,0.3,0,0.3-0.1c0.1,0,0.1-0.1,0.1-0.2
			C44.6,26.3,44.6,26.3,44.5,26.2L44.5,26.2z"/>
	</g>
	<g>
		<path class="st3" d="M64.6,44.1C64.5,44,64.4,44,64.3,44c-0.1,0-0.2,0-0.4,0l-1,0.1c0,0-0.1,0-0.1,0c0,0,0-0.1,0-0.1l0.1-1
			c0-0.1,0-0.2,0-0.3c0-0.1,0-0.3-0.1-0.3c0-0.1-0.1-0.1-0.2-0.1c-0.1,0-0.2,0-0.2,0.1c-0.1,0.1-0.1,0.1-0.1,0.3c0,0.1,0,0.2,0,0.4
			l0.1,1c0,0,0,0.1,0,0.1c0,0-0.1,0-0.1,0l-1-0.1c-0.1,0-0.2,0-0.3,0c-0.2,0-0.3,0-0.3,0.1c-0.1,0-0.1,0.1-0.1,0.2
			c0,0.1,0,0.2,0.1,0.2c0.1,0.1,0.1,0.1,0.3,0.1c0.1,0,0.2,0,0.4,0l1-0.1c0,0,0.1,0,0.1,0c0,0,0,0.1,0,0.1l-0.1,1c0,0.1,0,0.2,0,0.3
			c0,0.2,0,0.3,0.1,0.3c0,0.1,0.1,0.1,0.2,0.1c0.1,0,0.2,0,0.2-0.1c0.1-0.1,0.1-0.1,0.1-0.3c0-0.1,0-0.2,0-0.4l-0.1-1
			c0,0,0-0.1,0-0.1c0,0,0.1,0,0.1,0l1,0.1c0.1,0,0.2,0,0.3,0c0.1,0,0.3,0,0.3-0.1c0.1,0,0.1-0.1,0.1-0.2
			C64.7,44.2,64.7,44.2,64.6,44.1L64.6,44.1z"/>
	</g>
	<g>
		<path class="st3" d="M87.7,58.8c-0.1-0.1-0.1-0.1-0.3-0.1c-0.1,0-0.2,0-0.4,0l-1,0.1c0,0-0.1,0-0.1,0c0,0,0-0.1,0-0.1l0.1-1
			c0-0.1,0-0.2,0-0.3c0-0.2,0-0.3-0.1-0.3c0-0.1-0.1-0.1-0.2-0.1c-0.1,0-0.2,0-0.2,0.1c-0.1,0.1-0.1,0.1-0.1,0.3c0,0.1,0,0.2,0,0.4
			l0.1,1c0,0,0,0.1,0,0.1c0,0-0.1,0-0.1,0l-1-0.1c-0.1,0-0.2,0-0.3,0c-0.1,0-0.3,0-0.3,0.1c-0.1,0-0.1,0.1-0.1,0.2
			c0,0.1,0,0.2,0.1,0.2c0.1,0.1,0.2,0.1,0.3,0.1c0.1,0,0.2,0,0.4,0l1-0.1c0,0,0.1,0,0.1,0c0,0,0,0.1,0,0.1l-0.1,1c0,0.1,0,0.2,0,0.3
			c0,0.1,0,0.3,0.1,0.3c0,0.1,0.1,0.1,0.2,0.1c0.1,0,0.2,0,0.2-0.1c0.1-0.1,0.1-0.1,0.1-0.3c0-0.1,0-0.2,0-0.4l-0.1-1
			c0,0,0-0.1,0-0.1c0,0,0.1,0,0.1,0l1,0.1c0.1,0,0.2,0,0.3,0c0.2,0,0.3,0,0.3-0.1c0.1,0,0.1-0.1,0.1-0.2
			C87.8,58.9,87.8,58.8,87.7,58.8L87.7,58.8z"/>
	</g>
	<g>
		<path class="st3" d="M80.2,69.7c-0.1-0.1-0.2-0.1-0.3-0.1c-0.1,0-0.2,0-0.4,0l-1,0.1c0,0-0.1,0-0.1,0c0,0,0-0.1,0-0.1l0.1-1
			c0-0.1,0-0.2,0-0.3c0-0.2,0-0.3-0.1-0.3c0-0.1-0.1-0.1-0.2-0.1c-0.1,0-0.2,0-0.2,0.1C78,68,78,68.1,78,68.2c0,0.1,0,0.2,0,0.4
			l0.1,1c0,0,0,0.1,0,0.1c0,0-0.1,0-0.1,0l-1-0.1c-0.1,0-0.2,0-0.3,0c-0.1,0-0.3,0-0.3,0.1c-0.1,0-0.1,0.1-0.1,0.2
			c0,0.1,0,0.2,0.1,0.2c0.1,0.1,0.1,0.1,0.3,0.1c0.1,0,0.2,0,0.4,0l1-0.1c0,0,0.1,0,0.1,0c0,0,0,0.1,0,0.1l-0.1,1c0,0.1,0,0.2,0,0.3
			c0,0.2,0,0.3,0.1,0.3c0,0.1,0.1,0.1,0.2,0.1c0.1,0,0.2,0,0.2-0.1c0.1-0.1,0.1-0.2,0.1-0.3c0-0.1,0-0.2,0-0.4l-0.1-1
			c0,0,0-0.1,0-0.1c0,0,0.1,0,0.1,0l1,0.1c0.1,0,0.2,0,0.3,0c0.1,0,0.3,0,0.3-0.1c0.1,0,0.1-0.1,0.1-0.2
			C80.3,69.8,80.3,69.7,80.2,69.7L80.2,69.7z"/>
	</g>
	<g>
		<path class="st3" d="M87.4,67.4c-0.1-0.1-0.2-0.1-0.3-0.1c-0.1,0-0.2,0-0.4,0l-1,0.1c0,0-0.1,0-0.1,0c0,0,0-0.1,0-0.1l0.1-1
			c0-0.1,0-0.2,0-0.3c0-0.1,0-0.3-0.1-0.3c0-0.1-0.1-0.1-0.2-0.1c-0.1,0-0.2,0-0.2,0.1c-0.1,0.1-0.1,0.1-0.1,0.3c0,0.1,0,0.2,0,0.4
			l0.1,1c0,0,0,0.1,0,0.1c0,0-0.1,0-0.1,0l-1-0.1c-0.1,0-0.2,0-0.3,0c-0.2,0-0.3,0-0.3,0.1c-0.1,0-0.1,0.1-0.1,0.2
			c0,0.1,0,0.2,0.1,0.2c0.1,0.1,0.1,0.1,0.3,0.1c0.1,0,0.2,0,0.4,0l1-0.1c0,0,0.1,0,0.1,0c0,0,0,0.1,0,0.1l-0.1,1c0,0.1,0,0.2,0,0.3
			c0,0.2,0,0.3,0.1,0.3c0,0.1,0.1,0.1,0.2,0.1c0.1,0,0.2,0,0.2-0.1c0.1-0.1,0.1-0.1,0.1-0.3c0-0.1,0-0.2,0-0.4l-0.1-1
			c0,0,0-0.1,0-0.1c0,0,0.1,0,0.1,0l1,0.1c0.1,0,0.2,0,0.3,0c0.2,0,0.3,0,0.3-0.1c0.1,0,0.1-0.1,0.1-0.2
			C87.5,67.5,87.5,67.4,87.4,67.4L87.4,67.4z"/>
	</g>
	<g>
		<path class="st3" d="M66.9,49.4c0,0.4-0.1,0.8-0.4,1.1c-0.3,0.3-0.7,0.4-1.1,0.4c-0.4,0-0.8-0.1-1.1-0.4c-0.3-0.3-0.4-0.6-0.4-1.1
			c0-0.4,0.1-0.8,0.4-1.1c0.3-0.3,0.7-0.4,1.1-0.4c0.4,0,0.8,0.2,1.1,0.5C66.7,48.6,66.9,49,66.9,49.4L66.9,49.4z"/>
	</g>
	<g>
		<path class="st3" d="M66.5,67.4c-0.5-0.5-1.2-0.8-2.2-0.8c-0.7,0-1.8,0.1-3.3,0.2l-8,0.6c-0.3,0-0.7,0.1-1,0.1
			c0-0.3,0.1-0.5,0.1-0.8l0.7-8.5c0.1-0.8,0.1-1.6,0.1-2.3c0-1.3-0.2-2.3-0.5-3c-0.3-0.7-1-1-1.9-1c-0.8,0-1.4,0.3-1.9,0.8
			c-0.5,0.5-0.7,1.3-0.7,2.2c0,0.7,0,1.9,0.1,3.5l0.5,8.3c0,0.4,0.1,0.7,0.1,1c-0.3,0-0.6-0.1-0.9-0.1l-8.2-0.7
			c-0.8-0.1-1.5-0.1-2.2-0.1c-1.2,0-2.2,0.2-2.9,0.5c-0.7,0.3-1,1-1,2c0,0.8,0.3,1.5,0.8,2c0.5,0.5,1.2,0.8,2.2,0.8
			c0.7,0,1.8-0.1,3.3-0.2l8-0.6c0.4,0,0.7-0.1,1-0.1c0,0.3-0.1,0.6-0.1,0.9l-0.7,8.5C48,81.3,48,82.1,48,82.8c0,1.3,0.2,2.3,0.5,3
			c0.3,0.7,1,1,1.9,1c0.8,0,1.4-0.3,1.9-0.8c0.5-0.5,0.7-1.3,0.7-2.2c0-0.7,0-1.9-0.2-3.5L52.3,72c0-0.4-0.1-0.7-0.1-1
			c0.3,0,0.5,0.1,0.8,0.1l8.2,0.7c0.8,0.1,1.5,0.1,2.2,0.1c1.2,0,2.2-0.2,2.9-0.5c0.7-0.3,1-1,1-2C67.3,68.6,67,67.9,66.5,67.4
			L66.5,67.4z"/>
	</g>
	<g>
		<path class="st3" d="M70.8,61.2c-0.1-0.1-0.3-0.1-0.4-0.1c-0.1,0-0.4,0-0.7,0L68,61.2c-0.1,0-0.1,0-0.2,0c0-0.1,0-0.1,0-0.2
			l0.1-1.7c0-0.2,0-0.3,0-0.5c0-0.3,0-0.4-0.1-0.6c-0.1-0.1-0.2-0.2-0.4-0.2c-0.2,0-0.3,0.1-0.4,0.2C67,58.4,67,58.6,67,58.8
			c0,0.1,0,0.4,0,0.7l0.1,1.6c0,0.1,0,0.1,0,0.2c-0.1,0-0.1,0-0.2,0l-1.7-0.1c-0.2,0-0.3,0-0.5,0c-0.3,0-0.4,0-0.6,0.1
			c-0.1,0.1-0.2,0.2-0.2,0.4c0,0.2,0.1,0.3,0.2,0.4c0.1,0.1,0.3,0.1,0.4,0.1c0.1,0,0.4,0,0.7,0l1.6-0.1c0.1,0,0.1,0,0.2,0
			c0,0.1,0,0.1,0,0.2L67,63.8c0,0.2,0,0.3,0,0.5c0,0.3,0,0.4,0.1,0.6c0.1,0.1,0.2,0.2,0.4,0.2c0.2,0,0.3-0.1,0.4-0.2
			c0.1-0.1,0.1-0.3,0.1-0.4c0-0.1,0-0.4,0-0.7l-0.1-1.6c0-0.1,0-0.1,0-0.2c0.1,0,0.1,0,0.2,0l1.7,0.1c0.2,0,0.3,0,0.5,0
			c0.3,0,0.4,0,0.6-0.1c0.1-0.1,0.2-0.2,0.2-0.4C70.9,61.5,70.9,61.3,70.8,61.2L70.8,61.2z"/>
	</g>
	<g>
		<path class="st3" d="M76.2,65.2c-0.1-0.1-0.3-0.1-0.4-0.1c-0.1,0-0.4,0-0.7,0l-1.6,0.1c-0.1,0-0.1,0-0.2,0c0,0,0-0.1,0-0.2
			l0.1-1.7c0-0.2,0-0.3,0-0.5c0-0.3,0-0.4-0.1-0.6c-0.1-0.1-0.2-0.2-0.4-0.2c-0.2,0-0.3,0.1-0.4,0.2c-0.1,0.1-0.1,0.3-0.1,0.4
			c0,0.1,0,0.4,0,0.7l0.1,1.6c0,0.1,0,0.1,0,0.2c-0.1,0-0.1,0-0.2,0l-1.7-0.1c-0.2,0-0.3,0-0.5,0c-0.3,0-0.4,0-0.6,0.1
			c-0.1,0.1-0.2,0.2-0.2,0.4c0,0.2,0.1,0.3,0.2,0.4c0.1,0.1,0.3,0.1,0.4,0.1c0.1,0,0.4,0,0.7,0l1.6-0.1c0.1,0,0.1,0,0.2,0
			c0,0.1,0,0.1,0,0.2l-0.1,1.7c0,0.2,0,0.3,0,0.5c0,0.3,0,0.4,0.1,0.6c0.1,0.1,0.2,0.2,0.4,0.2c0.2,0,0.3-0.1,0.4-0.2
			c0.1-0.1,0.1-0.3,0.1-0.4c0-0.1,0-0.4,0-0.7l-0.1-1.6c0-0.1,0-0.1,0-0.2c0.1,0,0.1,0,0.2,0l1.7,0.1c0.2,0,0.3,0,0.5,0
			c0.3,0,0.5,0,0.6-0.1c0.1-0.1,0.2-0.2,0.2-0.4C76.3,65.4,76.3,65.3,76.2,65.2L76.2,65.2z"/>
	</g>
	<g>
		<path class="st3" d="M84.7,63.7c-0.1-0.1-0.3-0.1-0.4-0.1c-0.1,0-0.4,0-0.7,0l-1.6,0.1c-0.1,0-0.1,0-0.2,0c0,0,0-0.1,0-0.2
			l0.1-1.7c0-0.2,0-0.3,0-0.5c0-0.3,0-0.4-0.1-0.6c-0.1-0.1-0.2-0.2-0.4-0.2c-0.2,0-0.3,0.1-0.4,0.2c-0.1,0.1-0.1,0.3-0.1,0.4
			c0,0.1,0,0.4,0,0.7l0.1,1.6c0,0.1,0,0.1,0,0.2c-0.1,0-0.1,0-0.2,0l-1.7-0.1c-0.2,0-0.3,0-0.5,0c-0.3,0-0.4,0-0.6,0.1
			c-0.1,0.1-0.2,0.2-0.2,0.4c0,0.2,0.1,0.3,0.2,0.4c0.1,0.1,0.3,0.1,0.4,0.1c0.1,0,0.4,0,0.7,0l1.6-0.1c0.1,0,0.1,0,0.2,0
			c0,0.1,0,0.1,0,0.2l-0.1,1.7c0,0.2,0,0.3,0,0.5c0,0.3,0,0.5,0.1,0.6c0.1,0.1,0.2,0.2,0.4,0.2c0.2,0,0.3-0.1,0.4-0.2
			c0.1-0.1,0.1-0.3,0.1-0.4c0-0.1,0-0.4,0-0.7l-0.1-1.6c0-0.1,0-0.1,0-0.2c0.1,0,0.1,0,0.2,0l1.7,0.1c0.2,0,0.3,0,0.5,0
			c0.3,0,0.4,0,0.6-0.1c0.1-0.1,0.2-0.2,0.2-0.4C84.8,64,84.8,63.8,84.7,63.7L84.7,63.7z"/>
	</g>
	<g>
		<path class="st3" d="M48.6,33.4c-0.1-0.1-0.3-0.1-0.4-0.1c-0.1,0-0.4,0-0.7,0l-1.6,0.1c-0.1,0-0.1,0-0.2,0c0,0,0-0.1,0-0.2
			l0.1-1.7c0-0.2,0-0.3,0-0.5c0-0.3,0-0.4-0.1-0.6c-0.1-0.1-0.2-0.2-0.4-0.2c-0.2,0-0.3,0.1-0.4,0.2c-0.1,0.1-0.1,0.3-0.1,0.4
			c0,0.1,0,0.4,0,0.7l0.1,1.6c0,0.1,0,0.1,0,0.2c-0.1,0-0.1,0-0.2,0l-1.7-0.1c-0.2,0-0.3,0-0.5,0c-0.3,0-0.4,0-0.6,0.1
			c-0.1,0.1-0.2,0.2-0.2,0.4c0,0.2,0.1,0.3,0.2,0.4c0.1,0.1,0.3,0.2,0.4,0.2c0.1,0,0.4,0,0.7,0l1.6-0.1c0.1,0,0.1,0,0.2,0
			c0,0.1,0,0.1,0,0.2L44.8,36c0,0.2,0,0.3,0,0.5c0,0.3,0,0.5,0.1,0.6c0.1,0.1,0.2,0.2,0.4,0.2c0.2,0,0.3-0.1,0.4-0.2
			c0.1-0.1,0.1-0.3,0.1-0.4c0-0.1,0-0.4,0-0.7l-0.1-1.6c0-0.1,0-0.1,0-0.2c0.1,0,0.1,0,0.2,0l1.7,0.1c0.2,0,0.3,0,0.5,0
			c0.3,0,0.4,0,0.6-0.1c0.1-0.1,0.2-0.2,0.2-0.4C48.7,33.6,48.7,33.5,48.6,33.4L48.6,33.4z"/>
	</g>
	<g>
		<path class="st3" d="M44.3,38.9c-0.1-0.1-0.3-0.1-0.4-0.1c-0.1,0-0.4,0-0.7,0l-1.6,0.1c-0.1,0-0.1,0-0.2,0c0-0.1,0-0.1,0-0.2
			l0.1-1.7c0-0.2,0-0.3,0-0.5c0-0.3,0-0.5-0.1-0.6c-0.1-0.1-0.2-0.2-0.4-0.2c-0.2,0-0.3,0.1-0.4,0.2c-0.1,0.1-0.1,0.3-0.1,0.4
			c0,0.1,0,0.4,0,0.7l0.1,1.6c0,0.1,0,0.1,0,0.2c-0.1,0-0.1,0-0.2,0l-1.7-0.1c-0.2,0-0.3,0-0.5,0c-0.3,0-0.4,0-0.6,0.1
			c-0.1,0.1-0.2,0.2-0.2,0.4c0,0.2,0.1,0.3,0.2,0.4c0.1,0.1,0.3,0.2,0.4,0.2c0.1,0,0.4,0,0.7,0l1.6-0.1c0.1,0,0.1,0,0.2,0
			c0,0.1,0,0.1,0,0.2l-0.1,1.7c0,0.2,0,0.3,0,0.5c0,0.3,0,0.4,0.1,0.6c0.1,0.1,0.2,0.2,0.4,0.2c0.2,0,0.3-0.1,0.4-0.2
			c0.1-0.1,0.1-0.3,0.1-0.4c0-0.1,0-0.4,0-0.7l-0.1-1.6c0-0.1,0-0.1,0-0.2c0.1,0,0.1,0,0.2,0l1.7,0.1c0.2,0,0.3,0,0.5,0
			c0.3,0,0.4,0,0.6-0.1c0.1-0.1,0.2-0.2,0.2-0.4C44.5,39.2,44.5,39,44.3,38.9L44.3,38.9z"/>
	</g>
	<g>
		<path class="st3" d="M29.6,49.1C29.5,49,29.3,49,29.2,49c-0.1,0-0.4,0-0.7,0l-1.6,0.1c-0.1,0-0.1,0-0.2,0c0-0.1,0-0.1,0-0.2
			l0.1-1.7c0-0.2,0-0.3,0-0.5c0-0.3,0-0.4-0.1-0.6c-0.1-0.1-0.2-0.2-0.4-0.2c-0.2,0-0.3,0.1-0.4,0.2c-0.1,0.1-0.1,0.3-0.1,0.4
			c0,0.1,0,0.4,0,0.7l0.1,1.6c0,0.1,0,0.1,0,0.2c-0.1,0-0.1,0-0.2,0L24.1,49c-0.2,0-0.3,0-0.5,0c-0.3,0-0.4,0-0.6,0.1
			c-0.1,0.1-0.2,0.2-0.2,0.4c0,0.2,0.1,0.3,0.2,0.4c0.1,0.1,0.3,0.1,0.4,0.1c0.1,0,0.4,0,0.7,0l1.6-0.1c0.1,0,0.1,0,0.2,0
			c0,0.1,0,0.1,0,0.2l-0.1,1.7c0,0.2,0,0.3,0,0.5c0,0.3,0,0.5,0.1,0.6c0.1,0.1,0.2,0.2,0.4,0.2c0.2,0,0.3-0.1,0.4-0.2
			c0.1-0.1,0.1-0.3,0.1-0.4c0-0.1,0-0.4,0-0.7L26.7,50c0-0.1,0-0.1,0-0.2c0.1,0,0.1,0,0.2,0l1.7,0.1c0.2,0,0.3,0,0.5,0
			c0.3,0,0.4,0,0.6-0.1c0.1-0.1,0.2-0.2,0.2-0.4C29.8,49.3,29.7,49.2,29.6,49.1L29.6,49.1z"/>
	</g>
	<g>
		<path class="st3" d="M33.4,54.2C33.3,54.1,33.1,54,33,54c-0.1,0-0.4,0-0.7,0l-1.6,0.1c-0.1,0-0.1,0-0.2,0c0,0,0-0.1,0-0.2l0.1-1.7
			c0-0.2,0-0.3,0-0.5c0-0.3,0-0.4-0.1-0.6c-0.1-0.1-0.2-0.2-0.4-0.2c-0.2,0-0.3,0.1-0.4,0.2c-0.1,0.1-0.1,0.3-0.1,0.4
			c0,0.1,0,0.4,0,0.7l0.1,1.6c0,0.1,0,0.1,0,0.2c-0.1,0-0.1,0-0.2,0l-1.7-0.1c-0.2,0-0.3,0-0.5,0c-0.3,0-0.4,0-0.6,0.1
			c-0.1,0.1-0.2,0.2-0.2,0.4c0,0.2,0.1,0.3,0.2,0.4c0.1,0.1,0.3,0.1,0.4,0.1c0.1,0,0.4,0,0.7,0l1.6-0.1c0.1,0,0.1,0,0.2,0
			c0,0.1,0,0.1,0,0.2l-0.1,1.7c0,0.2,0,0.3,0,0.5c0,0.3,0,0.4,0.1,0.6c0.1,0.1,0.2,0.2,0.4,0.2c0.2,0,0.3-0.1,0.4-0.2
			c0.1-0.1,0.1-0.3,0.1-0.4c0-0.1,0-0.4,0-0.7l-0.1-1.6c0-0.1,0-0.1,0-0.2c0.1,0,0.1,0,0.2,0l1.7,0.1c0.2,0,0.3,0,0.5,0
			c0.3,0,0.4,0,0.6-0.1c0.1-0.1,0.2-0.2,0.2-0.4C33.6,54.4,33.5,54.3,33.4,54.2L33.4,54.2z"/>
	</g>
	<g>
		<path class="st3" d="M61.7,26.4c-0.1-0.1-0.2-0.1-0.3-0.1c-0.1,0-0.3,0-0.5,0l-1.3,0.1c-0.1,0-0.1,0-0.2,0c0,0,0-0.1,0-0.1
			l0.1-1.3c0-0.1,0-0.2,0-0.4c0-0.2,0-0.3-0.1-0.5c-0.1-0.1-0.2-0.2-0.3-0.2c-0.1,0-0.2,0-0.3,0.1c-0.1,0.1-0.1,0.2-0.1,0.3
			c0,0.1,0,0.3,0,0.5l0.1,1.3c0,0.1,0,0.1,0,0.2c0,0-0.1,0-0.1,0l-1.3-0.1c-0.1,0-0.2,0-0.4,0c-0.2,0-0.3,0-0.5,0.1
			c-0.1,0.1-0.2,0.2-0.2,0.3c0,0.1,0,0.2,0.1,0.3c0.1,0.1,0.2,0.1,0.3,0.1c0.1,0,0.3,0,0.5,0l1.3-0.1c0.1,0,0.1,0,0.2,0
			c0,0,0,0.1,0,0.1l-0.1,1.3c0,0.1,0,0.2,0,0.4c0,0.2,0,0.3,0.1,0.5c0.1,0.1,0.2,0.2,0.3,0.2c0.1,0,0.2,0,0.3-0.1
			c0.1-0.1,0.1-0.2,0.1-0.3c0-0.1,0-0.3,0-0.5l-0.1-1.3c0-0.1,0-0.1,0-0.2c0,0,0.1,0,0.1,0l1.3,0.1c0.1,0,0.2,0,0.4,0
			c0.2,0,0.4,0,0.5-0.1c0.1-0.1,0.2-0.2,0.2-0.3C61.8,26.6,61.7,26.5,61.7,26.4L61.7,26.4z"/>
	</g>
	<g>
		<path class="st3" d="M87.7,58.8c-0.1-0.1-0.1-0.1-0.3-0.1c-0.1,0-0.2,0-0.4,0l-1,0.1c0,0-0.1,0-0.1,0c0,0,0-0.1,0-0.1l0.1-1
			c0-0.1,0-0.2,0-0.3c0-0.2,0-0.3-0.1-0.3c0-0.1-0.1-0.1-0.2-0.1c-0.1,0-0.2,0-0.2,0.1c-0.1,0.1-0.1,0.1-0.1,0.3c0,0.1,0,0.2,0,0.4
			l0.1,1c0,0,0,0.1,0,0.1c0,0-0.1,0-0.1,0l-1-0.1c-0.1,0-0.2,0-0.3,0c-0.1,0-0.3,0-0.3,0.1c-0.1,0-0.1,0.1-0.1,0.2
			c0,0.1,0,0.2,0.1,0.2c0.1,0.1,0.2,0.1,0.3,0.1c0.1,0,0.2,0,0.4,0l1-0.1c0,0,0.1,0,0.1,0c0,0,0,0.1,0,0.1l-0.1,1c0,0.1,0,0.2,0,0.3
			c0,0.1,0,0.3,0.1,0.3c0,0.1,0.1,0.1,0.2,0.1c0.1,0,0.2,0,0.2-0.1c0.1-0.1,0.1-0.1,0.1-0.3c0-0.1,0-0.2,0-0.4l-0.1-1
			c0,0,0-0.1,0-0.1c0,0,0.1,0,0.1,0l1,0.1c0.1,0,0.2,0,0.3,0c0.2,0,0.3,0,0.3-0.1c0.1,0,0.1-0.1,0.1-0.2
			C87.8,58.9,87.8,58.8,87.7,58.8L87.7,58.8z"/>
	</g>
	<g>
		<path class="st3" d="M80.2,69.7c-0.1-0.1-0.2-0.1-0.3-0.1c-0.1,0-0.2,0-0.4,0l-1,0.1c0,0-0.1,0-0.1,0c0,0,0-0.1,0-0.1l0.1-1
			c0-0.1,0-0.2,0-0.3c0-0.2,0-0.3-0.1-0.3c0-0.1-0.1-0.1-0.2-0.1c-0.1,0-0.2,0-0.2,0.1C78,68,78,68.1,78,68.2c0,0.1,0,0.2,0,0.4
			l0.1,1c0,0,0,0.1,0,0.1c0,0-0.1,0-0.1,0l-1-0.1c-0.1,0-0.2,0-0.3,0c-0.1,0-0.3,0-0.3,0.1c-0.1,0-0.1,0.1-0.1,0.2
			c0,0.1,0,0.2,0.1,0.2c0.1,0.1,0.1,0.1,0.3,0.1c0.1,0,0.2,0,0.4,0l1-0.1c0,0,0.1,0,0.1,0c0,0,0,0.1,0,0.1l-0.1,1c0,0.1,0,0.2,0,0.3
			c0,0.2,0,0.3,0.1,0.3c0,0.1,0.1,0.1,0.2,0.1c0.1,0,0.2,0,0.2-0.1c0.1-0.1,0.1-0.2,0.1-0.3c0-0.1,0-0.2,0-0.4l-0.1-1
			c0,0,0-0.1,0-0.1c0,0,0.1,0,0.1,0l1,0.1c0.1,0,0.2,0,0.3,0c0.1,0,0.3,0,0.3-0.1c0.1,0,0.1-0.1,0.1-0.2
			C80.3,69.8,80.3,69.7,80.2,69.7L80.2,69.7z"/>
	</g>
	<g>
		<path class="st3" d="M87.4,67.4c-0.1-0.1-0.2-0.1-0.3-0.1c-0.1,0-0.2,0-0.4,0l-1,0.1c0,0-0.1,0-0.1,0c0,0,0-0.1,0-0.1l0.1-1
			c0-0.1,0-0.2,0-0.3c0-0.1,0-0.3-0.1-0.3c0-0.1-0.1-0.1-0.2-0.1c-0.1,0-0.2,0-0.2,0.1c-0.1,0.1-0.1,0.1-0.1,0.3c0,0.1,0,0.2,0,0.4
			l0.1,1c0,0,0,0.1,0,0.1c0,0-0.1,0-0.1,0l-1-0.1c-0.1,0-0.2,0-0.3,0c-0.2,0-0.3,0-0.3,0.1c-0.1,0-0.1,0.1-0.1,0.2
			c0,0.1,0,0.2,0.1,0.2c0.1,0.1,0.1,0.1,0.3,0.1c0.1,0,0.2,0,0.4,0l1-0.1c0,0,0.1,0,0.1,0c0,0,0,0.1,0,0.1l-0.1,1c0,0.1,0,0.2,0,0.3
			c0,0.2,0,0.3,0.1,0.3c0,0.1,0.1,0.1,0.2,0.1c0.1,0,0.2,0,0.2-0.1c0.1-0.1,0.1-0.1,0.1-0.3c0-0.1,0-0.2,0-0.4l-0.1-1
			c0,0,0-0.1,0-0.1c0,0,0.1,0,0.1,0l1,0.1c0.1,0,0.2,0,0.3,0c0.2,0,0.3,0,0.3-0.1c0.1,0,0.1-0.1,0.1-0.2
			C87.5,67.5,87.5,67.4,87.4,67.4L87.4,67.4z"/>
	</g>
</g>
<line class="st4" x1="97.1" y1="79.9" x2="178.1" y2="79.9"/>
<line class="st4" x1="366" y1="79.9" x2="446.9" y2="79.9"/>
<g>
	<g>
		<path class="st5" d="M102.2,98.1c1.5,0,2.7,1.2,2.7,2.7c0,0.9-0.5,1.7-1.3,2.2c1,0.4,1.7,1.4,1.7,2.5c0,1.6-1.3,2.8-2.9,2.8h-3.5
			c-0.4,0-0.7-0.3-0.7-0.7v-8.8c0-0.4,0.3-0.7,0.7-0.7H102.2z M102.2,102.6c1,0,1.8-0.8,1.8-1.8c0-1-0.8-1.8-1.8-1.8h-3v3.7H102.2z
			 M99.1,103.4v4h3.3c1.1,0,2-0.9,2-2c0-1.1-0.9-2-2-2H99.1z"/>
		<path class="st5" d="M112.1,98.3c0.1-0.1,0.2-0.2,0.4-0.2c0,0,0,0,0.1,0c0.3,0,0.4,0.2,0.4,0.4c0,0.1,0,0.1-0.1,0.2l-2.9,4.9v4.2
			c0,0.2-0.2,0.4-0.5,0.4s-0.5-0.2-0.5-0.4v-4.2l-2.9-4.9c0-0.1-0.1-0.2-0.1-0.2c0-0.2,0.1-0.4,0.4-0.4c0,0,0.1,0,0.1,0
			c0.1,0,0.3,0.1,0.4,0.2l2.6,4.3L112.1,98.3z"/>
		<path class="st5" d="M121.6,99c0.2-0.5,0.6-0.9,1.2-0.9c0.6,0,1,0.4,1.2,0.9l2.6,8.8c0,0,0,0.1,0,0.1c0,0.2-0.2,0.4-0.4,0.4
			c-0.2,0-0.4-0.1-0.5-0.3l-0.8-2.7h-4.3l-0.8,2.7c-0.1,0.2-0.3,0.3-0.5,0.3c-0.3,0-0.4-0.2-0.4-0.4c0,0,0-0.1,0-0.1L121.6,99z
			 M123.1,99.2c-0.1-0.2-0.2-0.3-0.3-0.3c-0.2,0-0.3,0.1-0.3,0.3l-1.6,5.2h3.8L123.1,99.2z"/>
		<path class="st5" d="M128.3,108.3c-0.2,0-0.4-0.2-0.4-0.4c0-0.2,0.2-0.4,0.4-0.4h2.8c1.5,0,2.2-0.6,2.2-2.2c0-1.2-0.7-1.5-2.3-1.8
			c-1.7-0.3-3.2-0.6-3.2-2.8c0-1.9,1.2-2.6,3.2-2.6h2.4c0.3,0,0.5,0.2,0.5,0.4c0,0.2-0.2,0.4-0.4,0.4H131c-1.5,0-2.3,0.5-2.3,1.7
			c0,1.5,0.9,1.7,2.5,1.9c1.9,0.3,3,0.8,3,2.6c0,2.2-1.1,3-3.1,3H128.3z"/>
		<path class="st5" d="M136.2,98.5c0-0.2,0.2-0.4,0.5-0.4s0.5,0.2,0.5,0.5v9.2c0,0.3-0.2,0.5-0.5,0.5s-0.5-0.2-0.5-0.4V98.5z"/>
		<path class="st5" d="M145.9,98.1c0.3,0,0.5,0.2,0.5,0.4c0,0.2-0.2,0.4-0.4,0.4h-2.8v8.9c0,0.2-0.2,0.4-0.4,0.4
			c-0.3,0-0.4-0.2-0.4-0.4V99h-2.8c-0.2,0-0.4-0.2-0.4-0.4c0-0.2,0.2-0.4,0.4-0.4H145.9z"/>
		<path class="st5" d="M158.7,98.1c0.2,0,0.4,0.2,0.4,0.4S159,99,158.7,99h-2.5c-1.6,0-2.5,0.8-2.5,2.7v3.2c0,1.5,0.9,2.6,2.5,2.6
			h2.4c0.3,0,0.5,0.2,0.5,0.4c0,0.2-0.2,0.4-0.4,0.4h-2.5c-2.2,0-3.4-1.4-3.4-3.4v-3.2c0-2.5,1.3-3.5,3.4-3.5H158.7z"/>
		<path class="st5" d="M160.5,107.4c0-0.3,0.2-0.5,0.5-0.5c0.3,0,0.5,0.2,0.5,0.5v0.5c0,0.3-0.2,0.5-0.5,0.5c-0.3,0-0.5-0.2-0.5-0.5
			V107.4z"/>
		<path class="st5" d="M175.1,98.8c0.1-0.4,0.6-0.7,1-0.7c0.6,0,1.1,0.5,1.1,1.1v8.6c0,0.2-0.2,0.4-0.5,0.4c-0.3,0-0.4-0.2-0.4-0.4
			v-8.6c0-0.2-0.1-0.3-0.2-0.3c-0.1,0-0.2,0.1-0.2,0.3l-2.8,8.7c-0.1,0.2-0.3,0.4-0.6,0.4c-0.3,0-0.5-0.2-0.6-0.4l-2.6-8.7
			c-0.1-0.2-0.1-0.3-0.2-0.3c-0.1,0-0.2,0.1-0.2,0.3v8.6c0,0.2-0.2,0.4-0.4,0.4c-0.3,0-0.5-0.2-0.5-0.4v-8.6c0-0.6,0.5-1.1,1.1-1.1
			c0.5,0,0.9,0.3,1,0.7l2.3,7.8L175.1,98.8z"/>
		<path class="st5" d="M180,98.8c0-0.4,0.3-0.7,0.7-0.7h4.9c0.3,0,0.5,0.2,0.5,0.4c0,0.2-0.2,0.4-0.5,0.4h-4.8v3.6h3.9
			c0.3,0,0.5,0.2,0.5,0.4c0,0.3-0.2,0.4-0.5,0.4h-3.9v4h4.7c0.3,0,0.5,0.2,0.5,0.4c0,0.2-0.2,0.4-0.5,0.4h-5c-0.4,0-0.7-0.3-0.7-0.7
			V98.8z"/>
		<path class="st5" d="M194.5,98.5c0-0.2,0.2-0.4,0.5-0.4c0.3,0,0.5,0.2,0.5,0.5v9.2c0,0.3-0.2,0.5-0.5,0.5c-0.3,0-0.5-0.2-0.5-0.4
			v-4.2H189v4.2c0,0.3-0.2,0.5-0.5,0.5c-0.3,0-0.5-0.2-0.5-0.4v-9.3c0-0.2,0.2-0.4,0.5-0.4c0.3,0,0.5,0.2,0.5,0.5v4.2h5.4V98.5z"/>
		<path class="st5" d="M204.2,98.1c0.3,0,0.5,0.2,0.5,0.4c0,0.2-0.2,0.4-0.4,0.4h-2.8v8.9c0,0.2-0.2,0.4-0.4,0.4
			c-0.3,0-0.4-0.2-0.4-0.4V99h-2.8c-0.2,0-0.4-0.2-0.4-0.4c0-0.2,0.2-0.4,0.4-0.4H204.2z"/>
		<path class="st5" d="M207,99c0.2-0.5,0.6-0.9,1.2-0.9c0.6,0,1,0.4,1.2,0.9l2.6,8.8c0,0,0,0.1,0,0.1c0,0.2-0.2,0.4-0.4,0.4
			c-0.2,0-0.4-0.1-0.5-0.3l-0.8-2.7h-4.3l-0.8,2.7c-0.1,0.2-0.3,0.3-0.5,0.3c-0.3,0-0.4-0.2-0.4-0.4c0,0,0-0.1,0-0.1L207,99z
			 M208.5,99.2c-0.1-0.2-0.2-0.3-0.3-0.3c-0.2,0-0.3,0.1-0.3,0.3l-1.6,5.2h3.8L208.5,99.2z"/>
		<path class="st5" d="M218.9,98.5c0-0.2,0.2-0.4,0.5-0.4s0.5,0.2,0.5,0.5v9.2c0,0.3-0.2,0.5-0.5,0.5s-0.5-0.2-0.5-0.4V98.5z"/>
		<path class="st5" d="M228.8,98.5c0-0.2,0.2-0.4,0.5-0.4c0.3,0,0.4,0.2,0.4,0.4v8.6c0,0.6-0.5,1.1-1.1,1.1c-0.5,0-0.9-0.3-1-0.7
			l-3.8-8.4c-0.1-0.2-0.2-0.2-0.3-0.2c-0.1,0-0.2,0.1-0.2,0.3v8.6c0,0.2-0.2,0.4-0.5,0.4c-0.3,0-0.5-0.2-0.5-0.4v-8.6
			c0-0.6,0.5-1.1,1.1-1.1c0.5,0,0.9,0.3,1,0.7l3.8,8.4c0.1,0.2,0.2,0.2,0.3,0.2c0.1,0,0.2-0.1,0.2-0.3L228.8,98.5z"/>
		<path class="st5" d="M237.9,98.5c0.1-0.2,0.2-0.4,0.5-0.4c0.3,0,0.4,0.2,0.4,0.4c0,0,0,0.1,0,0.1l-2.4,8.7
			c-0.1,0.5-0.6,0.9-1.2,0.9c-0.6,0-1.1-0.4-1.2-0.9l-2.4-8.7c0,0,0-0.1,0-0.1c0-0.2,0.2-0.4,0.4-0.4c0.3,0,0.4,0.2,0.5,0.4l2.4,8.7
			c0,0.2,0.2,0.3,0.3,0.3c0.2,0,0.3-0.1,0.3-0.3L237.9,98.5z"/>
		<path class="st5" d="M240.7,98.8c0-0.4,0.3-0.7,0.7-0.7h4.9c0.3,0,0.5,0.2,0.5,0.4c0,0.2-0.2,0.4-0.5,0.4h-4.8v3.6h3.9
			c0.3,0,0.5,0.2,0.5,0.4c0,0.3-0.2,0.4-0.5,0.4h-3.9v4h4.7c0.3,0,0.5,0.2,0.5,0.4c0,0.2-0.2,0.4-0.5,0.4h-5c-0.4,0-0.7-0.3-0.7-0.7
			V98.8z"/>
		<path class="st5" d="M248.6,108.3c-0.2,0-0.4-0.2-0.4-0.4c0-0.2,0.2-0.4,0.4-0.4h2.8c1.5,0,2.2-0.6,2.2-2.2c0-1.2-0.7-1.5-2.3-1.8
			c-1.7-0.3-3.2-0.6-3.2-2.8c0-1.9,1.2-2.6,3.2-2.6h2.4c0.3,0,0.5,0.2,0.5,0.4c0,0.2-0.2,0.4-0.4,0.4h-2.5c-1.5,0-2.3,0.5-2.3,1.7
			c0,1.5,0.9,1.7,2.5,1.9c1.9,0.3,3,0.8,3,2.6c0,2.2-1.1,3-3.1,3H248.6z"/>
		<path class="st5" d="M262.6,98.1c0.3,0,0.5,0.2,0.5,0.4c0,0.2-0.2,0.4-0.4,0.4h-2.8v8.9c0,0.2-0.2,0.4-0.4,0.4
			c-0.3,0-0.4-0.2-0.4-0.4V99h-2.8c-0.2,0-0.4-0.2-0.4-0.4c0-0.2,0.2-0.4,0.4-0.4H262.6z"/>
		<path class="st5" d="M271.7,98.8c0.1-0.4,0.6-0.7,1-0.7c0.6,0,1.1,0.5,1.1,1.1v8.6c0,0.2-0.2,0.4-0.5,0.4c-0.3,0-0.4-0.2-0.4-0.4
			v-8.6c0-0.2-0.1-0.3-0.2-0.3c-0.1,0-0.2,0.1-0.2,0.3l-2.8,8.7c-0.1,0.2-0.3,0.4-0.6,0.4c-0.3,0-0.5-0.2-0.6-0.4l-2.6-8.7
			c-0.1-0.2-0.1-0.3-0.2-0.3c-0.1,0-0.2,0.1-0.2,0.3v8.6c0,0.2-0.2,0.4-0.4,0.4c-0.3,0-0.5-0.2-0.5-0.4v-8.6c0-0.6,0.5-1.1,1.1-1.1
			c0.5,0,0.9,0.3,1,0.7l2.3,7.8L271.7,98.8z"/>
		<path class="st5" d="M276.6,98.8c0-0.4,0.3-0.7,0.7-0.7h4.9c0.3,0,0.5,0.2,0.5,0.4c0,0.2-0.2,0.4-0.5,0.4h-4.8v3.6h3.9
			c0.3,0,0.5,0.2,0.5,0.4c0,0.3-0.2,0.4-0.5,0.4h-3.9v4h4.7c0.3,0,0.5,0.2,0.5,0.4c0,0.2-0.2,0.4-0.5,0.4h-5c-0.4,0-0.7-0.3-0.7-0.7
			V98.8z"/>
		<path class="st5" d="M291.1,98.5c0-0.2,0.2-0.4,0.5-0.4c0.3,0,0.4,0.2,0.4,0.4v8.6c0,0.6-0.5,1.1-1.1,1.1c-0.5,0-0.9-0.3-1-0.7
			l-3.8-8.4c-0.1-0.2-0.2-0.2-0.3-0.2c-0.1,0-0.2,0.1-0.2,0.3v8.6c0,0.2-0.2,0.4-0.5,0.4c-0.3,0-0.5-0.2-0.5-0.4v-8.6
			c0-0.6,0.5-1.1,1.1-1.1c0.5,0,0.9,0.3,1,0.7l3.8,8.4c0.1,0.2,0.2,0.2,0.3,0.2c0.1,0,0.2-0.1,0.2-0.3L291.1,98.5z"/>
		<path class="st5" d="M300.6,98.1c0.3,0,0.5,0.2,0.5,0.4c0,0.2-0.2,0.4-0.4,0.4h-2.8v8.9c0,0.2-0.2,0.4-0.4,0.4
			c-0.3,0-0.4-0.2-0.4-0.4V99h-2.8c-0.2,0-0.4-0.2-0.4-0.4c0-0.2,0.2-0.4,0.4-0.4H300.6z"/>
		<path class="st5" d="M307.9,98.5c0-0.2,0.2-0.4,0.5-0.4c0.3,0,0.5,0.2,0.5,0.5v9.2c0,0.3-0.2,0.5-0.5,0.5c-0.3,0-0.5-0.2-0.5-0.4
			V98.5z"/>
		<path class="st5" d="M317.8,98.5c0-0.2,0.2-0.4,0.5-0.4c0.3,0,0.4,0.2,0.4,0.4v8.6c0,0.6-0.5,1.1-1.1,1.1c-0.5,0-0.9-0.3-1-0.7
			l-3.8-8.4c-0.1-0.2-0.2-0.2-0.3-0.2c-0.1,0-0.2,0.1-0.2,0.3v8.6c0,0.2-0.2,0.4-0.5,0.4c-0.3,0-0.5-0.2-0.5-0.4v-8.6
			c0-0.6,0.5-1.1,1.1-1.1c0.5,0,0.9,0.3,1,0.7l3.8,8.4c0.1,0.2,0.2,0.2,0.3,0.2c0.1,0,0.2-0.1,0.2-0.3V98.5z"/>
		<path class="st5" d="M327.4,98.1c0.3,0,0.5,0.2,0.5,0.4c0,0.2-0.2,0.4-0.4,0.4h-2.8v8.9c0,0.2-0.2,0.4-0.4,0.4
			c-0.3,0-0.4-0.2-0.4-0.4V99h-2.8c-0.2,0-0.4-0.2-0.4-0.4c0-0.2,0.2-0.4,0.4-0.4H327.4z"/>
		<path class="st5" d="M329.7,98.8c0-0.4,0.3-0.7,0.7-0.7h4.9c0.3,0,0.5,0.2,0.5,0.4c0,0.2-0.2,0.4-0.5,0.4h-4.8v3.6h3.9
			c0.3,0,0.5,0.2,0.5,0.4c0,0.3-0.2,0.4-0.5,0.4h-3.9v4h4.7c0.3,0,0.5,0.2,0.5,0.4c0,0.2-0.2,0.4-0.5,0.4h-5c-0.4,0-0.7-0.3-0.7-0.7
			V98.8z"/>
		<path class="st5" d="M341.8,98.1c1.5,0,2.7,1.2,2.7,2.7c0,1.3-1,2.4-2.2,2.6l-0.3,0l2.3,4.3c0,0.1,0,0.1,0,0.2
			c0,0.2-0.2,0.4-0.5,0.4c-0.2,0-0.3-0.1-0.4-0.2l-2.5-4.6h-2.2v4.4c0,0.2-0.2,0.4-0.5,0.4c-0.3,0-0.4-0.2-0.4-0.4v-9
			c0-0.4,0.3-0.7,0.7-0.7H341.8z M341.8,102.6c1,0,1.8-0.8,1.8-1.8c0-1-0.8-1.8-1.8-1.8h-3v3.7H341.8z"/>
		<path class="st5" d="M350.7,98.1c1.5,0,2.7,1.2,2.7,2.7c0,1.3-1,2.4-2.2,2.6l-0.3,0l2.3,4.3c0,0.1,0,0.1,0,0.2
			c0,0.2-0.2,0.4-0.5,0.4c-0.2,0-0.3-0.1-0.4-0.2l-2.5-4.6h-2.2v4.4c0,0.2-0.2,0.4-0.5,0.4c-0.3,0-0.4-0.2-0.4-0.4v-9
			c0-0.4,0.3-0.7,0.7-0.7H350.7z M350.7,102.6c1,0,1.8-0.8,1.8-1.8c0-1-0.8-1.8-1.8-1.8h-3v3.7H350.7z"/>
		<path class="st5" d="M362.3,98.8c0.1-0.4,0.6-0.7,1-0.7c0.6,0,1.1,0.5,1.1,1.1v8.6c0,0.2-0.2,0.4-0.5,0.4c-0.3,0-0.4-0.2-0.4-0.4
			v-8.6c0-0.2-0.1-0.3-0.2-0.3c-0.1,0-0.2,0.1-0.2,0.3l-2.8,8.7c-0.1,0.2-0.3,0.4-0.6,0.4c-0.3,0-0.5-0.2-0.6-0.4l-2.6-8.7
			c-0.1-0.2-0.1-0.3-0.2-0.3c-0.1,0-0.2,0.1-0.2,0.3v8.6c0,0.2-0.2,0.4-0.4,0.4c-0.3,0-0.5-0.2-0.5-0.4v-8.6c0-0.6,0.5-1.1,1.1-1.1
			c0.5,0,0.9,0.3,1,0.7l2.3,7.8L362.3,98.8z"/>
		<path class="st5" d="M367.2,98.8c0-0.4,0.3-0.7,0.7-0.7h4.9c0.3,0,0.5,0.2,0.5,0.4c0,0.2-0.2,0.4-0.5,0.4h-4.8v3.6h3.9
			c0.3,0,0.5,0.2,0.5,0.4c0,0.3-0.2,0.4-0.5,0.4h-3.9v4h4.7c0.3,0,0.5,0.2,0.5,0.4c0,0.2-0.2,0.4-0.5,0.4h-5c-0.4,0-0.7-0.3-0.7-0.7
			V98.8z"/>
		<path class="st5" d="M375.3,98.8c0-0.4,0.3-0.7,0.7-0.7h2.8c2.1,0,3.4,1,3.4,3.5v3.2c0,2-1.2,3.4-3.4,3.4H376
			c-0.4,0-0.7-0.3-0.7-0.7V98.8z M381.3,101.6c0-1.9-1-2.7-2.5-2.7h-2.6v8.5h2.6c1.6,0,2.5-1.1,2.5-2.6L381.3,101.6z"/>
		<path class="st5" d="M384.6,98.5c0-0.2,0.2-0.4,0.5-0.4s0.5,0.2,0.5,0.5v9.2c0,0.3-0.2,0.5-0.5,0.5s-0.5-0.2-0.5-0.4V98.5z"/>
		<path class="st5" d="M390,99c0.2-0.5,0.6-0.9,1.2-0.9c0.6,0,1,0.4,1.2,0.9l2.6,8.8c0,0,0,0.1,0,0.1c0,0.2-0.2,0.4-0.4,0.4
			c-0.2,0-0.4-0.1-0.5-0.3l-0.8-2.7h-4.3l-0.8,2.7c-0.1,0.2-0.3,0.3-0.5,0.3c-0.3,0-0.4-0.2-0.4-0.4c0,0,0-0.1,0-0.1L390,99z
			 M391.5,99.2c-0.1-0.2-0.2-0.3-0.3-0.3s-0.3,0.1-0.3,0.3l-1.6,5.2h3.8L391.5,99.2z"/>
		<path class="st5" d="M401.9,98.1c0.3,0,0.5,0.2,0.5,0.4c0,0.2-0.2,0.4-0.4,0.4h-2.8v8.9c0,0.2-0.2,0.4-0.4,0.4
			c-0.3,0-0.4-0.2-0.4-0.4V99h-2.8c-0.2,0-0.4-0.2-0.4-0.4c0-0.2,0.2-0.4,0.4-0.4H401.9z"/>
		<path class="st5" d="M404.2,98.8c0-0.4,0.3-0.7,0.7-0.7h4.9c0.3,0,0.5,0.2,0.5,0.4c0,0.2-0.2,0.4-0.5,0.4h-4.8v3.6h3.9
			c0.3,0,0.5,0.2,0.5,0.4c0,0.3-0.2,0.4-0.5,0.4h-3.9v4h4.7c0.3,0,0.5,0.2,0.5,0.4c0,0.2-0.2,0.4-0.5,0.4h-5c-0.4,0-0.7-0.3-0.7-0.7
			V98.8z"/>
		<path class="st5" d="M412.1,108.3c-0.2,0-0.4-0.2-0.4-0.4c0-0.2,0.2-0.4,0.4-0.4h2.8c1.5,0,2.3-0.6,2.3-2.2c0-1.2-0.7-1.5-2.3-1.8
			c-1.7-0.3-3.2-0.6-3.2-2.8c0-1.9,1.2-2.6,3.2-2.6h2.4c0.3,0,0.5,0.2,0.5,0.4c0,0.2-0.2,0.4-0.4,0.4h-2.5c-1.5,0-2.3,0.5-2.3,1.7
			c0,1.5,0.9,1.7,2.5,1.9c1.9,0.3,3,0.8,3,2.6c0,2.2-1.1,3-3.1,3H412.1z"/>
		<path class="st5" d="M425,98.5c0-0.2,0.2-0.4,0.5-0.4c0.3,0,0.5,0.2,0.5,0.4v8.9h4.3c0.3,0,0.5,0.2,0.5,0.4c0,0.2-0.2,0.4-0.5,0.4
			h-4.5c-0.4,0-0.7-0.3-0.7-0.7V98.5z"/>
		<path class="st5" d="M436.7,98.1c0.3,0,0.5,0.2,0.5,0.4c0,0.2-0.2,0.4-0.4,0.4H434v8.9c0,0.2-0.2,0.4-0.4,0.4
			c-0.3,0-0.4-0.2-0.4-0.4V99h-2.8c-0.2,0-0.4-0.2-0.4-0.4c0-0.2,0.2-0.4,0.4-0.4H436.7z"/>
		<path class="st5" d="M439.1,98.8c0-0.4,0.3-0.7,0.7-0.7h2.8c2.1,0,3.4,1,3.4,3.5v3.2c0,2-1.2,3.4-3.4,3.4h-2.8
			c-0.4,0-0.7-0.3-0.7-0.7V98.8z M445.1,101.6c0-1.9-1-2.7-2.5-2.7H440v8.5h2.6c1.6,0,2.5-1.1,2.5-2.6V101.6z"/>
	</g>
</g>
<g>
	<path class="st3" d="M444.7,57.7c-0.3,0-0.6-0.2-0.6-0.6c0-0.3,0.2-0.6,0.6-0.6l0.7,0c0.4,0,0.6,0.3,0.6,0.6c0,0.4-0.2,0.6-0.6,0.6
		L444.7,57.7z"/>
	<path class="st3" d="M432.8,47.1c0-0.3,0.2-0.6,0.5-0.6c0.3,0,0.5,0.2,0.5,0.5l0.1,3.1c0,2,1,3.2,3.5,3.1l4-0.1
		c1.9,0,3.3-1.2,3.2-3.3l-0.1-3.1c0-0.4,0.2-0.6,0.5-0.6c0.3,0,0.5,0.3,0.5,0.5l0.1,3.1c0.1,2.8-1.7,4.4-4.3,4.4l-4,0.1
		c-3.2,0.1-4.5-1.6-4.5-4.3L432.8,47.1z"/>
	<path class="st3" d="M432.6,39.3c0-2.7,1.2-4.4,4.4-4.4l4-0.1c2.6,0,4.4,1.5,4.4,4.3l0,0.8c0.1,2.8-1.7,4.4-4.3,4.4l-4,0.1
		c-3.2,0.1-4.5-1.6-4.5-4.3L432.6,39.3z M441.2,43.2c1.9,0,3.3-1.2,3.2-3.2l0-0.8c0-2.1-1.5-3.2-3.4-3.1l-4,0.1
		c-2.4,0-3.4,1.3-3.3,3.3l0,0.8c0,2,1,3.2,3.5,3.1L441.2,43.2z"/>
	<path class="st3" d="M433.2,23.4c-0.5-0.2-0.9-0.7-0.9-1.3c0-0.8,0.6-1.4,1.3-1.4l10.9-0.2c0.3,0,0.5,0.2,0.6,0.6
		c0,0.3-0.2,0.6-0.5,0.6l-10.8,0.2c-0.3,0-0.4,0.1-0.4,0.2c0,0.1,0.1,0.2,0.3,0.3l11,3.3c0.3,0.1,0.5,0.3,0.5,0.7
		c0,0.4-0.2,0.6-0.5,0.7l-10.9,3.5c-0.2,0.1-0.3,0.2-0.3,0.3c0,0.1,0.1,0.2,0.4,0.2l10.8-0.2c0.3,0,0.5,0.2,0.6,0.6
		c0,0.3-0.2,0.6-0.5,0.6l-10.9,0.2c-0.7,0-1.4-0.6-1.4-1.4c0-0.6,0.4-1.2,0.9-1.3l9.8-3.1L433.2,23.4z"/>
</g>
</svg>
