<?xml version="1.0" encoding="utf-8"?>
<!-- Generator: Adobe Illustrator 22.1.0, SVG Export Plug-In . SVG Version: 6.00 Build 0)  -->
<svg version="1.1" xmlns="http://www.w3.org/2000/svg" xmlns:xlink="http://www.w3.org/1999/xlink" x="0px" y="0px"
	 viewBox="0 0 352 100" style="enable-background:new 0 0 352 100;" xml:space="preserve">
<style type="text/css">
	.st0{fill:#FFFFFF;stroke:#FFFFFF;stroke-width:0.687;stroke-miterlimit:10;}
	.st1{fill:#EB5D2D;}
	.st2{fill:#FFFFFF;}
	.st3{fill:#EA5D2D;}
	.st4{fill:none;stroke:#FFFFFF;stroke-width:0.75;stroke-miterlimit:10;}
	.st5{fill:#A7A9AC;stroke:#A7A9AC;stroke-width:0.12;stroke-miterlimit:10;}
</style>
<g id="Layer_2">
</g>
<g id="Layer_1">
	<g>
		<path class="st0" d="M66.5,22.6c0-0.6,0.5-1.1,1.2-1.1c0.7,0,1.2,0.5,1.2,1.2v23.6c0,0.7-0.5,1.2-1.2,1.2c-0.7,0-1.2-0.5-1.2-1.1
			V22.6z"/>
		<path class="st0" d="M91.9,22.6c0-0.6,0.5-1.1,1.2-1.1c0.7,0,1.1,0.5,1.1,1.1v22c0,1.6-1.2,2.8-2.9,2.8c-1.2,0-2.2-0.7-2.6-1.7
			l-9.8-21.5c-0.2-0.4-0.4-0.6-0.7-0.6c-0.3,0-0.5,0.3-0.5,0.8v21.9c0,0.6-0.5,1.1-1.2,1.1c-0.7,0-1.2-0.5-1.2-1.1v-22
			c0-1.6,1.3-2.9,2.9-2.9c1.2,0,2.2,0.7,2.6,1.7l9.8,21.5c0.2,0.4,0.4,0.6,0.7,0.6c0.3,0,0.5-0.3,0.5-0.8L91.9,22.6z"/>
		<path class="st0" d="M115.1,22.4c0.2-0.5,0.5-1,1.3-0.9c0.7,0,1,0.5,1,1.1c0,0.1,0,0.2,0,0.3l-6.2,22.3c-0.4,1.3-1.7,2.3-3.1,2.3
			c-1.6,0-2.8-1-3.2-2.4l-6.1-22.2c0-0.1,0-0.2,0-0.3c0-0.6,0.4-1.1,1-1.1c0.7,0,1.1,0.4,1.3,1l6.2,22.1c0.1,0.4,0.4,0.7,0.9,0.7
			c0.5,0,0.7-0.2,0.9-0.7L115.1,22.4z"/>
		<path class="st0" d="M122.2,23.2c0-1,0.8-1.7,1.8-1.7h12.6c0.8,0,1.2,0.5,1.2,1.1c0,0.6-0.5,1.1-1.2,1.1h-12.2v9.2h10
			c0.7,0,1.2,0.5,1.2,1.1c0,0.7-0.5,1.1-1.2,1.1h-10v10.2h12.1c0.8,0,1.2,0.5,1.2,1.1c0,0.6-0.4,1.1-1.2,1.1H124
			c-1,0-1.8-0.7-1.8-1.7V23.2z"/>
		<path class="st0" d="M142.3,47.4c-0.6,0-1.1-0.5-1.1-1.1c0-0.5,0.5-1.1,1.1-1.1h7.1c3.7,0,5.7-1.6,5.7-5.6c0-3.2-1.8-3.8-5.9-4.6
			c-4.3-0.8-8.1-1.6-8.1-7c0-4.8,3.2-6.6,8.2-6.6h6.2c0.7,0,1.2,0.5,1.2,1.1c0,0.5-0.5,1.1-1.1,1.1h-6.3c-3.8,0-6,1.2-6,4.4
			c0,3.7,2.4,4.2,6.3,4.9c4.8,0.8,7.7,2.1,7.7,6.7c0,5.5-2.8,7.7-8,7.7H142.3z"/>
		<path class="st0" d="M178.2,21.5c0.7,0,1.2,0.5,1.2,1.1c0,0.5-0.5,1.1-1.1,1.1h-7.2v22.7c0,0.6-0.5,1.1-1.1,1.1
			c-0.7,0-1.1-0.5-1.1-1.1V23.6h-7.2c-0.6,0-1.1-0.5-1.1-1.1c0-0.5,0.5-1.1,1.1-1.1H178.2z"/>
		<path class="st0" d="M201.5,23.3c0.3-1.1,1.4-1.8,2.7-1.8c1.5,0,2.8,1.3,2.8,2.8v22.1c0,0.6-0.5,1.1-1.2,1.1
			c-0.7,0-1.1-0.5-1.1-1.1V24.4c0-0.5-0.1-0.7-0.4-0.8c-0.3,0-0.5,0.2-0.6,0.6l-7.1,22.1c-0.2,0.6-0.7,1-1.4,1c-0.8,0-1.3-0.4-1.5-1
			l-6.6-22.1c-0.1-0.4-0.3-0.7-0.6-0.7c-0.3,0-0.4,0.3-0.4,0.8v21.9c0,0.6-0.5,1.1-1.1,1.1c-0.7,0-1.2-0.5-1.2-1.1V24.2
			c0-1.5,1.3-2.8,2.8-2.8c1.3,0,2.3,0.8,2.7,1.9l5.9,19.9L201.5,23.3z"/>
		<path class="st0" d="M213.9,23.2c0-1,0.8-1.7,1.8-1.7h12.6c0.8,0,1.2,0.5,1.2,1.1c0,0.6-0.5,1.1-1.2,1.1h-12.2v9.2h10
			c0.7,0,1.2,0.5,1.2,1.1c0,0.7-0.5,1.1-1.2,1.1h-10v10.2h12.1c0.8,0,1.2,0.5,1.2,1.1c0,0.6-0.4,1.1-1.2,1.1h-12.7
			c-1,0-1.8-0.7-1.8-1.7V23.2z"/>
		<path class="st0" d="M250.9,22.6c0-0.6,0.5-1.1,1.2-1.1c0.7,0,1.1,0.5,1.1,1.1v22c0,1.6-1.2,2.8-2.9,2.8c-1.2,0-2.2-0.7-2.6-1.7
			l-9.8-21.5c-0.2-0.4-0.4-0.6-0.7-0.6c-0.3,0-0.5,0.3-0.5,0.8v21.9c0,0.6-0.5,1.1-1.2,1.1c-0.7,0-1.2-0.5-1.2-1.1v-22
			c0-1.6,1.3-2.9,2.9-2.9c1.2,0,2.2,0.7,2.6,1.7l9.8,21.5c0.2,0.4,0.4,0.6,0.7,0.6c0.3,0,0.5-0.3,0.5-0.8L250.9,22.6z"/>
		<path class="st0" d="M275.3,21.5c0.7,0,1.2,0.5,1.2,1.1c0,0.5-0.5,1.1-1.1,1.1h-7.2v22.7c0,0.6-0.5,1.1-1.1,1.1
			c-0.7,0-1.1-0.5-1.1-1.1V23.6h-7.2c-0.6,0-1.1-0.5-1.1-1.1c0-0.5,0.5-1.1,1.1-1.1H275.3z"/>
		<path class="st0" d="M293.6,21.5c1.5,0,2.6,1.1,2.6,2.5c0,0.6-0.3,1.2-0.6,1.6l-13.5,18.6c-0.2,0.3-0.3,0.5-0.3,0.7
			c0,0,0,0.1,0,0.1c0.1,0.2,0.3,0.3,0.8,0.3H295c0.7,0,1.2,0.4,1.2,1.1c0,0.6-0.5,1.1-1.2,1.1h-13c-1.5,0-2.6-1.1-2.6-2.5
			c0-0.5,0.1-1,0.4-1.4l13.6-18.8c0.2-0.3,0.3-0.5,0.3-0.7c0,0,0,0,0-0.1c-0.1-0.2-0.3-0.3-0.8-0.3h-12.5c-0.6,0-1.1-0.5-1.1-1.1
			c0-0.5,0.5-1.1,1.1-1.1H293.6z"/>
	</g>
	<g>
		<path class="st1" d="M132,57.6v8.2c0,0.2-0.1,0.2-0.2,0.2h-0.8c-0.2,0-0.2-0.1-0.2-0.2v-8.2c0-0.2,0.1-0.2,0.2-0.2h0.8
			C131.9,57.4,132,57.4,132,57.6z"/>
		<path class="st1" d="M137.8,66h-0.8c-0.2,0-0.2-0.1-0.2-0.2v-8.2c0-0.2,0.1-0.2,0.2-0.2h0.8c0.1,0,0.2,0.1,0.3,0.1l3.3,5.9h0.1
			v-5.8c0-0.2,0.1-0.2,0.2-0.2h0.8c0.2,0,0.2,0.1,0.2,0.2v8.2c0,0.2-0.1,0.2-0.2,0.2h-0.7c-0.1,0-0.3-0.1-0.3-0.2L138,60H138v5.8
			C138,66,137.9,66,137.8,66z"/>
		<path class="st1" d="M150.4,66h-1.3c-0.2,0-0.2-0.1-0.3-0.2l-2.2-8.2c-0.1-0.2,0-0.3,0.2-0.3h1c0.1,0,0.2,0.1,0.3,0.2l1.7,7h0.1
			l1.7-7c0-0.2,0.1-0.2,0.3-0.2h0.9c0.2,0,0.3,0.1,0.2,0.3l-2.2,8.2C150.6,66,150.5,66,150.4,66z"/>
		<path class="st1" d="M161.4,66h-4.3c-0.2,0-0.2-0.1-0.2-0.2v-8.2c0-0.2,0.1-0.2,0.2-0.2h4.3c0.1,0,0.2,0.1,0.2,0.2v0.7
			c0,0.2-0.1,0.2-0.2,0.2h-3.1c-0.1,0-0.2,0-0.2,0.1v2.3c0,0.1,0.1,0.1,0.2,0.1h2.6c0.2,0,0.2,0.1,0.2,0.2V62c0,0.2-0.1,0.2-0.2,0.2
			h-2.6c-0.1,0-0.2,0-0.2,0.1v2.4c0,0.1,0.1,0.1,0.2,0.1h3.1c0.1,0,0.2,0.1,0.2,0.2v0.7C161.6,66,161.5,66,161.4,66z"/>
		<path class="st1" d="M165.8,63.9v-0.4c0-0.2,0.1-0.2,0.2-0.2h0.9c0.2,0,0.2,0.1,0.2,0.2v0.2c0,0.4,0.1,0.6,0.2,0.8
			c0.2,0.2,0.4,0.3,0.8,0.3h0.9c0.4,0,0.7-0.1,0.8-0.3c0.2-0.2,0.3-0.5,0.3-0.9v-0.3c0-0.3-0.1-0.5-0.3-0.7
			c-0.2-0.2-0.5-0.3-0.8-0.3c-0.3-0.1-0.7-0.1-1.1-0.2c-0.4-0.1-0.7-0.2-1.1-0.3c-0.3-0.1-0.6-0.3-0.8-0.7c-0.2-0.3-0.3-0.7-0.3-1.2
			v-0.6c0-0.7,0.2-1.2,0.6-1.5c0.4-0.4,0.9-0.6,1.5-0.6h1.4c0.7,0,1.2,0.2,1.6,0.6c0.4,0.4,0.6,0.9,0.6,1.5v0.3
			c0,0.2-0.1,0.2-0.2,0.2h-0.9c-0.2,0-0.2-0.1-0.2-0.2v-0.2c0-0.4-0.1-0.7-0.2-0.8c-0.2-0.2-0.4-0.2-0.8-0.2h-0.8
			c-0.4,0-0.7,0.1-0.8,0.3c-0.2,0.2-0.2,0.5-0.2,0.9v0.4c0,0.4,0.3,0.7,0.9,0.8c0.3,0.1,0.5,0.1,0.9,0.2s0.6,0.1,0.9,0.2
			s0.6,0.2,0.9,0.4c0.3,0.1,0.5,0.4,0.6,0.7s0.2,0.7,0.2,1.1v0.5c0,0.7-0.2,1.2-0.6,1.5c-0.4,0.4-0.9,0.6-1.5,0.6h-1.5
			c-0.7,0-1.2-0.2-1.5-0.6C166,65.1,165.8,64.6,165.8,63.9z"/>
		<path class="st1" d="M178.4,66h-0.8c-0.2,0-0.2-0.1-0.2-0.2v-7.2c0-0.1,0-0.1-0.1-0.1h-1.7c-0.2,0-0.2-0.1-0.2-0.2v-0.7
			c0-0.2,0.1-0.2,0.2-0.2h5c0.2,0,0.2,0.1,0.2,0.2v0.7c0,0.2-0.1,0.2-0.2,0.2h-1.7c-0.1,0-0.1,0-0.1,0.1v7.2
			C178.7,66,178.6,66,178.4,66z"/>
		<path class="st1" d="M188.1,66h-1.6c-0.7,0-1.2-0.2-1.5-0.6c-0.4-0.4-0.5-0.9-0.5-1.5v-4.5c0-0.7,0.2-1.2,0.5-1.5
			c0.4-0.4,0.9-0.5,1.5-0.5h1.6c0.7,0,1.2,0.2,1.5,0.5c0.4,0.4,0.6,0.9,0.6,1.5v4.5c0,0.7-0.2,1.2-0.6,1.5
			C189.3,65.8,188.8,66,188.1,66z M186.8,64.9h1.2c0.7,0,1-0.3,1-1v-4.4c0-0.7-0.3-1-1-1h-1.2c-0.6,0-1,0.3-1,1v4.4
			C185.8,64.6,186.1,64.9,186.8,64.9z"/>
		<path class="st1" d="M195.8,66H195c-0.2,0-0.2-0.1-0.2-0.2v-8.2c0-0.2,0.1-0.2,0.2-0.2h3.2c0.7,0,1.2,0.2,1.5,0.6
			c0.4,0.4,0.6,0.9,0.6,1.5v1.1c0,1-0.4,1.7-1.3,2v0.1l1.5,3.2c0.1,0.2,0,0.3-0.2,0.3h-0.8c-0.2,0-0.4-0.1-0.4-0.2l-1.4-3.1h-1.4
			c-0.1,0-0.2,0-0.2,0.1v3C196,66,196,66,195.8,66z M196.2,61.6h1.7c0.7,0,1-0.3,1-1v-1.1c0-0.7-0.3-1-1-1h-1.7
			c-0.1,0-0.1,0-0.1,0.1v2.8C196,61.6,196.1,61.6,196.2,61.6z"/>
		<path class="st1" d="M211.7,66h-0.8c-0.2,0-0.2-0.1-0.2-0.2v-8.2c0-0.2,0.1-0.2,0.2-0.2h4.2c0.2,0,0.2,0.1,0.2,0.2v0.7
			c0,0.2-0.1,0.2-0.2,0.2h-3c-0.1,0-0.2,0-0.2,0.1v2.5c0,0.1,0.1,0.1,0.2,0.1h2.6c0.2,0,0.2,0.1,0.2,0.2v0.7c0,0.2-0.1,0.2-0.2,0.2
			h-2.6c-0.1,0-0.2,0-0.2,0.1v3.2C211.9,66,211.9,66,211.7,66z"/>
		<path class="st1" d="M220.8,57.6v8.2c0,0.2-0.1,0.2-0.2,0.2h-0.8c-0.2,0-0.2-0.1-0.2-0.2v-8.2c0-0.2,0.1-0.2,0.2-0.2h0.8
			C220.7,57.4,220.8,57.4,220.8,57.6z"/>
		<path class="st1" d="M226.6,66h-0.8c-0.2,0-0.2-0.1-0.2-0.2v-8.2c0-0.2,0.1-0.2,0.2-0.2h3.2c0.7,0,1.2,0.2,1.5,0.6
			c0.4,0.4,0.6,0.9,0.6,1.5v1.1c0,1-0.4,1.7-1.3,2v0.1l1.5,3.2c0.1,0.2,0,0.3-0.2,0.3h-0.8c-0.2,0-0.4-0.1-0.4-0.2l-1.4-3.1H227
			c-0.1,0-0.2,0-0.2,0.1v3C226.8,66,226.8,66,226.6,66z M227,61.6h1.7c0.7,0,1-0.3,1-1v-1.1c0-0.7-0.3-1-1-1H227
			c-0.1,0-0.1,0-0.1,0.1v2.8C226.8,61.6,226.9,61.6,227,61.6z"/>
		<path class="st1" d="M235.4,63.9v-0.4c0-0.2,0.1-0.2,0.2-0.2h0.9c0.2,0,0.2,0.1,0.2,0.2v0.2c0,0.4,0.1,0.6,0.2,0.8
			c0.2,0.2,0.4,0.3,0.8,0.3h0.9c0.4,0,0.7-0.1,0.8-0.3c0.2-0.2,0.3-0.5,0.3-0.9v-0.3c0-0.3-0.1-0.5-0.3-0.7
			c-0.2-0.2-0.5-0.3-0.8-0.3c-0.3-0.1-0.7-0.1-1.1-0.2c-0.4-0.1-0.7-0.2-1.1-0.3c-0.3-0.1-0.6-0.3-0.8-0.7c-0.2-0.3-0.3-0.7-0.3-1.2
			v-0.6c0-0.7,0.2-1.2,0.6-1.5c0.4-0.4,0.9-0.6,1.5-0.6h1.4c0.7,0,1.2,0.2,1.6,0.6c0.4,0.4,0.6,0.9,0.6,1.5v0.3
			c0,0.2-0.1,0.2-0.2,0.2h-0.9c-0.2,0-0.2-0.1-0.2-0.2v-0.2c0-0.4-0.1-0.7-0.2-0.8c-0.2-0.2-0.4-0.2-0.8-0.2h-0.8
			c-0.4,0-0.7,0.1-0.8,0.3c-0.2,0.2-0.2,0.5-0.2,0.9v0.4c0,0.4,0.3,0.7,0.9,0.8c0.3,0.1,0.5,0.1,0.9,0.2c0.3,0,0.6,0.1,0.9,0.2
			s0.6,0.2,0.9,0.4c0.3,0.1,0.5,0.4,0.6,0.7c0.2,0.3,0.2,0.7,0.2,1.1v0.5c0,0.7-0.2,1.2-0.6,1.5S239.7,66,239,66h-1.5
			c-0.7,0-1.2-0.2-1.5-0.6C235.6,65.1,235.4,64.6,235.4,63.9z"/>
		<path class="st1" d="M248,66h-0.8c-0.2,0-0.2-0.1-0.2-0.2v-7.2c0-0.1,0-0.1-0.1-0.1h-1.7c-0.2,0-0.2-0.1-0.2-0.2v-0.7
			c0-0.2,0.1-0.2,0.2-0.2h5c0.2,0,0.2,0.1,0.2,0.2v0.7c0,0.2-0.1,0.2-0.2,0.2h-1.7c-0.1,0-0.1,0-0.1,0.1v7.2
			C248.2,66,248.1,66,248,66z"/>
	</g>
	<g>
		<g>
			<path class="st2" d="M44.8,54c-0.4-0.4-0.9-0.5-1.5-0.5c-0.5,0-1.3,0-2.3,0.1L35.4,54c-0.2,0-0.5,0.1-0.7,0.1
				c0-0.2,0-0.4,0.1-0.6l0.5-6c0.1-0.6,0.1-1.1,0.1-1.6c0-0.9-0.1-1.6-0.3-2.1c-0.2-0.5-0.7-0.7-1.3-0.7c-0.6,0-1,0.2-1.3,0.6
				c-0.3,0.4-0.5,0.9-0.5,1.6c0,0.5,0,1.3,0.1,2.4l0.4,5.8c0,0.3,0.1,0.5,0.1,0.7c-0.2,0-0.4-0.1-0.6-0.1L26,53.6
				c-0.5-0.1-1.1-0.1-1.6-0.1c-0.9,0-1.5,0.1-2,0.4c-0.5,0.2-0.7,0.7-0.7,1.4c0,0.6,0.2,1,0.5,1.4c0.4,0.4,0.9,0.5,1.5,0.5
				c0.5,0,1.3,0,2.3-0.1l5.6-0.4c0.3,0,0.5-0.1,0.7-0.1c0,0.2-0.1,0.4-0.1,0.6l-0.5,6c-0.1,0.6-0.1,1.1-0.1,1.6
				c0,0.9,0.1,1.6,0.3,2.1c0.2,0.5,0.7,0.7,1.3,0.7c0.6,0,1-0.2,1.3-0.6c0.3-0.4,0.5-0.9,0.5-1.6c0-0.5,0-1.3-0.1-2.4l-0.4-5.8
				c0-0.3-0.1-0.5-0.1-0.7c0.2,0,0.4,0.1,0.6,0.1l5.8,0.5c0.5,0.1,1.1,0.1,1.6,0.1c0.9,0,1.5-0.1,2-0.4c0.5-0.2,0.7-0.7,0.7-1.4
				C45.4,54.8,45.2,54.4,44.8,54L44.8,54z"/>
		</g>
		<g>
			<path class="st2" d="M44.8,53.6c-0.4-0.4-0.9-0.5-1.5-0.5c-0.5,0-1.3,0-2.3,0.1l-5.6,0.4c-0.2,0-0.5,0.1-0.7,0.1
				c0-0.2,0.1-0.4,0.1-0.6l0.5-6c0.1-0.6,0.1-1.1,0.1-1.6c0-0.9-0.1-1.6-0.3-2.1c-0.2-0.5-0.7-0.7-1.3-0.7c-0.6,0-1,0.2-1.3,0.6
				c-0.3,0.4-0.5,0.9-0.5,1.6c0,0.5,0,1.3,0.1,2.4l0.4,5.8c0,0.3,0.1,0.5,0.1,0.7c-0.2,0-0.4-0.1-0.6-0.1L26,53.2
				c-0.5-0.1-1.1-0.1-1.6-0.1c-0.9,0-1.5,0.1-2,0.4c-0.5,0.2-0.7,0.7-0.7,1.4c0,0.6,0.2,1,0.5,1.4c0.4,0.4,0.9,0.5,1.5,0.5
				c0.5,0,1.3,0,2.3-0.1l5.6-0.4c0.3,0,0.5-0.1,0.7-0.1c0,0.2-0.1,0.4-0.1,0.6l-0.5,6c-0.1,0.6-0.1,1.1-0.1,1.6
				c0,0.9,0.1,1.6,0.3,2.1c0.2,0.5,0.7,0.7,1.3,0.7c0.6,0,1-0.2,1.3-0.6c0.3-0.4,0.5-0.9,0.5-1.6c0-0.5,0-1.3-0.1-2.4l-0.4-5.8
				c0-0.3-0.1-0.5-0.1-0.7c0.2,0,0.4,0.1,0.6,0.1l5.8,0.5c0.5,0.1,1.1,0.1,1.6,0.1c0.9,0,1.5-0.1,2-0.4c0.5-0.2,0.7-0.7,0.7-1.4
				C45.4,54.4,45.2,54,44.8,53.6L44.8,53.6z"/>
		</g>
		<g>
			<path class="st2" d="M44.8,53.6c-0.4-0.4-0.9-0.5-1.5-0.5c-0.5,0-1.3,0-2.3,0.1l-5.6,0.4c-0.2,0-0.5,0.1-0.7,0.1
				c0-0.2,0.1-0.4,0.1-0.6l0.5-6c0.1-0.6,0.1-1.1,0.1-1.6c0-0.9-0.1-1.6-0.3-2.1c-0.2-0.5-0.7-0.7-1.3-0.7c-0.6,0-1,0.2-1.3,0.6
				c-0.3,0.4-0.5,0.9-0.5,1.6c0,0.5,0,1.3,0.1,2.4l0.4,5.8c0,0.3,0.1,0.5,0.1,0.7c-0.2,0-0.4-0.1-0.6-0.1L26,53.2
				c-0.5-0.1-1.1-0.1-1.6-0.1c-0.9,0-1.5,0.1-2,0.4c-0.5,0.2-0.7,0.7-0.7,1.4c0,0.6,0.2,1,0.5,1.4c0.4,0.4,0.9,0.5,1.5,0.5
				c0.5,0,1.3,0,2.3-0.1l5.6-0.4c0.3,0,0.5-0.1,0.7-0.1c0,0.2-0.1,0.4-0.1,0.6l-0.5,6c-0.1,0.6-0.1,1.1-0.1,1.6
				c0,0.9,0.1,1.6,0.3,2.1c0.2,0.5,0.7,0.7,1.3,0.7c0.6,0,1-0.2,1.3-0.6c0.3-0.4,0.5-0.9,0.5-1.6c0-0.5,0-1.3-0.1-2.4l-0.4-5.8
				c0-0.3-0.1-0.5-0.1-0.7c0.2,0,0.4,0.1,0.6,0.1l5.8,0.5c0.5,0.1,1.1,0.1,1.6,0.1c0.9,0,1.5-0.1,2-0.4c0.5-0.2,0.7-0.7,0.7-1.4
				C45.4,54.4,45.2,54,44.8,53.6L44.8,53.6z"/>
		</g>
		<g>
			<path class="st2" d="M45.4,44.8c-0.1-0.1-0.3-0.2-0.6-0.2c-0.2,0-0.5,0-0.9,0L42,44.8c-0.1,0-0.2,0-0.2,0c0-0.1,0-0.1,0-0.2
				l0.2-2.1c0-0.2,0-0.4,0-0.6c0-0.3,0-0.6-0.1-0.7C41.7,41,41.6,41,41.3,41c-0.2,0-0.4,0.1-0.5,0.2c-0.1,0.1-0.2,0.3-0.2,0.6
				c0,0.2,0,0.5,0,0.9l0.1,2.1c0,0.1,0,0.2,0,0.2c-0.1,0-0.1,0-0.2,0l-2.1-0.2c-0.2,0-0.4,0-0.6,0c-0.3,0-0.6,0-0.7,0.1
				c-0.2,0.1-0.3,0.2-0.3,0.5c0,0.2,0.1,0.4,0.2,0.5c0.1,0.1,0.3,0.2,0.6,0.2c0.2,0,0.5,0,0.9,0l2.1-0.1c0.1,0,0.2,0,0.3,0
				c0,0.1,0,0.1,0,0.2l-0.2,2.1c0,0.2,0,0.4,0,0.6c0,0.3,0,0.6,0.1,0.7c0.1,0.2,0.2,0.3,0.5,0.3c0.2,0,0.4-0.1,0.5-0.2
				c0.1-0.1,0.2-0.3,0.2-0.6c0-0.2,0-0.5,0-0.9L41.8,46c0-0.1,0-0.2,0-0.3c0.1,0,0.1,0,0.2,0l2.1,0.2c0.2,0,0.4,0,0.6,0
				c0.3,0,0.6,0,0.7-0.1c0.2-0.1,0.3-0.2,0.3-0.5C45.6,45.1,45.6,45,45.4,44.8L45.4,44.8z"/>
		</g>
		<g>
			<path class="st2" d="M35.9,37c-0.1-0.1-0.3-0.2-0.6-0.2c-0.2,0-0.5,0-0.9,0L32.4,37c-0.1,0-0.2,0-0.2,0c0-0.1,0-0.1,0-0.2
				l0.2-2.1c0-0.2,0-0.4,0-0.6c0-0.3,0-0.6-0.1-0.7c-0.1-0.2-0.2-0.3-0.5-0.3c-0.2,0-0.4,0.1-0.5,0.2c-0.1,0.1-0.2,0.3-0.2,0.6
				c0,0.2,0,0.5,0,0.9l0.1,2.1c0,0.1,0,0.2,0,0.2c-0.1,0-0.1,0-0.2,0L29,36.8c-0.2,0-0.4,0-0.6,0c-0.3,0-0.6,0-0.7,0.1
				c-0.2,0.1-0.3,0.2-0.3,0.5c0,0.2,0.1,0.4,0.2,0.5c0.1,0.1,0.3,0.2,0.6,0.2c0.2,0,0.5,0,0.9,0l2.1-0.1c0.1,0,0.2,0,0.3,0
				c0,0.1,0,0.1,0,0.2l-0.2,2.1c0,0.2,0,0.4,0,0.6c0,0.3,0,0.6,0.1,0.7c0.1,0.2,0.2,0.3,0.5,0.3c0.2,0,0.4-0.1,0.5-0.2
				c0.1-0.1,0.2-0.3,0.2-0.6c0-0.2,0-0.5,0-0.9l-0.1-2.1c0-0.1,0-0.2,0-0.3c0.1,0,0.1,0,0.2,0l2.1,0.2c0.2,0,0.4,0,0.6,0
				c0.3,0,0.6,0,0.7-0.1c0.2-0.1,0.3-0.2,0.3-0.5C36.1,37.3,36.1,37.1,35.9,37L35.9,37z"/>
		</g>
		<g>
			<path class="st2" d="M27.3,39.2C27.2,39.1,27,39,26.8,39c-0.2,0-0.5,0-0.9,0l-2.1,0.1c-0.1,0-0.2,0-0.2,0c0-0.1,0-0.1,0-0.2
				l0.2-2.1c0-0.2,0-0.4,0-0.6c0-0.3,0-0.6-0.1-0.7c-0.1-0.2-0.2-0.3-0.5-0.3c-0.2,0-0.4,0.1-0.5,0.2c-0.1,0.1-0.2,0.3-0.2,0.6
				c0,0.2,0,0.5,0,0.9l0.1,2.1c0,0.1,0,0.2,0,0.2c-0.1,0-0.1,0-0.2,0l-2.1-0.2c-0.2,0-0.4,0-0.6,0c-0.3,0-0.6,0-0.7,0.1
				c-0.2,0.1-0.3,0.2-0.3,0.5c0,0.2,0.1,0.4,0.2,0.5c0.1,0.1,0.3,0.2,0.6,0.2c0.2,0,0.5,0,0.9,0l2.1-0.1c0.1,0,0.2,0,0.3,0
				c0,0.1,0,0.1,0,0.2l-0.2,2.1c0,0.2,0,0.4,0,0.6c0,0.3,0,0.6,0.1,0.7c0.1,0.2,0.2,0.3,0.5,0.3c0.2,0,0.4-0.1,0.5-0.2
				c0.1-0.1,0.2-0.3,0.2-0.6c0-0.2,0-0.5,0-0.9l-0.1-2.1c0-0.1,0-0.2,0-0.3c0.1,0,0.1,0,0.2,0l2.1,0.2c0.2,0,0.4,0,0.6,0
				c0.3,0,0.6,0,0.7-0.1c0.2-0.1,0.3-0.2,0.3-0.5C27.5,39.5,27.5,39.3,27.3,39.2L27.3,39.2z"/>
		</g>
		<g>
			<path class="st2" d="M26.7,48.3c-0.1-0.1-0.3-0.2-0.5-0.2c-0.1,0-0.4,0-0.7,0l-1.8,0.1c-0.1,0-0.1,0-0.2,0c0-0.1,0-0.1,0-0.2
				l0.2-1.8c0-0.2,0-0.3,0-0.5c0-0.3,0-0.5-0.1-0.6c-0.1-0.1-0.2-0.2-0.4-0.2c-0.2,0-0.3,0.1-0.4,0.2c-0.1,0.1-0.2,0.3-0.2,0.5
				c0,0.2,0,0.4,0,0.7l0.1,1.8c0,0.1,0,0.1,0,0.2c-0.1,0-0.1,0-0.2,0l-1.8-0.2c-0.2,0-0.3,0-0.5,0c-0.3,0-0.5,0-0.6,0.1
				c-0.1,0.1-0.2,0.2-0.2,0.4c0,0.2,0.1,0.3,0.2,0.4c0.1,0.1,0.3,0.2,0.5,0.2c0.2,0,0.4,0,0.7,0l1.8-0.1c0.1,0,0.2,0,0.2,0
				c0,0.1,0,0.1,0,0.2l-0.2,1.8c0,0.2,0,0.3,0,0.5c0,0.3,0,0.5,0.1,0.6c0.1,0.1,0.2,0.2,0.4,0.2c0.2,0,0.3-0.1,0.4-0.2
				c0.1-0.1,0.2-0.3,0.2-0.5c0-0.2,0-0.4,0-0.7l-0.1-1.8c0-0.1,0-0.2,0-0.2c0.1,0,0.1,0,0.2,0l1.8,0.2c0.2,0,0.3,0,0.5,0
				c0.3,0,0.5,0,0.6-0.1c0.1-0.1,0.2-0.2,0.2-0.4C26.9,48.5,26.8,48.4,26.7,48.3L26.7,48.3z"/>
		</g>
		<g>
			<path class="st2" d="M40.8,31.3c-0.1-0.1-0.3-0.2-0.6-0.2c-0.2,0-0.5,0-0.9,0l-2.1,0.1c-0.1,0-0.2,0-0.2,0c0-0.1,0-0.1,0-0.2
				l0.2-2.1c0-0.2,0-0.4,0-0.6c0-0.3,0-0.6-0.1-0.7c-0.1-0.2-0.2-0.3-0.5-0.3c-0.2,0-0.4,0.1-0.5,0.2C36.1,27.8,36,28,36,28.2
				c0,0.2,0,0.5,0,0.9l0.1,2.1c0,0.1,0,0.2,0,0.2c-0.1,0-0.1,0-0.2,0l-2.1-0.2c-0.2,0-0.4,0-0.6,0c-0.3,0-0.6,0-0.7,0.1
				c-0.2,0.1-0.3,0.2-0.3,0.5c0,0.2,0.1,0.4,0.2,0.5c0.1,0.1,0.3,0.2,0.6,0.2c0.2,0,0.5,0,0.9,0l2.1-0.1c0.1,0,0.2,0,0.3,0
				c0,0.1,0,0.1,0,0.2l-0.2,2.1c0,0.2,0,0.4,0,0.6c0,0.3,0,0.6,0.1,0.7c0.1,0.2,0.2,0.3,0.5,0.3c0.2,0,0.4-0.1,0.5-0.2
				c0.1-0.1,0.2-0.3,0.2-0.6c0-0.2,0-0.5,0-0.9l-0.1-2.1c0-0.1,0-0.2,0-0.3c0.1,0,0.1,0,0.2,0l2.1,0.2c0.2,0,0.4,0,0.6,0
				c0.3,0,0.6,0,0.7-0.1c0.2-0.1,0.3-0.2,0.3-0.5C41,31.6,41,31.5,40.8,31.3L40.8,31.3z"/>
		</g>
		<g>
			<path class="st2" d="M55.8,46.4c-0.1-0.1-0.3-0.2-0.6-0.2c-0.2,0-0.5,0-0.9,0l-2.1,0.1c-0.1,0-0.2,0-0.2,0c0-0.1,0-0.1,0-0.2
				l0.2-2.1c0-0.2,0-0.4,0-0.6c0-0.3,0-0.6-0.1-0.7c-0.1-0.2-0.2-0.3-0.5-0.3c-0.2,0-0.4,0.1-0.5,0.2C51.1,42.9,51,43,51,43.3
				c0,0.2,0,0.5,0,0.9l0.1,2.1c0,0.1,0,0.2,0,0.2c-0.1,0-0.1,0-0.2,0l-2.1-0.2c-0.2,0-0.4,0-0.6,0c-0.3,0-0.6,0-0.7,0.1
				c-0.2,0.1-0.3,0.2-0.3,0.5c0,0.2,0.1,0.4,0.2,0.5c0.1,0.1,0.3,0.2,0.6,0.2c0.2,0,0.5,0,0.9,0l2.1-0.1c0.1,0,0.2,0,0.3,0
				c0,0.1,0,0.1,0,0.2l-0.2,2.1c0,0.2,0,0.4,0,0.6c0,0.3,0,0.6,0.1,0.7c0.1,0.2,0.2,0.3,0.5,0.3c0.2,0,0.4-0.1,0.5-0.2
				c0.1-0.1,0.2-0.3,0.2-0.6c0-0.2,0-0.5,0-0.9l-0.1-2.1c0-0.1,0-0.2,0-0.3c0.1,0,0.1,0,0.2,0l2.1,0.2c0.2,0,0.4,0,0.6,0
				c0.3,0,0.6,0,0.7-0.1c0.2-0.1,0.3-0.2,0.3-0.5C56,46.7,56,46.5,55.8,46.4L55.8,46.4z"/>
		</g>
		<g>
			<path class="st2" d="M47.8,49.7c-0.1-0.1-0.2-0.1-0.3-0.1c-0.1,0-0.3,0-0.5,0l-1.1,0.1c0,0-0.1,0-0.1,0c0,0,0-0.1,0-0.1l0.1-1.2
				c0-0.1,0-0.2,0-0.3c0-0.2,0-0.3-0.1-0.4c0-0.1-0.1-0.1-0.3-0.1c-0.1,0-0.2,0-0.3,0.1c-0.1,0.1-0.1,0.2-0.1,0.3c0,0.1,0,0.3,0,0.5
				l0.1,1.1c0,0,0,0.1,0,0.1c0,0-0.1,0-0.1,0L44,49.6c-0.1,0-0.2,0-0.3,0c-0.2,0-0.3,0-0.4,0.1c-0.1,0-0.1,0.1-0.1,0.3
				c0,0.1,0,0.2,0.1,0.3c0.1,0.1,0.2,0.1,0.3,0.1c0.1,0,0.3,0,0.5,0l1.1-0.1c0.1,0,0.1,0,0.1,0c0,0,0,0.1,0,0.1l-0.1,1.2
				c0,0.1,0,0.2,0,0.3c0,0.2,0,0.3,0.1,0.4c0,0.1,0.1,0.1,0.3,0.1c0.1,0,0.2,0,0.3-0.1c0.1-0.1,0.1-0.2,0.1-0.3c0-0.1,0-0.3,0-0.5
				l-0.1-1.1c0-0.1,0-0.1,0-0.1c0,0,0.1,0,0.1,0l1.2,0.1c0.1,0,0.2,0,0.3,0c0.2,0,0.3,0,0.4-0.1c0.1,0,0.1-0.1,0.1-0.3
				C47.9,49.8,47.9,49.7,47.8,49.7L47.8,49.7z"/>
		</g>
		<g>
			<path class="st2" d="M51.6,52.4c-0.1-0.1-0.2-0.1-0.3-0.1c-0.1,0-0.3,0-0.5,0l-1.1,0.1c0,0-0.1,0-0.1,0c0,0,0-0.1,0-0.1l0.1-1.2
				c0-0.1,0-0.2,0-0.3c0-0.2,0-0.3-0.1-0.4c0-0.1-0.1-0.1-0.3-0.1c-0.1,0-0.2,0-0.3,0.1c-0.1,0.1-0.1,0.2-0.1,0.3c0,0.1,0,0.3,0,0.5
				l0.1,1.1c0,0,0,0.1,0,0.1c0,0-0.1,0-0.1,0l-1.2-0.1c-0.1,0-0.2,0-0.3,0c-0.2,0-0.3,0-0.4,0.1c-0.1,0-0.1,0.1-0.1,0.3
				c0,0.1,0,0.2,0.1,0.3c0.1,0.1,0.2,0.1,0.3,0.1c0.1,0,0.3,0,0.5,0l1.1-0.1c0.1,0,0.1,0,0.1,0c0,0,0,0.1,0,0.1l-0.1,1.2
				c0,0.1,0,0.2,0,0.3c0,0.2,0,0.3,0.1,0.4c0,0.1,0.1,0.1,0.3,0.1c0.1,0,0.2,0,0.3-0.1c0.1-0.1,0.1-0.2,0.1-0.3c0-0.1,0-0.3,0-0.5
				l-0.1-1.1c0-0.1,0-0.1,0-0.1c0,0,0.1,0,0.1,0l1.2,0.1c0.1,0,0.2,0,0.3,0c0.2,0,0.3,0,0.4-0.1c0.1,0,0.1-0.1,0.1-0.3
				C51.7,52.6,51.7,52.5,51.6,52.4L51.6,52.4z"/>
		</g>
		<g>
			<path class="st2" d="M57.6,51.4c-0.1-0.1-0.2-0.1-0.3-0.1c-0.1,0-0.3,0-0.5,0l-1.1,0.1c0,0-0.1,0-0.1,0c0,0,0-0.1,0-0.1l0.1-1.2
				c0-0.1,0-0.2,0-0.3c0-0.2,0-0.3-0.1-0.4c0-0.1-0.1-0.1-0.3-0.1c-0.1,0-0.2,0-0.3,0.1c-0.1,0.1-0.1,0.2-0.1,0.3c0,0.1,0,0.3,0,0.5
				l0.1,1.1c0,0.1,0,0.1,0,0.1c0,0-0.1,0-0.1,0l-1.2-0.1c-0.1,0-0.2,0-0.3,0c-0.2,0-0.3,0-0.4,0.1c-0.1,0-0.1,0.1-0.1,0.3
				c0,0.1,0,0.2,0.1,0.3C53,52,53.1,52,53.3,52c0.1,0,0.3,0,0.5,0l1.1-0.1c0.1,0,0.1,0,0.2,0c0,0,0,0.1,0,0.1l-0.1,1.2
				c0,0.1,0,0.2,0,0.3c0,0.2,0,0.3,0.1,0.4c0,0.1,0.1,0.1,0.3,0.1c0.1,0,0.2,0,0.3-0.1c0.1-0.1,0.1-0.2,0.1-0.3c0-0.1,0-0.3,0-0.5
				L55.5,52c0-0.1,0-0.1,0-0.1c0,0,0.1,0,0.1,0l1.2,0.1c0.1,0,0.2,0,0.3,0c0.2,0,0.3,0,0.4-0.1c0.1,0,0.1-0.1,0.1-0.3
				C57.7,51.6,57.6,51.5,57.6,51.4L57.6,51.4z"/>
		</g>
		<g>
			<path class="st2" d="M39.8,40.3c-0.1-0.1-0.2-0.1-0.3-0.1c-0.1,0-0.3,0-0.5,0l-1.1,0.1c0,0-0.1,0-0.1,0c0,0,0-0.1,0-0.1l0.1-1.2
				c0-0.1,0-0.2,0-0.3c0-0.2,0-0.3-0.1-0.4c0-0.1-0.1-0.1-0.3-0.1c-0.1,0-0.2,0-0.3,0.1c-0.1,0.1-0.1,0.2-0.1,0.3c0,0.1,0,0.3,0,0.5
				l0.1,1.1c0,0,0,0.1,0,0.1c0,0-0.1,0-0.1,0L36,40.2c-0.1,0-0.2,0-0.3,0c-0.2,0-0.3,0-0.4,0.1c-0.1,0-0.1,0.1-0.1,0.3
				c0,0.1,0,0.2,0.1,0.3c0.1,0.1,0.2,0.1,0.3,0.1c0.1,0,0.3,0,0.5,0l1.1-0.1c0.1,0,0.1,0,0.1,0c0,0,0,0.1,0,0.1l-0.1,1.2
				c0,0.1,0,0.2,0,0.3c0,0.2,0,0.3,0.1,0.4c0,0.1,0.1,0.1,0.3,0.1c0.1,0,0.2,0,0.3-0.1c0.1-0.1,0.1-0.2,0.1-0.3c0-0.1,0-0.3,0-0.5
				l-0.1-1.1c0-0.1,0-0.1,0-0.1c0,0,0.1,0,0.1,0l1.2,0.1c0.1,0,0.2,0,0.3,0c0.2,0,0.3,0,0.4-0.1c0.1,0,0.1-0.1,0.1-0.3
				C39.9,40.5,39.9,40.4,39.8,40.3L39.8,40.3z"/>
		</g>
		<g>
			<path class="st2" d="M54.3,38.8c-0.1-0.1-0.2-0.1-0.3-0.1c-0.1,0-0.3,0-0.5,0l-1.1,0.1c0,0-0.1,0-0.1,0c0,0,0-0.1,0-0.1l0.1-1.2
				c0-0.1,0-0.2,0-0.3c0-0.2,0-0.3-0.1-0.4c0-0.1-0.1-0.1-0.3-0.1c-0.1,0-0.2,0-0.3,0.1c-0.1,0.1-0.1,0.2-0.1,0.3c0,0.1,0,0.3,0,0.5
				l0.1,1.1c0,0,0,0.1,0,0.1c0,0-0.1,0-0.1,0l-1.2-0.1c-0.1,0-0.2,0-0.3,0c-0.2,0-0.3,0-0.4,0.1c-0.1,0-0.1,0.1-0.1,0.3
				c0,0.1,0,0.2,0.1,0.3c0.1,0.1,0.2,0.1,0.3,0.1c0.1,0,0.3,0,0.5,0l1.1-0.1c0.1,0,0.1,0,0.1,0c0,0,0,0.1,0,0.1l-0.1,1.2
				c0,0.1,0,0.2,0,0.3c0,0.2,0,0.3,0.1,0.4c0,0.1,0.1,0.1,0.3,0.1c0.1,0,0.2,0,0.3-0.1c0.1-0.1,0.1-0.2,0.1-0.3c0-0.1,0-0.3,0-0.5
				l-0.1-1.1c0,0,0-0.1,0-0.1c0,0,0.1,0,0.1,0l1.2,0.1c0.1,0,0.2,0,0.3,0c0.2,0,0.3,0,0.4-0.1c0.1,0,0.1-0.1,0.1-0.3
				C54.4,38.9,54.4,38.9,54.3,38.8L54.3,38.8z"/>
		</g>
		<g>
			<path class="st2" d="M47.1,32.7c-0.1-0.1-0.2-0.1-0.3-0.1c-0.1,0-0.3,0-0.5,0l-1.1,0.1c-0.1,0-0.1,0-0.1,0c0,0,0-0.1,0-0.1
				l0.1-1.2c0-0.1,0-0.2,0-0.3c0-0.2,0-0.3-0.1-0.4c0-0.1-0.1-0.1-0.3-0.1c-0.1,0-0.2,0-0.3,0.1c-0.1,0.1-0.1,0.2-0.1,0.3
				c0,0.1,0,0.3,0,0.5l0.1,1.1c0,0,0,0.1,0,0.1c0,0-0.1,0-0.1,0l-1.2-0.1c-0.1,0-0.2,0-0.3,0c-0.2,0-0.3,0-0.4,0.1
				c-0.1,0-0.1,0.1-0.1,0.3c0,0.1,0,0.2,0.1,0.3c0.1,0.1,0.2,0.1,0.3,0.1c0.1,0,0.3,0,0.5,0l1.1-0.1c0.1,0,0.1,0,0.1,0
				c0,0,0,0.1,0,0.1l-0.1,1.2c0,0.1,0,0.2,0,0.3c0,0.2,0,0.3,0.1,0.4c0,0.1,0.1,0.1,0.3,0.1c0.1,0,0.2,0,0.3-0.1
				c0.1-0.1,0.1-0.2,0.1-0.3c0-0.1,0-0.3,0-0.5l-0.1-1.1c0-0.1,0-0.1,0-0.1c0,0,0.1,0,0.1,0l1.2,0.1c0.1,0,0.2,0,0.3,0
				c0.2,0,0.3,0,0.4-0.1c0.1,0,0.1-0.1,0.1-0.3C47.2,32.9,47.2,32.8,47.1,32.7L47.1,32.7z"/>
		</g>
		<g>
			<path class="st2" d="M29,43.1C28.9,43,28.8,43,28.7,43c-0.1,0-0.3,0-0.5,0l-1.1,0.1c0,0-0.1,0-0.1,0c0,0,0-0.1,0-0.1l0.1-1.2
				c0-0.1,0-0.2,0-0.3c0-0.2,0-0.3-0.1-0.4c0-0.1-0.1-0.1-0.3-0.1c-0.1,0-0.2,0-0.3,0.1c-0.1,0.1-0.1,0.2-0.1,0.3c0,0.1,0,0.3,0,0.5
				l0.1,1.1c0,0,0,0.1,0,0.1c0,0-0.1,0-0.1,0L25.2,43c-0.1,0-0.2,0-0.3,0c-0.2,0-0.3,0-0.4,0.1c-0.1,0-0.1,0.1-0.1,0.3
				c0,0.1,0,0.2,0.1,0.3c0.1,0.1,0.2,0.1,0.3,0.1c0.1,0,0.3,0,0.5,0l1.1-0.1c0.1,0,0.1,0,0.1,0c0,0,0,0.1,0,0.1l-0.1,1.2
				c0,0.1,0,0.2,0,0.3c0,0.2,0,0.3,0.1,0.4c0,0.1,0.1,0.1,0.3,0.1c0.1,0,0.2,0,0.3-0.1c0.1-0.1,0.1-0.2,0.1-0.3c0-0.1,0-0.3,0-0.5
				L27,43.7c0-0.1,0-0.1,0-0.1c0,0,0.1,0,0.1,0l1.2,0.1c0.1,0,0.2,0,0.3,0c0.2,0,0.3,0,0.4-0.1c0.1,0,0.1-0.1,0.1-0.3
				C29.1,43.2,29.1,43.2,29,43.1L29,43.1z"/>
		</g>
		<g>
			<path class="st2" d="M31.3,46.9c-0.1-0.1-0.2-0.1-0.3-0.1c-0.1,0-0.3,0-0.5,0l-1.1,0.1c-0.1,0-0.1,0-0.1,0c0,0,0-0.1,0-0.1
				l0.1-1.2c0-0.1,0-0.2,0-0.3c0-0.2,0-0.3-0.1-0.4c0-0.1-0.1-0.1-0.3-0.1c-0.1,0-0.2,0-0.3,0.1c-0.1,0.1-0.1,0.2-0.1,0.3
				c0,0.1,0,0.3,0,0.5l0.1,1.1c0,0,0,0.1,0,0.1c0,0-0.1,0-0.1,0l-1.2-0.1c-0.1,0-0.2,0-0.3,0c-0.2,0-0.3,0-0.4,0.1
				c-0.1,0-0.1,0.1-0.1,0.3c0,0.1,0,0.2,0.1,0.3c0.1,0.1,0.2,0.1,0.3,0.1c0.1,0,0.3,0,0.5,0l1.1-0.1c0.1,0,0.1,0,0.1,0
				c0,0,0,0.1,0,0.1l-0.1,1.2c0,0.1,0,0.2,0,0.3c0,0.2,0,0.3,0.1,0.4c0,0.1,0.1,0.1,0.3,0.1c0.1,0,0.2,0,0.3-0.1
				c0.1-0.1,0.1-0.2,0.1-0.3c0-0.1,0-0.3,0-0.5l-0.1-1.1c0-0.1,0-0.1,0-0.1c0,0,0.1,0,0.1,0l1.2,0.1c0.1,0,0.2,0,0.3,0
				c0.2,0,0.3,0,0.4-0.1c0.1,0,0.1-0.1,0.1-0.3C31.4,47.1,31.4,47,31.3,46.9L31.3,46.9z"/>
		</g>
		<g>
			<path class="st2" d="M44.9,28.7c-0.1-0.1-0.2-0.1-0.3-0.1c-0.1,0-0.3,0-0.5,0l-1.1,0.1c0,0-0.1,0-0.1,0c0,0,0-0.1,0-0.1l0.1-1.2
				c0-0.1,0-0.2,0-0.3c0-0.2,0-0.3-0.1-0.4c0-0.1-0.1-0.1-0.3-0.1c-0.1,0-0.2,0-0.3,0.1c-0.1,0.1-0.1,0.2-0.1,0.3c0,0.1,0,0.3,0,0.5
				l0.1,1.1c0,0.1,0,0.1,0,0.1c0,0-0.1,0-0.1,0L41,28.6c-0.1,0-0.2,0-0.3,0c-0.2,0-0.3,0-0.4,0.1c-0.1,0-0.1,0.1-0.1,0.3
				c0,0.1,0,0.2,0.1,0.3c0.1,0.1,0.2,0.1,0.3,0.1c0.1,0,0.3,0,0.5,0l1.1-0.1c0.1,0,0.1,0,0.2,0c0,0,0,0.1,0,0.1l-0.1,1.2
				c0,0.1,0,0.2,0,0.3c0,0.2,0,0.3,0.1,0.4c0,0.1,0.1,0.1,0.3,0.1c0.1,0,0.2,0,0.3-0.1c0.1-0.1,0.1-0.2,0.1-0.3c0-0.1,0-0.3,0-0.5
				l-0.1-1.1c0-0.1,0-0.1,0-0.1c0,0,0.1,0,0.1,0l1.2,0.1c0.1,0,0.2,0,0.3,0c0.2,0,0.3,0,0.4-0.1c0.1,0,0.1-0.1,0.1-0.3
				C45,28.9,44.9,28.8,44.9,28.7L44.9,28.7z"/>
		</g>
		<g>
			<path class="st2" d="M50.3,42c-0.1-0.1-0.2-0.1-0.3-0.1c-0.1,0-0.3,0-0.5,0L48.4,42c-0.1,0-0.1,0-0.1,0c0,0,0-0.1,0-0.1l0.1-1.2
				c0-0.1,0-0.2,0-0.3c0-0.2,0-0.3-0.1-0.4c0-0.1-0.1-0.1-0.3-0.1c-0.1,0-0.2,0-0.3,0.1c-0.1,0.1-0.1,0.2-0.1,0.3c0,0.1,0,0.3,0,0.5
				l0.1,1.1c0,0,0,0.1,0,0.1c0,0-0.1,0-0.1,0L46.5,42c-0.1,0-0.2,0-0.3,0c-0.2,0-0.3,0-0.4,0.1c-0.1,0-0.1,0.1-0.1,0.3
				c0,0.1,0,0.2,0.1,0.3c0.1,0.1,0.2,0.1,0.3,0.1c0.1,0,0.3,0,0.5,0l1.1-0.1c0.1,0,0.1,0,0.1,0c0,0,0,0.1,0,0.1l-0.1,1.2
				c0,0.1,0,0.2,0,0.3c0,0.2,0,0.3,0.1,0.4c0,0.1,0.1,0.1,0.3,0.1c0.1,0,0.2,0,0.3-0.1c0.1-0.1,0.1-0.2,0.1-0.3c0-0.1,0-0.3,0-0.5
				l-0.1-1.1c0-0.1,0-0.1,0-0.1c0,0,0.1,0,0.1,0l1.2,0.1c0.1,0,0.2,0,0.3,0c0.2,0,0.3,0,0.4-0.1c0.1,0,0.1-0.1,0.1-0.3
				C50.4,42.2,50.4,42.1,50.3,42L50.3,42z"/>
		</g>
		<g>
			<path class="st2" d="M36,26c-0.1-0.1-0.2-0.1-0.3-0.1c-0.1,0-0.3,0-0.5,0L34,26c0,0-0.1,0-0.1,0c0,0,0-0.1,0-0.1l0.1-1.2
				c0-0.1,0-0.2,0-0.3c0-0.2,0-0.3-0.1-0.4c0-0.1-0.1-0.1-0.3-0.1c-0.1,0-0.2,0-0.3,0.1c-0.1,0.1-0.1,0.2-0.1,0.3c0,0.1,0,0.3,0,0.5
				l0.1,1.1c0,0,0,0.1,0,0.1c0,0-0.1,0-0.1,0l-1.2-0.1c-0.1,0-0.2,0-0.3,0c-0.2,0-0.3,0-0.4,0.1c-0.1,0-0.1,0.1-0.1,0.3
				c0,0.1,0,0.2,0.1,0.3c0.1,0.1,0.2,0.1,0.3,0.1c0.1,0,0.3,0,0.5,0l1.1-0.1c0.1,0,0.1,0,0.1,0c0,0,0,0.1,0,0.1l-0.1,1.2
				c0,0.1,0,0.2,0,0.3c0,0.2,0,0.3,0.1,0.4c0,0.1,0.1,0.1,0.3,0.1c0.1,0,0.2,0,0.3-0.1c0.1-0.1,0.1-0.2,0.1-0.3c0-0.1,0-0.3,0-0.5
				l-0.1-1.1c0-0.1,0-0.1,0-0.1c0,0,0.1,0,0.1,0l1.2,0.1c0.1,0,0.2,0,0.3,0c0.2,0,0.3,0,0.4-0.1c0.1,0,0.1-0.1,0.1-0.3
				C36.1,26.2,36.1,26.1,36,26L36,26z"/>
		</g>
		<g>
			<path class="st2" d="M32.3,30.1c-0.1-0.1-0.2-0.1-0.3-0.1c-0.1,0-0.3,0-0.5,0l-1.1,0.1c-0.1,0-0.1,0-0.1,0c0,0,0-0.1,0-0.1
				l0.1-1.2c0-0.1,0-0.2,0-0.3c0-0.2,0-0.3-0.1-0.4c0-0.1-0.1-0.1-0.3-0.1c-0.1,0-0.2,0-0.3,0.1c-0.1,0.1-0.1,0.2-0.1,0.3
				c0,0.1,0,0.3,0,0.5l0.1,1.1c0,0,0,0.1,0,0.1c0,0-0.1,0-0.1,0L28.4,30c-0.1,0-0.2,0-0.3,0c-0.2,0-0.3,0-0.4,0.1
				c-0.1,0-0.1,0.1-0.1,0.3c0,0.1,0,0.2,0.1,0.3c0.1,0.1,0.2,0.1,0.3,0.1c0.1,0,0.3,0,0.5,0l1.1-0.1c0.1,0,0.1,0,0.1,0
				c0,0,0,0.1,0,0.1l-0.1,1.2c0,0.1,0,0.2,0,0.3c0,0.2,0,0.3,0.1,0.4c0,0.1,0.1,0.1,0.3,0.1c0.1,0,0.2,0,0.3-0.1
				c0.1-0.1,0.1-0.2,0.1-0.3c0-0.1,0-0.3,0-0.5l-0.1-1.1c0-0.1,0-0.1,0-0.1c0,0,0.1,0,0.1,0l1.2,0.1c0.1,0,0.2,0,0.3,0
				c0.2,0,0.3,0,0.4-0.1c0.1,0,0.1-0.1,0.1-0.3C32.4,30.3,32.3,30.2,32.3,30.1L32.3,30.1z"/>
		</g>
		<g>
			<path class="st2" d="M29.3,34c-0.1-0.1-0.2-0.1-0.3-0.1c-0.1,0-0.3,0-0.5,0L27.3,34c0,0-0.1,0-0.1,0c0,0,0-0.1,0-0.1l0.1-1.2
				c0-0.1,0-0.2,0-0.3c0-0.2,0-0.3-0.1-0.4c0-0.1-0.1-0.1-0.3-0.1c-0.1,0-0.2,0-0.3,0.1c-0.1,0.1-0.1,0.2-0.1,0.3c0,0.1,0,0.3,0,0.5
				l0.1,1.1c0,0,0,0.1,0,0.1c0,0-0.1,0-0.1,0l-1.2-0.1c-0.1,0-0.2,0-0.3,0c-0.2,0-0.3,0-0.4,0.1c-0.1,0-0.1,0.1-0.1,0.3
				c0,0.1,0,0.2,0.1,0.3c0.1,0.1,0.2,0.1,0.3,0.1c0.1,0,0.3,0,0.5,0l1.1-0.1c0.1,0,0.1,0,0.1,0c0,0,0,0.1,0,0.1l-0.1,1.2
				c0,0.1,0,0.2,0,0.3c0,0.2,0,0.3,0.1,0.4c0,0.1,0.1,0.1,0.3,0.1c0.1,0,0.2,0,0.3-0.1c0.1-0.1,0.1-0.2,0.1-0.3c0-0.1,0-0.3,0-0.5
				l-0.1-1.1c0-0.1,0-0.1,0-0.1c0,0,0.1,0,0.1,0l1.2,0.1c0.1,0,0.2,0,0.3,0c0.2,0,0.3,0,0.4-0.1c0.1,0,0.1-0.1,0.1-0.3
				C29.4,34.2,29.4,34.1,29.3,34L29.3,34z"/>
		</g>
		<g>
			<path class="st2" d="M18.9,41.2c-0.1-0.1-0.2-0.1-0.3-0.1c-0.1,0-0.3,0-0.5,0L17,41.1c0,0-0.1,0-0.1,0c0,0,0-0.1,0-0.1l0.1-1.2
				c0-0.1,0-0.2,0-0.3c0-0.2,0-0.3-0.1-0.4c0-0.1-0.1-0.1-0.3-0.1c-0.1,0-0.2,0-0.3,0.1c-0.1,0.1-0.1,0.2-0.1,0.3c0,0.1,0,0.3,0,0.5
				l0.1,1.1c0,0,0,0.1,0,0.1c0,0-0.1,0-0.1,0l-1.2-0.1c-0.1,0-0.2,0-0.3,0c-0.2,0-0.3,0-0.4,0.1c-0.1,0-0.1,0.1-0.1,0.3
				c0,0.1,0,0.2,0.1,0.3c0.1,0.1,0.2,0.1,0.3,0.1c0.1,0,0.3,0,0.5,0l1.1-0.1c0.1,0,0.1,0,0.1,0c0,0,0,0.1,0,0.1L16.3,43
				c0,0.1,0,0.2,0,0.3c0,0.2,0,0.3,0.1,0.4c0,0.1,0.1,0.1,0.3,0.1c0.1,0,0.2,0,0.3-0.1c0.1-0.1,0.1-0.2,0.1-0.3c0-0.1,0-0.3,0-0.5
				l-0.1-1.1c0-0.1,0-0.1,0-0.1c0,0,0.1,0,0.1,0l1.2,0.1c0.1,0,0.2,0,0.3,0c0.2,0,0.3,0,0.4-0.1c0.1,0,0.1-0.1,0.1-0.3
				C19,41.3,19,41.2,18.9,41.2L18.9,41.2z"/>
		</g>
		<g>
			<path class="st2" d="M21.6,44.7c-0.1-0.1-0.2-0.1-0.3-0.1c-0.1,0-0.3,0-0.5,0l-1.1,0.1c0,0-0.1,0-0.1,0c0,0,0-0.1,0-0.1l0.1-1.2
				c0-0.1,0-0.2,0-0.3c0-0.2,0-0.3-0.1-0.4c0-0.1-0.1-0.1-0.3-0.1c-0.1,0-0.2,0-0.3,0.1c-0.1,0.1-0.1,0.2-0.1,0.3c0,0.1,0,0.3,0,0.5
				l0.1,1.1c0,0,0,0.1,0,0.1c0,0-0.1,0-0.1,0l-1.2-0.1c-0.1,0-0.2,0-0.3,0c-0.2,0-0.3,0-0.4,0.1c-0.1,0-0.1,0.1-0.1,0.3
				c0,0.1,0,0.2,0.1,0.3c0.1,0.1,0.2,0.1,0.3,0.1c0.1,0,0.3,0,0.5,0l1.1-0.1c0.1,0,0.1,0,0.1,0c0,0,0,0.1,0,0.1L19,46.5
				c0,0.1,0,0.2,0,0.3c0,0.2,0,0.3,0.1,0.4c0,0.1,0.1,0.1,0.3,0.1c0.1,0,0.2,0,0.3-0.1c0.1-0.1,0.1-0.2,0.1-0.3c0-0.1,0-0.3,0-0.5
				l-0.1-1.1c0,0,0-0.1,0-0.1c0,0,0.1,0,0.1,0l1.2,0.1c0.1,0,0.2,0,0.3,0c0.2,0,0.3,0,0.4-0.1c0.1,0,0.1-0.1,0.1-0.3
				C21.7,44.9,21.7,44.8,21.6,44.7L21.6,44.7z"/>
		</g>
		<g>
			<path class="st2" d="M20.1,50.2c-0.1-0.1-0.2-0.1-0.3-0.1c-0.1,0-0.3,0-0.5,0l-1.1,0.1c0,0-0.1,0-0.1,0c0,0,0-0.1,0-0.1l0.1-1.2
				c0-0.1,0-0.2,0-0.3c0-0.2,0-0.3-0.1-0.4c0-0.1-0.1-0.1-0.3-0.1c-0.1,0-0.2,0-0.3,0.1c-0.1,0.1-0.1,0.2-0.1,0.3c0,0.1,0,0.3,0,0.5
				l0.1,1.1c0,0,0,0.1,0,0.1c0,0-0.1,0-0.1,0l-1.2-0.1c-0.1,0-0.2,0-0.3,0c-0.2,0-0.3,0-0.4,0.1c-0.1,0-0.1,0.1-0.1,0.3
				c0,0.1,0,0.2,0.1,0.3c0.1,0.1,0.2,0.1,0.3,0.1c0.1,0,0.3,0,0.5,0l1.1-0.1c0.1,0,0.1,0,0.1,0c0,0,0,0.1,0,0.1L17.5,52
				c0,0.1,0,0.2,0,0.3c0,0.2,0,0.3,0.1,0.4c0,0.1,0.1,0.1,0.3,0.1c0.1,0,0.2,0,0.3-0.1c0.1-0.1,0.1-0.2,0.1-0.3c0-0.1,0-0.3,0-0.5
				l-0.1-1.1c0,0,0-0.1,0-0.1c0,0,0.1,0,0.1,0l1.2,0.1c0.1,0,0.2,0,0.3,0c0.2,0,0.3,0,0.4-0.1c0.1,0,0.1-0.1,0.1-0.3
				C20.2,50.4,20.2,50.3,20.1,50.2L20.1,50.2z"/>
		</g>
		<g>
			<path class="st2" d="M16.5,54c-0.1-0.1-0.2-0.1-0.3-0.1c-0.1,0-0.3,0-0.5,0L14.6,54c-0.1,0-0.1,0-0.1,0c0,0,0-0.1,0-0.1l0.1-1.2
				c0-0.1,0-0.2,0-0.3c0-0.2,0-0.3-0.1-0.4c0-0.1-0.1-0.1-0.3-0.1c-0.1,0-0.2,0-0.3,0.1c-0.1,0.1-0.1,0.2-0.1,0.3c0,0.1,0,0.3,0,0.5
				l0.1,1.1c0,0,0,0.1,0,0.1c0,0-0.1,0-0.1,0l-1.2-0.1c-0.1,0-0.2,0-0.3,0c-0.2,0-0.3,0-0.4,0.1c-0.1,0-0.1,0.1-0.1,0.3
				c0,0.1,0,0.2,0.1,0.3c0.1,0.1,0.2,0.1,0.3,0.1c0.1,0,0.3,0,0.5,0l1.1-0.1c0.1,0,0.1,0,0.1,0c0,0,0,0.1,0,0.1l-0.1,1.2
				c0,0.1,0,0.2,0,0.3c0,0.2,0,0.3,0.1,0.4c0,0.1,0.1,0.1,0.3,0.1c0.1,0,0.2,0,0.3-0.1c0.1-0.1,0.1-0.2,0.1-0.3c0-0.1,0-0.3,0-0.5
				l-0.1-1.1c0-0.1,0-0.1,0-0.1c0,0,0.1,0,0.1,0l1.2,0.1c0.1,0,0.2,0,0.3,0c0.2,0,0.3,0,0.4-0.1c0.1,0,0.1-0.1,0.1-0.3
				C16.6,54.1,16.6,54.1,16.5,54L16.5,54z"/>
		</g>
		<g>
			<path class="st2" d="M16.7,46.2c-0.1-0.1-0.2-0.1-0.3-0.1c-0.1,0-0.3,0-0.5,0l-1.1,0.1c-0.1,0-0.1,0-0.1,0c0,0,0-0.1,0-0.1
				l0.1-1.2c0-0.1,0-0.2,0-0.3c0-0.2,0-0.3-0.1-0.4c0-0.1-0.1-0.1-0.3-0.1c-0.1,0-0.2,0-0.3,0.1c-0.1,0.1-0.1,0.2-0.1,0.3
				c0,0.1,0,0.3,0,0.5l0.1,1.1c0,0.1,0,0.1,0,0.1c0,0-0.1,0-0.1,0l-1.2-0.1c-0.1,0-0.2,0-0.3,0c-0.2,0-0.3,0-0.4,0.1
				c-0.1,0-0.1,0.1-0.1,0.3c0,0.1,0,0.2,0.1,0.3c0.1,0.1,0.2,0.1,0.3,0.1c0.1,0,0.3,0,0.5,0l1.1-0.1c0.1,0,0.1,0,0.2,0
				c0,0,0,0.1,0,0.1L14.1,48c0,0.1,0,0.2,0,0.3c0,0.2,0,0.3,0.1,0.4c0,0.1,0.1,0.1,0.3,0.1c0.1,0,0.2,0,0.3-0.1
				c0.1-0.1,0.1-0.2,0.1-0.3c0-0.1,0-0.3,0-0.5l-0.1-1.1c0-0.1,0-0.1,0-0.1c0,0,0.1,0,0.1,0l1.2,0.1c0.1,0,0.2,0,0.3,0
				c0.2,0,0.3,0,0.4-0.1c0.1,0,0.1-0.1,0.1-0.3C16.8,46.4,16.8,46.3,16.7,46.2L16.7,46.2z"/>
		</g>
		<g>
			<path class="st2" d="M39.7,50c-0.1-0.1-0.1-0.1-0.2-0.1c-0.1,0-0.2,0-0.4,0L38.2,50c0,0-0.1,0-0.1,0c0,0,0-0.1,0-0.1l0.1-0.9
				c0-0.1,0-0.2,0-0.2c0-0.1,0-0.2-0.1-0.3c0-0.1-0.1-0.1-0.2-0.1c-0.1,0-0.2,0-0.2,0.1c-0.1,0.1-0.1,0.1-0.1,0.2c0,0.1,0,0.2,0,0.4
				l0.1,0.9c0,0,0,0.1,0,0.1c0,0-0.1,0-0.1,0l-0.9-0.1c-0.1,0-0.2,0-0.3,0c-0.1,0-0.2,0-0.3,0.1C36,50,36,50.1,36,50.2
				c0,0.1,0,0.2,0.1,0.2c0.1,0.1,0.1,0.1,0.2,0.1c0.1,0,0.2,0,0.4,0l0.9-0.1c0,0,0.1,0,0.1,0c0,0,0,0.1,0,0.1l-0.1,0.9
				c0,0.1,0,0.2,0,0.3c0,0.1,0,0.2,0.1,0.3c0,0.1,0.1,0.1,0.2,0.1c0.1,0,0.2,0,0.2-0.1c0.1-0.1,0.1-0.1,0.1-0.2c0-0.1,0-0.2,0-0.4
				l-0.1-0.9c0,0,0-0.1,0-0.1c0,0,0.1,0,0.1,0l0.9,0.1c0.1,0,0.2,0,0.3,0c0.1,0,0.2,0,0.3-0.1c0.1,0,0.1-0.1,0.1-0.2
				C39.8,50.1,39.7,50.1,39.7,50L39.7,50z"/>
		</g>
		<g>
			<path class="st2" d="M50.7,35C50.7,35,50.6,35,50.5,35c-0.1,0-0.2,0-0.4,0L49.2,35c0,0-0.1,0-0.1,0c0,0,0-0.1,0-0.1l0.1-0.9
				c0-0.1,0-0.2,0-0.3c0-0.1,0-0.2-0.1-0.3c0-0.1-0.1-0.1-0.2-0.1c-0.1,0-0.2,0-0.2,0.1c-0.1,0.1-0.1,0.1-0.1,0.2c0,0.1,0,0.2,0,0.4
				l0.1,0.9c0,0,0,0.1,0,0.1c0,0-0.1,0-0.1,0L47.7,35c-0.1,0-0.2,0-0.3,0c-0.1,0-0.2,0-0.3,0.1c-0.1,0-0.1,0.1-0.1,0.2
				c0,0.1,0,0.2,0.1,0.2c0.1,0.1,0.1,0.1,0.2,0.1c0.1,0,0.2,0,0.4,0l0.9-0.1c0,0,0.1,0,0.1,0c0,0,0,0.1,0,0.1l-0.1,0.9
				c0,0.1,0,0.2,0,0.3c0,0.1,0,0.2,0.1,0.3c0,0.1,0.1,0.1,0.2,0.1c0.1,0,0.2,0,0.2-0.1c0.1-0.1,0.1-0.1,0.1-0.2c0-0.1,0-0.2,0-0.4
				l-0.1-0.9c0,0,0-0.1,0-0.1c0,0,0.1,0,0.1,0l0.9,0.1c0.1,0,0.2,0,0.3,0c0.1,0,0.2,0,0.3-0.1c0.1,0,0.1-0.1,0.1-0.2
				C50.8,35.2,50.8,35.1,50.7,35L50.7,35z"/>
		</g>
		<g>
			<path class="st2" d="M48,37.8c-0.1-0.1-0.1-0.1-0.2-0.1c-0.1,0-0.2,0-0.4,0l-0.9,0.1c0,0-0.1,0-0.1,0c0,0,0-0.1,0-0.1l0.1-0.9
				c0-0.1,0-0.2,0-0.3c0-0.1,0-0.2-0.1-0.3c0-0.1-0.1-0.1-0.2-0.1c-0.1,0-0.2,0-0.2,0.1C46,36.2,46,36.3,46,36.4c0,0.1,0,0.2,0,0.4
				l0.1,0.9c0,0,0,0.1,0,0.1c0,0-0.1,0-0.1,0L45,37.7c-0.1,0-0.2,0-0.3,0c-0.1,0-0.2,0-0.3,0.1c-0.1,0-0.1,0.1-0.1,0.2
				c0,0.1,0,0.2,0.1,0.2c0.1,0.1,0.1,0.1,0.2,0.1c0.1,0,0.2,0,0.4,0l0.9-0.1c0,0,0.1,0,0.1,0c0,0,0,0.1,0,0.1L46,39.2
				c0,0.1,0,0.2,0,0.3c0,0.1,0,0.2,0.1,0.3c0,0.1,0.1,0.1,0.2,0.1c0.1,0,0.2,0,0.2-0.1c0.1-0.1,0.1-0.1,0.1-0.2c0-0.1,0-0.2,0-0.4
				l-0.1-0.9c0,0,0-0.1,0-0.1c0,0,0.1,0,0.1,0l0.9,0.1c0.1,0,0.2,0,0.3,0c0.1,0,0.2,0,0.3-0.1c0.1,0,0.1-0.1,0.1-0.2
				C48.1,37.9,48.1,37.8,48,37.8L48,37.8z"/>
		</g>
		<g>
			<path class="st2" d="M32.9,22.4c-0.1-0.1-0.1-0.1-0.2-0.1c-0.1,0-0.2,0-0.4,0l-0.9,0.1c0,0-0.1,0-0.1,0c0,0,0-0.1,0-0.1l0.1-0.9
				c0-0.1,0-0.2,0-0.3c0-0.1,0-0.2-0.1-0.3c0-0.1-0.1-0.1-0.2-0.1c-0.1,0-0.2,0-0.2,0.1c-0.1,0.1-0.1,0.1-0.1,0.2c0,0.1,0,0.2,0,0.4
				l0.1,0.9c0,0,0,0.1,0,0.1c0,0-0.1,0-0.1,0l-0.9-0.1c-0.1,0-0.2,0-0.3,0c-0.1,0-0.2,0-0.3,0.1c-0.1,0-0.1,0.1-0.1,0.2
				c0,0.1,0,0.2,0.1,0.2c0.1,0.1,0.1,0.1,0.2,0.1c0.1,0,0.2,0,0.4,0l0.9-0.1c0,0,0.1,0,0.1,0c0,0,0,0.1,0,0.1l-0.1,0.9
				c0,0.1,0,0.2,0,0.3c0,0.1,0,0.2,0.1,0.3c0,0.1,0.1,0.1,0.2,0.1c0.1,0,0.2,0,0.2-0.1c0.1-0.1,0.1-0.1,0.1-0.2c0-0.1,0-0.2,0-0.4
				l-0.1-0.9c0,0,0-0.1,0-0.1c0,0,0.1,0,0.1,0l0.9,0.1c0.1,0,0.2,0,0.2,0c0.1,0,0.2,0,0.3-0.1c0.1,0,0.1-0.1,0.1-0.2
				C33,22.5,32.9,22.5,32.9,22.4L32.9,22.4z"/>
		</g>
		<g>
			<path class="st2" d="M27,28.7c-0.1-0.1-0.2-0.1-0.3-0.1c-0.1,0-0.3,0-0.5,0l-1.3,0.1c-0.1,0-0.1,0-0.2,0c0,0,0-0.1,0-0.1l0.1-1.3
				c0-0.1,0-0.2,0-0.4c0-0.2,0-0.4-0.1-0.5c0-0.1-0.2-0.2-0.3-0.2c-0.1,0-0.2,0-0.3,0.1c-0.1,0.1-0.1,0.2-0.1,0.3c0,0.1,0,0.3,0,0.5
				l0.1,1.3c0,0.1,0,0.1,0,0.2c0,0-0.1,0-0.1,0l-1.3-0.1c-0.1,0-0.2,0-0.4,0c-0.2,0-0.4,0-0.5,0.1c-0.1,0.1-0.2,0.2-0.2,0.3
				c0,0.1,0,0.2,0.1,0.3c0.1,0.1,0.2,0.1,0.3,0.1c0.1,0,0.3,0,0.5,0l1.3-0.1c0.1,0,0.1,0,0.2,0c0,0,0,0.1,0,0.1l-0.1,1.3
				c0,0.1,0,0.2,0,0.4c0,0.2,0,0.4,0.1,0.5c0.1,0.1,0.2,0.2,0.3,0.2c0.1,0,0.2,0,0.3-0.1c0.1-0.1,0.1-0.2,0.1-0.3c0-0.1,0-0.3,0-0.5
				l-0.1-1.3c0-0.1,0-0.1,0-0.2c0,0,0.1,0,0.1,0l1.3,0.1c0.1,0,0.2,0,0.4,0c0.2,0,0.4,0,0.5-0.1c0.1-0.1,0.2-0.2,0.2-0.3
				C27.1,28.9,27.1,28.8,27,28.7L27,28.7z"/>
		</g>
		<g>
			<path class="st2" d="M22.9,32.4c-0.1-0.1-0.2-0.1-0.3-0.1c-0.1,0-0.3,0-0.5,0l-1.2,0.1c-0.1,0-0.1,0-0.1,0c0,0,0-0.1,0-0.1
				l0.1-1.2c0-0.1,0-0.2,0-0.3c0-0.2,0-0.3-0.1-0.4c0-0.1-0.1-0.1-0.3-0.1c-0.1,0-0.2,0-0.3,0.1c-0.1,0.1-0.1,0.2-0.1,0.3
				c0,0.1,0,0.3,0,0.5l0.1,1.2c0,0.1,0,0.1,0,0.1c0,0-0.1,0-0.1,0l-1.2-0.1c-0.1,0-0.2,0-0.3,0c-0.2,0-0.3,0-0.4,0.1
				c-0.1,0-0.1,0.1-0.1,0.3c0,0.1,0,0.2,0.1,0.3c0.1,0.1,0.2,0.1,0.3,0.1c0.1,0,0.3,0,0.5,0l1.2-0.1c0.1,0,0.1,0,0.2,0
				c0,0,0,0.1,0,0.1l-0.1,1.2c0,0.1,0,0.2,0,0.3c0,0.2,0,0.3,0.1,0.4c0,0.1,0.1,0.1,0.3,0.1c0.1,0,0.2,0,0.3-0.1
				c0.1-0.1,0.1-0.2,0.1-0.3c0-0.1,0-0.3,0-0.5L20.8,33c0-0.1,0-0.1,0-0.1c0,0,0.1,0,0.1,0l1.2,0.1c0.1,0,0.2,0,0.3,0
				c0.2,0,0.3,0,0.4-0.1c0.1,0,0.1-0.1,0.1-0.3C23,32.5,23,32.5,22.9,32.4L22.9,32.4z"/>
		</g>
		<g>
			<path class="st2" d="M14.2,42.7c-0.1-0.1-0.1-0.1-0.2-0.1c-0.1,0-0.2,0-0.4,0l-0.9,0.1c0,0-0.1,0-0.1,0c0,0,0-0.1,0-0.1l0.1-0.9
				c0-0.1,0-0.2,0-0.3c0-0.1,0-0.2-0.1-0.3c0-0.1-0.1-0.1-0.2-0.1c-0.1,0-0.2,0-0.2,0.1c-0.1,0.1-0.1,0.1-0.1,0.2c0,0.1,0,0.2,0,0.4
				l0.1,0.9c0,0,0,0.1,0,0.1c0,0-0.1,0-0.1,0l-0.9-0.1c-0.1,0-0.2,0-0.3,0c-0.1,0-0.2,0-0.3,0.1c-0.1,0-0.1,0.1-0.1,0.2
				c0,0.1,0,0.2,0.1,0.2c0.1,0.1,0.1,0.1,0.2,0.1c0.1,0,0.2,0,0.4,0l0.9-0.1c0,0,0.1,0,0.1,0c0,0,0,0.1,0,0.1l-0.1,0.9
				c0,0.1,0,0.2,0,0.3c0,0.1,0,0.2,0.1,0.3c0,0.1,0.1,0.1,0.2,0.1c0.1,0,0.2,0,0.2-0.1c0.1-0.1,0.1-0.1,0.1-0.2c0-0.1,0-0.2,0-0.4
				l-0.1-0.9c0,0,0-0.1,0-0.1c0,0,0.1,0,0.1,0l0.9,0.1c0.1,0,0.2,0,0.3,0c0.1,0,0.2,0,0.3-0.1c0.1,0,0.1-0.1,0.1-0.2
				C14.3,42.8,14.3,42.7,14.2,42.7L14.2,42.7z"/>
		</g>
		<g>
			<path class="st2" d="M38.2,22.5c-0.1-0.1-0.1-0.1-0.2-0.1c-0.1,0-0.2,0-0.4,0l-0.9,0.1c0,0-0.1,0-0.1,0c0,0,0-0.1,0-0.1l0.1-0.9
				c0-0.1,0-0.2,0-0.2c0-0.1,0-0.2-0.1-0.3c0-0.1-0.1-0.1-0.2-0.1c-0.1,0-0.2,0-0.2,0.1c-0.1,0.1-0.1,0.1-0.1,0.2c0,0.1,0,0.2,0,0.4
				l0.1,0.9c0,0,0,0.1,0,0.1c0,0-0.1,0-0.1,0l-0.9-0.1c-0.1,0-0.2,0-0.3,0c-0.1,0-0.2,0-0.3,0.1c-0.1,0-0.1,0.1-0.1,0.2
				c0,0.1,0,0.2,0.1,0.2c0.1,0.1,0.1,0.1,0.2,0.1c0.1,0,0.2,0,0.4,0l0.9-0.1c0,0,0.1,0,0.1,0c0,0,0,0.1,0,0.1L36.1,24
				c0,0.1,0,0.2,0,0.3c0,0.1,0,0.2,0.1,0.3c0,0.1,0.1,0.1,0.2,0.1c0.1,0,0.2,0,0.2-0.1c0.1-0.1,0.1-0.1,0.1-0.2c0-0.1,0-0.2,0-0.4
				L36.6,23c0,0,0-0.1,0-0.1c0,0,0.1,0,0.1,0l0.9,0.1c0.1,0,0.2,0,0.3,0c0.1,0,0.2,0,0.3-0.1c0.1,0,0.1-0.1,0.1-0.2
				C38.3,22.7,38.3,22.6,38.2,22.5L38.2,22.5z"/>
		</g>
		<g>
			<path class="st2" d="M21.3,54.6c-0.1-0.1-0.1-0.1-0.2-0.1c-0.1,0-0.2,0-0.4,0l-0.9,0.1c0,0-0.1,0-0.1,0c0,0,0-0.1,0-0.1l0.1-0.9
				c0-0.1,0-0.2,0-0.3c0-0.1,0-0.2-0.1-0.3c0-0.1-0.1-0.1-0.2-0.1c-0.1,0-0.2,0-0.2,0.1c-0.1,0.1-0.1,0.1-0.1,0.2c0,0.1,0,0.2,0,0.4
				l0.1,0.9c0,0,0,0.1,0,0.1c0,0-0.1,0-0.1,0l-0.9-0.1c-0.1,0-0.2,0-0.3,0c-0.1,0-0.2,0-0.3,0.1c-0.1,0-0.1,0.1-0.1,0.2
				c0,0.1,0,0.2,0.1,0.2c0.1,0.1,0.1,0.1,0.2,0.1c0.1,0,0.2,0,0.4,0l0.9-0.1c0,0,0.1,0,0.1,0c0,0,0,0.1,0,0.1L19.2,56
				c0,0.1,0,0.2,0,0.3c0,0.1,0,0.2,0.1,0.3c0,0.1,0.1,0.1,0.2,0.1c0.1,0,0.2,0,0.2-0.1c0.1-0.1,0.1-0.1,0.1-0.2c0-0.1,0-0.2,0-0.4
				l-0.1-0.9c0,0,0-0.1,0-0.1c0,0,0.1,0,0.1,0l0.9,0.1c0.1,0,0.2,0,0.3,0c0.1,0,0.2,0,0.3-0.1c0.1,0,0.1-0.1,0.1-0.2
				C21.3,54.7,21.3,54.6,21.3,54.6L21.3,54.6z"/>
		</g>
		<g>
			<path class="st2" d="M20,36.4c-0.1-0.1-0.1-0.1-0.2-0.1c-0.1,0-0.2,0-0.4,0l-0.9,0.1c0,0-0.1,0-0.1,0c0,0,0-0.1,0-0.1l0.1-0.9
				c0-0.1,0-0.2,0-0.3c0-0.1,0-0.2-0.1-0.3c0-0.1-0.1-0.1-0.2-0.1c-0.1,0-0.2,0-0.2,0.1C18,34.9,18,34.9,18,35c0,0.1,0,0.2,0,0.4
				l0.1,0.9c0,0,0,0.1,0,0.1c0,0-0.1,0-0.1,0L17,36.3c-0.1,0-0.2,0-0.3,0c-0.1,0-0.2,0-0.3,0.1c-0.1,0-0.1,0.1-0.1,0.2
				c0,0.1,0,0.2,0.1,0.2c0.1,0.1,0.1,0.1,0.2,0.1c0.1,0,0.2,0,0.4,0l0.9-0.1c0,0,0.1,0,0.1,0c0,0,0,0.1,0,0.1L18,37.8
				c0,0.1,0,0.2,0,0.3c0,0.1,0,0.2,0.1,0.3c0,0.1,0.1,0.1,0.2,0.1c0.1,0,0.2,0,0.2-0.1c0.1-0.1,0.1-0.1,0.1-0.2c0-0.1,0-0.2,0-0.4
				l-0.1-0.9c0,0,0-0.1,0-0.1c0,0,0.1,0,0.1,0l0.9,0.1c0.1,0,0.2,0,0.2,0c0.1,0,0.2,0,0.3-0.1c0.1,0,0.1-0.1,0.1-0.2
				C20.1,36.5,20.1,36.5,20,36.4L20,36.4z"/>
		</g>
		<g>
			<path class="st2" d="M13.7,50.4c-0.1-0.1-0.1-0.1-0.2-0.1c-0.1,0-0.2,0-0.4,0l-0.9,0.1c0,0-0.1,0-0.1,0c0,0,0-0.1,0-0.1l0.1-0.9
				c0-0.1,0-0.2,0-0.2c0-0.1,0-0.2-0.1-0.3c0-0.1-0.1-0.1-0.2-0.1c-0.1,0-0.2,0-0.2,0.1c-0.1,0.1-0.1,0.1-0.1,0.2c0,0.1,0,0.2,0,0.4
				l0.1,0.9c0,0,0,0.1,0,0.1c0,0-0.1,0-0.1,0l-0.9-0.1c-0.1,0-0.2,0-0.3,0c-0.1,0-0.2,0-0.3,0.1c-0.1,0-0.1,0.1-0.1,0.2
				c0,0.1,0,0.2,0.1,0.2c0.1,0.1,0.1,0.1,0.2,0.1c0.1,0,0.2,0,0.4,0l0.9-0.1c0,0,0.1,0,0.1,0c0,0,0,0.1,0,0.1l-0.1,0.9
				c0,0.1,0,0.2,0,0.3c0,0.1,0,0.2,0.1,0.3c0,0.1,0.1,0.1,0.2,0.1c0.1,0,0.2,0,0.2-0.1c0.1-0.1,0.1-0.1,0.1-0.2c0-0.1,0-0.2,0-0.4
				l-0.1-0.9c0,0,0-0.1,0-0.1c0,0,0.1,0,0.1,0l0.9,0.1c0.1,0,0.2,0,0.2,0c0.1,0,0.2,0,0.3-0.1c0.1,0,0.1-0.1,0.1-0.2
				C13.8,50.5,13.8,50.4,13.7,50.4L13.7,50.4z"/>
		</g>
		<g>
			<path class="st2" d="M41.4,25.2c-0.1-0.1-0.1-0.1-0.2-0.1c-0.1,0-0.2,0-0.4,0l-0.9,0.1c0,0-0.1,0-0.1,0c0,0,0-0.1,0-0.1l0.1-0.9
				c0-0.1,0-0.2,0-0.3c0-0.1,0-0.2-0.1-0.3c0-0.1-0.1-0.1-0.2-0.1c-0.1,0-0.2,0-0.2,0.1c-0.1,0.1-0.1,0.1-0.1,0.2c0,0.1,0,0.2,0,0.4
				l0.1,0.9c0,0,0,0.1,0,0.1c0,0-0.1,0-0.1,0l-0.9-0.1c-0.1,0-0.2,0-0.3,0c-0.1,0-0.2,0-0.3,0.1c-0.1,0-0.1,0.1-0.1,0.2
				c0,0.1,0,0.2,0.1,0.2c0.1,0.1,0.1,0.1,0.2,0.1c0.1,0,0.2,0,0.4,0l0.9-0.1c0,0,0.1,0,0.1,0c0,0,0,0.1,0,0.1l-0.1,0.9
				c0,0.1,0,0.2,0,0.3c0,0.1,0,0.2,0.1,0.3c0,0.1,0.1,0.1,0.2,0.1c0.1,0,0.2,0,0.2-0.1c0.1-0.1,0.1-0.1,0.1-0.2c0-0.1,0-0.2,0-0.4
				l-0.1-0.9c0,0,0-0.1,0-0.1c0,0,0.1,0,0.1,0l0.9,0.1c0.1,0,0.2,0,0.3,0c0.1,0,0.2,0,0.3-0.1c0.1,0,0.1-0.1,0.1-0.2
				C41.5,25.4,41.5,25.3,41.4,25.2L41.4,25.2z"/>
		</g>
		<g>
			<path class="st2" d="M58.2,43.4c-0.1-0.1-0.1-0.1-0.2-0.1c-0.1,0-0.2,0-0.4,0l-0.9,0.1c0,0-0.1,0-0.1,0c0,0,0-0.1,0-0.1l0.1-0.9
				c0-0.1,0-0.2,0-0.3c0-0.1,0-0.2-0.1-0.3c0-0.1-0.1-0.1-0.2-0.1c-0.1,0-0.2,0-0.2,0.1c-0.1,0.1-0.1,0.1-0.1,0.2c0,0.1,0,0.2,0,0.4
				l0.1,0.9c0,0,0,0.1,0,0.1c0,0-0.1,0-0.1,0l-0.9-0.1c-0.1,0-0.2,0-0.3,0c-0.1,0-0.2,0-0.3,0.1c-0.1,0-0.1,0.1-0.1,0.2
				c0,0.1,0,0.2,0.1,0.2c0.1,0.1,0.1,0.1,0.2,0.1c0.1,0,0.2,0,0.4,0l0.9-0.1c0,0,0.1,0,0.1,0c0,0,0,0.1,0,0.1l-0.1,0.9
				c0,0.1,0,0.2,0,0.3c0,0.1,0,0.2,0.1,0.3c0,0.1,0.1,0.1,0.2,0.1c0.1,0,0.2,0,0.2-0.1c0.1-0.1,0.1-0.1,0.1-0.2c0-0.1,0-0.2,0-0.4
				l-0.1-0.9c0,0,0-0.1,0-0.1c0,0,0.1,0,0.1,0l0.9,0.1c0.1,0,0.2,0,0.2,0c0.1,0,0.2,0,0.3-0.1c0.1,0,0.1-0.1,0.1-0.2
				C58.3,43.5,58.2,43.4,58.2,43.4L58.2,43.4z"/>
		</g>
		<g>
			<path class="st2" d="M15.4,37.6c0,0-0.1-0.1-0.2-0.1c-0.1,0-0.2,0-0.3,0l-0.7,0c0,0-0.1,0-0.1,0c0,0,0,0,0-0.1l0.1-0.7
				c0-0.1,0-0.1,0-0.2c0-0.1,0-0.2,0-0.2c0-0.1-0.1-0.1-0.2-0.1c-0.1,0-0.1,0-0.2,0.1c0,0-0.1,0.1-0.1,0.2c0,0.1,0,0.2,0,0.3l0,0.7
				c0,0,0,0.1,0,0.1c0,0,0,0-0.1,0l-0.7-0.1c-0.1,0-0.1,0-0.2,0c-0.1,0-0.2,0-0.2,0c-0.1,0-0.1,0.1-0.1,0.2c0,0.1,0,0.1,0.1,0.2
				c0,0,0.1,0.1,0.2,0.1c0.1,0,0.2,0,0.3,0l0.7,0c0,0,0.1,0,0.1,0c0,0,0,0,0,0.1l-0.1,0.7c0,0.1,0,0.1,0,0.2c0,0.1,0,0.2,0,0.2
				c0,0.1,0.1,0.1,0.2,0.1c0.1,0,0.1,0,0.2-0.1c0,0,0.1-0.1,0.1-0.2c0-0.1,0-0.2,0-0.3l0-0.7c0,0,0-0.1,0-0.1c0,0,0,0,0.1,0L15,38
				c0.1,0,0.1,0,0.2,0c0.1,0,0.2,0,0.2,0c0.1,0,0.1-0.1,0.1-0.2C15.5,37.7,15.5,37.7,15.4,37.6L15.4,37.6z"/>
		</g>
		<g>
			<path class="st2" d="M29.4,25.1c0,0-0.1-0.1-0.2-0.1c-0.1,0-0.2,0-0.3,0l-0.7,0c0,0-0.1,0-0.1,0c0,0,0,0,0-0.1l0.1-0.7
				c0-0.1,0-0.1,0-0.2c0-0.1,0-0.2,0-0.2c0-0.1-0.1-0.1-0.2-0.1c-0.1,0-0.1,0-0.2,0.1c0,0-0.1,0.1-0.1,0.2c0,0.1,0,0.2,0,0.3l0,0.7
				c0,0,0,0.1,0,0.1c0,0,0,0-0.1,0L27.1,25c-0.1,0-0.1,0-0.2,0c-0.1,0-0.2,0-0.2,0c-0.1,0-0.1,0.1-0.1,0.2c0,0.1,0,0.1,0.1,0.2
				c0,0,0.1,0.1,0.2,0.1c0.1,0,0.2,0,0.3,0l0.7,0c0,0,0.1,0,0.1,0c0,0,0,0,0,0.1l-0.1,0.7c0,0.1,0,0.1,0,0.2c0,0.1,0,0.2,0,0.2
				c0,0.1,0.1,0.1,0.2,0.1c0.1,0,0.1,0,0.2-0.1c0,0,0.1-0.1,0.1-0.2c0-0.1,0-0.2,0-0.3l0-0.7c0,0,0-0.1,0-0.1c0,0,0,0,0.1,0l0.7,0.1
				c0.1,0,0.1,0,0.2,0c0.1,0,0.2,0,0.2,0c0.1,0,0.1-0.1,0.1-0.2C29.5,25.2,29.5,25.1,29.4,25.1L29.4,25.1z"/>
		</g>
		<g>
			<path class="st2" d="M43.5,37.6c0,0-0.1-0.1-0.2-0.1c-0.1,0-0.2,0-0.3,0l-0.7,0c0,0-0.1,0-0.1,0c0,0,0,0,0-0.1l0.1-0.7
				c0-0.1,0-0.1,0-0.2c0-0.1,0-0.2,0-0.2c0-0.1-0.1-0.1-0.2-0.1c-0.1,0-0.1,0-0.2,0.1c0,0-0.1,0.1-0.1,0.2c0,0.1,0,0.2,0,0.3l0,0.7
				c0,0,0,0.1,0,0.1c0,0,0,0-0.1,0l-0.7-0.1c-0.1,0-0.1,0-0.2,0c-0.1,0-0.2,0-0.2,0c-0.1,0-0.1,0.1-0.1,0.2c0,0.1,0,0.1,0.1,0.2
				c0,0,0.1,0.1,0.2,0.1c0.1,0,0.2,0,0.3,0l0.7,0c0,0,0.1,0,0.1,0c0,0,0,0,0,0.1l-0.1,0.7c0,0.1,0,0.1,0,0.2c0,0.1,0,0.2,0,0.2
				c0,0.1,0.1,0.1,0.2,0.1c0.1,0,0.1,0,0.2-0.1c0,0,0.1-0.1,0.1-0.2c0-0.1,0-0.2,0-0.3l0-0.7c0,0,0-0.1,0-0.1c0,0,0,0,0.1,0L43,38
				c0.1,0,0.1,0,0.2,0c0.1,0,0.2,0,0.2,0c0.1,0,0.1-0.1,0.1-0.2C43.5,37.7,43.5,37.7,43.5,37.6L43.5,37.6z"/>
		</g>
		<g>
			<path class="st2" d="M59.7,47.9c0,0-0.1-0.1-0.2-0.1c-0.1,0-0.2,0-0.3,0l-0.7,0c0,0-0.1,0-0.1,0c0,0,0,0,0-0.1l0.1-0.7
				c0-0.1,0-0.1,0-0.2c0-0.1,0-0.2,0-0.2c0-0.1-0.1-0.1-0.2-0.1c-0.1,0-0.1,0-0.2,0.1c0,0-0.1,0.1-0.1,0.2c0,0.1,0,0.2,0,0.3l0,0.7
				c0,0,0,0.1,0,0.1c0,0,0,0-0.1,0l-0.7-0.1c-0.1,0-0.1,0-0.2,0c-0.1,0-0.2,0-0.2,0c-0.1,0-0.1,0.1-0.1,0.2c0,0.1,0,0.1,0.1,0.2
				c0,0,0.1,0.1,0.2,0.1c0.1,0,0.2,0,0.3,0l0.7,0c0,0,0.1,0,0.1,0c0,0,0,0,0,0.1L58.2,49c0,0.1,0,0.1,0,0.2c0,0.1,0,0.2,0,0.2
				c0,0.1,0.1,0.1,0.2,0.1c0.1,0,0.1,0,0.2-0.1c0,0,0.1-0.1,0.1-0.2c0-0.1,0-0.2,0-0.3l0-0.7c0,0,0-0.1,0-0.1c0,0,0,0,0.1,0l0.7,0.1
				c0.1,0,0.1,0,0.2,0c0.1,0,0.2,0,0.2,0c0.1,0,0.1-0.1,0.1-0.2C59.8,48,59.8,48,59.7,47.9L59.7,47.9z"/>
		</g>
		<g>
			<path class="st2" d="M54.4,55.6c0,0-0.1-0.1-0.2-0.1c-0.1,0-0.2,0-0.3,0l-0.7,0c0,0-0.1,0-0.1,0c0,0,0,0,0-0.1l0.1-0.7
				c0-0.1,0-0.1,0-0.2c0-0.1,0-0.2,0-0.2c0-0.1-0.1-0.1-0.2-0.1c-0.1,0-0.1,0-0.2,0.1c0,0-0.1,0.1-0.1,0.2c0,0.1,0,0.2,0,0.3l0,0.7
				c0,0,0,0.1,0,0.1c0,0,0,0-0.1,0l-0.7-0.1c-0.1,0-0.1,0-0.2,0c-0.1,0-0.2,0-0.2,0c-0.1,0-0.1,0.1-0.1,0.2c0,0.1,0,0.1,0.1,0.2
				c0,0,0.1,0.1,0.2,0.1c0.1,0,0.2,0,0.3,0l0.7,0c0,0,0.1,0,0.1,0c0,0,0,0,0,0.1l-0.1,0.7c0,0.1,0,0.1,0,0.2c0,0.1,0,0.2,0,0.2
				c0,0.1,0.1,0.1,0.2,0.1c0.1,0,0.1,0,0.2-0.1c0,0,0.1-0.1,0.1-0.2c0-0.1,0-0.2,0-0.3l0-0.7c0,0,0-0.1,0-0.1c0,0,0,0,0.1,0l0.7,0.1
				c0.1,0,0.1,0,0.2,0c0.1,0,0.2,0,0.2,0c0.1,0,0.1-0.1,0.1-0.2C54.5,55.7,54.5,55.6,54.4,55.6L54.4,55.6z"/>
		</g>
		<g>
			<path class="st2" d="M59.5,53.9c0,0-0.1-0.1-0.2-0.1c-0.1,0-0.2,0-0.3,0l-0.7,0c0,0-0.1,0-0.1,0c0,0,0,0,0-0.1l0.1-0.7
				c0-0.1,0-0.1,0-0.2c0-0.1,0-0.2,0-0.2c0-0.1-0.1-0.1-0.2-0.1c-0.1,0-0.1,0-0.2,0.1c0,0-0.1,0.1-0.1,0.2c0,0.1,0,0.2,0,0.3l0,0.7
				c0,0,0,0.1,0,0.1c0,0,0,0-0.1,0l-0.7-0.1c-0.1,0-0.1,0-0.2,0c-0.1,0-0.2,0-0.2,0c-0.1,0-0.1,0.1-0.1,0.2c0,0.1,0,0.1,0.1,0.2
				c0,0,0.1,0.1,0.2,0.1c0.1,0,0.2,0,0.3,0l0.7,0c0,0,0.1,0,0.1,0c0,0,0,0,0,0.1L57.9,55c0,0.1,0,0.1,0,0.2c0,0.1,0,0.2,0,0.2
				c0,0.1,0.1,0.1,0.2,0.1c0.1,0,0.1,0,0.2-0.1c0,0,0.1-0.1,0.1-0.2c0-0.1,0-0.2,0-0.3l0-0.7c0,0,0-0.1,0-0.1c0,0,0,0,0.1,0l0.7,0.1
				c0.1,0,0.1,0,0.2,0c0.1,0,0.2,0,0.2,0c0.1,0,0.1-0.1,0.1-0.2C59.6,54,59.5,54,59.5,53.9L59.5,53.9z"/>
		</g>
		<g>
			<path class="st3" d="M45.1,41.3c0,0.3-0.1,0.5-0.3,0.7c-0.2,0.2-0.5,0.3-0.7,0.3c-0.3,0-0.5-0.1-0.7-0.3
				c-0.2-0.2-0.3-0.5-0.3-0.7c0-0.3,0.1-0.5,0.3-0.7c0.2-0.2,0.5-0.3,0.7-0.3c0.3,0,0.5,0.1,0.7,0.3C45,40.8,45.1,41.1,45.1,41.3
				L45.1,41.3z"/>
		</g>
		<g>
			<path class="st2" d="M44.8,54c-0.4-0.4-0.9-0.5-1.5-0.5c-0.5,0-1.3,0-2.3,0.1L35.4,54c-0.2,0-0.5,0.1-0.7,0.1
				c0-0.2,0-0.4,0.1-0.6l0.5-6c0.1-0.6,0.1-1.1,0.1-1.6c0-0.9-0.1-1.6-0.3-2.1c-0.2-0.5-0.7-0.7-1.3-0.7c-0.6,0-1,0.2-1.3,0.6
				c-0.3,0.4-0.5,0.9-0.5,1.6c0,0.5,0,1.3,0.1,2.4l0.4,5.8c0,0.3,0.1,0.5,0.1,0.7c-0.2,0-0.4-0.1-0.6-0.1L26,53.6
				c-0.5-0.1-1.1-0.1-1.6-0.1c-0.9,0-1.5,0.1-2,0.4c-0.5,0.2-0.7,0.7-0.7,1.4c0,0.6,0.2,1,0.5,1.4c0.4,0.4,0.9,0.5,1.5,0.5
				c0.5,0,1.3,0,2.3-0.1l5.6-0.4c0.3,0,0.5-0.1,0.7-0.1c0,0.2-0.1,0.4-0.1,0.6l-0.5,6c-0.1,0.6-0.1,1.1-0.1,1.6
				c0,0.9,0.1,1.6,0.3,2.1c0.2,0.5,0.7,0.7,1.3,0.7c0.6,0,1-0.2,1.3-0.6c0.3-0.4,0.5-0.9,0.5-1.6c0-0.5,0-1.3-0.1-2.4l-0.4-5.8
				c0-0.3-0.1-0.5-0.1-0.7c0.2,0,0.4,0.1,0.6,0.1l5.8,0.5c0.5,0.1,1.1,0.1,1.6,0.1c0.9,0,1.5-0.1,2-0.4c0.5-0.2,0.7-0.7,0.7-1.4
				C45.4,54.8,45.2,54.4,44.8,54L44.8,54z"/>
		</g>
		<g>
			<path class="st2" d="M47.8,49.7c-0.1-0.1-0.2-0.1-0.3-0.1c-0.1,0-0.3,0-0.5,0l-1.1,0.1c0,0-0.1,0-0.1,0c0,0,0-0.1,0-0.1l0.1-1.2
				c0-0.1,0-0.2,0-0.3c0-0.2,0-0.3-0.1-0.4c0-0.1-0.1-0.1-0.3-0.1c-0.1,0-0.2,0-0.3,0.1c-0.1,0.1-0.1,0.2-0.1,0.3c0,0.1,0,0.3,0,0.5
				l0.1,1.1c0,0,0,0.1,0,0.1c0,0-0.1,0-0.1,0L44,49.6c-0.1,0-0.2,0-0.3,0c-0.2,0-0.3,0-0.4,0.1c-0.1,0-0.1,0.1-0.1,0.3
				c0,0.1,0,0.2,0.1,0.3c0.1,0.1,0.2,0.1,0.3,0.1c0.1,0,0.3,0,0.5,0l1.1-0.1c0.1,0,0.1,0,0.1,0c0,0,0,0.1,0,0.1l-0.1,1.2
				c0,0.1,0,0.2,0,0.3c0,0.2,0,0.3,0.1,0.4c0,0.1,0.1,0.1,0.3,0.1c0.1,0,0.2,0,0.3-0.1c0.1-0.1,0.1-0.2,0.1-0.3c0-0.1,0-0.3,0-0.5
				l-0.1-1.1c0-0.1,0-0.1,0-0.1c0,0,0.1,0,0.1,0l1.2,0.1c0.1,0,0.2,0,0.3,0c0.2,0,0.3,0,0.4-0.1c0.1,0,0.1-0.1,0.1-0.3
				C47.9,49.8,47.9,49.7,47.8,49.7L47.8,49.7z"/>
		</g>
		<g>
			<path class="st2" d="M51.6,52.4c-0.1-0.1-0.2-0.1-0.3-0.1c-0.1,0-0.3,0-0.5,0l-1.1,0.1c0,0-0.1,0-0.1,0c0,0,0-0.1,0-0.1l0.1-1.2
				c0-0.1,0-0.2,0-0.3c0-0.2,0-0.3-0.1-0.4c0-0.1-0.1-0.1-0.3-0.1c-0.1,0-0.2,0-0.3,0.1c-0.1,0.1-0.1,0.2-0.1,0.3c0,0.1,0,0.3,0,0.5
				l0.1,1.1c0,0,0,0.1,0,0.1c0,0-0.1,0-0.1,0l-1.2-0.1c-0.1,0-0.2,0-0.3,0c-0.2,0-0.3,0-0.4,0.1c-0.1,0-0.1,0.1-0.1,0.3
				c0,0.1,0,0.2,0.1,0.3c0.1,0.1,0.2,0.1,0.3,0.1c0.1,0,0.3,0,0.5,0l1.1-0.1c0.1,0,0.1,0,0.1,0c0,0,0,0.1,0,0.1l-0.1,1.2
				c0,0.1,0,0.2,0,0.3c0,0.2,0,0.3,0.1,0.4c0,0.1,0.1,0.1,0.3,0.1c0.1,0,0.2,0,0.3-0.1c0.1-0.1,0.1-0.2,0.1-0.3c0-0.1,0-0.3,0-0.5
				l-0.1-1.1c0-0.1,0-0.1,0-0.1c0,0,0.1,0,0.1,0l1.2,0.1c0.1,0,0.2,0,0.3,0c0.2,0,0.3,0,0.4-0.1c0.1,0,0.1-0.1,0.1-0.3
				C51.7,52.6,51.7,52.5,51.6,52.4L51.6,52.4z"/>
		</g>
		<g>
			<path class="st2" d="M57.6,51.4c-0.1-0.1-0.2-0.1-0.3-0.1c-0.1,0-0.3,0-0.5,0l-1.1,0.1c0,0-0.1,0-0.1,0c0,0,0-0.1,0-0.1l0.1-1.2
				c0-0.1,0-0.2,0-0.3c0-0.2,0-0.3-0.1-0.4c0-0.1-0.1-0.1-0.3-0.1c-0.1,0-0.2,0-0.3,0.1c-0.1,0.1-0.1,0.2-0.1,0.3c0,0.1,0,0.3,0,0.5
				l0.1,1.1c0,0.1,0,0.1,0,0.1c0,0-0.1,0-0.1,0l-1.2-0.1c-0.1,0-0.2,0-0.3,0c-0.2,0-0.3,0-0.4,0.1c-0.1,0-0.1,0.1-0.1,0.3
				c0,0.1,0,0.2,0.1,0.3C53,52,53.1,52,53.3,52c0.1,0,0.3,0,0.5,0l1.1-0.1c0.1,0,0.1,0,0.2,0c0,0,0,0.1,0,0.1l-0.1,1.2
				c0,0.1,0,0.2,0,0.3c0,0.2,0,0.3,0.1,0.4c0,0.1,0.1,0.1,0.3,0.1c0.1,0,0.2,0,0.3-0.1c0.1-0.1,0.1-0.2,0.1-0.3c0-0.1,0-0.3,0-0.5
				L55.5,52c0-0.1,0-0.1,0-0.1c0,0,0.1,0,0.1,0l1.2,0.1c0.1,0,0.2,0,0.3,0c0.2,0,0.3,0,0.4-0.1c0.1,0,0.1-0.1,0.1-0.3
				C57.7,51.6,57.6,51.5,57.6,51.4L57.6,51.4z"/>
		</g>
		<g>
			<path class="st2" d="M32.3,30.1c-0.1-0.1-0.2-0.1-0.3-0.1c-0.1,0-0.3,0-0.5,0l-1.1,0.1c-0.1,0-0.1,0-0.1,0c0,0,0-0.1,0-0.1
				l0.1-1.2c0-0.1,0-0.2,0-0.3c0-0.2,0-0.3-0.1-0.4c0-0.1-0.1-0.1-0.3-0.1c-0.1,0-0.2,0-0.3,0.1c-0.1,0.1-0.1,0.2-0.1,0.3
				c0,0.1,0,0.3,0,0.5l0.1,1.1c0,0,0,0.1,0,0.1c0,0-0.1,0-0.1,0L28.4,30c-0.1,0-0.2,0-0.3,0c-0.2,0-0.3,0-0.4,0.1
				c-0.1,0-0.1,0.1-0.1,0.3c0,0.1,0,0.2,0.1,0.3c0.1,0.1,0.2,0.1,0.3,0.1c0.1,0,0.3,0,0.5,0l1.1-0.1c0.1,0,0.1,0,0.1,0
				c0,0,0,0.1,0,0.1l-0.1,1.2c0,0.1,0,0.2,0,0.3c0,0.2,0,0.3,0.1,0.4c0,0.1,0.1,0.1,0.3,0.1c0.1,0,0.2,0,0.3-0.1
				c0.1-0.1,0.1-0.2,0.1-0.3c0-0.1,0-0.3,0-0.5l-0.1-1.1c0-0.1,0-0.1,0-0.1c0,0,0.1,0,0.1,0l1.2,0.1c0.1,0,0.2,0,0.3,0
				c0.2,0,0.3,0,0.4-0.1c0.1,0,0.1-0.1,0.1-0.3C32.4,30.3,32.3,30.2,32.3,30.1L32.3,30.1z"/>
		</g>
		<g>
			<path class="st2" d="M29.3,34c-0.1-0.1-0.2-0.1-0.3-0.1c-0.1,0-0.3,0-0.5,0L27.3,34c0,0-0.1,0-0.1,0c0,0,0-0.1,0-0.1l0.1-1.2
				c0-0.1,0-0.2,0-0.3c0-0.2,0-0.3-0.1-0.4c0-0.1-0.1-0.1-0.3-0.1c-0.1,0-0.2,0-0.3,0.1c-0.1,0.1-0.1,0.2-0.1,0.3c0,0.1,0,0.3,0,0.5
				l0.1,1.1c0,0,0,0.1,0,0.1c0,0-0.1,0-0.1,0l-1.2-0.1c-0.1,0-0.2,0-0.3,0c-0.2,0-0.3,0-0.4,0.1c-0.1,0-0.1,0.1-0.1,0.3
				c0,0.1,0,0.2,0.1,0.3c0.1,0.1,0.2,0.1,0.3,0.1c0.1,0,0.3,0,0.5,0l1.1-0.1c0.1,0,0.1,0,0.1,0c0,0,0,0.1,0,0.1l-0.1,1.2
				c0,0.1,0,0.2,0,0.3c0,0.2,0,0.3,0.1,0.4c0,0.1,0.1,0.1,0.3,0.1c0.1,0,0.2,0,0.3-0.1c0.1-0.1,0.1-0.2,0.1-0.3c0-0.1,0-0.3,0-0.5
				l-0.1-1.1c0-0.1,0-0.1,0-0.1c0,0,0.1,0,0.1,0l1.2,0.1c0.1,0,0.2,0,0.3,0c0.2,0,0.3,0,0.4-0.1c0.1,0,0.1-0.1,0.1-0.3
				C29.4,34.2,29.4,34.1,29.3,34L29.3,34z"/>
		</g>
		<g>
			<path class="st2" d="M18.9,41.2c-0.1-0.1-0.2-0.1-0.3-0.1c-0.1,0-0.3,0-0.5,0L17,41.1c0,0-0.1,0-0.1,0c0,0,0-0.1,0-0.1l0.1-1.2
				c0-0.1,0-0.2,0-0.3c0-0.2,0-0.3-0.1-0.4c0-0.1-0.1-0.1-0.3-0.1c-0.1,0-0.2,0-0.3,0.1c-0.1,0.1-0.1,0.2-0.1,0.3c0,0.1,0,0.3,0,0.5
				l0.1,1.1c0,0,0,0.1,0,0.1c0,0-0.1,0-0.1,0l-1.2-0.1c-0.1,0-0.2,0-0.3,0c-0.2,0-0.3,0-0.4,0.1c-0.1,0-0.1,0.1-0.1,0.3
				c0,0.1,0,0.2,0.1,0.3c0.1,0.1,0.2,0.1,0.3,0.1c0.1,0,0.3,0,0.5,0l1.1-0.1c0.1,0,0.1,0,0.1,0c0,0,0,0.1,0,0.1L16.3,43
				c0,0.1,0,0.2,0,0.3c0,0.2,0,0.3,0.1,0.4c0,0.1,0.1,0.1,0.3,0.1c0.1,0,0.2,0,0.3-0.1c0.1-0.1,0.1-0.2,0.1-0.3c0-0.1,0-0.3,0-0.5
				l-0.1-1.1c0-0.1,0-0.1,0-0.1c0,0,0.1,0,0.1,0l1.2,0.1c0.1,0,0.2,0,0.3,0c0.2,0,0.3,0,0.4-0.1c0.1,0,0.1-0.1,0.1-0.3
				C19,41.3,19,41.2,18.9,41.2L18.9,41.2z"/>
		</g>
		<g>
			<path class="st2" d="M21.6,44.7c-0.1-0.1-0.2-0.1-0.3-0.1c-0.1,0-0.3,0-0.5,0l-1.1,0.1c0,0-0.1,0-0.1,0c0,0,0-0.1,0-0.1l0.1-1.2
				c0-0.1,0-0.2,0-0.3c0-0.2,0-0.3-0.1-0.4c0-0.1-0.1-0.1-0.3-0.1c-0.1,0-0.2,0-0.3,0.1c-0.1,0.1-0.1,0.2-0.1,0.3c0,0.1,0,0.3,0,0.5
				l0.1,1.1c0,0,0,0.1,0,0.1c0,0-0.1,0-0.1,0l-1.2-0.1c-0.1,0-0.2,0-0.3,0c-0.2,0-0.3,0-0.4,0.1c-0.1,0-0.1,0.1-0.1,0.3
				c0,0.1,0,0.2,0.1,0.3c0.1,0.1,0.2,0.1,0.3,0.1c0.1,0,0.3,0,0.5,0l1.1-0.1c0.1,0,0.1,0,0.1,0c0,0,0,0.1,0,0.1L19,46.5
				c0,0.1,0,0.2,0,0.3c0,0.2,0,0.3,0.1,0.4c0,0.1,0.1,0.1,0.3,0.1c0.1,0,0.2,0,0.3-0.1c0.1-0.1,0.1-0.2,0.1-0.3c0-0.1,0-0.3,0-0.5
				l-0.1-1.1c0,0,0-0.1,0-0.1c0,0,0.1,0,0.1,0l1.2,0.1c0.1,0,0.2,0,0.3,0c0.2,0,0.3,0,0.4-0.1c0.1,0,0.1-0.1,0.1-0.3
				C21.7,44.9,21.7,44.8,21.6,44.7L21.6,44.7z"/>
		</g>
		<g>
			<path class="st2" d="M41.4,25.2c-0.1-0.1-0.1-0.1-0.2-0.1c-0.1,0-0.2,0-0.4,0l-0.9,0.1c0,0-0.1,0-0.1,0c0,0,0-0.1,0-0.1l0.1-0.9
				c0-0.1,0-0.2,0-0.3c0-0.1,0-0.2-0.1-0.3c0-0.1-0.1-0.1-0.2-0.1c-0.1,0-0.2,0-0.2,0.1c-0.1,0.1-0.1,0.1-0.1,0.2c0,0.1,0,0.2,0,0.4
				l0.1,0.9c0,0,0,0.1,0,0.1c0,0-0.1,0-0.1,0l-0.9-0.1c-0.1,0-0.2,0-0.3,0c-0.1,0-0.2,0-0.3,0.1c-0.1,0-0.1,0.1-0.1,0.2
				c0,0.1,0,0.2,0.1,0.2c0.1,0.1,0.1,0.1,0.2,0.1c0.1,0,0.2,0,0.4,0l0.9-0.1c0,0,0.1,0,0.1,0c0,0,0,0.1,0,0.1l-0.1,0.9
				c0,0.1,0,0.2,0,0.3c0,0.1,0,0.2,0.1,0.3c0,0.1,0.1,0.1,0.2,0.1c0.1,0,0.2,0,0.2-0.1c0.1-0.1,0.1-0.1,0.1-0.2c0-0.1,0-0.2,0-0.4
				l-0.1-0.9c0,0,0-0.1,0-0.1c0,0,0.1,0,0.1,0l0.9,0.1c0.1,0,0.2,0,0.3,0c0.1,0,0.2,0,0.3-0.1c0.1,0,0.1-0.1,0.1-0.2
				C41.5,25.4,41.5,25.3,41.4,25.2L41.4,25.2z"/>
		</g>
		<g>
			<path class="st2" d="M59.7,47.9c0,0-0.1-0.1-0.2-0.1c-0.1,0-0.2,0-0.3,0l-0.7,0c0,0-0.1,0-0.1,0c0,0,0,0,0-0.1l0.1-0.7
				c0-0.1,0-0.1,0-0.2c0-0.1,0-0.2,0-0.2c0-0.1-0.1-0.1-0.2-0.1c-0.1,0-0.1,0-0.2,0.1c0,0-0.1,0.1-0.1,0.2c0,0.1,0,0.2,0,0.3l0,0.7
				c0,0,0,0.1,0,0.1c0,0,0,0-0.1,0l-0.7-0.1c-0.1,0-0.1,0-0.2,0c-0.1,0-0.2,0-0.2,0c-0.1,0-0.1,0.1-0.1,0.2c0,0.1,0,0.1,0.1,0.2
				c0,0,0.1,0.1,0.2,0.1c0.1,0,0.2,0,0.3,0l0.7,0c0,0,0.1,0,0.1,0c0,0,0,0,0,0.1L58.2,49c0,0.1,0,0.1,0,0.2c0,0.1,0,0.2,0,0.2
				c0,0.1,0.1,0.1,0.2,0.1c0.1,0,0.1,0,0.2-0.1c0,0,0.1-0.1,0.1-0.2c0-0.1,0-0.2,0-0.3l0-0.7c0,0,0-0.1,0-0.1c0,0,0,0,0.1,0l0.7,0.1
				c0.1,0,0.1,0,0.2,0c0.1,0,0.2,0,0.2,0c0.1,0,0.1-0.1,0.1-0.2C59.8,48,59.8,48,59.7,47.9L59.7,47.9z"/>
		</g>
		<g>
			<path class="st2" d="M54.4,55.6c0,0-0.1-0.1-0.2-0.1c-0.1,0-0.2,0-0.3,0l-0.7,0c0,0-0.1,0-0.1,0c0,0,0,0,0-0.1l0.1-0.7
				c0-0.1,0-0.1,0-0.2c0-0.1,0-0.2,0-0.2c0-0.1-0.1-0.1-0.2-0.1c-0.1,0-0.1,0-0.2,0.1c0,0-0.1,0.1-0.1,0.2c0,0.1,0,0.2,0,0.3l0,0.7
				c0,0,0,0.1,0,0.1c0,0,0,0-0.1,0l-0.7-0.1c-0.1,0-0.1,0-0.2,0c-0.1,0-0.2,0-0.2,0c-0.1,0-0.1,0.1-0.1,0.2c0,0.1,0,0.1,0.1,0.2
				c0,0,0.1,0.1,0.2,0.1c0.1,0,0.2,0,0.3,0l0.7,0c0,0,0.1,0,0.1,0c0,0,0,0,0,0.1l-0.1,0.7c0,0.1,0,0.1,0,0.2c0,0.1,0,0.2,0,0.2
				c0,0.1,0.1,0.1,0.2,0.1c0.1,0,0.1,0,0.2-0.1c0,0,0.1-0.1,0.1-0.2c0-0.1,0-0.2,0-0.3l0-0.7c0,0,0-0.1,0-0.1c0,0,0,0,0.1,0l0.7,0.1
				c0.1,0,0.1,0,0.2,0c0.1,0,0.2,0,0.2,0c0.1,0,0.1-0.1,0.1-0.2C54.5,55.7,54.5,55.6,54.4,55.6L54.4,55.6z"/>
		</g>
		<g>
			<path class="st2" d="M59.5,53.9c0,0-0.1-0.1-0.2-0.1c-0.1,0-0.2,0-0.3,0l-0.7,0c0,0-0.1,0-0.1,0c0,0,0,0,0-0.1l0.1-0.7
				c0-0.1,0-0.1,0-0.2c0-0.1,0-0.2,0-0.2c0-0.1-0.1-0.1-0.2-0.1c-0.1,0-0.1,0-0.2,0.1c0,0-0.1,0.1-0.1,0.2c0,0.1,0,0.2,0,0.3l0,0.7
				c0,0,0,0.1,0,0.1c0,0,0,0-0.1,0l-0.7-0.1c-0.1,0-0.1,0-0.2,0c-0.1,0-0.2,0-0.2,0c-0.1,0-0.1,0.1-0.1,0.2c0,0.1,0,0.1,0.1,0.2
				c0,0,0.1,0.1,0.2,0.1c0.1,0,0.2,0,0.3,0l0.7,0c0,0,0.1,0,0.1,0c0,0,0,0,0,0.1L57.9,55c0,0.1,0,0.1,0,0.2c0,0.1,0,0.2,0,0.2
				c0,0.1,0.1,0.1,0.2,0.1c0.1,0,0.1,0,0.2-0.1c0,0,0.1-0.1,0.1-0.2c0-0.1,0-0.2,0-0.3l0-0.7c0,0,0-0.1,0-0.1c0,0,0,0,0.1,0l0.7,0.1
				c0.1,0,0.1,0,0.2,0c0.1,0,0.2,0,0.2,0c0.1,0,0.1-0.1,0.1-0.2C59.6,54,59.5,54,59.5,53.9L59.5,53.9z"/>
		</g>
		<g>
			<path class="st2" d="M42,35C41.9,35,41.8,35,41.7,35c-0.1,0-0.2,0-0.4,0L40.4,35c0,0-0.1,0-0.1,0c0,0,0-0.1,0-0.1l0.1-0.9
				c0-0.1,0-0.2,0-0.3c0-0.1,0-0.2-0.1-0.3c0-0.1-0.1-0.1-0.2-0.1c-0.1,0-0.2,0-0.2,0.1c-0.1,0.1-0.1,0.1-0.1,0.2c0,0.1,0,0.2,0,0.4
				L40,35c0,0,0,0.1,0,0.1c0,0-0.1,0-0.1,0L38.9,35c-0.1,0-0.2,0-0.3,0c-0.1,0-0.2,0-0.3,0.1c-0.1,0-0.1,0.1-0.1,0.2
				c0,0.1,0,0.2,0.1,0.2c0.1,0.1,0.1,0.1,0.2,0.1c0.1,0,0.2,0,0.4,0l0.9-0.1c0,0,0.1,0,0.1,0c0,0,0,0.1,0,0.1l-0.1,0.9
				c0,0.1,0,0.2,0,0.3c0,0.1,0,0.2,0.1,0.3c0,0.1,0.1,0.1,0.2,0.1c0.1,0,0.2,0,0.2-0.1c0.1-0.1,0.1-0.1,0.1-0.2c0-0.1,0-0.2,0-0.4
				l-0.1-0.9c0,0,0-0.1,0-0.1c0,0,0.1,0,0.1,0l0.9,0.1c0.1,0,0.2,0,0.3,0c0.1,0,0.2,0,0.3-0.1c0.1,0,0.1-0.1,0.1-0.2
				C42,35.2,42,35.1,42,35L42,35z"/>
		</g>
	</g>
	<line class="st4" x1="65.7" y1="62.7" x2="123.1" y2="62.7"/>
	<line class="st4" x1="254.9" y1="62.7" x2="311.6" y2="62.7"/>
	<g>
		<g>
			<path class="st5" d="M68.4,75c1,0,1.8,0.8,1.8,1.7c0,0.6-0.3,1.1-0.8,1.4c0.6,0.3,1.1,0.9,1.1,1.6c0,1-0.8,1.8-1.9,1.8h-2.3
				c-0.3,0-0.5-0.2-0.5-0.4v-5.8c0-0.3,0.2-0.4,0.5-0.4L68.4,75z M68.4,78c0.6,0,1.2-0.5,1.2-1.2c0-0.7-0.5-1.2-1.2-1.2h-2V78H68.4z
				 M66.4,78.5v2.6h2.1c0.7,0,1.3-0.6,1.3-1.3c0-0.7-0.6-1.3-1.3-1.3H66.4z"/>
			<path class="st5" d="M75.3,75.2c0-0.1,0.1-0.1,0.2-0.1c0,0,0,0,0,0c0.2,0,0.3,0.1,0.3,0.3c0,0,0,0.1,0,0.1l-1.9,3.2v2.7
				c0,0.2-0.1,0.3-0.3,0.3c-0.2,0-0.3-0.1-0.3-0.3v-2.7l-1.9-3.2c0,0,0-0.1,0-0.2c0-0.1,0.1-0.3,0.3-0.3c0,0,0,0,0.1,0
				c0.1,0,0.2,0.1,0.2,0.1l1.7,2.8L75.3,75.2z"/>
			<path class="st5" d="M82.3,75.6c0.1-0.3,0.4-0.6,0.8-0.6c0.4,0,0.7,0.2,0.8,0.6l1.7,5.7c0,0,0,0,0,0.1c0,0.1-0.1,0.2-0.3,0.3
				c-0.1,0-0.3-0.1-0.3-0.2l-0.6-1.8h-2.8l-0.5,1.7c0,0.1-0.2,0.2-0.3,0.2c-0.2,0-0.3-0.1-0.3-0.3c0,0,0-0.1,0-0.1L82.3,75.6z
				 M83.3,75.7c0-0.1-0.1-0.2-0.2-0.2c-0.1,0-0.2,0.1-0.2,0.2l-1,3.4h2.5L83.3,75.7z"/>
			<path class="st5" d="M87.1,81.7c-0.2,0-0.3-0.1-0.3-0.3s0.1-0.3,0.3-0.3h1.8c1,0,1.5-0.4,1.5-1.4c0-0.8-0.5-1-1.5-1.2
				c-1.1-0.2-2.1-0.4-2.1-1.8c0-1.2,0.8-1.7,2.1-1.7h1.6c0.2,0,0.3,0.1,0.3,0.3c0,0.1-0.1,0.3-0.3,0.3h-1.6c-1,0-1.5,0.3-1.5,1.1
				c0,1,0.6,1.1,1.6,1.3c1.2,0.2,2,0.5,2,1.7c0,1.4-0.7,2-2,2H87.1z"/>
			<path class="st5" d="M92.7,75.3c0-0.2,0.1-0.3,0.3-0.3c0.2,0,0.3,0.1,0.3,0.3v6c0,0.2-0.1,0.3-0.3,0.3c-0.2,0-0.3-0.1-0.3-0.3
				V75.3z"/>
			<path class="st5" d="M99.4,75c0.2,0,0.3,0.1,0.3,0.3c0,0.1-0.1,0.3-0.3,0.3h-1.8v5.8c0,0.1-0.1,0.3-0.3,0.3
				c-0.2,0-0.3-0.1-0.3-0.3v-5.8h-1.9c-0.2,0-0.3-0.1-0.3-0.3c0-0.1,0.1-0.3,0.3-0.3H99.4z"/>
			<path class="st5" d="M108.6,75c0.2,0,0.3,0.1,0.3,0.3c0,0.1-0.1,0.3-0.3,0.3H107c-1,0-1.7,0.5-1.7,1.8v2.1c0,1,0.6,1.7,1.7,1.7
				h1.6c0.2,0,0.3,0.1,0.3,0.3c0,0.1-0.1,0.3-0.3,0.3H107c-1.4,0-2.3-0.9-2.3-2.2v-2.1c0-1.7,0.9-2.3,2.3-2.3H108.6z"/>
			<path class="st5" d="M110.2,81.1c0-0.2,0.1-0.3,0.3-0.3c0.2,0,0.3,0.1,0.3,0.3v0.3c0,0.2-0.1,0.3-0.3,0.3c-0.2,0-0.3-0.1-0.3-0.3
				V81.1z"/>
			<path class="st5" d="M120.6,75.5c0.1-0.3,0.4-0.5,0.7-0.5c0.4,0,0.7,0.3,0.7,0.7v5.7c0,0.2-0.1,0.3-0.3,0.3
				c-0.2,0-0.3-0.1-0.3-0.3v-5.6c0-0.1,0-0.2-0.1-0.2c-0.1,0-0.1,0.1-0.2,0.2l-1.8,5.7c0,0.2-0.2,0.3-0.4,0.3
				c-0.2,0-0.3-0.1-0.4-0.3l-1.7-5.7c0-0.1-0.1-0.2-0.2-0.2c-0.1,0-0.1,0.1-0.1,0.2v5.6c0,0.2-0.1,0.3-0.3,0.3
				c-0.2,0-0.3-0.1-0.3-0.3v-5.7c0-0.4,0.3-0.7,0.7-0.7c0.3,0,0.6,0.2,0.7,0.5l1.5,5.1L120.6,75.5z"/>
			<path class="st5" d="M124.2,75.5c0-0.3,0.2-0.4,0.5-0.4h3.2c0.2,0,0.3,0.1,0.3,0.3c0,0.2-0.1,0.3-0.3,0.3h-3.1v2.3h2.6
				c0.2,0,0.3,0.1,0.3,0.3c0,0.2-0.1,0.3-0.3,0.3h-2.6v2.6h3.1c0.2,0,0.3,0.1,0.3,0.3c0,0.2-0.1,0.3-0.3,0.3h-3.2
				c-0.3,0-0.5-0.2-0.5-0.4V75.5z"/>
			<path class="st5" d="M134.1,75.3c0-0.2,0.1-0.3,0.3-0.3c0.2,0,0.3,0.1,0.3,0.3v6c0,0.2-0.1,0.3-0.3,0.3c-0.2,0-0.3-0.1-0.3-0.3
				v-2.8h-3.6v2.8c0,0.2-0.1,0.3-0.3,0.3c-0.2,0-0.3-0.1-0.3-0.3v-6.1c0-0.2,0.1-0.3,0.3-0.3c0.2,0,0.3,0.1,0.3,0.3v2.7h3.6V75.3z"
				/>
			<path class="st5" d="M140.9,75c0.2,0,0.3,0.1,0.3,0.3c0,0.1-0.1,0.3-0.3,0.3H139v5.8c0,0.1-0.1,0.3-0.3,0.3
				c-0.2,0-0.3-0.1-0.3-0.3v-5.8h-1.9c-0.2,0-0.3-0.1-0.3-0.3c0-0.1,0.1-0.3,0.3-0.3H140.9z"/>
			<path class="st5" d="M143.1,75.6c0.1-0.3,0.4-0.6,0.8-0.6c0.4,0,0.7,0.2,0.8,0.6l1.7,5.7c0,0,0,0,0,0.1c0,0.1-0.1,0.2-0.3,0.3
				c-0.1,0-0.3-0.1-0.3-0.2l-0.6-1.8h-2.8l-0.5,1.7c0,0.1-0.2,0.2-0.3,0.2c-0.2,0-0.3-0.1-0.3-0.3c0,0,0-0.1,0-0.1L143.1,75.6z
				 M144.1,75.7c0-0.1-0.1-0.2-0.2-0.2c-0.1,0-0.2,0.1-0.2,0.2l-1,3.4h2.5L144.1,75.7z"/>
			<path class="st5" d="M151.7,75.3c0-0.2,0.1-0.3,0.3-0.3c0.2,0,0.3,0.1,0.3,0.3v6c0,0.2-0.1,0.3-0.3,0.3c-0.2,0-0.3-0.1-0.3-0.3
				V75.3z"/>
			<path class="st5" d="M158.6,75.3c0-0.2,0.1-0.3,0.3-0.3c0.2,0,0.3,0.1,0.3,0.3v5.6c0,0.4-0.3,0.7-0.7,0.7c-0.3,0-0.6-0.2-0.7-0.4
				l-2.5-5.5c0-0.1-0.1-0.2-0.2-0.2c-0.1,0-0.1,0.1-0.1,0.2v5.6c0,0.2-0.1,0.3-0.3,0.3c-0.2,0-0.3-0.1-0.3-0.3v-5.6
				c0-0.4,0.3-0.7,0.7-0.7c0.3,0,0.6,0.2,0.7,0.4l2.5,5.5c0,0.1,0.1,0.2,0.2,0.2c0.1,0,0.1-0.1,0.1-0.2V75.3z"/>
			<path class="st5" d="M165,75.3c0-0.1,0.1-0.2,0.3-0.2c0.2,0,0.3,0.1,0.3,0.3c0,0,0,0.1,0,0.1l-1.6,5.7c-0.1,0.3-0.4,0.6-0.8,0.6
				c-0.4,0-0.7-0.3-0.8-0.6l-1.6-5.7c0,0,0,0,0-0.1c0-0.1,0.1-0.3,0.3-0.3c0.2,0,0.3,0.1,0.3,0.2l1.6,5.7c0,0.1,0.1,0.2,0.2,0.2
				c0.1,0,0.2-0.1,0.2-0.2L165,75.3z"/>
			<path class="st5" d="M167.2,75.5c0-0.3,0.2-0.4,0.5-0.4h3.2c0.2,0,0.3,0.1,0.3,0.3c0,0.2-0.1,0.3-0.3,0.3h-3.1v2.3h2.6
				c0.2,0,0.3,0.1,0.3,0.3c0,0.2-0.1,0.3-0.3,0.3h-2.6v2.6h3.1c0.2,0,0.3,0.1,0.3,0.3c0,0.2-0.1,0.3-0.3,0.3h-3.2
				c-0.3,0-0.5-0.2-0.5-0.4V75.5z"/>
			<path class="st5" d="M172.8,81.7c-0.2,0-0.3-0.1-0.3-0.3s0.1-0.3,0.3-0.3h1.8c1,0,1.5-0.4,1.5-1.4c0-0.8-0.5-1-1.5-1.2
				c-1.1-0.2-2.1-0.4-2.1-1.8c0-1.2,0.8-1.7,2.1-1.7h1.6c0.2,0,0.3,0.1,0.3,0.3c0,0.1-0.1,0.3-0.3,0.3h-1.6c-1,0-1.5,0.3-1.5,1.1
				c0,1,0.6,1.1,1.6,1.3c1.2,0.2,2,0.5,2,1.7c0,1.4-0.7,2-2,2H172.8z"/>
			<path class="st5" d="M182.4,75c0.2,0,0.3,0.1,0.3,0.3c0,0.1-0.1,0.3-0.3,0.3h-1.8v5.8c0,0.1-0.1,0.3-0.3,0.3
				c-0.2,0-0.3-0.1-0.3-0.3v-5.8h-1.8c-0.2,0-0.3-0.1-0.3-0.3c0-0.1,0.1-0.3,0.3-0.3H182.4z"/>
			<path class="st5" d="M188.8,75.5c0.1-0.3,0.4-0.5,0.7-0.5c0.4,0,0.7,0.3,0.7,0.7v5.7c0,0.2-0.1,0.3-0.3,0.3
				c-0.2,0-0.3-0.1-0.3-0.3v-5.6c0-0.1,0-0.2-0.1-0.2c-0.1,0-0.1,0.1-0.2,0.2l-1.8,5.7c0,0.2-0.2,0.3-0.4,0.3
				c-0.2,0-0.3-0.1-0.4-0.3l-1.7-5.7c0-0.1-0.1-0.2-0.2-0.2c-0.1,0-0.1,0.1-0.1,0.2v5.6c0,0.2-0.1,0.3-0.3,0.3
				c-0.2,0-0.3-0.1-0.3-0.3v-5.7c0-0.4,0.3-0.7,0.7-0.7c0.3,0,0.6,0.2,0.7,0.5l1.5,5.1L188.8,75.5z"/>
			<path class="st5" d="M192.3,75.5c0-0.3,0.2-0.4,0.5-0.4h3.2c0.2,0,0.3,0.1,0.3,0.3c0,0.2-0.1,0.3-0.3,0.3h-3.1v2.3h2.6
				c0.2,0,0.3,0.1,0.3,0.3c0,0.2-0.1,0.3-0.3,0.3h-2.6v2.6h3.1c0.2,0,0.3,0.1,0.3,0.3c0,0.2-0.1,0.3-0.3,0.3h-3.2
				c-0.3,0-0.5-0.2-0.5-0.4V75.5z"/>
			<path class="st5" d="M202.2,75.3c0-0.2,0.1-0.3,0.3-0.3c0.2,0,0.3,0.1,0.3,0.3v5.6c0,0.4-0.3,0.7-0.7,0.7c-0.3,0-0.6-0.2-0.7-0.4
				l-2.5-5.5c0-0.1-0.1-0.2-0.2-0.2c-0.1,0-0.1,0.1-0.1,0.2v5.6c0,0.2-0.1,0.3-0.3,0.3c-0.2,0-0.3-0.1-0.3-0.3v-5.6
				c0-0.4,0.3-0.7,0.7-0.7c0.3,0,0.6,0.2,0.7,0.4l2.5,5.5c0,0.1,0.1,0.2,0.2,0.2c0.1,0,0.1-0.1,0.1-0.2V75.3z"/>
			<path class="st5" d="M208.9,75c0.2,0,0.3,0.1,0.3,0.3c0,0.1-0.1,0.3-0.3,0.3h-1.8v5.8c0,0.1-0.1,0.3-0.3,0.3
				c-0.2,0-0.3-0.1-0.3-0.3v-5.8h-1.9c-0.2,0-0.3-0.1-0.3-0.3c0-0.1,0.1-0.3,0.3-0.3H208.9z"/>
			<path class="st5" d="M214.5,75.3c0-0.2,0.1-0.3,0.3-0.3c0.2,0,0.3,0.1,0.3,0.3v6c0,0.2-0.1,0.3-0.3,0.3c-0.2,0-0.3-0.1-0.3-0.3
				V75.3z"/>
			<path class="st5" d="M221.4,75.3c0-0.2,0.1-0.3,0.3-0.3c0.2,0,0.3,0.1,0.3,0.3v5.6c0,0.4-0.3,0.7-0.7,0.7c-0.3,0-0.6-0.2-0.7-0.4
				l-2.5-5.5c0-0.1-0.1-0.2-0.2-0.2c-0.1,0-0.1,0.1-0.1,0.2v5.6c0,0.2-0.1,0.3-0.3,0.3c-0.2,0-0.3-0.1-0.3-0.3v-5.6
				c0-0.4,0.3-0.7,0.7-0.7c0.3,0,0.6,0.2,0.7,0.4l2.5,5.5c0,0.1,0.1,0.2,0.2,0.2c0.1,0,0.1-0.1,0.1-0.2V75.3z"/>
			<path class="st5" d="M228,75c0.2,0,0.3,0.1,0.3,0.3c0,0.1-0.1,0.3-0.3,0.3h-1.8v5.8c0,0.1-0.1,0.3-0.3,0.3
				c-0.2,0-0.3-0.1-0.3-0.3v-5.8h-1.8c-0.2,0-0.3-0.1-0.3-0.3c0-0.1,0.1-0.3,0.3-0.3H228z"/>
			<path class="st5" d="M230,75.5c0-0.3,0.2-0.4,0.5-0.4h3.2c0.2,0,0.3,0.1,0.3,0.3c0,0.2-0.1,0.3-0.3,0.3h-3.1v2.3h2.6
				c0.2,0,0.3,0.1,0.3,0.3c0,0.2-0.1,0.3-0.3,0.3h-2.6v2.6h3.1c0.2,0,0.3,0.1,0.3,0.3c0,0.2-0.1,0.3-0.3,0.3h-3.2
				c-0.3,0-0.5-0.2-0.5-0.4V75.5z"/>
			<path class="st5" d="M238.3,75c1,0,1.8,0.8,1.8,1.7c0,0.8-0.7,1.6-1.5,1.7l-0.2,0l1.5,2.8c0,0,0,0.1,0,0.1c0,0.2-0.1,0.3-0.3,0.3
				c-0.1,0-0.2-0.1-0.3-0.2l-1.6-3h-1.5v2.9c0,0.2-0.1,0.3-0.3,0.3c-0.2,0-0.3-0.1-0.3-0.3v-5.9c0-0.3,0.2-0.4,0.5-0.4H238.3z
				 M238.3,78c0.6,0,1.2-0.5,1.2-1.2c0-0.7-0.5-1.2-1.2-1.2h-2V78H238.3z"/>
			<path class="st5" d="M244.5,75c1,0,1.8,0.8,1.8,1.7c0,0.8-0.7,1.6-1.5,1.7l-0.2,0l1.5,2.8c0,0,0,0.1,0,0.1c0,0.2-0.1,0.3-0.3,0.3
				c-0.1,0-0.2-0.1-0.3-0.2l-1.6-3h-1.5v2.9c0,0.2-0.1,0.3-0.3,0.3c-0.2,0-0.3-0.1-0.3-0.3v-5.9c0-0.3,0.2-0.4,0.5-0.4H244.5z
				 M244.5,78c0.6,0,1.2-0.5,1.2-1.2c0-0.7-0.5-1.2-1.2-1.2h-2V78H244.5z"/>
			<path class="st5" d="M252.5,75.5c0.1-0.3,0.4-0.5,0.7-0.5c0.4,0,0.7,0.3,0.7,0.7v5.7c0,0.2-0.1,0.3-0.3,0.3
				c-0.2,0-0.3-0.1-0.3-0.3v-5.6c0-0.1,0-0.2-0.1-0.2c-0.1,0-0.1,0.1-0.2,0.2l-1.8,5.7c0,0.2-0.2,0.3-0.4,0.3
				c-0.2,0-0.3-0.1-0.4-0.3l-1.7-5.7c0-0.1-0.1-0.2-0.2-0.2c-0.1,0-0.1,0.1-0.1,0.2v5.6c0,0.2-0.1,0.3-0.3,0.3
				c-0.2,0-0.3-0.1-0.3-0.3v-5.7c0-0.4,0.3-0.7,0.7-0.7c0.3,0,0.6,0.2,0.7,0.5l1.5,5.1L252.5,75.5z"/>
			<path class="st5" d="M256.1,75.5c0-0.3,0.2-0.4,0.5-0.4h3.2c0.2,0,0.3,0.1,0.3,0.3c0,0.2-0.1,0.3-0.3,0.3h-3.1v2.3h2.6
				c0.2,0,0.3,0.1,0.3,0.3c0,0.2-0.1,0.3-0.3,0.3h-2.6v2.6h3.1c0.2,0,0.3,0.1,0.3,0.3c0,0.2-0.1,0.3-0.3,0.3h-3.2
				c-0.3,0-0.5-0.2-0.5-0.4V75.5z"/>
			<path class="st5" d="M261.9,75.5c0-0.3,0.2-0.4,0.5-0.4h1.8c1.4,0,2.3,0.7,2.3,2.3v2.1c0,1.3-0.8,2.2-2.3,2.2h-1.8
				c-0.3,0-0.5-0.2-0.5-0.4V75.5z M265.8,77.3c0-1.3-0.6-1.8-1.7-1.8h-1.7v5.6h1.7c1.1,0,1.7-0.7,1.7-1.7V77.3z"/>
			<path class="st5" d="M268.3,75.3c0-0.2,0.1-0.3,0.3-0.3c0.2,0,0.3,0.1,0.3,0.3v6c0,0.2-0.1,0.3-0.3,0.3c-0.2,0-0.3-0.1-0.3-0.3
				V75.3z"/>
			<path class="st5" d="M272.3,75.6c0.1-0.3,0.4-0.6,0.8-0.6c0.4,0,0.7,0.2,0.8,0.6l1.7,5.7c0,0,0,0,0,0.1c0,0.1-0.1,0.2-0.3,0.3
				c-0.1,0-0.3-0.1-0.3-0.2l-0.6-1.8h-2.8l-0.5,1.7c0,0.1-0.2,0.2-0.3,0.2c-0.2,0-0.3-0.1-0.3-0.3c0,0,0-0.1,0-0.1L272.3,75.6z
				 M273.3,75.7c0-0.1-0.1-0.2-0.2-0.2c-0.1,0-0.2,0.1-0.2,0.2l-1,3.4h2.5L273.3,75.7z"/>
			<path class="st5" d="M280.5,75c0.2,0,0.3,0.1,0.3,0.3c0,0.1-0.1,0.3-0.3,0.3h-1.8v5.8c0,0.1-0.1,0.3-0.3,0.3
				c-0.2,0-0.3-0.1-0.3-0.3v-5.8h-1.8c-0.2,0-0.3-0.1-0.3-0.3c0-0.1,0.1-0.3,0.3-0.3H280.5z"/>
			<path class="st5" d="M282.4,75.5c0-0.3,0.2-0.4,0.5-0.4h3.2c0.2,0,0.3,0.1,0.3,0.3c0,0.2-0.1,0.3-0.3,0.3H283v2.3h2.6
				c0.2,0,0.3,0.1,0.3,0.3c0,0.2-0.1,0.3-0.3,0.3H283v2.6h3.1c0.2,0,0.3,0.1,0.3,0.3c0,0.2-0.1,0.3-0.3,0.3h-3.2
				c-0.3,0-0.5-0.2-0.5-0.4V75.5z"/>
			<path class="st5" d="M288,81.7c-0.2,0-0.3-0.1-0.3-0.3s0.1-0.3,0.3-0.3h1.8c1,0,1.5-0.4,1.5-1.4c0-0.8-0.5-1-1.5-1.2
				c-1.1-0.2-2.1-0.4-2.1-1.8c0-1.2,0.8-1.7,2.1-1.7h1.6c0.2,0,0.3,0.1,0.3,0.3c0,0.1-0.1,0.3-0.3,0.3h-1.6c-1,0-1.5,0.3-1.5,1.1
				c0,1,0.6,1.1,1.6,1.3c1.2,0.2,2,0.5,2,1.7c0,1.4-0.7,2-2,2H288z"/>
			<path class="st5" d="M297.2,75.3c0-0.2,0.1-0.3,0.3-0.3c0.2,0,0.3,0.1,0.3,0.3v5.8h2.8c0.2,0,0.3,0.1,0.3,0.3
				c0,0.2-0.1,0.3-0.3,0.3h-3c-0.3,0-0.5-0.2-0.5-0.4V75.3z"/>
			<path class="st5" d="M305.3,75c0.2,0,0.3,0.1,0.3,0.3c0,0.1-0.1,0.3-0.3,0.3h-1.8v5.8c0,0.1-0.1,0.3-0.3,0.3
				c-0.2,0-0.3-0.1-0.3-0.3v-5.8h-1.9c-0.2,0-0.3-0.1-0.3-0.3c0-0.1,0.1-0.3,0.3-0.3H305.3z"/>
			<path class="st5" d="M307.3,75.5c0-0.3,0.2-0.4,0.5-0.4h1.8c1.4,0,2.3,0.7,2.3,2.3v2.1c0,1.3-0.8,2.2-2.3,2.2h-1.8
				c-0.3,0-0.5-0.2-0.5-0.4V75.5z M311.2,77.3c0-1.3-0.6-1.8-1.7-1.8h-1.7v5.6h1.7c1.1,0,1.7-0.7,1.7-1.7V77.3z"/>
		</g>
	</g>
	<g>
		<path class="st2" d="M311.1,47.2c-0.2,0-0.4-0.2-0.4-0.4c0-0.2,0.2-0.4,0.4-0.4l0.5,0c0.3,0,0.4,0.2,0.4,0.4
			c0,0.2-0.2,0.4-0.4,0.4L311.1,47.2z"/>
		<path class="st2" d="M302.8,39.8c0-0.2,0.2-0.4,0.4-0.4c0.2,0,0.4,0.2,0.4,0.4l0,2.2c0,1.4,0.7,2.2,2.4,2.2l2.8-0.1
			c1.3,0,2.3-0.8,2.3-2.3l0-2.2c0-0.2,0.2-0.4,0.4-0.4c0.2,0,0.4,0.2,0.4,0.4l0,2.2c0,2-1.2,3.1-3,3.1L306,45c-2.2,0-3.1-1.1-3.2-3
			L302.8,39.8z"/>
		<path class="st2" d="M302.7,34.3c0-1.9,0.8-3.1,3.1-3.1l2.8-0.1c1.8,0,3.1,1,3.1,3l0,0.6c0,1.9-1.2,3.1-3,3.1l-2.8,0.1
			c-2.2,0-3.1-1.1-3.2-3L302.7,34.3z M308.7,37c1.3,0,2.3-0.8,2.3-2.3l0-0.6c0-1.4-1-2.2-2.4-2.2l-2.8,0.1c-1.7,0-2.4,0.9-2.3,2.3
			l0,0.6c0,1.4,0.7,2.2,2.4,2.2L308.7,37z"/>
		<path class="st2" d="M303.1,23.2c-0.4-0.1-0.6-0.5-0.6-0.9c0-0.5,0.4-1,0.9-1l7.7-0.1c0.2,0,0.4,0.2,0.4,0.4
			c0,0.2-0.2,0.4-0.4,0.4l-7.6,0.1c-0.2,0-0.3,0.1-0.3,0.1c0,0.1,0.1,0.2,0.2,0.2l7.7,2.3c0.2,0.1,0.4,0.2,0.4,0.5
			c0,0.3-0.1,0.5-0.3,0.5l-7.6,2.4c-0.2,0-0.2,0.1-0.2,0.2c0,0.1,0.1,0.1,0.3,0.1l7.6-0.1c0.2,0,0.4,0.2,0.4,0.4
			c0,0.2-0.2,0.4-0.4,0.4l-7.7,0.1c-0.5,0-1-0.4-1-1c0-0.4,0.2-0.8,0.6-0.9l6.9-2.2L303.1,23.2z"/>
	</g>
	<g>
		<path class="st1" d="M317.2,30.2V22c0-0.2,0.1-0.2,0.2-0.2h3.2c0.7,0,1.2,0.2,1.5,0.5c0.4,0.4,0.6,0.9,0.6,1.5v0.7
			c0,0.8-0.4,1.3-1.1,1.5c0.3,0,0.6,0.2,0.9,0.5c0.2,0.3,0.3,0.6,0.3,1.1v0.9c0,0.7-0.2,1.2-0.6,1.5c-0.4,0.4-0.9,0.5-1.5,0.5h-3.3
			C317.3,30.4,317.2,30.3,317.2,30.2z M318.7,25.4h1.8c0.7,0,1-0.3,1-1v-0.6c0-0.6-0.3-1-1-1h-1.8c-0.1,0-0.1,0-0.1,0.1v2.3
			C318.5,25.4,318.6,25.4,318.7,25.4z M318.7,29.3h1.9c0.7,0,1-0.3,1-1v-0.8c0-0.6-0.4-1-1.1-1h-1.8c-0.1,0-0.1,0-0.1,0.1v2.5
			C318.5,29.2,318.6,29.3,318.7,29.3z"/>
		<path class="st1" d="M329.2,30.4h-4.3c-0.2,0-0.2-0.1-0.2-0.2V22c0-0.2,0.1-0.2,0.2-0.2h4.3c0.1,0,0.2,0.1,0.2,0.2v0.7
			c0,0.2-0.1,0.2-0.2,0.2h-3.1c-0.1,0-0.2,0-0.2,0.1v2.3c0,0.1,0.1,0.1,0.2,0.1h2.6c0.2,0,0.2,0.1,0.2,0.2v0.7
			c0,0.2-0.1,0.2-0.2,0.2h-2.6c-0.1,0-0.2,0-0.2,0.1v2.4c0,0.1,0.1,0.1,0.2,0.1h3.1c0.1,0,0.2,0.1,0.2,0.2v0.7
			C329.4,30.3,329.3,30.4,329.2,30.4z"/>
		<path class="st1" d="M333.5,30.4h-0.8c-0.2,0-0.2-0.1-0.2-0.2V23c0-0.1,0-0.1-0.1-0.1h-1.7c-0.2,0-0.2-0.1-0.2-0.2V22
			c0-0.2,0.1-0.2,0.2-0.2h5c0.2,0,0.2,0.1,0.2,0.2v0.7c0,0.2-0.1,0.2-0.2,0.2h-1.7c-0.1,0-0.1,0-0.1,0.1v7.2
			C333.7,30.3,333.6,30.4,333.5,30.4z"/>
		<path class="st1" d="M337.4,30.4h-1c-0.1,0-0.2-0.1-0.1-0.2l2.3-8.2c0-0.2,0.2-0.2,0.3-0.2h1.3c0.2,0,0.3,0.1,0.3,0.2l2.3,8.2
			c0,0.2,0,0.2-0.1,0.2h-1c-0.1,0-0.1,0-0.2,0c0,0-0.1-0.1-0.1-0.2l-0.5-1.8h-3l-0.5,1.8C337.6,30.3,337.5,30.4,337.4,30.4z
			 M339.6,23l-1.2,4.3h2.4L339.6,23L339.6,23z"/>
	</g>
</g>
</svg>
