<svg id="Layer_1" data-name="Layer 1" xmlns="http://www.w3.org/2000/svg" viewBox="0 0 450 122"><defs><style>.cls-1,.cls-4,.cls-5{fill:#fff;}.cls-1,.cls-2{fill-rule:evenodd;}.cls-2,.cls-3{fill:#ec5c2d;}.cls-4{stroke:#fff;stroke-width:1.5px;}.cls-4,.cls-6{stroke-miterlimit:10;}.cls-6{fill:#a7a9ac;stroke:#a7a9ac;stroke-width:0.5px;}</style></defs><title>investment-curve</title><path class="cls-1" d="M71.52,71.38a2.9,2.9,0,0,0-2.09-.72q-1,0-3.24.15l-7.71.53c-.34,0-.65.08-.93.13q.06-.36.09-.78l.69-8.28a21.48,21.48,0,0,0,.12-2.25A7,7,0,0,0,58,57.28a1.83,1.83,0,0,0-1.85-1,2.37,2.37,0,0,0-1.85.78,3.13,3.13,0,0,0-.7,2.17c0,.69.05,1.81.14,3.38l.52,8c0,.34.07.65.12.94-.26,0-.55-.08-.85-.1l-7.94-.73a19.78,19.78,0,0,0-2.16-.11,6.35,6.35,0,0,0-2.77.48,2,2,0,0,0-1,1.93A2.61,2.61,0,0,0,40.43,75a2.92,2.92,0,0,0,2.09.73q1,0,3.24-.15L53.48,75c.37,0,.7-.08,1-.14,0,.26-.07.55-.09.86L53.69,84c-.07.77-.11,1.52-.11,2.26a7.06,7.06,0,0,0,.47,2.88,1.85,1.85,0,0,0,1.85,1,2.37,2.37,0,0,0,1.84-.79,3.12,3.12,0,0,0,.71-2.17c0-.68-.05-1.81-.15-3.38l-.51-8c0-.37-.08-.7-.13-1l.78.1,8,.72a19.78,19.78,0,0,0,2.15.12,6.19,6.19,0,0,0,2.77-.49,2,2,0,0,0,1-1.93,2.58,2.58,0,0,0-.75-1.93Z"/><path class="cls-1" d="M72.37,58.71a1.09,1.09,0,0,0-.77-.26c-.24,0-.64,0-1.19,0l-2.85.2-.34,0a1.2,1.2,0,0,0,0-.28l.26-2.93a7.09,7.09,0,0,0,0-.79,2.44,2.44,0,0,0-.17-1,.69.69,0,0,0-.69-.36.92.92,0,0,0-.68.28,1.08,1.08,0,0,0-.25.77c0,.24,0,.64,0,1.19L66,58.45c0,.12,0,.24,0,.34l-.31,0-2.93-.26c-.27,0-.53,0-.79,0a2.44,2.44,0,0,0-1,.17.7.7,0,0,0-.36.69.88.88,0,0,0,.28.68,1.09,1.09,0,0,0,.77.26c.24,0,.64,0,1.19-.06L65.72,60l.37,0c0,.1,0,.2,0,.31l-.25,2.93a7.14,7.14,0,0,0,0,.8,2.27,2.27,0,0,0,.17,1,.67.67,0,0,0,.68.36.87.87,0,0,0,.68-.28,1,1,0,0,0,.26-.77c0-.24,0-.64,0-1.19l-.19-2.85a2.94,2.94,0,0,0,0-.35l.29,0,2.93.26c.27,0,.53,0,.8,0a2.25,2.25,0,0,0,1-.18.67.67,0,0,0,.36-.68.87.87,0,0,0-.28-.68Z"/><path class="cls-1" d="M59.22,47.91a1,1,0,0,0-.77-.26c-.24,0-.64,0-1.19.05l-2.85.19-.34,0a1.18,1.18,0,0,0,0-.27l.26-2.93a7.26,7.26,0,0,0,0-.8,2.44,2.44,0,0,0-.17-1,.71.71,0,0,0-.69-.35.91.91,0,0,0-.68.27,1.12,1.12,0,0,0-.25.77c0,.25,0,.64,0,1.2l.19,2.85c0,.12,0,.23,0,.33l-.31,0-2.93-.25a7.26,7.26,0,0,0-.8,0,2.27,2.27,0,0,0-1,.17.67.67,0,0,0-.36.68.87.87,0,0,0,.28.68,1,1,0,0,0,.77.26c.24,0,.64,0,1.19,0l2.85-.19.37-.05a2.43,2.43,0,0,0,0,.3l-.25,2.93a7.26,7.26,0,0,0,0,.8,2.35,2.35,0,0,0,.17,1,.67.67,0,0,0,.68.35.9.9,0,0,0,.68-.27,1.12,1.12,0,0,0,.26-.77c0-.25,0-.64,0-1.2l-.19-2.85c0-.13,0-.24,0-.35l.29,0,2.93.26a7.09,7.09,0,0,0,.79,0,2.44,2.44,0,0,0,1-.17.68.68,0,0,0,.36-.68.85.85,0,0,0-.28-.68Z"/><path class="cls-1" d="M47.37,51a1.12,1.12,0,0,0-.77-.26c-.25,0-.65,0-1.2.05l-2.84.19-.35,0a2.36,2.36,0,0,0,0-.28l.25-2.93a7.09,7.09,0,0,0,0-.79,2.23,2.23,0,0,0-.17-1,.68.68,0,0,0-.68-.35.87.87,0,0,0-.68.28,1.09,1.09,0,0,0-.26.77c0,.24,0,.64,0,1.19l.2,2.85c0,.12,0,.23,0,.34l-.32,0-2.93-.26c-.27,0-.53,0-.79,0a2.51,2.51,0,0,0-1,.17.7.7,0,0,0-.35.69.9.9,0,0,0,.27.68,1.12,1.12,0,0,0,.77.26c.24,0,.64,0,1.19-.06l2.85-.19.37-.05,0,.31-.26,2.93a7.09,7.09,0,0,0,0,.79,2.44,2.44,0,0,0,.17,1,.69.69,0,0,0,.69.36.85.85,0,0,0,.67-.28,1,1,0,0,0,.26-.77c0-.24,0-.64,0-1.19l-.19-2.85a2.94,2.94,0,0,0,0-.35l.29,0,2.93.25a7.31,7.31,0,0,0,.8.05,2.51,2.51,0,0,0,1-.17.71.71,0,0,0,.35-.69.9.9,0,0,0-.27-.68Z"/><path class="cls-1" d="M46.5,63.46a.93.93,0,0,0-.67-.22c-.2,0-.55,0-1,0l-2.46.17-.3,0a2,2,0,0,0,0-.24l.22-2.53c0-.24,0-.47,0-.69a2,2,0,0,0-.15-.88.59.59,0,0,0-.59-.31.78.78,0,0,0-.59.24.93.93,0,0,0-.22.67c0,.21,0,.55,0,1L41,63.24a2.54,2.54,0,0,0,0,.29l-.27,0-2.53-.22q-.35,0-.69,0a2,2,0,0,0-.88.15.59.59,0,0,0-.31.58.8.8,0,0,0,.24.59,1,1,0,0,0,.67.23c.21,0,.55,0,1-.05l2.46-.16.32,0a1.93,1.93,0,0,0,0,.27l-.22,2.53c0,.23,0,.46,0,.68a2,2,0,0,0,.15.88.58.58,0,0,0,.59.31.78.78,0,0,0,.59-.24,1,1,0,0,0,.22-.66c0-.21,0-.56-.05-1l-.16-2.45c0-.11,0-.22,0-.31l.25,0,2.53.22c.23,0,.46,0,.68,0a2,2,0,0,0,.88-.15.59.59,0,0,0,.31-.59.76.76,0,0,0-.24-.59Z"/><path class="cls-1" d="M66,40.09a1.09,1.09,0,0,0-.77-.26c-.24,0-.64,0-1.19.05l-2.85.19-.34,0a2.36,2.36,0,0,0,0-.28l.25-2.93a7.26,7.26,0,0,0,0-.8,2.51,2.51,0,0,0-.17-1,.69.69,0,0,0-.68-.35.85.85,0,0,0-.68.28,1.09,1.09,0,0,0-.26.77c0,.24,0,.64,0,1.19l.19,2.85c0,.12,0,.23,0,.34a1.46,1.46,0,0,0-.31,0l-2.93-.26a7.09,7.09,0,0,0-.79,0,2.44,2.44,0,0,0-1,.17.68.68,0,0,0-.36.68.88.88,0,0,0,.28.69,1.09,1.09,0,0,0,.77.26c.24,0,.64,0,1.19-.06l2.85-.19.37-.05c0,.1,0,.2,0,.31l-.25,2.93a7,7,0,0,0,0,.79,2.29,2.29,0,0,0,.17,1,.67.67,0,0,0,.68.36.85.85,0,0,0,.68-.28,1,1,0,0,0,.26-.77c0-.24,0-.64,0-1.19l-.19-2.85a3.48,3.48,0,0,0,0-.36l.29,0,2.93.25a7.16,7.16,0,0,0,.8.05,2.25,2.25,0,0,0,1-.18.67.67,0,0,0,.36-.68.87.87,0,0,0-.28-.68Z"/><path class="cls-1" d="M86.71,60.88a1.1,1.1,0,0,0-.77-.26c-.25,0-.64,0-1.2.06l-2.84.19-.34,0,0-.28.26-2.93c0-.27,0-.53,0-.79a2.35,2.35,0,0,0-.18-1,.68.68,0,0,0-.68-.35.87.87,0,0,0-.68.28,1.09,1.09,0,0,0-.26.77c0,.24,0,.64.06,1.19l.19,2.85c0,.12,0,.23,0,.34l-.31,0-2.93-.26a7.26,7.26,0,0,0-.8,0,2.51,2.51,0,0,0-1,.17.71.71,0,0,0-.35.69.91.91,0,0,0,.27.68,1.12,1.12,0,0,0,.77.26c.25,0,.64,0,1.2-.06l2.85-.19.36-.05,0,.31-.26,2.93c0,.27,0,.53,0,.79a2.53,2.53,0,0,0,.17,1,.71.71,0,0,0,.69.35.9.9,0,0,0,.68-.28,1.09,1.09,0,0,0,.26-.77c0-.24,0-.64-.06-1.19l-.19-2.85c0-.13,0-.25,0-.35l.28,0,2.94.25a7,7,0,0,0,.79.05,2.3,2.3,0,0,0,1-.18.67.67,0,0,0,.35-.68.9.9,0,0,0-.27-.68Z"/><path class="cls-1" d="M75.63,65.38a.59.59,0,0,0-.43-.15c-.13,0-.35,0-.66,0l-1.58.1-.19,0s0-.09,0-.15l.14-1.63a3.24,3.24,0,0,0,0-.44,1.39,1.39,0,0,0-.09-.56.39.39,0,0,0-.38-.2.5.5,0,0,0-.38.15A.63.63,0,0,0,72,63q0,.21,0,.66l.1,1.58,0,.19-.18,0-1.62-.14a3.4,3.4,0,0,0-.45,0,1.37,1.37,0,0,0-.56.1.37.37,0,0,0-.19.38.47.47,0,0,0,.15.38.62.62,0,0,0,.43.14l.66,0,1.58-.1.2,0c0,.05,0,.11,0,.17L72,67.86c0,.15,0,.3,0,.45a1.39,1.39,0,0,0,.09.56.39.39,0,0,0,.38.2.48.48,0,0,0,.38-.16.61.61,0,0,0,.14-.42c0-.14,0-.36,0-.67l-.1-1.58,0-.19.16,0,1.63.14.44,0a1.44,1.44,0,0,0,.57-.09.39.39,0,0,0,.19-.38.49.49,0,0,0-.15-.38Z"/><path class="cls-1" d="M80.86,69.2a.6.6,0,0,0-.43-.14c-.13,0-.36,0-.67,0l-1.58.11-.18,0s0-.1,0-.15l.15-1.63c0-.15,0-.3,0-.44a1.29,1.29,0,0,0-.1-.57.37.37,0,0,0-.37-.19.49.49,0,0,0-.38.15.59.59,0,0,0-.15.43q0,.21,0,.66l.11,1.59c0,.06,0,.12,0,.18l-.17,0-1.63-.14a3.24,3.24,0,0,0-.44,0,1.36,1.36,0,0,0-.56.09.38.38,0,0,0-.2.38.52.52,0,0,0,.15.38.65.65,0,0,0,.43.14l.66,0,1.58-.1.21,0a.88.88,0,0,0,0,.17l-.14,1.62a3.4,3.4,0,0,0,0,.45,1.22,1.22,0,0,0,.1.56.38.38,0,0,0,.38.2.48.48,0,0,0,.38-.16.61.61,0,0,0,.14-.42c0-.14,0-.36,0-.67l-.1-1.58,0-.19.16,0,1.63.14.44,0a1.22,1.22,0,0,0,.56-.1.38.38,0,0,0,.2-.38.48.48,0,0,0-.15-.37Z"/><path class="cls-1" d="M89.09,67.79a.58.58,0,0,0-.43-.15l-.66,0-1.58.11-.19,0s0-.1,0-.15L86.39,66a3.24,3.24,0,0,0,0-.44,1.44,1.44,0,0,0-.09-.57.4.4,0,0,0-.38-.19.5.5,0,0,0-.38.15.59.59,0,0,0-.14.43q0,.19,0,.66l.1,1.58a1.37,1.37,0,0,1,0,.19l-.17,0-1.62-.14-.44,0a1.24,1.24,0,0,0-.57.1.38.38,0,0,0-.2.38.53.53,0,0,0,.16.38.61.61,0,0,0,.42.14l.67,0,1.58-.11.2,0a1.11,1.11,0,0,1,0,.17l-.14,1.62c0,.15,0,.3,0,.44a1.41,1.41,0,0,0,.09.57.39.39,0,0,0,.38.2.51.51,0,0,0,.38-.16.56.56,0,0,0,.14-.42c0-.14,0-.36,0-.67l-.1-1.58c0-.07,0-.14,0-.19h.16l1.63.15.44,0a1.24,1.24,0,0,0,.57-.1.37.37,0,0,0,.19-.37.49.49,0,0,0-.15-.38Z"/><path class="cls-1" d="M64.58,52.44a.63.63,0,0,0-.43-.14l-.66,0-1.58.11-.19,0a.77.77,0,0,0,0-.15l.14-1.63a3.31,3.31,0,0,0,0-.44,1.26,1.26,0,0,0-.09-.57.37.37,0,0,0-.38-.19.5.5,0,0,0-.38.15.62.62,0,0,0-.14.43q0,.19,0,.66l.11,1.58a1.11,1.11,0,0,0,0,.19l-.18,0-1.62-.14-.45,0a1.22,1.22,0,0,0-.56.1.37.37,0,0,0-.2.37.5.5,0,0,0,.16.38.57.57,0,0,0,.42.15l.67,0,1.58-.11a1.2,1.2,0,0,0,.2,0,1,1,0,0,1,0,.17l-.14,1.63c0,.15,0,.3,0,.44a1.44,1.44,0,0,0,.09.57.38.38,0,0,0,.38.19.49.49,0,0,0,.38-.15.57.57,0,0,0,.14-.43,4.39,4.39,0,0,0,0-.66l-.1-1.58a1.2,1.2,0,0,0,0-.2l.16,0,1.63.14.44,0a1.39,1.39,0,0,0,.57-.1.37.37,0,0,0,.19-.38.52.52,0,0,0-.15-.38Z"/><path class="cls-1" d="M84.63,50.36a.59.59,0,0,0-.43-.15l-.66,0L82,50.35a1.08,1.08,0,0,0-.19,0c0-.05,0-.11,0-.16l.14-1.63a3.17,3.17,0,0,0,0-.44,1.39,1.39,0,0,0-.09-.56.38.38,0,0,0-.38-.2.5.5,0,0,0-.38.15A.63.63,0,0,0,81,48c0,.13,0,.36,0,.66l.1,1.58,0,.19-.18,0-1.62-.14-.44,0a1.39,1.39,0,0,0-.57.1.37.37,0,0,0-.19.38.47.47,0,0,0,.15.37.57.57,0,0,0,.42.15l.67,0,1.58-.11.2,0c0,.05,0,.1,0,.16L81,52.84c0,.15,0,.3,0,.45a1.39,1.39,0,0,0,.09.56.39.39,0,0,0,.38.2.48.48,0,0,0,.38-.16.57.57,0,0,0,.14-.43q0-.2,0-.66l-.1-1.58c0-.07,0-.14,0-.19H82l1.63.15.44,0a1.24,1.24,0,0,0,.57-.1.37.37,0,0,0,.19-.38.48.48,0,0,0-.15-.37Z"/><path class="cls-1" d="M74.66,42a.61.61,0,0,0-.43-.15l-.66,0L72,42l-.19,0s0-.09,0-.15L72,40.2c0-.15,0-.29,0-.44a1.22,1.22,0,0,0-.1-.56.36.36,0,0,0-.37-.2.49.49,0,0,0-.38.15.59.59,0,0,0-.15.43c0,.13,0,.36,0,.66l.11,1.58c0,.07,0,.13,0,.19L71,42l-1.63-.14a3.15,3.15,0,0,0-.44,0,1.33,1.33,0,0,0-.56.1.38.38,0,0,0-.2.38.52.52,0,0,0,.15.38.65.65,0,0,0,.43.14l.66,0L71,42.68l.21,0a.79.79,0,0,0,0,.17L71,44.45a3.37,3.37,0,0,0,0,.44,1.24,1.24,0,0,0,.1.57.38.38,0,0,0,.38.2.49.49,0,0,0,.38-.16.61.61,0,0,0,.14-.42c0-.14,0-.36,0-.67l-.1-1.58c0-.07,0-.14,0-.19H72l1.62.15.45,0a1.39,1.39,0,0,0,.56-.09.4.4,0,0,0,.2-.38.49.49,0,0,0-.15-.38Z"/><path class="cls-1" d="M49.69,56.29a.62.62,0,0,0-.43-.14l-.66,0L47,56.29l-.18,0c0-.05,0-.1,0-.16L47,54.53a3.37,3.37,0,0,0,0-.44,1.39,1.39,0,0,0-.1-.57.38.38,0,0,0-.38-.2.53.53,0,0,0-.38.16.61.61,0,0,0-.14.42c0,.14,0,.36,0,.67l.11,1.58c0,.07,0,.13,0,.18l-.17,0-1.63-.14-.44,0a1.27,1.27,0,0,0-.57.1c-.13.06-.19.18-.19.38a.48.48,0,0,0,.15.37.59.59,0,0,0,.43.15c.13,0,.35,0,.66,0L46,57l.2,0c0,.05,0,.11,0,.17L46,58.78c0,.15,0,.3,0,.44a1.24,1.24,0,0,0,.1.57.37.37,0,0,0,.38.19.48.48,0,0,0,.37-.15A.59.59,0,0,0,47,59.4q0-.19,0-.66l-.11-1.58a1.12,1.12,0,0,0,0-.2L47,57l1.62.14.44,0a1.58,1.58,0,0,0,.57-.1.38.38,0,0,0,.2-.38.51.51,0,0,0-.16-.38Z"/><path class="cls-1" d="M52.88,61.63a.57.57,0,0,0-.42-.15l-.67,0-1.57.11-.19,0s0-.1,0-.15l.15-1.63c0-.15,0-.3,0-.44a1.29,1.29,0,0,0-.1-.57.37.37,0,0,0-.38-.19.48.48,0,0,0-.37.15.59.59,0,0,0-.15.43q0,.19,0,.66l.11,1.58c0,.07,0,.13,0,.19l-.17,0-1.63-.14a3.15,3.15,0,0,0-.44,0,1.37,1.37,0,0,0-.56.1.37.37,0,0,0-.2.38.5.5,0,0,0,.15.38.65.65,0,0,0,.43.14l.67,0,1.57-.1.21,0a.78.78,0,0,0,0,.16l-.14,1.63a3.37,3.37,0,0,0,0,.44,1.24,1.24,0,0,0,.1.57.38.38,0,0,0,.38.2.48.48,0,0,0,.38-.16.61.61,0,0,0,.14-.42c0-.14,0-.36,0-.67l-.11-1.58a1.11,1.11,0,0,0,0-.19h.16l1.63.15.44,0a1.22,1.22,0,0,0,.56-.1A.38.38,0,0,0,53,62a.46.46,0,0,0-.16-.37Z"/><path class="cls-1" d="M71.58,36.43a.65.65,0,0,0-.43-.14l-.67,0-1.58.1-.18,0c0-.05,0-.1,0-.16l.15-1.62c0-.15,0-.3,0-.44a1.24,1.24,0,0,0-.1-.57.38.38,0,0,0-.38-.2.46.46,0,0,0-.37.16.58.58,0,0,0-.15.43q0,.2,0,.66L68,36.29c0,.07,0,.13,0,.18l-.17,0-1.63-.14-.44,0a1.48,1.48,0,0,0-.57.09.39.39,0,0,0-.19.38.49.49,0,0,0,.15.38.61.61,0,0,0,.43.15l.66,0,1.58-.11.21,0a.88.88,0,0,0,0,.17l-.14,1.63a3.25,3.25,0,0,0,0,.44,1.27,1.27,0,0,0,.1.57.37.37,0,0,0,.38.19.52.52,0,0,0,.38-.15.63.63,0,0,0,.14-.43c0-.13,0-.36,0-.66l-.1-1.58c0-.08,0-.14,0-.2l.16,0,1.62.14a3.39,3.39,0,0,0,.45,0,1.23,1.23,0,0,0,.56-.09.38.38,0,0,0,.2-.38.5.5,0,0,0-.15-.38Z"/><path class="cls-1" d="M79.1,54.86a.63.63,0,0,0-.43-.14l-.66,0-1.58.1-.19,0a.77.77,0,0,0,0-.15l.14-1.63a3.24,3.24,0,0,0,0-.44,1.26,1.26,0,0,0-.09-.57A.37.37,0,0,0,76,51.9a.5.5,0,0,0-.38.15.62.62,0,0,0-.14.43q0,.2,0,.66l.1,1.58,0,.19-.18,0-1.62-.15-.44,0a1.24,1.24,0,0,0-.57.1.38.38,0,0,0-.2.38.49.49,0,0,0,.16.37.58.58,0,0,0,.43.15l.66,0,1.58-.11.2,0a1,1,0,0,1,0,.16l-.14,1.63c0,.15,0,.3,0,.44a1.41,1.41,0,0,0,.09.57.38.38,0,0,0,.38.19.5.5,0,0,0,.38-.15.56.56,0,0,0,.14-.42,4.47,4.47,0,0,0,0-.67l-.1-1.58,0-.2.16,0,1.63.14.44,0a1.27,1.27,0,0,0,.57-.1.37.37,0,0,0,.19-.38.52.52,0,0,0-.15-.38Z"/><path class="cls-1" d="M59.3,32.75a.61.61,0,0,0-.43-.15l-.67,0-1.58.11-.18,0s0-.1,0-.15L56.6,31c0-.15,0-.3,0-.44a1.27,1.27,0,0,0-.1-.57.37.37,0,0,0-.38-.19.48.48,0,0,0-.37.15.59.59,0,0,0-.15.43q0,.2,0,.66l.11,1.58c0,.07,0,.13,0,.19l-.17,0L54,32.62l-.44,0a1.19,1.19,0,0,0-.56.1.38.38,0,0,0-.2.38.52.52,0,0,0,.15.38.65.65,0,0,0,.43.14l.66,0,1.58-.11.21,0a.78.78,0,0,0,0,.16l-.14,1.63a3.37,3.37,0,0,0,0,.44,1.39,1.39,0,0,0,.1.57.37.37,0,0,0,.38.19.48.48,0,0,0,.37-.15.58.58,0,0,0,.15-.43q0-.2,0-.66l-.11-1.58a1.23,1.23,0,0,0,0-.2l.16,0,1.62.14.45,0a1.22,1.22,0,0,0,.56-.1.38.38,0,0,0,.2-.38.48.48,0,0,0-.15-.37Z"/><path class="cls-1" d="M54.15,38.42a.63.63,0,0,0-.43-.14l-.66,0-1.58.1-.19,0a.77.77,0,0,0,0-.15l.14-1.63a3.31,3.31,0,0,0,0-.44,1.41,1.41,0,0,0-.09-.57.38.38,0,0,0-.38-.19.5.5,0,0,0-.38.15.62.62,0,0,0-.14.43q0,.2,0,.66l.1,1.58,0,.19a.86.86,0,0,0-.17,0l-1.63-.14-.44,0a1.24,1.24,0,0,0-.57.1.37.37,0,0,0-.2.37.5.5,0,0,0,.16.38.57.57,0,0,0,.42.15c.14,0,.36,0,.67,0l1.58-.1.2,0a1,1,0,0,1,0,.17l-.14,1.63c0,.15,0,.29,0,.44a1.33,1.33,0,0,0,.09.56.38.38,0,0,0,.39.2.48.48,0,0,0,.37-.15.59.59,0,0,0,.14-.43c0-.13,0-.35,0-.66l-.11-1.58,0-.2.16,0,1.63.14.44,0a1.39,1.39,0,0,0,.57-.1.37.37,0,0,0,.19-.38.5.5,0,0,0-.15-.38Z"/><path class="cls-1" d="M50.05,43.78a.56.56,0,0,0-.42-.14c-.14,0-.36,0-.67,0l-1.58.11-.18,0s0-.1,0-.16L47.36,42c0-.16,0-.3,0-.45a1.33,1.33,0,0,0-.1-.56.38.38,0,0,0-.38-.2.48.48,0,0,0-.37.15.61.61,0,0,0-.15.43q0,.21,0,.66l.11,1.59a1.1,1.1,0,0,0,0,.18l-.17,0-1.63-.14a3.31,3.31,0,0,0-.44,0,1.44,1.44,0,0,0-.57.09.38.38,0,0,0-.19.38.52.52,0,0,0,.15.38.63.63,0,0,0,.43.14l.66,0,1.58-.1.21,0a.88.88,0,0,0,0,.17l-.14,1.62a3.4,3.4,0,0,0,0,.45,1.22,1.22,0,0,0,.1.56.38.38,0,0,0,.38.2.46.46,0,0,0,.37-.16.57.57,0,0,0,.15-.42c0-.14,0-.36,0-.67l-.11-1.58a1.11,1.11,0,0,0,0-.19l.16,0,1.62.14.45,0a1.22,1.22,0,0,0,.56-.1.37.37,0,0,0,.19-.38.46.46,0,0,0-.15-.37Z"/><path class="cls-1" d="M35.77,53.63a.6.6,0,0,0-.43-.14c-.13,0-.35,0-.66,0l-1.58.11-.19,0s0-.11,0-.16l.14-1.63c0-.14,0-.29,0-.44a1.19,1.19,0,0,0-.1-.56.37.37,0,0,0-.38-.2.48.48,0,0,0-.37.15.61.61,0,0,0-.15.43c0,.14,0,.36,0,.66l.1,1.59a1.24,1.24,0,0,1,0,.18l-.17,0-1.62-.14a3.39,3.39,0,0,0-.45,0,1.39,1.39,0,0,0-.56.09.39.39,0,0,0-.2.38.5.5,0,0,0,.15.38.65.65,0,0,0,.43.14l.66,0,1.58-.1.21,0a.88.88,0,0,0,0,.17l-.14,1.62a3.4,3.4,0,0,0,0,.45,1.37,1.37,0,0,0,.1.56.38.38,0,0,0,.38.2.49.49,0,0,0,.38-.16.61.61,0,0,0,.14-.42c0-.14,0-.36,0-.67L33,54.49l0-.19.16,0,1.63.14.44,0a1.19,1.19,0,0,0,.56-.1.38.38,0,0,0,.2-.38.48.48,0,0,0-.15-.37Z"/><path class="cls-1" d="M39.45,58.55A.57.57,0,0,0,39,58.4l-.67,0-1.58.11-.19,0a.68.68,0,0,0,0-.15l.15-1.63c0-.15,0-.3,0-.44a1.46,1.46,0,0,0-.1-.57.37.37,0,0,0-.38-.19.52.52,0,0,0-.38.15.63.63,0,0,0-.14.43c0,.13,0,.36,0,.66l.11,1.58a1.11,1.11,0,0,0,0,.19l-.18,0-1.62-.14-.44,0a1.42,1.42,0,0,0-.57.1.37.37,0,0,0-.19.38.5.5,0,0,0,.15.38.63.63,0,0,0,.43.14l.66,0,1.58-.11.21,0,0,.16L35.81,61a3.37,3.37,0,0,0,0,.44,1.24,1.24,0,0,0,.1.57.38.38,0,0,0,.38.2.49.49,0,0,0,.37-.16.57.57,0,0,0,.15-.42c0-.14,0-.36,0-.67l-.11-1.58a1,1,0,0,0,0-.19h.16l1.62.15.44,0a1.41,1.41,0,0,0,.57-.09.41.41,0,0,0,.2-.39.49.49,0,0,0-.16-.37Z"/><path class="cls-1" d="M37.38,66.15A.59.59,0,0,0,37,66l-.66,0-1.58.11a1.08,1.08,0,0,0-.19,0,.88.88,0,0,0,0-.16l.14-1.63a3.17,3.17,0,0,0,0-.44,1.23,1.23,0,0,0-.09-.56.38.38,0,0,0-.38-.2.52.52,0,0,0-.38.15.63.63,0,0,0-.14.43c0,.14,0,.35,0,.66l.1,1.58,0,.19-.17,0L32.07,66l-.44,0a1.39,1.39,0,0,0-.57.1.38.38,0,0,0-.19.38.52.52,0,0,0,.15.38.62.62,0,0,0,.43.14l.66,0,1.58-.1.2,0a1.11,1.11,0,0,1,0,.17l-.14,1.62c0,.15,0,.3,0,.45a1.39,1.39,0,0,0,.09.56.4.4,0,0,0,.38.2.46.46,0,0,0,.38-.16.56.56,0,0,0,.14-.42c0-.14,0-.36,0-.67L34.57,67l0-.19h.16l1.63.15.44,0a1.24,1.24,0,0,0,.57-.1.37.37,0,0,0,.19-.38.45.45,0,0,0-.15-.37Z"/><path class="cls-1" d="M32.45,71.35a.63.63,0,0,0-.43-.14l-.66,0-1.58.11-.19,0c0-.05,0-.1,0-.15l.14-1.63c0-.15,0-.3,0-.44a1.41,1.41,0,0,0-.09-.57.39.39,0,0,0-.38-.2.51.51,0,0,0-.38.16.62.62,0,0,0-.14.43,6.3,6.3,0,0,0,0,.66l.1,1.58,0,.19-.18,0-1.62-.14-.45,0a1.22,1.22,0,0,0-.56.1.37.37,0,0,0-.2.37.46.46,0,0,0,.16.38.57.57,0,0,0,.42.15l.67,0,1.57-.11A1.18,1.18,0,0,0,29,72c0,.06,0,.11,0,.17l-.14,1.63c0,.15,0,.3,0,.44a1.41,1.41,0,0,0,.09.57.38.38,0,0,0,.38.19.5.5,0,0,0,.38-.15.59.59,0,0,0,.14-.43q0-.19,0-.66l-.1-1.58,0-.2.16,0,1.63.14.44,0a1.33,1.33,0,0,0,.56-.1.37.37,0,0,0,.2-.38.52.52,0,0,0-.15-.38Z"/><path class="cls-1" d="M32.67,60.62a.58.58,0,0,0-.43-.15l-.66,0L30,60.61l-.19,0c0-.05,0-.1,0-.15L30,58.85a3.31,3.31,0,0,0,0-.44,1.28,1.28,0,0,0-.09-.57.37.37,0,0,0-.38-.19.52.52,0,0,0-.38.15.62.62,0,0,0-.14.43q0,.2,0,.66l.1,1.58,0,.19-.18,0-1.62-.14-.44,0a1.24,1.24,0,0,0-.57.1.37.37,0,0,0-.19.38.48.48,0,0,0,.15.37.57.57,0,0,0,.42.15l.67,0L29,61.33a.71.71,0,0,0,.21,0l0,.17L29,63.1c0,.15,0,.3,0,.44a1.44,1.44,0,0,0,.09.57.39.39,0,0,0,.38.19.5.5,0,0,0,.38-.15.57.57,0,0,0,.14-.43,6.4,6.4,0,0,0,0-.66l-.1-1.58,0-.2.16,0,1.63.14.44,0a1.24,1.24,0,0,0,.57-.1.37.37,0,0,0,.19-.38.48.48,0,0,0-.15-.37Z"/><path class="cls-1" d="M64.41,65.86a.45.45,0,0,0-.34-.11c-.1,0-.27,0-.51,0l-1.24.08-.15,0s0-.08,0-.12l.11-1.27c0-.12,0-.23,0-.35a1,1,0,0,0-.07-.44.31.31,0,0,0-.3-.16.37.37,0,0,0-.29.12.47.47,0,0,0-.11.34c0,.1,0,.28,0,.52l.08,1.24s0,.1,0,.14h-.14l-1.27-.12H59.9a1.06,1.06,0,0,0-.44.07.3.3,0,0,0-.15.3.37.37,0,0,0,.12.29.45.45,0,0,0,.33.12l.52,0,1.24-.08.16,0s0,.08,0,.13l-.11,1.27c0,.12,0,.24,0,.35a1,1,0,0,0,.07.44.31.31,0,0,0,.3.16.37.37,0,0,0,.29-.12.45.45,0,0,0,.11-.34c0-.1,0-.27,0-.52l-.08-1.24a.77.77,0,0,0,0-.15l.12,0,1.28.11.34,0a1.07,1.07,0,0,0,.45-.08.3.3,0,0,0,.15-.3.37.37,0,0,0-.12-.29Z"/><path class="cls-1" d="M79.64,45.19a.47.47,0,0,0-.33-.11l-.52,0-1.23.08-.15,0s0-.08,0-.12l.11-1.27c0-.12,0-.24,0-.35a1,1,0,0,0-.07-.44.29.29,0,0,0-.3-.16.41.41,0,0,0-.3.12.5.5,0,0,0-.11.34c0,.1,0,.28,0,.52l.09,1.23a.68.68,0,0,0,0,.15l-.14,0-1.27-.11-.35,0a1,1,0,0,0-.44.08.3.3,0,0,0-.15.3.4.4,0,0,0,.11.29.47.47,0,0,0,.34.11l.52,0,1.24-.08.16,0a.51.51,0,0,0,0,.13l-.11,1.27c0,.12,0,.23,0,.35a1,1,0,0,0,.08.44.3.3,0,0,0,.29.15.39.39,0,0,0,.3-.12.49.49,0,0,0,.11-.33c0-.1,0-.28,0-.52l-.08-1.24,0-.15h.13l1.27.12h.35a1,1,0,0,0,.44-.07.29.29,0,0,0,.16-.3.38.38,0,0,0-.13-.3Z"/><path class="cls-1" d="M75.94,49a.49.49,0,0,0-.33-.11l-.52,0L73.85,49l-.14,0s0-.08,0-.12l.11-1.28c0-.11,0-.23,0-.34a1.07,1.07,0,0,0-.08-.45.3.3,0,0,0-.29-.15.41.41,0,0,0-.3.12.49.49,0,0,0-.11.33c0,.11,0,.28,0,.52l.09,1.24s0,.1,0,.15l-.13,0-1.28-.11-.34,0a1,1,0,0,0-.44.08.29.29,0,0,0-.16.29.39.39,0,0,0,.12.3.45.45,0,0,0,.34.11l.51,0,1.24-.08.16,0s0,.09,0,.14l-.11,1.27a2.06,2.06,0,0,0,0,.35,1,1,0,0,0,.07.44.3.3,0,0,0,.3.15.39.39,0,0,0,.3-.12.49.49,0,0,0,.11-.33c0-.11,0-.28,0-.52l-.08-1.24a.77.77,0,0,0,0-.15h.13l1.27.11a2.06,2.06,0,0,0,.35,0,1.22,1.22,0,0,0,.44-.07.3.3,0,0,0,.15-.3.41.41,0,0,0-.12-.3Z"/><path class="cls-1" d="M55,27.74a.44.44,0,0,0-.33-.11l-.52,0-1.24.09h-.15s0-.08,0-.12l.11-1.27c0-.12,0-.23,0-.35a1,1,0,0,0-.08-.44.3.3,0,0,0-.3-.15.37.37,0,0,0-.29.12.44.44,0,0,0-.11.33c0,.11,0,.28,0,.52l.08,1.24c0,.05,0,.1,0,.15l-.14,0-1.27-.11a1.94,1.94,0,0,0-.34,0,1.28,1.28,0,0,0-.45.07.3.3,0,0,0-.15.3.41.41,0,0,0,.12.3.49.49,0,0,0,.33.11l.52,0,1.24-.08.16,0a.53.53,0,0,0,0,.13l-.12,1.28c0,.11,0,.23,0,.34a1.09,1.09,0,0,0,.07.45.3.3,0,0,0,.3.15.37.37,0,0,0,.29-.12.45.45,0,0,0,.12-.33c0-.11,0-.28,0-.52l-.08-1.24c0-.06,0-.11,0-.16l.13,0,1.27.11.34,0a1.07,1.07,0,0,0,.45-.08.29.29,0,0,0,.15-.29.39.39,0,0,0-.12-.3Z"/><path class="cls-1" d="M46.92,36.45a.73.73,0,0,0-.48-.16l-.74,0-1.77.12-.22,0a.88.88,0,0,0,0-.17l.16-1.82a4.32,4.32,0,0,0,0-.5,1.45,1.45,0,0,0-.11-.63.41.41,0,0,0-.42-.22.54.54,0,0,0-.43.17.69.69,0,0,0-.16.48c0,.15,0,.39,0,.74L43,36.29a1.25,1.25,0,0,0,0,.21l-.19,0L41,36.32l-.5,0a1.45,1.45,0,0,0-.63.11.43.43,0,0,0-.23.43.58.58,0,0,0,.18.42.65.65,0,0,0,.48.16l.74,0,1.77-.12.23,0a1,1,0,0,0,0,.19l-.16,1.82a4.15,4.15,0,0,0,0,.49,1.53,1.53,0,0,0,.11.64.43.43,0,0,0,.42.22.58.58,0,0,0,.43-.17.68.68,0,0,0,.16-.48c0-.15,0-.4,0-.75l-.11-1.77,0-.22.18,0,1.82.16.49,0a1.53,1.53,0,0,0,.64-.11.41.41,0,0,0,.22-.42.58.58,0,0,0-.17-.43Z"/><path class="cls-1" d="M41.25,41.52a.62.62,0,0,0-.44-.15l-.69,0-1.62.11-.19,0a.86.86,0,0,0,0-.16l.15-1.67a3.62,3.62,0,0,0,0-.46,1.33,1.33,0,0,0-.09-.58.4.4,0,0,0-.4-.2.52.52,0,0,0-.38.15.62.62,0,0,0-.15.44c0,.14,0,.37,0,.68l.11,1.63a1.11,1.11,0,0,0,0,.19l-.18,0-1.67-.14-.45,0a1.26,1.26,0,0,0-.58.1.39.39,0,0,0-.21.39.53.53,0,0,0,.16.39.62.62,0,0,0,.44.15l.68,0,1.63-.1.21,0a.88.88,0,0,0,0,.17l-.15,1.67c0,.16,0,.31,0,.46a1.29,1.29,0,0,0,.1.58c.06.14.19.2.39.2a.53.53,0,0,0,.39-.15.66.66,0,0,0,.14-.44,4.76,4.76,0,0,0,0-.69l-.1-1.62,0-.2.16,0,1.68.14a3.4,3.4,0,0,0,.45,0,1.41,1.41,0,0,0,.58-.1.4.4,0,0,0,.21-.39.53.53,0,0,0-.16-.39Z"/><path class="cls-1" d="M29.25,55.7a.51.51,0,0,0-.34-.11l-.52,0-1.23.08-.15,0a.49.49,0,0,0,0-.12l.11-1.27a2.11,2.11,0,0,0,0-.35,1,1,0,0,0-.07-.44.29.29,0,0,0-.3-.16.41.41,0,0,0-.3.12.5.5,0,0,0-.11.34c0,.1,0,.27,0,.52l.09,1.23a.68.68,0,0,0,0,.15l-.14,0-1.27-.11-.35,0a1,1,0,0,0-.44.08.3.3,0,0,0-.15.29.41.41,0,0,0,.11.3.48.48,0,0,0,.34.11c.1,0,.28,0,.52,0l1.23-.08.17,0a.51.51,0,0,0,0,.13l-.11,1.27c0,.12,0,.24,0,.35a1,1,0,0,0,.08.44.29.29,0,0,0,.29.15.39.39,0,0,0,.3-.12.49.49,0,0,0,.11-.33c0-.11,0-.28,0-.52L27,56.38a.77.77,0,0,0,0-.15h.13l1.27.11a2.06,2.06,0,0,0,.35,0,1,1,0,0,0,.44-.07.31.31,0,0,0,.16-.3.41.41,0,0,0-.12-.3Z"/><path class="cls-1" d="M62.37,27.94a.44.44,0,0,0-.33-.11c-.1,0-.28,0-.52,0l-1.23.08-.15,0s0-.07,0-.12l.11-1.27c0-.12,0-.23,0-.35a1,1,0,0,0-.08-.44.28.28,0,0,0-.29-.15.41.41,0,0,0-.3.12.49.49,0,0,0-.11.33c0,.11,0,.28,0,.52l.09,1.24c0,.05,0,.1,0,.14h-.13l-1.27-.12h-.35a1,1,0,0,0-.44.07.31.31,0,0,0-.16.3.37.37,0,0,0,.12.29.45.45,0,0,0,.34.12l.52,0,1.23-.08.17,0a.51.51,0,0,0,0,.13l-.11,1.27c0,.12,0,.24,0,.35a1,1,0,0,0,.07.44.3.3,0,0,0,.3.16.41.41,0,0,0,.3-.12.5.5,0,0,0,.11-.34c0-.1,0-.27,0-.52l-.09-1.23a.78.78,0,0,0,0-.16l.13,0,1.27.11.35,0a1,1,0,0,0,.44-.08.3.3,0,0,0,.15-.3.37.37,0,0,0-.12-.29Z"/><path class="cls-1" d="M39,72.15a.5.5,0,0,0-.34-.11l-.51,0-1.24.09-.15,0a.49.49,0,0,0,0-.12l.11-1.28a1.94,1.94,0,0,0,0-.34,1.09,1.09,0,0,0-.07-.45.3.3,0,0,0-.3-.15.37.37,0,0,0-.29.12.45.45,0,0,0-.12.33c0,.11,0,.28,0,.52L36.21,72a.77.77,0,0,0,0,.15l-.14,0-1.27-.11-.35,0a1,1,0,0,0-.44.08.28.28,0,0,0-.15.29.38.38,0,0,0,.12.3.49.49,0,0,0,.33.11l.52,0,1.24-.09.16,0s0,.09,0,.14l-.11,1.27c0,.12,0,.23,0,.35a1,1,0,0,0,.08.44.3.3,0,0,0,.29.15.39.39,0,0,0,.3-.12.49.49,0,0,0,.11-.33c0-.11,0-.28,0-.52l-.08-1.24a.77.77,0,0,1,0-.15h.12l1.27.11.35,0a1,1,0,0,0,.44-.07.29.29,0,0,0,.16-.3.41.41,0,0,0-.12-.3Z"/><path class="cls-1" d="M37.3,47.07A.45.45,0,0,0,37,47c-.1,0-.27,0-.52,0l-1.23.08-.15,0a.45.45,0,0,0,0-.12l.12-1.27c0-.12,0-.23,0-.35a1,1,0,0,0-.07-.44.3.3,0,0,0-.3-.15.34.34,0,0,0-.29.12.45.45,0,0,0-.12.33c0,.11,0,.28,0,.52L34.53,47a.59.59,0,0,0,0,.14h-.14L33.14,47a2.06,2.06,0,0,0-.35,0,1,1,0,0,0-.44.07.3.3,0,0,0-.15.3.41.41,0,0,0,.12.3.49.49,0,0,0,.33.11l.52,0,1.24-.08.16,0s0,.08,0,.13L34.44,49c0,.11,0,.23,0,.34a1.1,1.1,0,0,0,.08.45.3.3,0,0,0,.3.15.37.37,0,0,0,.29-.12.45.45,0,0,0,.11-.34c0-.1,0-.27,0-.52l-.08-1.23c0-.06,0-.11,0-.16l.12,0,1.28.11.34,0a1,1,0,0,0,.44-.08.29.29,0,0,0,.16-.3.37.37,0,0,0-.12-.29Z"/><path class="cls-1" d="M28.53,66.38a.5.5,0,0,0-.34-.11l-.51,0-1.24.09h-.15a.41.41,0,0,0,0-.12L26.41,65a2.06,2.06,0,0,0,0-.35.9.9,0,0,0-.07-.44.3.3,0,0,0-.3-.15.37.37,0,0,0-.29.12.45.45,0,0,0-.12.33c0,.11,0,.28,0,.52l.08,1.24s0,.1,0,.14h-.14l-1.27-.11-.34,0a1.09,1.09,0,0,0-.45.07.3.3,0,0,0-.15.3.41.41,0,0,0,.12.3.49.49,0,0,0,.33.11l.52,0,1.24-.08.16,0s0,.09,0,.13l-.11,1.28c0,.11,0,.23,0,.35a1,1,0,0,0,.08.44.3.3,0,0,0,.3.15.37.37,0,0,0,.29-.12.45.45,0,0,0,.11-.34,3.4,3.4,0,0,0,0-.51l-.08-1.24c0-.06,0-.11,0-.15h.12l1.28.11.34,0a1,1,0,0,0,.44-.08c.11,0,.16-.14.16-.29a.39.39,0,0,0-.12-.3Z"/><path class="cls-1" d="M66.81,31.66a.47.47,0,0,0-.33-.11l-.52,0-1.24.08-.14,0s0-.08,0-.12l.11-1.27c0-.12,0-.24,0-.35a1,1,0,0,0-.08-.44.29.29,0,0,0-.29-.16.38.38,0,0,0-.3.12.5.5,0,0,0-.11.34c0,.1,0,.28,0,.52l.09,1.23c0,.06,0,.11,0,.15l-.13,0-1.27-.11-.35,0a1,1,0,0,0-.44.08.29.29,0,0,0-.16.3.37.37,0,0,0,.12.29.45.45,0,0,0,.34.11c.1,0,.27,0,.52,0l1.23-.08.16,0s0,.08,0,.13L64,33.61a2.06,2.06,0,0,0,0,.35,1,1,0,0,0,.07.44.3.3,0,0,0,.3.15.37.37,0,0,0,.3-.12.49.49,0,0,0,.11-.33c0-.1,0-.28,0-.52l-.08-1.24a.77.77,0,0,0,0-.15h.13l1.27.11a2.06,2.06,0,0,0,.35,0,1,1,0,0,0,.44-.07.3.3,0,0,0,.15-.3.41.41,0,0,0-.12-.3Z"/><path class="cls-1" d="M89.93,56.7a.49.49,0,0,0-.33-.11c-.11,0-.28,0-.52,0l-1.24.08-.14,0s0-.07,0-.12l.11-1.27c0-.12,0-.23,0-.35a1,1,0,0,0-.08-.44.3.3,0,0,0-.29-.15.41.41,0,0,0-.3.12.44.44,0,0,0-.11.33c0,.11,0,.28,0,.52l.08,1.24a.78.78,0,0,1,0,.14h-.13l-1.28-.11a1.94,1.94,0,0,0-.34,0,1.28,1.28,0,0,0-.45.07.3.3,0,0,0-.15.3.41.41,0,0,0,.12.3.5.5,0,0,0,.34.11l.51,0L87,57.26l.16,0s0,.09,0,.13l-.11,1.28a1.94,1.94,0,0,0,0,.34,1.12,1.12,0,0,0,.07.45.3.3,0,0,0,.3.15.37.37,0,0,0,.29-.12.45.45,0,0,0,.12-.33c0-.11,0-.28,0-.53l-.08-1.23a.61.61,0,0,0,0-.15h.13l1.27.11.35,0a1,1,0,0,0,.44-.08.29.29,0,0,0,.15-.29.39.39,0,0,0-.12-.3Z"/><path class="cls-1" d="M30.93,48.76a.35.35,0,0,0-.25-.09l-.4,0-.93.06-.11,0s0-.06,0-.09l.08-1a2.46,2.46,0,0,0,0-.26.77.77,0,0,0-.06-.34.22.22,0,0,0-.22-.12.3.3,0,0,0-.23.09.4.4,0,0,0-.08.26,3.3,3.3,0,0,0,0,.39l.06.93s0,.08,0,.12l-.1,0-1-.08-.27,0a.75.75,0,0,0-.33.06.21.21,0,0,0-.11.22.3.3,0,0,0,.09.23.33.33,0,0,0,.25.09l.39,0,.94-.06h.12s0,.06,0,.1l-.08,1a2.35,2.35,0,0,0,0,.26,1,1,0,0,0,0,.34.25.25,0,0,0,.23.11.28.28,0,0,0,.22-.09.33.33,0,0,0,.09-.25c0-.08,0-.21,0-.4l-.06-.93s0-.08,0-.11h.1l1,.08.26,0a1.08,1.08,0,0,0,.33-.06A.23.23,0,0,0,31,49a.29.29,0,0,0-.09-.22Z"/><path class="cls-1" d="M50.23,31.45a.37.37,0,0,0-.25-.08l-.39,0-.94.06h-.11a.22.22,0,0,0,0-.09l.08-1a2.28,2.28,0,0,0,0-.26.77.77,0,0,0-.06-.34.23.23,0,0,0-.22-.11.32.32,0,0,0-.23.09.37.37,0,0,0-.08.25,3.3,3.3,0,0,0,0,.39l.06.94s0,.08,0,.11h-.1l-1-.09h-.26a.77.77,0,0,0-.34.06.22.22,0,0,0-.11.22.28.28,0,0,0,.09.22.33.33,0,0,0,.25.09l.39,0,.94-.06.12,0a.38.38,0,0,0,0,.1l-.09,1a2.44,2.44,0,0,0,0,.27.91.91,0,0,0,0,.33.24.24,0,0,0,.23.11.27.27,0,0,0,.22-.08.36.36,0,0,0,.09-.26c0-.08,0-.21,0-.39L48.57,32a.43.43,0,0,0,0-.11h.1l1,.08.26,0a.69.69,0,0,0,.33-.06c.09,0,.12-.11.12-.22a.32.32,0,0,0-.09-.23Z"/><path class="cls-1" d="M69.66,48.78a.36.36,0,0,0-.26-.09l-.39,0-.93.06-.12,0a.34.34,0,0,0,0-.1l.09-1a2.26,2.26,0,0,0,0-.26.72.72,0,0,0-.06-.33.21.21,0,0,0-.22-.12.29.29,0,0,0-.22.09.33.33,0,0,0-.09.25c0,.08,0,.21,0,.39l.06.94s0,.08,0,.11h-.11l-1-.09h-.26a.69.69,0,0,0-.33.06.21.21,0,0,0-.12.22.28.28,0,0,0,.09.22.33.33,0,0,0,.25.09l.39,0,.94-.06.12,0s0,.07,0,.1l-.08,1a2.11,2.11,0,0,0,0,.26.75.75,0,0,0,.06.33.22.22,0,0,0,.22.12.28.28,0,0,0,.23-.1.32.32,0,0,0,.08-.25c0-.08,0-.21,0-.39L68,49.29s0-.09,0-.12h.09l1,.09h.26a.77.77,0,0,0,.34-.06.21.21,0,0,0,.11-.22.31.31,0,0,0-.08-.22Z"/><path class="cls-1" d="M92.07,63a.33.33,0,0,0-.25-.08,3.3,3.3,0,0,0-.39,0L90.5,63h-.11v-.09l.09-1a2.35,2.35,0,0,0,0-.26.77.77,0,0,0-.06-.34.22.22,0,0,0-.22-.11.28.28,0,0,0-.22.09.33.33,0,0,0-.09.25c0,.08,0,.21,0,.39l.06.94S90,63,90,63h-.11l-1-.09h-.26a.91.91,0,0,0-.33.05.23.23,0,0,0-.12.23.28.28,0,0,0,.09.22.35.35,0,0,0,.25.09l.4,0,.93-.06.12,0s0,.06,0,.1l-.08,1a2.45,2.45,0,0,0,0,.27.75.75,0,0,0,.06.33.21.21,0,0,0,.22.11.27.27,0,0,0,.23-.09.37.37,0,0,0,.08-.25c0-.08,0-.21,0-.39l-.06-.94s0-.08,0-.11h.09l1,.08.26,0a.77.77,0,0,0,.34-.06.23.23,0,0,0,.12-.23.32.32,0,0,0-.1-.22Z"/><path class="cls-1" d="M84.79,73.55a.37.37,0,0,0-.25-.08l-.39,0-.94.06H83.1a.25.25,0,0,0,0-.09l.09-1c0-.09,0-.18,0-.26a.77.77,0,0,0-.06-.34.22.22,0,0,0-.22-.11.27.27,0,0,0-.22.09.33.33,0,0,0-.09.25c0,.08,0,.21,0,.4l.06.93s0,.08,0,.11l-.1,0-1-.08h-.26a.77.77,0,0,0-.34.06.22.22,0,0,0-.11.22A.28.28,0,0,0,81,74a.33.33,0,0,0,.25.09l.39,0,.94-.06.12,0s0,.07,0,.1l-.09,1c0,.09,0,.18,0,.27a.75.75,0,0,0,.06.33c0,.08.11.11.22.11a.27.27,0,0,0,.22-.08.36.36,0,0,0,.09-.26c0-.08,0-.21,0-.39l-.06-.93s0-.09,0-.12h.1l1,.08.26,0a.77.77,0,0,0,.34-.06.21.21,0,0,0,.11-.22.3.3,0,0,0-.09-.23Z"/><path class="cls-1" d="M91.76,71.3a.36.36,0,0,0-.26-.09l-.39,0-.93.07h-.11v-.09l.09-1a2.44,2.44,0,0,0,0-.27.76.76,0,0,0,0-.33.24.24,0,0,0-.23-.12.28.28,0,0,0-.22.09.36.36,0,0,0-.09.26c0,.08,0,.21,0,.39l.07.93a.34.34,0,0,0,0,.11h-.11l-1-.08-.26,0a.69.69,0,0,0-.33.06.23.23,0,0,0-.12.23.29.29,0,0,0,.09.22.34.34,0,0,0,.25.08,3.44,3.44,0,0,0,.4,0l.93-.06h.12s0,.06,0,.1l-.08,1a2.46,2.46,0,0,0,0,.26.77.77,0,0,0,.06.34.23.23,0,0,0,.22.11.3.3,0,0,0,.23-.09.37.37,0,0,0,.08-.25c0-.08,0-.21,0-.39l-.07-.94s0-.08,0-.11h.09l1,.08h.27a1,1,0,0,0,.33,0,.22.22,0,0,0,.12-.22.3.3,0,0,0-.09-.23Z"/><path class="cls-2" d="M71.87,53.89a1.35,1.35,0,0,1-.43,1,1.4,1.4,0,0,1-1,.43,1.43,1.43,0,0,1-1-.42,1.4,1.4,0,0,1-.44-1,1.45,1.45,0,0,1,.44-1,1.46,1.46,0,0,1,2.49,1Z"/><path class="cls-1" d="M66.81,31.66a.47.47,0,0,0-.33-.11l-.52,0-1.24.08-.14,0s0-.08,0-.12l.11-1.27c0-.12,0-.24,0-.35a1,1,0,0,0-.08-.44.29.29,0,0,0-.29-.16.38.38,0,0,0-.3.12.5.5,0,0,0-.11.34c0,.1,0,.28,0,.52l.09,1.23c0,.06,0,.11,0,.15l-.13,0-1.27-.11-.35,0a1,1,0,0,0-.44.08.29.29,0,0,0-.16.3.37.37,0,0,0,.12.29.45.45,0,0,0,.34.11c.1,0,.27,0,.52,0l1.23-.08.16,0s0,.08,0,.13L64,33.61a2.06,2.06,0,0,0,0,.35,1,1,0,0,0,.07.44.3.3,0,0,0,.3.15.37.37,0,0,0,.3-.12.49.49,0,0,0,.11-.33c0-.1,0-.28,0-.52l-.08-1.24a.77.77,0,0,0,0-.15h.13l1.27.11a2.06,2.06,0,0,0,.35,0,1,1,0,0,0,.44-.07.3.3,0,0,0,.15-.3.41.41,0,0,0-.12-.3Z"/><path class="cls-3" d="M187.3,73.84V84.6a.27.27,0,0,1-.3.3h-1.11a.27.27,0,0,1-.3-.3V73.84a.27.27,0,0,1,.3-.3H187A.27.27,0,0,1,187.3,73.84Z"/><path class="cls-3" d="M195.22,84.9h-1.1a.27.27,0,0,1-.3-.3V73.84a.27.27,0,0,1,.3-.3h1a.4.4,0,0,1,.39.19l4.28,7.69h.07V73.84a.27.27,0,0,1,.3-.3h1.09a.27.27,0,0,1,.3.3V84.6a.27.27,0,0,1-.3.3h-1a.53.53,0,0,1-.46-.29L195.59,77h-.07V84.6A.27.27,0,0,1,195.22,84.9Z"/><path class="cls-3" d="M212.11,84.9h-1.75a.35.35,0,0,1-.37-.3l-2.93-10.73c-.07-.22,0-.33.26-.33h1.25a.32.32,0,0,1,.34.3l2.28,9.22h.07l2.26-9.22a.35.35,0,0,1,.36-.3h1.23c.25,0,.34.11.29.33l-3,10.73A.32.32,0,0,1,212.11,84.9Z"/><path class="cls-3" d="M226.84,84.9h-5.65a.27.27,0,0,1-.3-.3V73.84a.27.27,0,0,1,.3-.3h5.65a.26.26,0,0,1,.29.3v.9a.26.26,0,0,1-.29.3h-4c-.15,0-.22.06-.22.17v3c0,.12.07.18.22.18h3.41c.21,0,.31.1.31.3v.9c0,.2-.1.3-.31.3h-3.41c-.15,0-.22.06-.22.18V83.2c0,.13.07.19.22.19h4a.26.26,0,0,1,.29.3v.91A.26.26,0,0,1,226.84,84.9Z"/><path class="cls-3" d="M233,82.14v-.46a.27.27,0,0,1,.3-.3h1.13a.27.27,0,0,1,.3.3V82a1.19,1.19,0,0,0,1.41,1.39h1.22a1.49,1.49,0,0,0,1.1-.34,1.58,1.58,0,0,0,.33-1.12v-.41a1.06,1.06,0,0,0-.43-.89,2.23,2.23,0,0,0-1.07-.42c-.42-.07-.89-.16-1.39-.28a13.9,13.9,0,0,1-1.4-.4,2.28,2.28,0,0,1-1.07-.87A2.82,2.82,0,0,1,233,77v-.74a2.53,2.53,0,0,1,2.76-2.75h1.87a2.75,2.75,0,0,1,2,.73,2.72,2.72,0,0,1,.73,2v.39a.27.27,0,0,1-.3.3H239a.27.27,0,0,1-.3-.3v-.23a1.5,1.5,0,0,0-.33-1.09,1.51,1.51,0,0,0-1.08-.32h-1.12a1.43,1.43,0,0,0-1.08.34,1.68,1.68,0,0,0-.33,1.18v.54c0,.53.38.89,1.15,1.08a8.29,8.29,0,0,0,1.12.21,9,9,0,0,1,1.23.27,5,5,0,0,1,1.13.47,2.15,2.15,0,0,1,.83.88,3.06,3.06,0,0,1,.32,1.44v.69a2.56,2.56,0,0,1-2.76,2.76h-2a2.77,2.77,0,0,1-2-.74A2.73,2.73,0,0,1,233,82.14Z"/><path class="cls-3" d="M249.86,84.9h-1.11c-.21,0-.32-.1-.32-.3V75.21a.15.15,0,0,0-.17-.17H246c-.21,0-.32-.1-.32-.3v-.9c0-.2.11-.3.32-.3h6.56c.21,0,.31.1.31.3v.9c0,.2-.1.3-.31.3h-2.23c-.13,0-.2.06-.2.17V84.6A.26.26,0,0,1,249.86,84.9Z"/><path class="cls-3" d="M262.89,84.9h-2.05a2.5,2.5,0,0,1-2.74-2.74V76.27a2.76,2.76,0,0,1,.71-2,2.73,2.73,0,0,1,2-.71h2.05a2.76,2.76,0,0,1,2,.71,2.73,2.73,0,0,1,.72,2v5.89a2.72,2.72,0,0,1-.72,2A2.77,2.77,0,0,1,262.89,84.9Zm-1.81-1.51h1.54a1.14,1.14,0,0,0,1.29-1.3V76.34a1.14,1.14,0,0,0-1.29-1.3h-1.54a1.14,1.14,0,0,0-1.27,1.3v5.75A1.14,1.14,0,0,0,261.08,83.39Z"/><path class="cls-3" d="M273.29,84.9h-1.11a.27.27,0,0,1-.3-.3V73.84a.27.27,0,0,1,.3-.3h4.13a2.53,2.53,0,0,1,2.76,2.75v1.49a2.39,2.39,0,0,1-1.68,2.56v.07l2,4.13c.13.24,0,.36-.23.36H278a.52.52,0,0,1-.55-.3l-1.89-4.07H273.8q-.21,0-.21.18V84.6A.27.27,0,0,1,273.29,84.9Zm.5-5.78H276a1.15,1.15,0,0,0,1.31-1.29V76.34A1.15,1.15,0,0,0,276,75h-2.24c-.13,0-.2.06-.2.17v3.73C273.59,79.06,273.66,79.12,273.79,79.12Z"/><path class="cls-3" d="M294.78,84.9h-1.12a.27.27,0,0,1-.3-.3V73.84a.27.27,0,0,1,.3-.3h5.55a.27.27,0,0,1,.3.3v.9a.27.27,0,0,1-.3.3h-3.92c-.14,0-.21.06-.21.17v3.34a.18.18,0,0,0,.21.2h3.41c.21,0,.32.1.32.3v.88a.29.29,0,0,1-.32.32h-3.41q-.21,0-.21.18V84.6A.27.27,0,0,1,294.78,84.9Z"/><path class="cls-3" d="M307,73.84V84.6a.27.27,0,0,1-.3.3h-1.12a.27.27,0,0,1-.3-.3V73.84a.27.27,0,0,1,.3-.3h1.12A.27.27,0,0,1,307,73.84Z"/><path class="cls-3" d="M315,84.9h-1.11a.27.27,0,0,1-.3-.3V73.84a.27.27,0,0,1,.3-.3H318a2.54,2.54,0,0,1,2.76,2.75v1.49a2.39,2.39,0,0,1-1.68,2.56v.07l2,4.13c.13.24.05.36-.23.36h-1.1a.52.52,0,0,1-.54-.3l-1.89-4.07h-1.79q-.21,0-.21.18V84.6A.27.27,0,0,1,315,84.9Zm.49-5.78h2.25A1.15,1.15,0,0,0,319,77.83V76.34a1.15,1.15,0,0,0-1.31-1.3h-2.25c-.13,0-.19.06-.19.17v3.73C315.27,79.06,315.33,79.12,315.46,79.12Z"/><path class="cls-3" d="M326.77,82.14v-.46a.27.27,0,0,1,.3-.3h1.13a.27.27,0,0,1,.3.3V82a1.47,1.47,0,0,0,.33,1.07,1.5,1.5,0,0,0,1.09.32h1.22a1.47,1.47,0,0,0,1.09-.34,1.58,1.58,0,0,0,.34-1.12v-.41a1.07,1.07,0,0,0-.44-.89,2.2,2.2,0,0,0-1.06-.42c-.43-.07-.89-.16-1.4-.28a13.9,13.9,0,0,1-1.4-.4,2.28,2.28,0,0,1-1.07-.87,2.9,2.9,0,0,1-.43-1.63v-.74a2.53,2.53,0,0,1,2.76-2.75h1.87a2.75,2.75,0,0,1,2,.73,2.72,2.72,0,0,1,.73,2v.39a.27.27,0,0,1-.3.3h-1.13a.27.27,0,0,1-.3-.3v-.23A1.19,1.19,0,0,0,331,75h-1.11a1.45,1.45,0,0,0-1.09.34,1.68,1.68,0,0,0-.33,1.18v.54c0,.53.39.89,1.15,1.08a8.59,8.59,0,0,0,1.12.21,9,9,0,0,1,1.23.27,5,5,0,0,1,1.13.47A2.15,2.15,0,0,1,334,80a3.06,3.06,0,0,1,.32,1.44v.69a2.72,2.72,0,0,1-.73,2,2.75,2.75,0,0,1-2,.74h-2a2.79,2.79,0,0,1-2-.74A2.73,2.73,0,0,1,326.77,82.14Z"/><path class="cls-3" d="M343.63,84.9h-1.12c-.21,0-.32-.1-.32-.3V75.21A.15.15,0,0,0,342,75h-2.23c-.21,0-.32-.1-.32-.3v-.9c0-.2.11-.3.32-.3h6.56c.21,0,.32.1.32.3v.9c0,.2-.11.3-.32.3h-2.23c-.13,0-.19.06-.19.17V84.6A.27.27,0,0,1,343.63,84.9Z"/><path class="cls-4" d="M99.92,26.29a1.47,1.47,0,0,1,1.54-1.46A1.49,1.49,0,0,1,103,26.39v31.3a1.48,1.48,0,0,1-1.54,1.55,1.46,1.46,0,0,1-1.54-1.46Z"/><path class="cls-4" d="M133.88,26.29a1.53,1.53,0,0,1,3.06,0V55.46a3.75,3.75,0,0,1-3.84,3.78A3.88,3.88,0,0,1,129.58,57l-13-28.57c-.25-.54-.55-.83-1-.78s-.63.36-.63,1V57.78a1.54,1.54,0,0,1-3.07,0V28.62a3.77,3.77,0,0,1,3.87-3.79,3.86,3.86,0,0,1,3.5,2.22l13,28.56c.24.53.55.84,1,.77s.62-.36.62-1Z"/><path class="cls-4" d="M164.86,26.09a1.57,1.57,0,0,1,1.75-1.23,1.31,1.31,0,0,1,1.3,1.4,1.4,1.4,0,0,1,0,.41l-8.2,29.57a4.42,4.42,0,0,1-8.41-.13L143.1,26.67a1.18,1.18,0,0,1,0-.37,1.44,1.44,0,0,1,1.38-1.44,1.57,1.57,0,0,1,1.68,1.26l8.21,29.39a1.21,1.21,0,0,0,2.32,0Z"/><path class="cls-4" d="M174.53,27.14a2.3,2.3,0,0,1,2.4-2.31h16.72a1.48,1.48,0,0,1,1.64,1.46,1.44,1.44,0,0,1-1.54,1.45H177.61V39.91h13.21a1.5,1.5,0,0,1,1.64,1.45,1.47,1.47,0,0,1-1.54,1.47H177.61V56.34h16a1.46,1.46,0,0,1,1.64,1.44,1.45,1.45,0,0,1-1.54,1.46H176.93a2.29,2.29,0,0,1-2.4-2.3Z"/><path class="cls-4" d="M201.58,59.24a1.4,1.4,0,1,1,0-2.8h9.47c5,0,7.63-2.1,7.63-7.48,0-4.19-2.42-5.05-7.78-6.08-5.73-1.12-10.8-2.16-10.8-9.32,0-6.35,4.19-8.73,10.9-8.73h8.27a1.48,1.48,0,0,1,1.57,1.42,1.5,1.5,0,0,1-1.49,1.41H211c-5.08,0-7.93,1.53-7.93,5.9,0,4.95,3.18,5.61,8.41,6.51,6.37,1.13,10.17,2.81,10.17,8.89,0,7.3-3.75,10.28-10.6,10.28Z"/><path class="cls-4" d="M249.46,24.84a1.41,1.41,0,1,1,.1,2.81h-9.5V57.82a1.53,1.53,0,0,1-1.5,1.42A1.48,1.48,0,0,1,237,57.82V27.66h-9.6a1.41,1.41,0,1,1,0-2.82Z"/><path class="cls-4" d="M280.64,27.24a3.76,3.76,0,0,1,7.27,1.25V57.78a1.53,1.53,0,0,1-3.06,0V28.71c0-.67-.18-1-.52-1s-.61.27-.8.85l-9.37,29.35a2.05,2.05,0,0,1-3.87,0l-8.74-29.33c-.17-.58-.43-.93-.8-.86s-.54.36-.54,1V57.78a1.53,1.53,0,0,1-3.06,0V28.49a3.7,3.7,0,0,1,3.71-3.66,3.61,3.61,0,0,1,3.56,2.51l7.84,26.4Z"/><path class="cls-4" d="M297.31,27.14a2.29,2.29,0,0,1,2.39-2.31h16.72a1.48,1.48,0,0,1,1.64,1.46,1.43,1.43,0,0,1-1.54,1.45H300.38V39.91H313.6a1.49,1.49,0,0,1,1.63,1.45,1.46,1.46,0,0,1-1.54,1.47H300.38V56.34h16a1.46,1.46,0,0,1,1.64,1.44,1.44,1.44,0,0,1-1.54,1.46H299.7a2.29,2.29,0,0,1-2.39-2.3Z"/><path class="cls-4" d="M346.69,26.29a1.53,1.53,0,0,1,3.06,0V55.46a3.74,3.74,0,0,1-3.84,3.78A3.9,3.9,0,0,1,342.39,57l-13-28.57c-.24-.54-.55-.83-1-.78s-.64.36-.64,1V57.78a1.54,1.54,0,0,1-3.07,0V28.62a3.78,3.78,0,0,1,3.88-3.79,3.88,3.88,0,0,1,3.5,2.22l13.05,28.56c.24.53.54.84,1,.77s.62-.36.62-1Z"/><path class="cls-4" d="M379.36,24.84a1.41,1.41,0,1,1,.1,2.81H370V57.82a1.53,1.53,0,0,1-1.5,1.42,1.48,1.48,0,0,1-1.52-1.42V27.66h-9.59a1.41,1.41,0,1,1,0-2.82Z"/><path class="cls-4" d="M404,24.84a3.34,3.34,0,0,1,3.44,3.36,4,4,0,0,1-.77,2.11L388.7,55a1.88,1.88,0,0,0-.43.86.43.43,0,0,0,0,.11c.08.27.36.39,1,.39h16.47a1.47,1.47,0,0,1,1.64,1.42,1.45,1.45,0,0,1-1.54,1.42H388.67a3.33,3.33,0,0,1-3.42-3.36,3.09,3.09,0,0,1,.56-1.87l18.12-24.95a1.82,1.82,0,0,0,.42-.89.22.22,0,0,0,0-.09c-.08-.31-.36-.42-1-.42H386.72a1.41,1.41,0,1,1,0-2.82Z"/><rect class="cls-5" x="99.92" y="79.61" width="75.85" height="1.93"/><rect class="cls-5" x="351.92" y="79.61" width="75.85" height="1.93"/><path class="cls-5" d="M425.65,59.72a.54.54,0,0,1-.55-.55.55.55,0,0,1,.53-.57l.63,0a.55.55,0,0,1,.58.56.53.53,0,0,1-.53.57Z"/><path class="cls-5" d="M414.5,49.84a.54.54,0,0,1,.49-.53.53.53,0,0,1,.5.51l.06,2.94c0,1.86,1,3,3.24,2.94l3.78-.07a2.85,2.85,0,0,0,3-3.06l-.05-2.9a.49.49,0,1,1,1-.05l.05,2.93a3.79,3.79,0,0,1-4,4.16l-3.78.07c-3,0-4.21-1.49-4.25-4Z"/><path class="cls-5" d="M414.37,42.49c-.05-2.52,1.1-4.1,4.1-4.16l3.78-.07a3.78,3.78,0,0,1,4.14,4l0,.78a3.8,3.8,0,0,1-4,4.16l-3.78.07c-3,0-4.2-1.51-4.25-4Zm8,3.62a2.84,2.84,0,0,0,3-3l0-.79a2.83,2.83,0,0,0-3.14-2.93l-3.78.07c-2.28,0-3.17,1.2-3.13,3v.78c0,1.85,1,3,3.24,2.93Z"/><path class="cls-5" d="M414.94,27.6a1.31,1.31,0,0,1-.87-1.23,1.29,1.29,0,0,1,1.25-1.32l10.24-.19a.54.54,0,0,1,0,1.07l-10.16.19c-.23,0-.35.07-.36.19s.1.21.31.27l10.32,3.09a.64.64,0,0,1,.48.66.65.65,0,0,1-.46.69l-10.2,3.24c-.2.07-.32.16-.29.29s.13.18.36.18l10.16-.19a.51.51,0,0,1,.52.52.5.5,0,0,1-.5.55l-10.24.19a1.29,1.29,0,0,1-1.3-1.27,1.26,1.26,0,0,1,.85-1.26l9.18-2.92Z"/><path class="cls-6" d="M103.86,95.56a2.51,2.51,0,0,1,2.51,2.49,2.32,2.32,0,0,1-1.2,2,2.48,2.48,0,0,1,1.56,2.32,2.64,2.64,0,0,1-2.66,2.62h-3.23a.63.63,0,0,1-.66-.63V96.19a.63.63,0,0,1,.66-.63Zm0,4.18a1.7,1.7,0,0,0,1.69-1.69,1.72,1.72,0,0,0-1.69-1.72H101v3.41Zm-2.84.78v3.72h3a1.86,1.86,0,0,0,0-3.72Z"/><path class="cls-6" d="M113.21,95.77a.4.4,0,0,1,.35-.2h.06a.39.39,0,0,1,.33.58l-2.71,4.55v3.91a.42.42,0,0,1-.84,0V100.7l-2.74-4.52a.39.39,0,0,1-.06-.21.39.39,0,0,1,.38-.39h.08a.37.37,0,0,1,.32.19l2.44,4Z"/><path class="cls-6" d="M122.29,96.36a1.16,1.16,0,0,1,1.13-.8,1.15,1.15,0,0,1,1.11.8l2.46,8.18a.29.29,0,0,1,0,.09.39.39,0,0,1-.4.37.42.42,0,0,1-.43-.29l-.78-2.5h-4l-.77,2.49a.44.44,0,0,1-.44.31.38.38,0,0,1-.39-.39.49.49,0,0,1,0-.12Zm1.41.22a.28.28,0,0,0-.56,0l-1.49,4.85h3.52Z"/><path class="cls-6" d="M128.65,105a.4.4,0,0,1-.41-.39.41.41,0,0,1,.41-.38h2.6c1.36,0,2.09-.58,2.09-2,0-1.16-.66-1.39-2.13-1.67s-3-.6-3-2.57c0-1.74,1.15-2.39,3-2.39h2.27a.4.4,0,0,1,.43.38.41.41,0,0,1-.41.39h-2.29c-1.4,0-2.19.42-2.19,1.62,0,1.37.88,1.54,2.31,1.79,1.76.31,2.8.78,2.8,2.45,0,2-1,2.82-2.91,2.82Z"/><path class="cls-6" d="M136.16,96a.4.4,0,0,1,.42-.4A.41.41,0,0,1,137,96v8.59a.41.41,0,0,1-.43.43.4.4,0,0,1-.42-.4Z"/><path class="cls-6" d="M145.32,95.56a.39.39,0,1,1,0,.77h-2.61v8.29a.42.42,0,0,1-.41.39.41.41,0,0,1-.42-.39V96.33h-2.64a.41.41,0,0,1-.41-.38.42.42,0,0,1,.41-.39Z"/><path class="cls-6" d="M157.51,95.56a.39.39,0,1,1,0,.77H155.2c-1.46,0-2.35.72-2.35,2.51v3a2.23,2.23,0,0,0,2.35,2.43h2.28a.42.42,0,0,1,.44.38.41.41,0,0,1-.41.39H155.2a3,3,0,0,1-3.2-3.2v-3c0-2.36,1.23-3.28,3.2-3.28Z"/><path class="cls-6" d="M159.28,104.17a.42.42,0,0,1,.44-.42.43.43,0,0,1,.44.42v.49a.44.44,0,0,1-.44.46.42.42,0,0,1-.44-.43Z"/><path class="cls-6" d="M173.18,96.22a1,1,0,0,1,2,.34v8a.4.4,0,0,1-.43.4.4.4,0,0,1-.41-.4v-8c0-.18-.05-.27-.15-.28s-.17.07-.22.23l-2.57,8.07a.57.57,0,0,1-1.07,0l-2.4-8.06c0-.16-.11-.26-.22-.24s-.14.1-.14.28v8a.43.43,0,0,1-.85,0v-8a1,1,0,0,1,1-1,1,1,0,0,1,1,.69l2.16,7.25Z"/><path class="cls-6" d="M177.81,96.19a.62.62,0,0,1,.66-.63h4.59a.4.4,0,1,1,0,.8h-4.44V99.7h3.63a.41.41,0,0,1,.45.4.4.4,0,0,1-.42.4h-3.66v3.71h4.41a.4.4,0,0,1,.45.4.39.39,0,0,1-.42.4h-4.62a.63.63,0,0,1-.66-.63Z"/><path class="cls-6" d="M191.43,96a.4.4,0,0,1,.43-.4.41.41,0,0,1,.42.43v8.59a.41.41,0,0,1-.42.43.4.4,0,0,1-.43-.4v-4h-5.07v3.92a.42.42,0,0,1-.84,0V96a.42.42,0,0,1,.84,0v3.89h5.07Z"/><path class="cls-6" d="M200.61,95.56A.41.41,0,0,1,201,96a.41.41,0,0,1-.41.38H198v8.29a.42.42,0,0,1-.41.39.41.41,0,0,1-.42-.39V96.33h-2.63a.41.41,0,0,1-.41-.38.42.42,0,0,1,.41-.39Z"/><path class="cls-6" d="M203.36,96.36a1.15,1.15,0,0,1,1.12-.8,1.14,1.14,0,0,1,1.11.8l2.47,8.18a.28.28,0,0,1,0,.09.38.38,0,0,1-.39.37.41.41,0,0,1-.43-.29l-.78-2.5h-4l-.78,2.49a.42.42,0,0,1-.43.31.39.39,0,0,1-.4-.39.5.5,0,0,1,0-.12Zm1.41.22c-.05-.16-.14-.24-.28-.24a.29.29,0,0,0-.29.24l-1.48,4.85h3.52Z"/><path class="cls-6" d="M214.65,96a.39.39,0,0,1,.42-.4.4.4,0,0,1,.42.43v8.59a.4.4,0,0,1-.42.43.39.39,0,0,1-.42-.4Z"/><path class="cls-6" d="M224,96a.42.42,0,0,1,.84,0v8a1,1,0,0,1-1.05,1,1.06,1.06,0,0,1-1-.61l-3.58-7.85c-.06-.14-.15-.23-.27-.21s-.17.1-.17.28v8a.4.4,0,0,1-.42.4.41.41,0,0,1-.43-.4v-8a1,1,0,0,1,1.07-1,1.06,1.06,0,0,1,1,.6L223.6,104c.06.15.15.23.26.22s.17-.1.17-.29Z"/><path class="cls-6" d="M232.59,95.9a.44.44,0,0,1,.48-.34.36.36,0,0,1,.36.39.37.37,0,0,1,0,.11l-2.25,8.13a1.21,1.21,0,0,1-2.31,0l-2.24-8.09a.36.36,0,0,1,0-.1.4.4,0,0,1,.38-.4.43.43,0,0,1,.46.35L229.7,104a.3.3,0,0,0,.32.24.29.29,0,0,0,.31-.24Z"/><path class="cls-6" d="M235.3,96.19a.63.63,0,0,1,.66-.63h4.6a.41.41,0,0,1,.45.4.4.4,0,0,1-.43.4h-4.43V99.7h3.63a.4.4,0,1,1,0,.8h-3.66v3.71h4.41a.41.41,0,0,1,.45.4.4.4,0,0,1-.43.4H236a.63.63,0,0,1-.66-.63Z"/><path class="cls-6" d="M242.79,105a.4.4,0,0,1-.41-.39.41.41,0,0,1,.41-.38h2.6c1.37,0,2.1-.58,2.1-2,0-1.16-.67-1.39-2.14-1.67s-3-.6-3-2.57c0-1.74,1.15-2.39,3-2.39h2.27a.4.4,0,0,1,.43.38.41.41,0,0,1-.41.39h-2.29c-1.4,0-2.19.42-2.19,1.62,0,1.37.88,1.54,2.32,1.79,1.75.31,2.79.78,2.79,2.45,0,2-1,2.82-2.91,2.82Z"/><path class="cls-6" d="M256,95.56a.39.39,0,1,1,0,.77h-2.61v8.29a.42.42,0,0,1-.41.39.41.41,0,0,1-.42-.39V96.33H250a.41.41,0,0,1-.41-.38.42.42,0,0,1,.41-.39Z"/><path class="cls-6" d="M264.61,96.22a1,1,0,0,1,2,.34v8a.42.42,0,0,1-.84,0v-8c0-.18,0-.27-.14-.28s-.17.07-.22.23l-2.58,8.07a.52.52,0,0,1-.53.37.51.51,0,0,1-.53-.37l-2.4-8.06c-.05-.16-.12-.26-.22-.24s-.15.1-.15.28v8a.42.42,0,0,1-.84,0v-8a1,1,0,0,1,1-1,1,1,0,0,1,1,.69l2.15,7.25Z"/><path class="cls-6" d="M269.24,96.19a.63.63,0,0,1,.66-.63h4.59a.4.4,0,0,1,.45.4.39.39,0,0,1-.42.4h-4.43V99.7h3.63a.4.4,0,1,1,0,.8h-3.65v3.71h4.4a.4.4,0,0,1,.45.4.39.39,0,0,1-.42.4H269.9a.63.63,0,0,1-.66-.63Z"/><path class="cls-6" d="M282.86,96a.4.4,0,0,1,.43-.4.39.39,0,0,1,.41.4v8a1,1,0,0,1-1.05,1,1.08,1.08,0,0,1-1-.61l-3.58-7.85c-.06-.14-.15-.23-.27-.21s-.17.1-.17.28v8a.42.42,0,0,1-.84,0v-8a1,1,0,0,1,1.06-1,1.06,1.06,0,0,1,1,.6l3.59,7.85c.06.15.15.23.26.22s.17-.1.17-.29Z"/><path class="cls-6" d="M291.89,95.56a.39.39,0,1,1,0,.77h-2.61v8.29a.42.42,0,0,1-.42.39.4.4,0,0,1-.41-.39V96.33h-2.64a.41.41,0,0,1-.41-.38.42.42,0,0,1,.41-.39Z"/><path class="cls-6" d="M298.9,96a.4.4,0,0,1,.42-.4.41.41,0,0,1,.43.43v8.59a.41.41,0,0,1-.43.43.4.4,0,0,1-.42-.4Z"/><path class="cls-6" d="M308.28,96a.4.4,0,0,1,.43-.4.39.39,0,0,1,.41.4v8a1,1,0,0,1-1.05,1,1.08,1.08,0,0,1-1-.61l-3.58-7.85c-.06-.14-.15-.23-.27-.21s-.17.1-.17.28v8a.42.42,0,0,1-.84,0v-8a1,1,0,0,1,1.06-1,1.06,1.06,0,0,1,1,.6l3.59,7.85c.06.15.15.23.26.22s.17-.1.17-.29Z"/><path class="cls-6" d="M317.31,95.56a.39.39,0,1,1,0,.77h-2.61v8.29a.42.42,0,0,1-.42.39.4.4,0,0,1-.41-.39V96.33h-2.64a.41.41,0,0,1-.41-.38.42.42,0,0,1,.41-.39Z"/><path class="cls-6" d="M319.61,96.19a.62.62,0,0,1,.66-.63h4.59a.4.4,0,0,1,.45.4.39.39,0,0,1-.42.4h-4.44V99.7h3.64a.41.41,0,0,1,.44.4.4.4,0,0,1-.42.4h-3.66v3.71h4.41a.4.4,0,0,1,.45.4.39.39,0,0,1-.42.4h-4.62a.63.63,0,0,1-.66-.63Z"/><path class="cls-6" d="M331,95.56A2.5,2.5,0,0,1,333.5,98a2.44,2.44,0,0,1-2.09,2.39l-.24,0,2.13,4a.45.45,0,0,1,.05.19.41.41,0,0,1-.43.4.46.46,0,0,1-.38-.23l-2.31-4.26h-2.07v4.09a.4.4,0,0,1-.42.4.39.39,0,0,1-.42-.4V96.19a.62.62,0,0,1,.65-.63Zm0,4.18a1.71,1.71,0,0,0,0-3.41h-2.83v3.41Z"/><path class="cls-6" d="M339.34,95.56A2.51,2.51,0,0,1,341.85,98a2.45,2.45,0,0,1-2.1,2.39l-.24,0,2.13,4a.34.34,0,0,1,.05.19.4.4,0,0,1-.42.4.46.46,0,0,1-.38-.23l-2.32-4.26H336.5v4.09a.42.42,0,0,1-.84,0V96.19a.62.62,0,0,1,.65-.63Zm0,4.18a1.71,1.71,0,0,0,0-3.41H336.5v3.41Z"/><path class="cls-6" d="M350.32,96.22a1,1,0,0,1,2,.34v8a.42.42,0,0,1-.84,0v-8c0-.18-.05-.27-.14-.28s-.17.07-.22.23l-2.58,8.07a.52.52,0,0,1-.52.37.51.51,0,0,1-.54-.37l-2.4-8.06c-.05-.16-.12-.26-.22-.24s-.15.1-.15.28v8a.42.42,0,0,1-.84,0v-8a1,1,0,0,1,1-1,1,1,0,0,1,1,.69L348,103.5Z"/><path class="cls-6" d="M355,96.19a.63.63,0,0,1,.66-.63h4.6a.4.4,0,0,1,.44.4.39.39,0,0,1-.42.4H355.8V99.7h3.63a.4.4,0,1,1,0,.8H355.8v3.71h4.41a.4.4,0,0,1,.44.4.39.39,0,0,1-.42.4h-4.62a.63.63,0,0,1-.66-.63Z"/><path class="cls-6" d="M362.66,96.19a.62.62,0,0,1,.66-.63h2.6c2,0,3.21.92,3.21,3.28v3a3,3,0,0,1-3.21,3.2h-2.6a.62.62,0,0,1-.66-.63Zm5.62,2.65c0-1.79-.9-2.51-2.36-2.51H363.5v7.91h2.42a2.24,2.24,0,0,0,2.36-2.43Z"/><path class="cls-6" d="M371.42,96a.4.4,0,0,1,.42-.4.41.41,0,0,1,.43.43v8.59a.41.41,0,0,1-.43.43.4.4,0,0,1-.42-.4Z"/><path class="cls-6" d="M376.6,96.36a1.18,1.18,0,0,1,2.24,0l2.46,8.18a.29.29,0,0,1,0,.09.39.39,0,0,1-.4.37.42.42,0,0,1-.43-.29l-.78-2.5h-4L375,104.7a.44.44,0,0,1-.44.31.38.38,0,0,1-.39-.39.25.25,0,0,1,0-.12Zm1.41.22a.28.28,0,0,0-.28-.24.29.29,0,0,0-.29.24L376,101.43h3.52Z"/><path class="cls-6" d="M387.79,95.56a.39.39,0,1,1,0,.77h-2.61v8.29a.42.42,0,0,1-.41.39.41.41,0,0,1-.42-.39V96.33h-2.64a.4.4,0,0,1-.4-.38.41.41,0,0,1,.4-.39Z"/><path class="cls-6" d="M390.09,96.19a.63.63,0,0,1,.66-.63h4.6a.4.4,0,0,1,.44.4.39.39,0,0,1-.42.4h-4.43V99.7h3.63a.4.4,0,1,1,0,.8h-3.66v3.71h4.41a.4.4,0,0,1,.44.4.39.39,0,0,1-.42.4h-4.62a.63.63,0,0,1-.66-.63Z"/><path class="cls-6" d="M397.57,105a.4.4,0,0,1-.4-.39.4.4,0,0,1,.4-.38h2.61c1.36,0,2.09-.58,2.09-2,0-1.16-.66-1.39-2.13-1.67s-3-.6-3-2.57c0-1.74,1.15-2.39,3-2.39h2.28a.4.4,0,0,1,.43.38.41.41,0,0,1-.41.39h-2.3c-1.39,0-2.18.42-2.18,1.62,0,1.37.88,1.54,2.32,1.79,1.75.31,2.79.78,2.79,2.45,0,2-1,2.82-2.91,2.82Z"/><path class="cls-6" d="M409.8,96a.41.41,0,0,1,.42-.4.4.4,0,0,1,.43.4v8.25h4a.41.41,0,0,1,.45.4.4.4,0,0,1-.42.4h-4.2a.64.64,0,0,1-.67-.63Z"/><path class="cls-6" d="M420.85,95.56a.39.39,0,1,1,0,.77h-2.61v8.29a.42.42,0,0,1-.41.39.41.41,0,0,1-.42-.39V96.33h-2.63a.41.41,0,0,1-.41-.38.42.42,0,0,1,.41-.39Z"/><path class="cls-6" d="M423.15,96.19a.63.63,0,0,1,.66-.63h2.61c2,0,3.2.92,3.2,3.28v3a3,3,0,0,1-3.2,3.2h-2.61a.63.63,0,0,1-.66-.63Zm5.62,2.65c0-1.79-.9-2.51-2.35-2.51H424v7.91h2.43a2.23,2.23,0,0,0,2.35-2.43Z"/></svg>