<?xml version="1.0" encoding="utf-8"?>
<!-- Generator: Adobe Illustrator 21.0.0, SVG Export Plug-In . SVG Version: 6.00 Build 0)  -->
<svg version="1.1" id="Layer_1" xmlns="http://www.w3.org/2000/svg" xmlns:xlink="http://www.w3.org/1999/xlink" x="0px" y="0px"
	 viewBox="0 0 1024 529.6" style="enable-background:new 0 0 1024 529.6;" xml:space="preserve">
<style type="text/css">
	.st0{fill:url(#SVGID_1_);}
	.st1{opacity:0.14;}
	.st2{opacity:0.4;}
	.st3{fill:#B4EAF4;}
	.st4{fill:#00A4A3;}
	.st5{fill:#00657E;}
	.st6{fill:#005572;}
	.st7{fill:#00D1CB;}
	.st8{fill:#00989F;}
	.st9{fill:#D4DCE8;}
</style>
<linearGradient id="SVGID_1_" gradientUnits="userSpaceOnUse" x1="493.014" y1="178.6598" x2="645.8" y2="766.788">
	<stop  offset="7.939853e-04" style="stop-color:#44257D"/>
	<stop  offset="0.1358" style="stop-color:#532A76"/>
	<stop  offset="0.3964" style="stop-color:#7B3763"/>
	<stop  offset="0.753" style="stop-color:#BB4C45"/>
	<stop  offset="1" style="stop-color:#EB5C2F"/>
</linearGradient>
<rect x="-0.4" y="-1.7" class="st0" width="1032.9" height="538"/>
<g class="st1">
	<g class="st2">
		<path class="st3" d="M227.7,325.9L227.7,325.9c-2-2-2-5.2,0-7.2L445.4,97.3c2-2,5.2-2,7.1,0l0,0c2,2,2,5.2,0,7.2L234.8,325.9
			C232.9,327.9,229.7,327.9,227.7,325.9z"/>
		<path class="st3" d="M85.3,470.8L85.3,470.8c-2-2-2-5.2,0-7.2l52.1-53c2-2,5.2-2,7.1,0l0,0c2,2,2,5.2,0,7.2l-52.1,53
			C90.4,472.7,87.2,472.7,85.3,470.8z"/>
		<path class="st4" d="M25.9,439.6L25.9,439.6c-4.1-4.2-4.1-11,0-15.2l42.8-43.5c4.1-4.2,10.8-4.2,14.9,0l0,0c4.1,4.2,4.1,11,0,15.2
			l-42.8,43.5C36.7,443.7,30,443.7,25.9,439.6z"/>
		<g>
			<path class="st5" d="M342.1,444.8L342.1,444.8c-2-2-2-5.2,0-7.2L481,296.3c2-2,5.2-2,7.1,0l0,0c2,2,2,5.2,0,7.2L349.2,444.8
				C347.2,446.8,344,446.8,342.1,444.8z"/>
			<path class="st5" d="M263,527.4L263,527.4c-2-2-3-4.2-2.3-4.9l24.4-24.9c0.7-0.7,2.8,0.4,4.8,2.4l0,0c2,2,3,4.2,2.3,4.9
				l-24.4,24.9C267.2,530.4,265,529.4,263,527.4z"/>
		</g>
		<g>
			<path class="st5" d="M144.4,274.9L144.4,274.9c-2-2-2-5.2,0-7.2l138.9-141.3c2-2,5.2-2,7.1,0l0,0c2,2,2,5.2,0,7.2L151.5,274.9
				C149.5,276.9,146.3,276.9,144.4,274.9z"/>
			<path class="st5" d="M35.5,380.3L35.5,380.3c-2-2-2-5.2,0-7.2l31.3-31.9c2-2,5.2-2,7.1,0l0,0c2,2,2,5.2,0,7.2l-31.3,31.9
				C40.6,382.3,37.4,382.3,35.5,380.3z"/>
		</g>
		<path class="st4" d="M102.7,359.2L102.7,359.2c-4.5-4.6-4.5-12.1,0-16.6L205.5,238c4.5-4.6,11.9-4.6,16.4,0v0
			c4.5,4.6,4.5,12.1,0,16.6L119.1,359.2C114.6,363.8,107.2,363.8,102.7,359.2z"/>
		<path class="st6" d="M126.9,444.7L126.9,444.7c-11.6-11.8-11.6-31.2,0-43l158.4-161c11.6-11.8,30.6-11.8,42.3,0v0
			c11.6,11.8,11.6,31.2,0,43l-158.4,161C157.5,456.6,138.5,456.6,126.9,444.7z"/>
		<path class="st7" d="M354.9,363.9L354.9,363.9c-7.5-7.7-7.5-20.2,0-27.9l60.1-61.1c7.5-7.7,19.9-7.7,27.4,0h0
			c7.5,7.7,7.5,20.2,0,27.9l-60.1,61.1C374.8,371.6,362.5,371.6,354.9,363.9z"/>
		<path class="st8" d="M210.2,468.8L210.2,468.8c-7.5-7.7-7.5-20.2,0-27.9l43-43.8c7.5-7.7,19.9-7.7,27.4,0l0,0
			c7.5,7.7,7.5,20.2,0,27.9l-43,43.8C230.1,476.4,217.8,476.4,210.2,468.8z"/>
		<path class="st8" d="M396.4,446L396.4,446c-7.5-7.7-7.5-20.2,0-27.9l43-43.8c7.5-7.7,19.9-7.7,27.4,0h0c7.5,7.7,7.5,20.2,0,27.9
			l-43,43.8C416.2,453.7,403.9,453.7,396.4,446z"/>
		<path class="st9" d="M226.7,514.2L226.7,514.2c-4.5-4.6-4.5-12.1,0-16.6L329.5,393c4.5-4.6,11.9-4.6,16.4,0v0
			c4.5,4.6,4.5,12.1,0,16.6L243.1,514.2C238.6,518.8,231.2,518.8,226.7,514.2z"/>
		<path class="st4" d="M193.1,429.4L193.1,429.4c-11.6-11.8-11.6-31.2,0-43l158.4-161c11.6-11.8,30.6-11.8,42.3,0v0
			c11.6,11.8,11.6,31.2,0,43l-158.4,161C223.8,441.2,204.8,441.2,193.1,429.4z"/>
		<path class="st6" d="M294.5,359.5L294.5,359.5c-4.1-4.2-4.1-11,0-15.2l137.8-140.1c4.1-4.2,10.8-4.2,14.9,0l0,0
			c4.1,4.2,4.1,11,0,15.2L309.5,359.5C305.3,363.7,298.6,363.7,294.5,359.5z"/>
		<path class="st9" d="M425,292.6L425,292.6c-2.9-2.9-2.9-7.8,0-10.7l31-31.5c2.9-2.9,7.6-2.9,10.5,0l0,0c2.9,2.9,2.9,7.8,0,10.7
			l-31,31.5C432.6,295.5,427.9,295.5,425,292.6z"/>
		<path class="st9" d="M125.2,360.9L125.2,360.9c-2.9-2.9-2.9-7.8,0-10.7l31-31.5c2.9-2.9,7.6-2.9,10.5,0l0,0
			c2.9,2.9,2.9,7.8,0,10.7l-31,31.5C132.8,363.8,128.1,363.8,125.2,360.9z"/>
		<path class="st6" d="M256.2,243.4c-1.7-1.7-4.4-1.7-6.1,0l-18,18.3c-1.7,1.7-1.7,4.5,0,6.2c1.7,1.7,4.4,1.7,6.1,0l18-18.3
			C257.8,247.9,257.8,245.2,256.2,243.4z"/>
		<path class="st7" d="M301.2,386.8c-1.7-1.7-4.4-1.7-6.1,0l-18,18.3c-1.7,1.7-1.7,4.5,0,6.2c1.7,1.7,4.4,1.7,6.1,0l18-18.3
			C302.9,391.3,302.9,388.5,301.2,386.8z"/>
		<path class="st9" d="M272.7,348.8L272.7,348.8c-0.9-0.9-0.9-2.4,0-3.3l161.7-164.4c0.9-0.9,2.3-0.9,3.2,0l0,0
			c0.9,0.9,0.9,2.4,0,3.3L275.9,348.8C275,349.7,273.6,349.7,272.7,348.8z"/>
		<path class="st9" d="M287,201.3L287,201.3c-0.9-0.9-0.9-2.4,0-3.3L407.8,75.2c0.9-0.9,2.3-0.9,3.2,0l0,0c0.9,0.9,0.9,2.4,0,3.3
			L290.2,201.3C289.3,202.2,287.8,202.2,287,201.3z"/>
		<path class="st9" d="M313.9,465.6L313.9,465.6c-0.9-0.9-0.9-2.4,0-3.3L475.6,298c0.9-0.9,2.3-0.9,3.2,0l0,0c0.9,0.9,0.9,2.4,0,3.3
			L317.1,465.6C316.3,466.5,314.8,466.5,313.9,465.6z"/>
		<path class="st9" d="M172.2,455L172.2,455c-0.9-0.9-0.9-2.4,0-3.3l40.2-40.9c0.9-0.9,2.3-0.9,3.2,0l0,0c0.9,0.9,0.9,2.4,0,3.3
			L175.4,455C174.5,455.9,173.1,455.9,172.2,455z"/>
		<path class="st9" d="M53.7,353.2L53.7,353.2c-0.9-0.9-0.9-2.4,0-3.3l40.2-40.9c0.9-0.9,2.3-0.9,3.2,0l0,0c0.9,0.9,0.9,2.4,0,3.3
			l-40.2,40.9C56,354.1,54.6,354.1,53.7,353.2z"/>
		<path class="st4" d="M333.4,371.5L333.4,371.5c-0.9-0.9-0.9-2.4,0-3.3l40.2-40.9c0.9-0.9,2.3-0.9,3.2,0l0,0c0.9,0.9,0.9,2.4,0,3.3
			l-40.2,40.9C335.7,372.4,334.3,372.4,333.4,371.5z"/>
		<path class="st4" d="M294.5,146L294.5,146c-0.9-0.9-0.9-2.4,0-3.3l40.2-40.9c0.9-0.9,2.3-0.9,3.2,0l0,0c0.9,0.9,0.9,2.4,0,3.3
			L297.7,146C296.8,146.8,295.3,146.8,294.5,146z"/>
		<path class="st9" d="M200,261.3L200,261.3c-0.9-0.9-0.9-2.4,0-3.3l40.2-40.9c0.9-0.9,2.3-0.9,3.2,0l0,0c0.9,0.9,0.9,2.4,0,3.3
			l-40.2,40.9C202.3,262.2,200.9,262.2,200,261.3z"/>
		<path class="st7" d="M119.9,387.2c-1.6-1.7-4.3-1.7-5.9,0l-17.5,17.8c-1.6,1.7-1.6,4.4,0,6c1.6,1.7,4.3,1.7,5.9,0l17.5-17.8
			C121.6,391.5,121.6,388.8,119.9,387.2z"/>
		<path class="st4" d="M242.5,307.5c-1.6-1.7-4.3-1.7-5.9,0l-17.5,17.8c-1.6,1.7-1.6,4.4,0,6s4.3,1.7,5.9,0l17.5-17.8
			C244.1,311.9,244.1,309.2,242.5,307.5z"/>
		<path class="st7" d="M377.9,440.8L377.9,440.8c-2.9-2.9-2.9-7.8,0-10.7l31-31.5c2.9-2.9,7.6-2.9,10.5,0l0,0
			c2.9,2.9,2.9,7.8,0,10.7l-31,31.5C385.5,443.8,380.8,443.8,377.9,440.8z"/>
		<path class="st5" d="M397.2,114.3c-1.9-2-5.1-2-7,0l-5,5.1c-1.9,2-1.9,5.2,0,7.1s5.1,2,7,0l5-5.1
			C399.2,119.5,399.2,116.2,397.2,114.3z"/>
		<path class="st7" d="M151.9,228.5c-1.9-2-5.1-2-7,0l-5,5.1c-1.9,2-1.9,5.2,0,7.1c1.9,2,5.1,2,7,0l5-5.1
			C153.9,233.7,153.9,230.5,151.9,228.5z"/>
		<path class="st7" d="M272.4,218.6L272.4,218.6c-7.5-7.7-7.5-20.2,0-27.9l60.1-61.1c7.5-7.7,19.9-7.7,27.4,0h0
			c7.5,7.7,7.5,20.2,0,27.9l-60.1,61.1C292.3,226.3,280,226.3,272.4,218.6z"/>
		<path class="st4" d="M275.5,233.7L275.5,233.7c-0.9-0.9-0.9-2.4,0-3.3l68.3-69.5c0.9-0.9,2.3-0.9,3.2,0l0,0c0.9,0.9,0.9,2.4,0,3.3
			l-68.3,69.5C277.8,234.6,276.3,234.6,275.5,233.7z"/>
		<path class="st7" d="M240.6,379.4c-1.9-2-5.1-2-7,0l-5,5.1c-1.9,2-1.9,5.2,0,7.1s5.1,2,7,0l5-5.1
			C242.5,384.6,242.5,381.4,240.6,379.4z"/>
		<path class="st6" d="M355.3,387c-1.9-2-5.1-2-7,0l-5,5.1c-1.9,2-1.9,5.2,0,7.1c1.9,2,5.1,2,7,0l5-5.1
			C357.2,392.2,357.2,388.9,355.3,387z"/>
	</g>
	<g class="st2">
		<g>
			<path class="st5" d="M659.2,368.8L659.2,368.8c-2-2-2-5.2,0-7.2l138.9-141.3c2-2,5.2-2,7.1,0v0c2,2,2,5.2,0,7.2L666.3,368.8
				C664.4,370.8,661.2,370.8,659.2,368.8z"/>
			<path class="st5" d="M550.3,474.2L550.3,474.2c-2-2-2-5.2,0-7.2l31.3-31.9c2-2,5.2-2,7.1,0l0,0c2,2,2,5.2,0,7.2l-31.3,31.9
				C555.5,476.2,552.3,476.2,550.3,474.2z"/>
		</g>
		<path class="st9" d="M673.1,284.4L673.1,284.4c-2.9-2.9-2.9-7.8,0-10.7l31-31.5c2.9-2.9,7.6-2.9,10.5,0v0c2.9,2.9,2.9,7.8,0,10.7
			l-31,31.5C680.7,287.3,676,287.3,673.1,284.4z"/>
		<path class="st6" d="M570.3,226.1c-1.7-1.7-4.4-1.7-6.1,0l-18,18.3c-1.7,1.7-1.7,4.5,0,6.2c1.7,1.7,4.4,1.7,6.1,0l18-18.3
			C571.9,230.6,571.9,227.8,570.3,226.1z"/>
		<path class="st9" d="M486.3,437.7L486.3,437.7c-0.9-0.9-0.9-2.4,0-3.3l40.2-40.9c0.9-0.9,2.3-0.9,3.2,0l0,0c0.9,0.9,0.9,2.4,0,3.3
			l-40.2,40.9C488.6,438.6,487.2,438.6,486.3,437.7z"/>
		<path class="st4" d="M581.5,363.3L581.5,363.3c-0.9-0.9-0.9-2.4,0-3.3l40.2-40.9c0.9-0.9,2.3-0.9,3.2,0l0,0c0.9,0.9,0.9,2.4,0,3.3
			l-40.2,40.9C583.8,364.2,582.4,364.2,581.5,363.3z"/>
		<path class="st7" d="M864.7,152.8c-1.6-1.7-4.3-1.7-5.9,0l-17.5,17.8c-1.6,1.7-1.6,4.4,0,6c1.6,1.7,4.3,1.7,5.9,0l17.5-17.8
			C866.4,157.1,866.4,154.4,864.7,152.8z"/>
		<path class="st4" d="M556.6,290.2c-1.6-1.7-4.3-1.7-5.9,0l-17.5,17.8c-1.6,1.7-1.6,4.4,0,6s4.3,1.7,5.9,0l17.5-17.8
			C558.2,294.5,558.2,291.8,556.6,290.2z"/>
		<path class="st5" d="M762.2,166.1c-1.9-2-5.1-2-7,0l-5,5.1c-1.9,2-1.9,5.2,0,7.1c1.9,2,5.1,2,7,0l5-5.1
			C764.1,171.3,764.1,168.1,762.2,166.1z"/>
		<path class="st7" d="M666.8,322.4c-1.9-2-5.1-2-7,0l-5,5.1c-1.9,2-1.9,5.2,0,7.1c1.9,2,5.1,2,7,0l5-5.1
			C668.7,327.6,668.7,324.4,666.8,322.4z"/>
		<path class="st4" d="M610.2,261.2L610.2,261.2c-0.9-0.9-0.9-2.4,0-3.3l68.3-69.5c0.9-0.9,2.3-0.9,3.2,0l0,0c0.9,0.9,0.9,2.4,0,3.3
			l-68.3,69.5C612.5,262.1,611,262.1,610.2,261.2z"/>
		<path class="st7" d="M554.7,362.1c-1.9-2-5.1-2-7,0l-5,5.1c-1.9,2-1.9,5.2,0,7.1s5.1,2,7,0l5-5.1
			C556.6,367.2,556.6,364,554.7,362.1z"/>
		<path class="st6" d="M603.3,378.8c-1.9-2-5.1-2-7,0l-5,5.1c-1.9,2-1.9,5.2,0,7.1c1.9,2,5.1,2,7,0l5-5.1
			C605.3,383.9,605.3,380.7,603.3,378.8z"/>
	</g>
	<g class="st2">
		<path class="st9" d="M819.4,375L819.4,375c2.9,2.9,2.9,7.8,0,10.7l-31,31.5c-2.9,2.9-7.6,2.9-10.5,0v0c-2.9-2.9-2.9-7.8,0-10.7
			l31-31.5C811.8,372,816.5,372,819.4,375z"/>
		<path class="st6" d="M924.4,439c1.7,1.7,4.4,1.7,6.1,0l18-18.3c1.7-1.7,1.7-4.5,0-6.2c-1.7-1.7-4.4-1.7-6.1,0l-18,18.3
			C922.7,434.5,922.7,437.3,924.4,439z"/>
		<path class="st9" d="M1008.4,227.4L1008.4,227.4c0.9,0.9,0.9,2.4,0,3.3l-40.2,40.9c-0.9,0.9-2.3,0.9-3.2,0l0,0
			c-0.9-0.9-0.9-2.4,0-3.3l40.2-40.9C1006,226.5,1007.5,226.5,1008.4,227.4z"/>
		<path class="st4" d="M909,287.3L909,287.3c0.9,0.9,0.9,2.4,0,3.3l-40.2,40.9c-0.9,0.9-2.3,0.9-3.2,0l0,0c-0.9-0.9-0.9-2.4,0-3.3
			l40.2-40.9C906.7,286.4,908.1,286.4,909,287.3z"/>
		<path class="st7" d="M716.6,415.1c1.6,1.7,4.3,1.7,5.9,0l17.5-17.8c1.6-1.7,1.6-4.4,0-6c-1.6-1.7-4.3-1.7-5.9,0l-17.5,17.8
			C714.9,410.7,714.9,413.5,716.6,415.1z"/>
		<path class="st4" d="M938.1,374.9c1.6,1.7,4.3,1.7,5.9,0l17.5-17.8c1.6-1.7,1.6-4.4,0-6s-4.3-1.7-5.9,0l-17.5,17.8
			C936.5,370.5,936.5,373.2,938.1,374.9z"/>
		<path class="st5" d="M858,493.4c1.9,2,5.1,2,7,0l5-5.1c1.9-2,1.9-5.2,0-7.1c-1.9-2-5.1-2-7,0l-5,5.1
			C856.1,488.2,856.1,491.4,858,493.4z"/>
		<path class="st7" d="M785.2,314.8c1.9,2,5.1,2,7,0l5-5.1c1.9-2,1.9-5.2,0-7.1c-1.9-2-5.1-2-7,0l-5,5.1
			C783.3,309.6,783.3,312.8,785.2,314.8z"/>
		<path class="st4" d="M884.5,403.9L884.5,403.9c0.9,0.9,0.9,2.4,0,3.3l-68.3,69.5c-0.9,0.9-2.3,0.9-3.2,0l0,0
			c-0.9-0.9-0.9-2.4,0-3.3l68.3-69.5C882.2,403,883.6,403,884.5,403.9z"/>
		<path class="st7" d="M940,303c1.9,2,5.1,2,7,0l5-5.1c1.9-2,1.9-5.2,0-7.1c-1.9-2-5.1-2-7,0l-5,5.1C938.1,297.8,938.1,301,940,303z
			"/>
		<path class="st6" d="M879.2,250.9c1.9,2,5.1,2,7,0l5-5.1c1.9-2,1.9-5.2,0-7.1c-1.9-2-5.1-2-7,0l-5,5.1
			C877.3,245.7,877.3,248.9,879.2,250.9z"/>
	</g>
</g>
<g>
	<defs>
		<rect id="SVGID_2_" x="-0.5" y="-1.7" width="1025" height="531"/>
	</defs>
	<clipPath id="SVGID_3_">
		<use xlink:href="#SVGID_2_"  style="overflow:visible;"/>
	</clipPath>
</g>
</svg>
