<svg id="Layer_1" data-name="Layer 1" xmlns="http://www.w3.org/2000/svg" viewBox="0 0 35 35"><defs><style>.cls-1{fill:#595959;}</style></defs><title>watchlist_v11</title><path class="cls-1" d="M30.53,27.27l-5.78-5.78V8.65a1.56,1.56,0,0,0-1.56-1.57H12.72a2.6,2.6,0,0,0-5.1,0H7.56A1.56,1.56,0,0,0,6,8.65V28.44A1.56,1.56,0,0,0,7.56,30H23.19a1.56,1.56,0,0,0,1.56-1.56V26l3.52,3.52A1.61,1.61,0,0,0,29.4,30a1.6,1.6,0,0,0,1.13-2.73Zm-12.74-9.5L19,20.26h0a.38.38,0,0,0,.09.13l2,2v4.51H9.65V17h3.64a.56.56,0,0,0,.37-.15l.94-.94.8,2.79a.38.38,0,0,0,.08.17.52.52,0,0,0,.73.11Zm1.35.37,1,.5-.5.51ZM20.24,20l.79-.78,6.88,6.88-.79.78ZM10.17,6a1.56,1.56,0,0,1,1.47,1H8.7A1.56,1.56,0,0,1,10.17,6Zm13.54,22.4a.52.52,0,0,1-.52.52H7.56A.53.53,0,0,1,7,28.44V8.65a.53.53,0,0,1,.52-.53h4.17v5.73a.52.52,0,0,1-1,0V9.17h-1v4.68a1.56,1.56,0,1,0,3.12,0V8.12H23.19a.52.52,0,0,1,.52.53v11.8l-1.56-1.56V9.69a.52.52,0,0,0-.52-.52H13.81v1h7.3V18l-2.9-1.45a.53.53,0,0,0-.46,0l-.08,0h0l-1.48,1.11-.83-2.92a.52.52,0,0,0-.14-.22.5.5,0,0,0-.73,0l-1.41,1.41H9.13a.52.52,0,0,0-.52.52V27.39a.52.52,0,0,0,.52.53h12.5a.53.53,0,0,0,.52-.53v-4L23.71,25Zm6.09.35a.56.56,0,0,1-.79,0l-1.15-1.15.78-.79L29.8,28A.56.56,0,0,1,29.8,28.79Z"/></svg>