<svg id="Layer_1" data-name="Layer 1" xmlns="http://www.w3.org/2000/svg" viewBox="0 0 35 35"><defs><style>.cls-1{fill:#595959;}</style></defs><title>watchlist_v11</title><path class="cls-1" d="M27.4,4.9H6.93A1.61,1.61,0,0,0,5.32,6.51V30.4A1.61,1.61,0,0,0,6.93,32H27.4A1.6,1.6,0,0,0,29,30.4V6.51A1.61,1.61,0,0,0,27.4,4.9ZM6.93,6.19H27.4a.32.32,0,0,1,.32.32v5.56H6.61V6.51A.32.32,0,0,1,6.93,6.19ZM20.25,30.72H14.07v-8h6.18Zm0-9.33H14.07v-8h6.18Zm-13.64-8h6.18v8H6.61Zm0,17V22.67h6.18v8H6.93A.32.32,0,0,1,6.61,30.4Zm20.79.32H21.53V13.35h6.19v17A.33.33,0,0,1,27.4,30.72Z"/><path class="cls-1" d="M11.28,16.73h-.94v-.94a.65.65,0,1,0-1.29,0v.94H8.11a.64.64,0,0,0-.64.64.64.64,0,0,0,.64.64h.94V19a.65.65,0,0,0,1.29,0V18h.94a.64.64,0,0,0,0-1.28Z"/><path class="cls-1" d="M15.54,18h3.24a.64.64,0,0,0,.64-.64.64.64,0,0,0-.64-.64H15.54a.64.64,0,0,0-.64.64A.64.64,0,0,0,15.54,18Z"/><path class="cls-1" d="M10.6,26.7l.78-.78a.64.64,0,1,0-.91-.9l-.77.77L8.92,25a.64.64,0,1,0-.91.9l.78.78L8,27.47a.65.65,0,0,0,0,.91.68.68,0,0,0,.46.19.65.65,0,0,0,.45-.19l.78-.78.77.78a.64.64,0,0,0,.91,0,.65.65,0,0,0,0-.91Z"/><path class="cls-1" d="M15.48,28.38a.65.65,0,0,0,.45.19.68.68,0,0,0,.46-.19l2.45-2.46a.63.63,0,0,0,0-.9.62.62,0,0,0-.9,0l-2.46,2.45A.65.65,0,0,0,15.48,28.38Z"/><circle class="cls-1" cx="15.93" cy="25.47" r="0.55"/><circle class="cls-1" cx="18.39" cy="27.93" r="0.55"/><path class="cls-1" d="M26.25,20.27H23a.65.65,0,0,0,0,1.29h3.28a.65.65,0,0,0,0-1.29Z"/><path class="cls-1" d="M26.25,22.51H23a.65.65,0,0,0,0,1.29h3.28a.65.65,0,0,0,0-1.29Z"/></svg>