<svg id="Layer_1" data-name="Layer 1" xmlns="http://www.w3.org/2000/svg" xmlns:xlink="http://www.w3.org/1999/xlink" viewBox="0 0 35 35"><defs><style>.cls-1{fill:none;}.cls-2{clip-path:url(#clip-path);}.cls-3{fill:#595959;}</style><clipPath id="clip-path"><rect class="cls-1" x="8" y="7" width="21.8" height="21.92"/></clipPath></defs><title>watchlist_v11</title><g class="cls-2"><path class="cls-3" d="M23.45,28.86h.29a3.38,3.38,0,0,0,2.61-1.13l0,0c.25-.29.53-.56.82-.84s.41-.39.6-.6a2.07,2.07,0,0,0,0-3.09l-2.55-2.55a2.08,2.08,0,0,0-1.52-.7,2.18,2.18,0,0,0-1.53.69l-1.5,1.51-.41-.21-.47-.25A16.19,16.19,0,0,1,16,18.18a9.34,9.34,0,0,1-1.29-2.05c.4-.36.77-.73,1.12-1.09l.39-.4a2,2,0,0,0,0-3.09l-1.26-1.27-.44-.44c-.28-.29-.57-.58-.86-.85a2.12,2.12,0,0,0-1.51-.67A2.21,2.21,0,0,0,10.59,9L9,10.57a3.31,3.31,0,0,0-1,2.11,8,8,0,0,0,.59,3.41A20,20,0,0,0,12.14,22a21.81,21.81,0,0,0,7.25,5.68,11.5,11.5,0,0,0,4.06,1.2ZM13,21.28a18.89,18.89,0,0,1-3.35-5.57,7,7,0,0,1-.53-2.94,2.23,2.23,0,0,1,.67-1.43l1.58-1.57a1.1,1.1,0,0,1,.77-.36,1.06,1.06,0,0,1,.74.36c.28.26.56.54.84.83l.45.45,1.26,1.27a1,1,0,0,1,0,1.54l-.4.41c-.39.39-.76.77-1.16,1.13l0,0a.85.85,0,0,0-.21,1,0,0,0,0,0,0,0,10.29,10.29,0,0,0,1.49,2.43,17.25,17.25,0,0,0,4.11,3.74c.18.11.37.21.56.31a4.12,4.12,0,0,1,.47.25l0,0A.87.87,0,0,0,21.38,23L23,21.4a1,1,0,0,1,1.49,0L27,24a1,1,0,0,1,0,1.56c-.18.2-.36.38-.56.57a9.74,9.74,0,0,0-.89.92,2.3,2.3,0,0,1-1.8.76h-.22a10.18,10.18,0,0,1-3.65-1.09A20.59,20.59,0,0,1,13,21.28Zm0,0"/><path class="cls-3" d="M20,11a.55.55,0,0,0-.63.44.54.54,0,0,0,.45.63A6.09,6.09,0,0,1,24.73,17a.54.54,0,0,0,.54.46h.09a.55.55,0,0,0,.45-.63A7.12,7.12,0,0,0,20,11Zm0,0"/><path class="cls-3" d="M29.25,17.31h.09a.55.55,0,0,0,.45-.63,11.77,11.77,0,0,0-9.62-9.62.54.54,0,0,0-.63.45.55.55,0,0,0,.44.63,10.71,10.71,0,0,1,8.73,8.72.55.55,0,0,0,.54.46Zm0,0"/></g></svg>