<svg id="Layer_1" data-name="Layer 1" xmlns="http://www.w3.org/2000/svg" viewBox="0 0 35 35"><defs><style>.cls-1{fill:#595959;}</style></defs><title>watchlist_v11</title><path class="cls-1" d="M6.37,19.79h4.85a.38.38,0,0,0,0-.75H6.75V10.1h16v5.59a.35.35,0,0,0,.37.37h.75a.35.35,0,0,0,.37-.37.35.35,0,0,0-.37-.37h-.38V9.73a.35.35,0,0,0-.37-.38H6.37A.35.35,0,0,0,6,9.73v9.68A.35.35,0,0,0,6.37,19.79Z"/><path class="cls-1" d="M12,13.79a2.61,2.61,0,1,0,2.61-2.61A2.6,2.6,0,0,0,12,13.79Zm4.47,0a1.86,1.86,0,1,1-1.86-1.87A1.87,1.87,0,0,1,16.43,13.79Z"/><path class="cls-1" d="M6.63,24.15l.49-.49v1.87a3.2,3.2,0,0,0,3.2,3.2h1.49l-.48.48a.37.37,0,0,0,0,.53.4.4,0,0,0,.26.11.42.42,0,0,0,.26-.11L13,28.62a.2.2,0,0,0,.07-.11.39.39,0,0,0,0-.3s0-.08-.07-.11L11.85,27a.37.37,0,0,0-.52.52l.48.48H10.32a2.43,2.43,0,0,1-2.46-2.45V23.66l.49.49a.35.35,0,0,0,.26.11.36.36,0,0,0,.26-.11.36.36,0,0,0,0-.52L7.75,22.51s-.07-.08-.11-.08a.51.51,0,0,0-.3,0s-.07,0-.11.08L6.11,23.63a.37.37,0,1,0,.52.52Z"/><path class="cls-1" d="M8.24,13.64a1.3,1.3,0,1,0,1.3-1.31A1.31,1.31,0,0,0,8.24,13.64Zm1.86,0a.56.56,0,1,1-.56-.56A.57.57,0,0,1,10.1,13.64Z"/><path class="cls-1" d="M18.3,13.64a1.3,1.3,0,1,0,1.3-1.31A1.31,1.31,0,0,0,18.3,13.64Zm1.86,0a.56.56,0,1,1-.56-.56A.57.57,0,0,1,20.16,13.64Z"/><path class="cls-1" d="M29.48,16.81H12.71a.35.35,0,0,0-.38.37v9.31a.36.36,0,0,0,.38.38H29.48a.35.35,0,0,0,.37-.38V17.18A.35.35,0,0,0,29.48,16.81Zm-.38,9.31h-16V17.55h16Z"/><path class="cls-1" d="M20.9,24.22a2.61,2.61,0,1,0-2.6-2.61A2.59,2.59,0,0,0,20.9,24.22Zm0-4.47A1.87,1.87,0,1,1,19,21.61,1.85,1.85,0,0,1,20.9,19.75Z"/><path class="cls-1" d="M15.87,22.77a1.31,1.31,0,1,0-1.3-1.31A1.33,1.33,0,0,0,15.87,22.77Zm0-1.87a.58.58,0,0,1,.56.56.56.56,0,1,1-.56-.56Z"/><path class="cls-1" d="M25.94,22.77a1.31,1.31,0,1,0-1.31-1.31A1.33,1.33,0,0,0,25.94,22.77Zm0-1.87a.58.58,0,0,1,.55.56.56.56,0,1,1-1.11,0A.58.58,0,0,1,25.94,20.9Z"/><path class="cls-1" d="M24.52,6.11a.36.36,0,0,0-.52,0L22.88,7.23h0s-.07.07-.07.11,0,.08,0,.15a.21.21,0,0,0,0,.15s0,.07.07.11L24,8.87a.4.4,0,0,0,.26.11.36.36,0,0,0,.26-.11.36.36,0,0,0,0-.52L24,7.86h1.49A2.48,2.48,0,0,1,28,10.32v1.87l-.48-.49a.37.37,0,0,0-.52.52l1.12,1.12a.31.31,0,0,0,.26.11h0a.33.33,0,0,0,.26-.11l1.12-1.12a.36.36,0,0,0,0-.52.37.37,0,0,0-.53,0l-.48.49V10.32a3.2,3.2,0,0,0-3.2-3.2H24l.48-.49A.36.36,0,0,0,24.52,6.11Z"/><polygon class="cls-1" points="8.09 8.16 8.61 7.64 9.13 8.16 9.65 7.64 9.13 7.12 9.65 6.6 9.13 6.08 8.61 6.6 8.09 6.08 7.57 6.6 8.09 7.12 7.57 7.64 8.09 8.16"/><path class="cls-1" d="M24.63,11.59a.35.35,0,0,0-.37.37.35.35,0,0,0,.37.37h1.12a.35.35,0,0,0,.37-.37.35.35,0,0,0-.37-.37Z"/><path class="cls-1" d="M20.16,28.73a.38.38,0,0,0,0-.75H19a.38.38,0,0,0,0,.75Z"/><path class="cls-1" d="M26.49,28.73a.38.38,0,1,0,0-.75H25.38a.38.38,0,1,0,0,.75Z"/><path class="cls-1" d="M17.18,7.86a.37.37,0,0,0,0-.74H16.06a.37.37,0,0,0,0,.74Z"/></svg>