<svg id="Layer_1" data-name="Layer 1" xmlns="http://www.w3.org/2000/svg" xmlns:xlink="http://www.w3.org/1999/xlink" viewBox="0 0 35 35"><defs><style>.cls-1{fill:none;}.cls-2{clip-path:url(#clip-path);}.cls-3{fill:#595959;}</style><clipPath id="clip-path"><rect class="cls-1" x="6" y="6.87" width="23" height="23.06"/></clipPath></defs><title>watchlist_v11</title><g class="cls-2"><path class="cls-3" d="M25.59,10.27a11.48,11.48,0,0,0-17,15.44,4.39,4.39,0,0,1-1.84,2,1,1,0,0,0-.58,1.12,1.06,1.06,0,0,0,.9.9,5,5,0,0,0,.9.07,6.86,6.86,0,0,0,4-1.34A11.48,11.48,0,0,0,25.59,10.27Zm-.92,15.3a10.18,10.18,0,0,1-12.35,1.59.64.64,0,0,0-.79.1.1.1,0,0,0,0,0A5.61,5.61,0,0,1,8,28.53H8a6.46,6.46,0,0,0,2-2.62.87.87,0,0,0-.13-.79,10.17,10.17,0,1,1,14.82.45Zm0,0"/></g><path class="cls-3" d="M18.28,18.38a.81.81,0,1,1-.8-.8.8.8,0,0,1,.8.8Zm0,0"/><path class="cls-3" d="M22.44,18.38a.81.81,0,1,1-.81-.8.81.81,0,0,1,.81.8Zm0,0"/><path class="cls-3" d="M14.13,18.38a.81.81,0,1,1-.81-.8.81.81,0,0,1,.81.8Zm0,0"/></svg>