<svg id="Layer_1" data-name="Layer 1" xmlns="http://www.w3.org/2000/svg" viewBox="0 0 35 35"><defs><style>.cls-1{fill:#595959;}</style></defs><title>watchlist_v11</title><path class="cls-1" d="M28,9.45H22.81V8.34a2.15,2.15,0,0,0-2-2.22H14.59a2.15,2.15,0,0,0-2.05,2.22V9.45H7.4a2.15,2.15,0,0,0-2.05,2.23V26.11A2.14,2.14,0,0,0,7.4,28.33H28A2.14,2.14,0,0,0,30,26.11V11.68A2.15,2.15,0,0,0,28,9.45ZM13.57,8.34a1.07,1.07,0,0,1,1-1.11h6.17a1.07,1.07,0,0,1,1,1.11V9.45H13.57ZM28,27.22H7.4a1.07,1.07,0,0,1-1-1.11V18a1.91,1.91,0,0,0,1,.31h8.22V20a.54.54,0,0,0,.51.56h3.08a.54.54,0,0,0,.52-.56V18.34H28A1.91,1.91,0,0,0,29,18v8.08A1.07,1.07,0,0,1,28,27.22Zm-11.3-7.77V17.23H18.7v2.22ZM28,17.23H19.73v-.56a.54.54,0,0,0-.52-.55H16.13a.53.53,0,0,0-.51.55v.56H7.4a1.07,1.07,0,0,1-1-1.11V11.68a1.07,1.07,0,0,1,1-1.11H28a1.07,1.07,0,0,1,1,1.11v4.44A1.07,1.07,0,0,1,28,17.23Z"/></svg>