<svg id="Layer_1" data-name="Layer 1" xmlns="http://www.w3.org/2000/svg" viewBox="0 0 35 35"><defs><style>.cls-1{fill:#595959;}</style></defs><title>watchlist_v11</title><path class="cls-1" d="M27,11.18a.51.51,0,0,0-.15-.36l-5-5a.47.47,0,0,0-.35-.15H7.93a.5.5,0,0,0-.5.5V29.75a.5.5,0,0,0,.5.5H26.5a.5.5,0,0,0,.5-.5V11.18ZM22,7.37l3.31,3.31H22Zm4,21.88H8.43V6.66H21v4.52a.5.5,0,0,0,.5.5H26Zm0,0"/><rect class="cls-1" x="9.68" y="7.92" width="2.51" height="1"/><rect class="cls-1" x="9.68" y="9.42" width="5.27" height="1"/><path class="cls-1" d="M24.21,26.59l-3.46-3.46a6.08,6.08,0,1,0-.6.6l3.46,3.46a.43.43,0,0,0,.3.13.43.43,0,0,0,.3-.13.43.43,0,0,0,0-.6ZM11,19.15a5.22,5.22,0,1,1,5.21,5.22A5.22,5.22,0,0,1,11,19.15Zm0,0"/></svg>