<svg id="Layer_1" data-name="Layer 1" xmlns="http://www.w3.org/2000/svg" viewBox="0 0 35 35"><defs><style>.cls-1{fill:#595959;}</style></defs><title>watchlist_v11</title><path class="cls-1" d="M21.32,23.36a6,6,0,0,1,.74-2.89c-.69-.38-1.19-.64-1.39-.74a.17.17,0,0,1-.11-.16v-4A1.87,1.87,0,0,0,21.41,14V9.77A3.77,3.77,0,0,0,17.63,6h-.9A3.77,3.77,0,0,0,13,9.77V14a1.9,1.9,0,0,0,.84,1.57v4a.18.18,0,0,1-.1.16,33.56,33.56,0,0,0-6,3.83A2,2,0,0,0,7,25.13V28H23.48a4.38,4.38,0,0,1-.39-.36,6,6,0,0,1-1.77-4.27Zm0,0"/><path class="cls-1" d="M32.2,23a.41.41,0,0,0-.41-.41h-.62a3.84,3.84,0,0,0-.61-1.45l.44-.44a.41.41,0,0,0,0-.58l-.45-.44a.4.4,0,0,0-.57,0l-.44.44a3.87,3.87,0,0,0-1.46-.6v-.62a.41.41,0,0,0-.41-.41H27a.41.41,0,0,0-.41.41v.62a3.87,3.87,0,0,0-1.46.6l-.43-.44a.41.41,0,0,0-.58,0l-.45.45a.41.41,0,0,0,0,.58l.43.43a3.82,3.82,0,0,0-.61,1.46h-.6a.41.41,0,0,0-.41.41v.63a.41.41,0,0,0,.41.41h.6a3.87,3.87,0,0,0,.61,1.47l-.43.42a.41.41,0,0,0,0,.58l.45.45a.41.41,0,0,0,.58,0l.42-.43a3.93,3.93,0,0,0,1.47.61v.6a.41.41,0,0,0,.41.41h.63a.41.41,0,0,0,.41-.41v-.61a3.71,3.71,0,0,0,1.47-.61L30,27a.4.4,0,0,0,.57,0l.45-.44A.41.41,0,0,0,31,26l-.43-.44a4,4,0,0,0,.6-1.45h.62a.42.42,0,0,0,.41-.41Zm-3.35,1.81a2.1,2.1,0,1,1,0-3,2.1,2.1,0,0,1,0,3Zm0,0"/></svg>