<?xml version="1.0" encoding="utf-8"?>
<!-- Generator: Adobe Illustrator 21.0.0, SVG Export Plug-In . SVG Version: 6.00 Build 0)  -->
<svg version="1.1" id="Layer_1" xmlns="http://www.w3.org/2000/svg" xmlns:xlink="http://www.w3.org/1999/xlink" x="0px" y="0px"
	 viewBox="0 0 47 46" style="enable-background:new 0 0 47 46;" xml:space="preserve">
<style type="text/css">
	.st0{fill:#010028;}
</style>
<g>
	<g>
		<g>
			<path class="st0" d="M30.8,15.3h-3.1v-2c0-0.4-0.3-0.7-0.7-0.7c0,0-0.1,0-0.1,0c0,0,0,0-0.1,0h-7.4c-0.4,0-0.7,0.3-0.7,0.7v2
				h-3.1c-0.9,0-1.6,0.7-1.6,1.6v2.6h1.4v14.7c0,0.9,0.7,1.6,1.6,1.6h12.4c0.9,0,1.6-0.7,1.6-1.6V19.5h1.4v-2.6
				C32.4,16,31.7,15.3,30.8,15.3L30.8,15.3z M20.2,14h6.1v1.3h-6.1V14z M29.6,34.1c0,0.1,0,0.1-0.1,0.1H17.1c-0.1,0-0.1,0-0.1-0.1
				V19.5h12.7V34.1z M30.9,18H15.6v-1.1c0-0.1,0-0.1,0.1-0.1h15.1c0.1,0,0.1,0.1,0.1,0.1V18z M30.9,18"/>
			<rect x="25.9" y="21.2" class="st0" width="1.4" height="11.8"/>
			<rect x="22.6" y="21.2" class="st0" width="1.4" height="11.8"/>
			<rect x="19.2" y="21.2" class="st0" width="1.4" height="11.8"/>
		</g>
	</g>
	<path d="M23.3,45.3c-11.9,0-21.5-9.6-21.5-21.5S11.4,2.3,23.3,2.3s21.5,9.6,21.5,21.5S35.1,45.3,23.3,45.3z M23.3,4.3
		C12.5,4.3,3.8,13,3.8,23.8s8.7,19.5,19.5,19.5s19.5-8.7,19.5-19.5S34,4.3,23.3,4.3z"/>
</g>
</svg>
