<?xml version="1.0" encoding="utf-8"?>
<!-- Generator: Adobe Illustrator 21.0.0, SVG Export Plug-In . SVG Version: 6.00 Build 0)  -->
<svg version="1.1" id="Layer_1" xmlns="http://www.w3.org/2000/svg" xmlns:xlink="http://www.w3.org/1999/xlink" x="0px" y="0px"
	 viewBox="0 0 47 46" style="enable-background:new 0 0 47 46;" xml:space="preserve">
<style type="text/css">
	.st0{fill:none;stroke:#FFFFFF;stroke-width:1.5867;stroke-miterlimit:10;}
	.st1{fill:#FFFFFF;}
</style>
<circle class="st0" cx="24" cy="23.5" r="20.5"/>
<g id="_x36__4_">
	<g>
		<path class="st1" d="M30.7,25.4v-5.6c0-3.8-3.1-7-7-7s-7,3.1-7,7v5.6l-2.8,5.6h6.3c0.3,1.6,1.7,2.8,3.4,2.8c1.7,0,3.1-1.2,3.4-2.8
			h6.3L30.7,25.4z M23.8,32.3c-0.9,0-1.7-0.6-2-1.4h3.9C25.5,31.7,24.7,32.3,23.8,32.3z M16.1,29.5l2.1-4.2v-5.6
			c0-3.1,2.5-5.6,5.6-5.6s5.6,2.5,5.6,5.6v5.6l2.1,4.2H16.1z"/>
	</g>
</g>
</svg>
