<?xml version="1.0" encoding="utf-8"?>
<!-- Generator: Adobe Illustrator 21.0.0, SVG Export Plug-In . SVG Version: 6.00 Build 0)  -->
<svg version="1.1" id="Layer_1" xmlns="http://www.w3.org/2000/svg" xmlns:xlink="http://www.w3.org/1999/xlink" x="0px" y="0px"
	 viewBox="0 0 40 34" style="enable-background:new 0 0 40 34;" xml:space="preserve">
<style type="text/css">
	.st0{fill:#F3F2F7;}
</style>
<path class="st0" d="M30.6,25.6h-0.4c-1.3-1.7-2.1-3.8-2.1-6v-4.8c0-3.8-2.6-6.9-6-7.9c0.2-0.4,0.4-0.8,0.4-1.3
	c0-1.4-1.1-2.5-2.5-2.5s-2.5,1.1-2.5,2.5c0,0.5,0.1,0.9,0.4,1.3c-3.5,0.9-6,4.1-6,7.9v4.8c0,2.2-0.7,4.3-2.1,6H9.3
	c-0.4,0-0.8,0.3-0.8,0.8c0,0.4,0.3,0.8,0.8,0.8h6.6c0.4,1.9,2.1,3.4,4.1,3.4c2,0,3.7-1.5,4.1-3.4h5.8h0.8c0.4,0,0.8-0.3,0.8-0.8
	C31.4,25.9,31,25.6,30.6,25.6z M18.9,5.7c0-0.5,0.4-1,1-1s1,0.4,1,1s-0.4,1-1,1S18.9,6.3,18.9,5.7z M19.9,29c-1.2,0-2.2-0.8-2.5-1.9
	h5.1C22.1,28.2,21.1,29,19.9,29z M11.6,25.6c1.1-1.8,1.7-3.8,1.7-6v-4.8c0-3.7,3-6.7,6.7-6.7s6.7,3,6.7,6.7v4.8c0,2.1,0.6,4.2,1.7,6
	H11.6z"/>
</svg>
