<svg id="Layer_1" data-name="Layer 1" xmlns="http://www.w3.org/2000/svg" viewBox="0 0 40 40"><defs><style>.cls-1{fill:#f3f2f7;}</style></defs><title>active</title><path class="cls-1" d="M29.69,7.53H26V7a.53.53,0,0,0-.53-.53H22.29a2.66,2.66,0,0,0-4.23,0H14.88a.52.52,0,0,0-.52.53v.53H10.65a.52.52,0,0,0-.52.53V32.38a.52.52,0,0,0,.52.53h19a.53.53,0,0,0,.53-.53V8.06A.53.53,0,0,0,29.69,7.53Zm-14.28,0h2.93a.54.54,0,0,0,.46-.26,1.59,1.59,0,0,1,1.37-.8,1.61,1.61,0,0,1,1.38.8.51.51,0,0,0,.45.26h2.93V9.65H15.41V7.53ZM11.18,31.86V8.59h3.18v1.59a.52.52,0,0,0,.52.52H25.46a.52.52,0,0,0,.53-.52V8.59h3.17V29.74H26.52a.53.53,0,0,0,0,1.06h2.64v1.06Z"/><path class="cls-1" d="M17.33,12.41a.53.53,0,0,0-.74.08l-2.17,2.65-1.23-1.59a.54.54,0,0,0-.75-.09.53.53,0,0,0-.09.74L14,16.32a.54.54,0,0,0,.41.2h0a.53.53,0,0,0,.41-.19l2.59-3.18A.53.53,0,0,0,17.33,12.41Z"/><path class="cls-1" d="M19.11,13.88h8.46a.53.53,0,1,0,0-1.06H19.11a.53.53,0,0,0,0,1.06Z"/><path class="cls-1" d="M19.11,16h3.18a.53.53,0,0,0,.53-.53.53.53,0,0,0-.53-.53H19.11a.52.52,0,0,0-.52.53A.52.52,0,0,0,19.11,16Z"/><path class="cls-1" d="M17.33,18.76a.52.52,0,0,0-.74.07l-2.17,2.66L13.19,19.9a.55.55,0,0,0-.75-.1.54.54,0,0,0-.09.75L14,22.66a.55.55,0,0,0,.41.21h0a.51.51,0,0,0,.41-.2l2.59-3.17A.52.52,0,0,0,17.33,18.76Z"/><path class="cls-1" d="M19.11,20.22h8.46a.52.52,0,0,0,.53-.53.53.53,0,0,0-.53-.53H19.11a.52.52,0,0,0-.52.53A.52.52,0,0,0,19.11,20.22Z"/><path class="cls-1" d="M19.11,22.34h3.18a.53.53,0,0,0,0-1.06H19.11a.53.53,0,0,0,0,1.06Z"/><path class="cls-1" d="M17.33,25.1a.53.53,0,0,0-.74.08l-2.17,2.65-1.23-1.59a.54.54,0,0,0-.75-.09.53.53,0,0,0-.09.74L14,29a.54.54,0,0,0,.41.2h0a.53.53,0,0,0,.41-.19l2.59-3.18A.53.53,0,0,0,17.33,25.1Z"/><path class="cls-1" d="M19.11,26.57h8.46a.53.53,0,0,0,0-1.06H19.11a.53.53,0,0,0,0,1.06Z"/><path class="cls-1" d="M22.29,27.63H19.11a.53.53,0,0,0,0,1.05h3.18a.53.53,0,1,0,0-1.05Z"/><path class="cls-1" d="M24.93,29.74a.52.52,0,0,0-.37.16.51.51,0,0,0-.16.37.55.55,0,0,0,.53.53.51.51,0,0,0,.37-.16.52.52,0,0,0,.16-.37.55.55,0,0,0-.53-.53Z"/></svg>