<svg id="Layer_1" data-name="Layer 1" xmlns="http://www.w3.org/2000/svg" viewBox="0 0 35 35"><defs><style>.cls-1{fill:#595959;}</style></defs><title>watchlist_v11</title><path class="cls-1" d="M16.85,5.84A12.14,12.14,0,1,0,29,18,12.13,12.13,0,0,0,16.85,5.84Zm0,21.46A9.33,9.33,0,1,1,26.19,18a9.33,9.33,0,0,1-9.31,9.34Zm0,0,.56-10.59c-1.37-.55-1.77-.88-1.77-1.48s.37-1,1.39-1a3.88,3.88,0,0,1,1.61.36.53.53,0,0,0,.24.06.49.49,0,0,0,.45-.31l.25-.63a.4.4,0,0,0-.22-.51,9.48,9.48,0,0,0-1.66-.43s-.08,0-.08-.09v-.92a.51.51,0,0,0-.52-.51h-.44a.51.51,0,0,0-.52.51v1c0,.07-.08.1-.11.11a2.68,2.68,0,0,0-2.24,2.61c0,1.59,1.31,2.31,2.73,2.85,1.13.44,1.59.89,1.59,1.55S17.49,21,16.55,21a5.4,5.4,0,0,1-1.89-.52.59.59,0,0,0-.22-.05.49.49,0,0,0-.46.32l-.24.65A.43.43,0,0,0,14,22a8.93,8.93,0,0,0,2,.56s.09,0,.09.1v1a.51.51,0,0,0,.52.5H17a.52.52,0,0,0,.52-.5v-1c0-.1.07-.11.08-.11A2.8,2.8,0,0,0,20,19.71c0-1.39-.77-2.28-2.57-3Zm0,0"/></svg>