<?xml version="1.0" encoding="utf-8"?>
<!-- Generator: Adobe Illustrator 21.0.0, SVG Export Plug-In . SVG Version: 6.00 Build 0)  -->
<svg version="1.1" id="Layer_1" xmlns="http://www.w3.org/2000/svg" xmlns:xlink="http://www.w3.org/1999/xlink" x="0px" y="0px"
	 viewBox="0 0 40 34" style="enable-background:new 0 0 40 34;" xml:space="preserve">
<style type="text/css">
	.st0{fill:#F3F2F7;}
</style>
<g>
	<g>
		<g>
			<path class="st0" d="M13.2,16.2c-1.9,0-3.4-1.2-3.4-2.7V9.3c0-1.5,1.5-2.7,3.4-2.7c2.2,0,3.3,0.7,3.4,2c0,0.4-0.2,0.7-0.6,0.7
				c-0.4,0-0.7-0.2-0.7-0.6c0-0.5-0.7-0.7-2.1-0.7c-1.1,0-2.1,0.6-2.1,1.4v4.1c0,0.7,0.9,1.4,2.1,1.4c1.3,0,2-0.3,2.1-0.7
				c0-0.4,0.4-0.7,0.7-0.6c0.4,0,0.7,0.4,0.6,0.7C16.5,15.5,15.3,16.2,13.2,16.2z"/>
			<path class="st0" d="M13.2,10.7H9c-0.4,0-0.7-0.3-0.7-0.7c0-0.4,0.3-0.7,0.7-0.7h4.1c0.4,0,0.7,0.3,0.7,0.7
				C13.9,10.4,13.5,10.7,13.2,10.7z"/>
			<path class="st0" d="M13.2,13.4H9c-0.4,0-0.7-0.3-0.7-0.7C8.4,12.3,8.7,12,9,12h4.1c0.4,0,0.7,0.3,0.7,0.7
				C13.9,13.1,13.5,13.4,13.2,13.4z"/>
		</g>
		<path class="st0" d="M6.3,26.3c-0.1,0-0.2,0-0.3-0.1c-0.3-0.1-0.4-0.5-0.3-0.8l1.2-2.3c0.1-0.3,0.5-0.4,0.8-0.3l2.3,1.2
			c0.3,0.1,0.4,0.5,0.3,0.8c-0.1,0.3-0.5,0.4-0.8,0.3l-1.8-0.9L6.8,26C6.7,26.2,6.5,26.3,6.3,26.3z"/>
		<path class="st0" d="M13.3,29.8C13.3,29.8,13.3,29.8,13.3,29.8c-3.7,0-6-3.2-6.4-6.3c0-0.3,0.2-0.6,0.5-0.7C7.7,22.8,8,23,8,23.3
			c0.3,2.6,2.3,5.3,5.3,5.3c0.3,0,0.6,0.3,0.6,0.6C13.9,29.6,13.6,29.8,13.3,29.8z"/>
		<path class="st0" d="M29.6,11.2c-0.1,0-0.2,0-0.3-0.1L27,9.9c-0.3-0.1-0.4-0.5-0.3-0.8c0.1-0.3,0.5-0.4,0.8-0.3l1.8,0.9L30.3,8
			c0.1-0.3,0.5-0.4,0.8-0.3c0.3,0.1,0.4,0.5,0.3,0.8l-1.2,2.3C30,11,29.8,11.2,29.6,11.2z"/>
		<path class="st0" d="M29.6,11.2c-0.3,0-0.5-0.2-0.6-0.5c-0.3-2.6-2.3-5.3-5.3-5.3c-0.3,0-0.6-0.3-0.6-0.6c0-0.3,0.3-0.6,0.6-0.6
			c3.7,0,6,3.2,6.4,6.3C30.2,10.8,30,11.1,29.6,11.2C29.7,11.2,29.6,11.2,29.6,11.2z"/>
		<path class="st0" d="M22.6,26.3c-2.3,0-4.1-1.3-4.1-2.9c0-0.3,0.3-0.6,0.6-0.6s0.6,0.3,0.6,0.6c0,0.9,1.3,1.8,2.9,1.8
			s2.9-0.8,2.9-1.8s-1.3-1.8-2.9-1.8c-2.3,0-4.1-1.3-4.1-2.9s1.8-2.9,4.1-2.9s4.1,1.3,4.1,2.9c0,0.3-0.3,0.6-0.6,0.6
			s-0.6-0.3-0.6-0.6c0-0.9-1.3-1.8-2.9-1.8s-2.9,0.8-2.9,1.8s1.3,1.8,2.9,1.8c2.3,0,4.1,1.3,4.1,2.9C26.7,25.1,24.9,26.3,22.6,26.3z
			"/>
		<path class="st0" d="M22.6,27.5c-0.3,0-0.6-0.3-0.6-0.6V15.3c0-0.3,0.3-0.6,0.6-0.6s0.6,0.3,0.6,0.6v11.7
			C23.2,27.2,22.9,27.5,22.6,27.5z"/>
		<path class="st0" d="M13.3,20.5c-4.8,0-8.8-3.9-8.8-8.8S8.5,3,13.3,3S22,6.9,22,11.8c0,0.3-0.3,0.6-0.6,0.6
			c-0.3,0-0.6-0.3-0.6-0.6c0-4.2-3.4-7.6-7.6-7.6s-7.6,3.4-7.6,7.6s3.4,7.6,7.6,7.6c0.3,0,0.6,0.3,0.6,0.6
			C13.9,20.2,13.6,20.5,13.3,20.5z"/>
		<path class="st0" d="M22.6,31c-5.5,0-9.9-4.4-9.9-9.9s4.4-9.9,9.9-9.9s9.9,4.4,9.9,9.9S28.1,31,22.6,31z M22.6,12.3
			c-4.8,0-8.8,3.9-8.8,8.8s3.9,8.8,8.8,8.8s8.8-3.9,8.8-8.8S27.4,12.3,22.6,12.3z"/>
	</g>
</g>
</svg>
