<?xml version="1.0" encoding="utf-8"?>
<!-- Generator: Adobe Illustrator 21.0.0, SVG Export Plug-In . SVG Version: 6.00 Build 0)  -->
<svg version="1.1" id="Layer_1" xmlns="http://www.w3.org/2000/svg" xmlns:xlink="http://www.w3.org/1999/xlink" x="0px" y="0px"
	 viewBox="0 0 47 46" style="enable-background:new 0 0 47 46;" xml:space="preserve">
<style type="text/css">
	.st0{fill:none;stroke:#FFFFFF;stroke-width:1.1125;stroke-miterlimit:10;}
	.st1{fill:#FFFFFF;}
</style>
<g>
	<circle class="st0" cx="23.2" cy="24.4" r="14.4"/>
	<g>
		<g>
			<path class="st1" d="M28,18.9h-1.9v-1.3c0-0.3-0.2-0.4-0.5-0.4c0,0,0,0,0,0c0,0,0,0,0,0H21c-0.3,0-0.4,0.2-0.4,0.4v1.3h-1.9
				c-0.6,0-1,0.4-1,1v1.6h0.9v9.2c0,0.6,0.4,1,1,1h7.7c0.6,0,1-0.4,1-1v-9.2H29v-1.6C29,19.4,28.6,18.9,28,18.9L28,18.9z M21.4,18.1
				h3.8v0.8h-3.8V18.1z M27.3,30.7C27.3,30.7,27.3,30.8,27.3,30.7l-7.8,0.1c-0.1,0-0.1,0-0.1-0.1v-9.2h7.9V30.7z M28.1,20.6h-9.6
				v-0.7c0-0.1,0-0.1,0.1-0.1H28c0.1,0,0.1,0,0.1,0.1V20.6z M28.1,20.6"/>
			<rect x="25" y="22.6" class="st1" width="0.9" height="7.4"/>
			<rect x="22.9" y="22.6" class="st1" width="0.9" height="7.4"/>
			<rect x="20.8" y="22.6" class="st1" width="0.9" height="7.4"/>
		</g>
	</g>
</g>
</svg>
