<svg id="Layer_1" data-name="Layer 1" xmlns="http://www.w3.org/2000/svg" viewBox="0 0 35 35"><defs><style>.cls-1{fill:#595959;}</style></defs><title>watchlist_v11</title><path class="cls-1" d="M22.64,6H13.76a.73.73,0,0,0-.74.74v1H9.74A.74.74,0,0,0,9,8.52V28.06a.74.74,0,0,0,.74.74H26.32a.74.74,0,0,0,.74-.74V8.52a.74.74,0,0,0-.74-.75H23.39v-1A.74.74,0,0,0,22.64,6ZM14.5,8.52v-1h7.4V9.82H14.5Zm11.08.74V27.32H10.48V9.26H13v1.3a.73.73,0,0,0,.74.74h8.88a.73.73,0,0,0,.75-.74V9.26Zm0,0"/><path class="cls-1" d="M23.55,18.85H12.85a.74.74,0,1,0,0,1.48h10.7a.74.74,0,0,0,0-1.48Zm0,0"/><path class="cls-1" d="M18.21,22.43H12.85a.74.74,0,0,0,0,1.48h5.34a.74.74,0,0,0,0-1.48Zm0,0"/><path class="cls-1" d="M12.11,16a.73.73,0,0,0,.74.74h10.7a.74.74,0,0,0,0-1.48H12.85a.74.74,0,0,0-.74.74Zm0,0"/></svg>