<?xml version="1.0" encoding="utf-8"?>
<!-- Generator: Adobe Illustrator 21.0.0, SVG Export Plug-In . SVG Version: 6.00 Build 0)  -->
<svg version="1.1" id="Layer_1" xmlns="http://www.w3.org/2000/svg" xmlns:xlink="http://www.w3.org/1999/xlink" x="0px" y="0px"
	 viewBox="0 0 40 34" style="enable-background:new 0 0 40 34;" xml:space="preserve">
<style type="text/css">
	.st0{fill:#000000;}
</style>
<g>
	<path class="st0" d="M13.4,25c0.3,0.1,0.6,0.2,1,0.2c1.7,0,3-1.4,3-3c0-0.4-0.1-0.7-0.2-1.1l4.6-1.3c0.5,0.3,1,0.5,1.7,0.5
		c1.7,0,3-1.4,3-3c0-0.6-0.2-1.2-0.5-1.7l1.7-2.9c0.5,0.3,1,0.5,1.6,0.5c1.7,0,3-1.4,3-3c0-1.7-1.4-3-3-3c-1.7,0-3,1.4-3,3
		c0,0.7,0.2,1.3,0.6,1.8l-1.7,2.9c-0.5-0.3-1.1-0.6-1.7-0.6c-1.7,0-3,1.4-3,3c0,0.6,0.2,1.2,0.5,1.7l-4.4,1.2c-0.6-0.6-1.4-1-2.2-1
		c-1.7,0-3,1.4-3,3c0,0.9,0.4,1.7,1.1,2.3l-4,3.5V4H7.4v24.5c0,0.3,0.2,0.5,0.5,0.5h24.5V28H10.1L13.4,25z M29.4,8.1
		c1.1,0,1.9,0.9,1.9,1.9S30.5,12,29.4,12c-1.1,0-1.9-0.9-1.9-1.9S28.3,8.1,29.4,8.1L29.4,8.1z M23.5,15.3c1.1,0,1.9,0.9,1.9,1.9
		c0,1.1-0.9,1.9-1.9,1.9c-1.1,0-1.9-0.9-1.9-1.9C21.6,16.1,22.5,15.3,23.5,15.3L23.5,15.3z M14.4,20.2c1.1,0,1.9,0.9,1.9,1.9
		c0,1.1-0.9,1.9-1.9,1.9c-1.1,0-1.9-0.9-1.9-1.9C12.5,21,13.3,20.2,14.4,20.2L14.4,20.2z M14.4,20.2"/>
</g>
</svg>
