<svg id="Layer_1" data-name="Layer 1" xmlns="http://www.w3.org/2000/svg" viewBox="0 0 35 35"><defs><style>.cls-1{fill:#595959;}</style></defs><title>watchlist_v11</title><path class="cls-1" d="M22.45,8.58A9.12,9.12,0,0,0,17,7a7.69,7.69,0,0,0-4.24,1.11C10.9,9.27,9.93,11.23,9.82,14H14a4.35,4.35,0,0,1,.71-2.34,2.61,2.61,0,0,1,2.4-1.12,2.73,2.73,0,0,1,2.37.91,3.42,3.42,0,0,1,.64,2,3.11,3.11,0,0,1-.71,1.77,3.78,3.78,0,0,1-.84.86,19.3,19.3,0,0,0-3.3,2.65c-.58.68-.63,1.71-.69,3.18,0,.1,0,.32.41.32h3.28a.36.36,0,0,0,.4-.35,3.66,3.66,0,0,1,.18-1.12,3.53,3.53,0,0,1,1.25-1.53l1.17-.8a12.81,12.81,0,0,0,2.25-2,5.34,5.34,0,0,0,1.08-3.19,5.37,5.37,0,0,0-2.19-4.67ZM16.9,24.79A2.61,2.61,0,1,0,16.75,30a2.51,2.51,0,0,0,2.73-2.51,2.53,2.53,0,0,0-2.58-2.7Zm0,0"/></svg>