<?xml version="1.0" encoding="utf-8"?>
<!-- Generator: Adobe Illustrator 21.0.0, SVG Export Plug-In . SVG Version: 6.00 Build 0)  -->
<svg version="1.1" id="Layer_1" xmlns="http://www.w3.org/2000/svg" xmlns:xlink="http://www.w3.org/1999/xlink" x="0px" y="0px"
	 viewBox="0 0 47 46" style="enable-background:new 0 0 47 46;" xml:space="preserve">
<style type="text/css">
	.st0{fill:#FFFFFF;}
</style>
<path class="st0" d="M31.7,17.3c-0.1-0.3-0.4-0.4-0.7-0.4H16.5c-0.3,0-0.5,0.1-0.7,0.4c-0.1,0.3-0.1,0.6,0.2,0.8l5.6,5.6v5.5
	c0,0.2,0.1,0.4,0.2,0.5l2.9,2.9c0.1,0.1,0.3,0.2,0.5,0.2c0.1,0,0.2,0,0.3-0.1c0.3-0.1,0.4-0.4,0.4-0.7v-8.4l5.6-5.6
	C31.8,17.9,31.8,17.6,31.7,17.3L31.7,17.3z M31.7,17.3"/>
</svg>
