<?xml version="1.0" encoding="utf-8"?>
<!-- Generator: Adobe Illustrator 21.0.0, SVG Export Plug-In . SVG Version: 6.00 Build 0)  -->
<svg version="1.1" id="Layer_1" xmlns="http://www.w3.org/2000/svg" xmlns:xlink="http://www.w3.org/1999/xlink" x="0px" y="0px"
	 viewBox="0 0 40 34" style="enable-background:new 0 0 40 34;" xml:space="preserve">
<style type="text/css">
	.st0{fill:#F3F2F7;}
</style>
<g>
	<g>
		<path class="st0" d="M19.4,30.3c-5.9,0-10.7-3.8-10.7-8.4c0-3.3,5.5-9.1,5.8-9.4c0.1-0.1,0.3-0.2,0.4-0.2h9c0.2,0,0.3,0.1,0.4,0.2
			c0.2,0.2,5.8,6.1,5.8,9.4C30.1,26.6,25.3,30.3,19.4,30.3z M15.1,13.5c-1.6,1.7-5.3,6.2-5.3,8.4c0,4,4.3,7.3,9.6,7.3
			s9.6-3.3,9.6-7.3c0-2.3-3.7-6.7-5.3-8.4H15.1z"/>
		<path class="st0" d="M23.9,11.2h-9c-0.3,0-0.6-0.3-0.6-0.6s0.3-0.6,0.6-0.6h9c0.3,0,0.6,0.3,0.6,0.6C24.4,11,24.2,11.2,23.9,11.2z
			"/>
		<path class="st0" d="M23.9,9h-9c-0.2,0-0.4-0.1-0.5-0.3l-2.2-4.5C12,4,12.1,3.7,12.2,3.5c0.2-0.2,0.4-0.2,0.6-0.1L17,5.5l2-2
			c0.2-0.2,0.6-0.2,0.8,0l2,2l4.1-2.1c0.2-0.1,0.5-0.1,0.6,0.1c0.2,0.2,0.2,0.4,0.1,0.6l-2.2,4.5C24.3,8.9,24.1,9,23.9,9z M15.2,7.9
			h8.3l1.3-2.7l-3,1.5c-0.2,0.1-0.5,0.1-0.6-0.1l-1.9-1.9l-1.9,1.9c-0.2,0.2-0.4,0.2-0.6,0.1l-3-1.5L15.2,7.9z"/>
		<g>
			<path class="st0" d="M22.2,18.9h-0.8c-0.1-0.5-0.2-0.9-0.5-1.2h1.2c0.3,0,0.5-0.2,0.5-0.5c0-0.3-0.2-0.5-0.5-0.5H18c0,0,0,0,0,0
				c0,0,0,0,0,0h-2c-0.3,0-0.5,0.2-0.5,0.5c0,0.3,0.2,0.5,0.5,0.5h2.4c0.8,0.1,1.5,0.3,1.8,1.2h-4.1c-0.3,0-0.5,0.2-0.5,0.5
				c0,0.3,0.2,0.5,0.5,0.5H20c-0.3,0.7-1,1.1-1.9,1.1h-1.7c-0.3,0-0.5,0.2-0.5,0.5c0,0.3,0.2,0.5,0.5,0.5H17c0,0,0,0,0,0h1
				c1.1,0,1.5,0.5,1.8,1.8c0.2,0.9,0.4,1.5,0.5,1.9c0.1,0.3,0.3,0.8,0.6,1.1c0.1,0.1,0.3,0.2,0.4,0.2c0.2,0,0.3-0.1,0.5-0.2
				c0.2-0.2,0.2-0.6,0-0.8c0,0,0,0,0,0c-0.2-0.4-0.4-1.3-0.7-2.5c-0.2-1-0.6-1.6-1.3-1.9c0.8-0.3,1.4-0.9,1.6-1.7h0.9
				c0.3,0,0.5-0.2,0.5-0.5S22.5,18.9,22.2,18.9L22.2,18.9z M22.2,18.9"/>
		</g>
	</g>
</g>
</svg>
