<?xml version="1.0" encoding="UTF-8"?>
<!DOCTYPE svg PUBLIC "-//W3C//DTD SVG 1.1//EN" "http://www.w3.org/Graphics/SVG/1.1/DTD/svg11.dtd">
<!-- Creator: CorelDRAW X6 -->
<svg xmlns="http://www.w3.org/2000/svg" xml:space="preserve" width="1538px" height="1538px" version="1.1" style="shape-rendering:geometricPrecision; text-rendering:geometricPrecision; image-rendering:optimizeQuality; fill-rule:evenodd; clip-rule:evenodd"
viewBox="0 0 1538 1538"
 xmlns:xlink="http://www.w3.org/1999/xlink">
 <defs>
  <style type="text/css">
   <![CDATA[
    .fil0 {fill:#F3F2F7}
   ]]>
  </style>
 </defs>
 <g id="Layer_x0020_1">
  <metadata id="CorelCorpID_0Corel-Layer"/>
  <g id="_731695088">
   <g>
    <path class="fil0" d="M1507 0l-1475 0c-17,0 -31,14 -31,31l0 1475c0,17 14,31 31,31l1254 0c17,0 31,-14 31,-31 0,-17 -14,-31 -31,-31l-1223 0 0 -1413 1413 0 0 1444c0,17 14,31 31,31 17,0 31,-14 31,-31l0 -1475c0,-17 -14,-31 -31,-31z" data-original="#000000" data-old_color="#000000"/>
    <path class="fil0" d="M343 326c-66,0 -120,54 -120,120 0,66 54,120 120,120 66,0 120,-54 120,-120 0,-66 -54,-120 -120,-120zm0 177c-32,0 -57,-26 -57,-57 0,-32 26,-57 57,-57 32,0 57,26 57,57 0,32 -26,57 -57,57z" data-original="#000000" data-old_color="#000000"/>
    <path class="fil0" d="M1287 414l-730 0c-17,0 -31,14 -31,31 0,17 14,31 31,31l730 0c17,0 31,-14 31,-31 0,-17 -14,-31 -31,-31z" data-original="#000000" data-old_color="#000000"/>
    <path class="fil0" d="M343 649c-17,0 -31,14 -31,31 0,17 14,31 31,31 32,0 57,26 57,57 0,32 -26,57 -57,57 -32,0 -57,-26 -57,-57 0,-17 -14,-31 -31,-31 -17,0 -31,14 -31,31 0,66 54,120 120,120 66,0 120,-54 120,-120 0,-66 -54,-120 -120,-120z" data-original="#000000" data-old_color="#000000"/>
    <path class="fil0" d="M1287 738l-730 0c-17,0 -31,14 -31,31 0,17 14,31 31,31l730 0c17,0 31,-14 31,-31 0,-17 -14,-31 -31,-31z" data-original="#000000" data-old_color="#000000"/>
    <path class="fil0" d="M343 972c-66,0 -120,54 -120,120 0,66 54,120 120,120 66,0 120,-54 120,-120 0,-66 -54,-120 -120,-120zm0 177c-32,0 -57,-26 -57,-57 0,-32 26,-57 57,-57 32,0 57,26 57,57 0,32 -26,57 -57,57z" data-original="#000000" data-old_color="#000000"/>
    <path class="fil0" d="M1287 1061l-730 0c-17,0 -31,14 -31,31 0,17 14,31 31,31l730 0c17,0 31,-14 31,-31 0,-17 -14,-31 -31,-31z" data-original="#000000" data-old_color="#000000"/>
   </g>
  </g>
 </g>
</svg>
