<?xml version="1.0" encoding="utf-8"?>
<!-- Generator: Adobe Illustrator 21.0.0, SVG Export Plug-In . SVG Version: 6.00 Build 0)  -->
<svg version="1.1" id="Layer_1" xmlns="http://www.w3.org/2000/svg" xmlns:xlink="http://www.w3.org/1999/xlink" x="0px" y="0px"
	 viewBox="0 0 40 34" style="enable-background:new 0 0 40 34;" xml:space="preserve">
<style type="text/css">
	.st0{fill:#F3F2F7;}
</style>
<path class="st0" d="M30.9,9.7h-6.3V8.5c0-1.2-0.9-2.2-2-2.2h-5.1c-1.1,0-2,1-2,2.2v1.2H9.1c-1,0-1.8,0.8-1.8,1.9v13.9
	c0,1,0.8,1.9,1.8,1.9h21.8c1,0,1.8-0.8,1.8-1.9V11.6C32.7,10.5,31.9,9.7,30.9,9.7z M16.4,8.5c0-0.6,0.5-1.1,1-1.1h5.1
	c0.6,0,1,0.5,1,1.1v1.2h-7.2V8.5z M31.7,25.5c0,0.4-0.3,0.8-0.8,0.8H9.1c-0.4,0-0.8-0.4-0.8-0.8V11.6c0-0.4,0.3-0.8,0.8-0.8h21.8
	c0.4,0,0.8,0.4,0.8,0.8L31.7,25.5L31.7,25.5z M27.7,13.5c-1.1,0-2.1,1-2.1,2.2c0,0.4,0.1,0.9,0.3,1.2l-2.2,2.4
	C23.4,19.1,23,19,22.6,19c-0.4,0-0.8,0.1-1.2,0.4l-2.3-2.4c0.2-0.3,0.3-0.8,0.3-1.2c0-1.2-0.9-2.2-2.1-2.2c-1.1,0-2.1,1-2.1,2.2
	c0,0.4,0.1,0.9,0.3,1.2l-2.2,2.4c-0.3-0.2-0.7-0.4-1.1-0.4c-1.1,0-2.1,1-2.1,2.2c0,1.2,0.9,2.2,2.1,2.2s2.1-1,2.1-2.2
	c0-0.4-0.1-0.9-0.3-1.2l2.2-2.4c0.3,0.2,0.7,0.4,1.1,0.4c0.4,0,0.8-0.1,1.1-0.4l2.3,2.4c-0.2,0.3-0.3,0.7-0.3,1.2
	c0,1.2,0.9,2.2,2.1,2.2c1.1,0,2.1-1,2.1-2.2c0-0.4-0.1-0.9-0.3-1.2l2.2-2.4c0.3,0.2,0.7,0.4,1.1,0.4c1.1,0,2.1-1,2.1-2.2
	S28.8,13.5,27.7,13.5z M12.4,22.5c-0.7,0-1.2-0.6-1.2-1.3c0-0.7,0.5-1.3,1.2-1.3c0.7,0,1.2,0.6,1.2,1.3C13.6,21.9,13,22.5,12.4,22.5
	z M16.2,15.7c0-0.7,0.5-1.3,1.2-1.3c0.7,0,1.2,0.6,1.2,1.3c0,0.7-0.5,1.3-1.2,1.3C16.8,17,16.2,16.5,16.2,15.7z M22.6,22.5
	c-0.7,0-1.2-0.6-1.2-1.3s0.5-1.3,1.2-1.3c0.7,0,1.2,0.6,1.2,1.3C23.8,21.9,23.3,22.5,22.6,22.5z M27.7,17c-0.7,0-1.2-0.6-1.2-1.3
	c0-0.7,0.5-1.3,1.2-1.3c0.7,0,1.2,0.6,1.2,1.3C28.9,16.5,28.4,17,27.7,17z"/>
</svg>
