<?xml version="1.0" encoding="utf-8"?>
<!-- Generator: Adobe Illustrator 22.0.1, SVG Export Plug-In . SVG Version: 6.00 Build 0)  -->
<svg version="1.1" xmlns="http://www.w3.org/2000/svg" xmlns:xlink="http://www.w3.org/1999/xlink" x="0px" y="0px"
	 viewBox="0 0 40 40" style="enable-background:new 0 0 40 40;" xml:space="preserve">
<style type="text/css">
	.st0{display:none;}
	.st1{display:inline;}
	.st2{fill:#F3F2F7;}
	.st3{display:inline;fill:#F3F2F7;}
</style>
<g id="Layer_1" class="st0">
	<g class="st1">
		<path class="st2" d="M11.1,21.9l4,1.7c0.3,0.1,0.6,0,0.7-0.2l4-6.6l4.4,4.5c0.3,0.3,0.7,0.2,0.9-0.1l2.7-3.8l0.4,0.2
			c0.2,0.1,0.5,0,0.5-0.2l0.1-2.2c0-0.2-0.2-0.4-0.5-0.3l-2,1c-0.2,0.1-0.2,0.4,0,0.5l0.5,0.3L24.6,20l-4.5-4.5
			c-0.3-0.3-0.7-0.2-0.9,0.1l-4.1,6.8l-3.6-1.5c-0.3-0.1-0.6,0-0.8,0.3C10.7,21.5,10.8,21.8,11.1,21.9L11.1,21.9z"/>
		<path class="st2" d="M34.5,9.3H20.6V7.6C20.6,7.3,20.4,7,20,7s-0.6,0.3-0.6,0.6v1.7H5.5c-0.4,0-0.6,0.3-0.6,0.6
			c0,0.4,0.3,0.6,0.6,0.6h1v17.5c0,0.4,0.3,0.6,0.6,0.6h7.5l-3.1,3.2c-0.2,0.3-0.2,0.7,0,0.9c0.3,0.2,0.7,0.2,0.9,0l1.9-1.9h11.3
			l1.9,1.9c0.2,0.3,0.6,0.3,0.9,0c0.3-0.2,0.3-0.6,0-0.9l-3.1-3.2h7.5c0.4,0,0.6-0.3,0.6-0.6V10.6h1c0.4,0,0.6-0.3,0.6-0.6
			C35.1,9.6,34.9,9.3,34.5,9.3L34.5,9.3z M15.6,29.6l0.8-0.9h7.2l0.8,0.9H15.6z M32.3,27.5H7.7V10.6h24.5V27.5z M32.3,27.5"/>
	</g>
</g>
<g id="Layer_10" class="st0">
	<path class="st3" d="M29.6,27.9h-0.4c-1.2-1.5-1.9-3.4-1.9-5.4v-4.3c0-3.4-2.3-6.2-5.4-7.1c0.2-0.3,0.3-0.7,0.3-1.2
		c0-1.2-1-2.3-2.3-2.3c-1.2,0-2.3,1-2.3,2.3c0,0.4,0.1,0.8,0.3,1.2c-3.1,0.8-5.4,3.7-5.4,7.1v4.3c0,1.9-0.7,3.8-1.9,5.4h-0.4
		c-0.4,0-0.7,0.3-0.7,0.7s0.3,0.7,0.7,0.7h5.9c0.3,1.7,1.8,3.1,3.7,3.1c1.8,0,3.3-1.3,3.7-3.1h5.2h0.7c0.4,0,0.7-0.3,0.7-0.7
		C30.3,28.2,30,27.9,29.6,27.9z M19.1,10c0-0.5,0.4-0.9,0.9-0.9s0.9,0.4,0.9,0.9s-0.4,0.9-0.9,0.9C19.5,10.9,19.1,10.5,19.1,10z
		 M20,30.9c-1.1,0-2-0.7-2.3-1.7h4.5C22,30.2,21.1,30.9,20,30.9z M12.5,27.9c1-1.6,1.6-3.5,1.6-5.4v-4.3c0-3.3,2.7-6,6-6s6,2.7,6,6
		v4.3c0,1.9,0.5,3.8,1.5,5.4H12.5z"/>
</g>
<g id="Layer_9" class="st0">
	<g class="st1">
		<path class="st2" d="M32.5,19.4l-2.7-1.9c-0.5-0.4-1.2,0-1.2,0.6v1.2H15.4c-0.4,0-0.8,0.3-0.8,0.8s0.3,0.8,0.8,0.8h13.2v1.2
			c0,0.6,0.7,1,1.2,0.6l2.7-1.9C32.9,20.3,32.9,19.7,32.5,19.4z"/>
		<path class="st2" d="M28.7,24.8c-0.4-0.2-0.8-0.1-1,0.3c-1.8,3.1-5.1,5.1-8.8,5.1c-5.6,0-10.2-4.6-10.2-10.2S13.3,9.8,18.9,9.8
			c3.8,0,7.1,2.1,8.8,5.1c0.2,0.4,0.7,0.5,1,0.3c0.4-0.2,0.5-0.7,0.3-1c-2-3.5-5.8-5.9-10.1-5.9C12.4,8.3,7.2,13.5,7.2,20
			c0,6.5,5.2,11.7,11.7,11.7c4.3,0,8.1-2.3,10.1-5.9C29.2,25.5,29.1,25,28.7,24.8z"/>
	</g>
</g>
<g id="Layer_8" class="st0">
	<g class="st1">
		<g>
			<path class="st2" d="M6.7,11.9h26.5c0.7,0,1.2-0.6,1.2-1.2c0-0.7-0.6-1.2-1.2-1.2H6.7c-0.7,0-1.2,0.6-1.2,1.2
				C5.5,11.4,6.1,11.9,6.7,11.9L6.7,11.9z M6.7,11.9"/>
			<path class="st2" d="M6.7,21.2h26.5c0.7,0,1.2-0.6,1.2-1.2c0-0.7-0.6-1.2-1.2-1.2H6.7c-0.7,0-1.2,0.6-1.2,1.2
				C5.5,20.7,6.1,21.2,6.7,21.2L6.7,21.2z M6.7,21.2"/>
			<path class="st2" d="M6.7,30.6h26.5c0.7,0,1.2-0.6,1.2-1.2c0-0.7-0.6-1.2-1.2-1.2H6.7c-0.7,0-1.2,0.6-1.2,1.2
				C5.5,30,6.1,30.6,6.7,30.6L6.7,30.6z M6.7,30.6"/>
		</g>
	</g>
</g>
<g id="Layer_7" class="st0">
	<path class="st3" d="M32.1,12h-7v-1.3c0-1.3-1-2.4-2.3-2.4h-5.7c-1.2,0-2.3,1.1-2.3,2.4V12h-7c-1.1,0-2,0.9-2,2.1v15.5
		c0,1.2,0.9,2.1,2,2.1h24.2c1.1,0,2-0.9,2-2.1V14.1C34.1,12.9,33.2,12,32.1,12z M16,10.7c0-0.7,0.5-1.2,1.1-1.2h5.7
		c0.6,0,1.1,0.5,1.1,1.2V12h-8V10.7z M33,29.6c0,0.5-0.4,0.9-0.8,0.9H7.9c-0.5,0-0.8-0.4-0.8-0.9V14.1c0-0.5,0.4-0.9,0.8-0.9h24.2
		c0.5,0,0.8,0.4,0.8,0.9L33,29.6L33,29.6z M28.5,16.3c-1.3,0-2.3,1.1-2.3,2.4c0,0.5,0.1,1,0.4,1.3l-2.5,2.6
		c-0.4-0.3-0.8-0.4-1.3-0.4c-0.5,0-0.9,0.2-1.3,0.4l-2.5-2.7c0.2-0.4,0.4-0.8,0.4-1.3c0-1.4-1-2.4-2.3-2.4s-2.3,1.1-2.3,2.4
		c0,0.5,0.1,1,0.4,1.3l-2.5,2.6c-0.4-0.3-0.8-0.4-1.3-0.4c-1.3,0-2.3,1.1-2.3,2.4c0,1.4,1,2.4,2.3,2.4s2.3-1.1,2.3-2.4
		c0-0.5-0.1-1-0.4-1.3l2.5-2.6c0.4,0.3,0.8,0.4,1.3,0.4c0.5,0,0.9-0.1,1.3-0.4l2.5,2.7c-0.2,0.4-0.3,0.8-0.3,1.3
		c0,1.4,1,2.4,2.3,2.4c1.3,0,2.3-1.1,2.3-2.4c0-0.5-0.1-1-0.4-1.3l2.5-2.6c0.4,0.3,0.8,0.4,1.3,0.4c1.3,0,2.3-1.1,2.3-2.4
		S29.8,16.3,28.5,16.3z M11.5,26.2c-0.7,0-1.3-0.6-1.3-1.4c0-0.8,0.6-1.4,1.3-1.4c0.7,0,1.3,0.6,1.3,1.4
		C12.8,25.6,12.2,26.2,11.5,26.2z M15.8,18.8c0-0.8,0.6-1.4,1.3-1.4s1.3,0.6,1.3,1.4c0,0.8-0.6,1.4-1.3,1.4
		C16.4,20.2,15.8,19.6,15.8,18.8z M22.9,26.2c-0.7,0-1.3-0.6-1.3-1.4c0-0.8,0.6-1.4,1.3-1.4c0.7,0,1.3,0.6,1.3,1.4
		C24.2,25.6,23.6,26.2,22.9,26.2z M28.5,20.2c-0.7,0-1.3-0.6-1.3-1.4c0-0.8,0.6-1.4,1.3-1.4c0.7,0,1.3,0.6,1.3,1.4
		C29.9,19.6,29.3,20.2,28.5,20.2z"/>
</g>
<g id="Layer_6" class="st0">
	<g class="st1">
		<g>
			<path class="st2" d="M29.9,13.1c0-0.1-0.1-0.3-0.1-0.4l-5.1-5.1c-0.1-0.1-0.2-0.1-0.4-0.1v0H10.6c-0.3,0-0.5,0.2-0.5,0.5v23.9
				c0,0.3,0.2,0.5,0.5,0.5h18.8c0.3,0,0.5-0.2,0.5-0.5L29.9,13.1L29.9,13.1z M24.8,9.3l3.3,3.3h-3.3V9.3z M28.9,31.4H11.1V8.6h12.7
				v4.6c0,0.3,0.2,0.5,0.5,0.5h4.6V31.4z M28.9,31.4"/>
			<rect x="12.8" y="16.1" class="st2" width="2.5" height="1"/>
			<rect x="16.1" y="16.1" class="st2" width="11" height="1"/>
			<rect x="12.8" y="19.1" class="st2" width="2.5" height="1"/>
			<rect x="16.1" y="19.1" class="st2" width="11" height="1"/>
			<rect x="12.8" y="22" class="st2" width="2.5" height="1"/>
			<rect x="16.1" y="22" class="st2" width="11" height="1"/>
			<rect x="12.8" y="24.9" class="st2" width="2.5" height="1"/>
			<rect x="16.1" y="24.9" class="st2" width="11" height="1"/>
		</g>
	</g>
</g>
<g id="Layer_5" class="st0">
	<g class="st1">
		<g>
			<path class="st2" d="M12.2,26.8c-0.1,0-0.2,0-0.2,0c-3.6-1.6-6-5.2-6-9.1c0-5.5,4.5-9.9,9.9-9.9s9.9,4.5,9.9,9.9
				c0,3.3-1.6,6.4-4.4,8.2c-0.3,0.2-0.6,0.1-0.8-0.2c-0.2-0.3-0.1-0.6,0.2-0.8c2.4-1.6,3.9-4.4,3.9-7.3c0-4.8-3.9-8.8-8.8-8.8
				s-8.8,3.9-8.8,8.8c0,3.5,2.1,6.7,5.3,8c0.3,0.1,0.4,0.5,0.3,0.8C12.6,26.7,12.4,26.8,12.2,26.8z"/>
			<path class="st2" d="M10.1,32.3c-0.1,0-0.3-0.1-0.4-0.2c-0.2-0.2-0.2-0.6,0-0.8l7-7c0.2-0.2,0.6-0.2,0.8,0l4.3,4.3l8.4-8.4
				c0.2-0.2,0.6-0.2,0.8,0c0.2,0.2,0.2,0.6,0,0.8l-8.8,8.8c-0.2,0.2-0.6,0.2-0.8,0l-4.3-4.3l-6.6,6.6C10.4,32.2,10.2,32.3,10.1,32.3
				z"/>
			<path class="st2" d="M33.4,24.1c-0.2,0-0.3-0.1-0.4-0.2l-5.8-5.8c-0.2-0.2-0.2-0.4-0.1-0.6c0.1-0.2,0.3-0.4,0.5-0.4h5.8
				c0.3,0,0.6,0.3,0.6,0.6v5.8c0,0.2-0.1,0.4-0.4,0.5C33.6,24.1,33.5,24.1,33.4,24.1z M29,18.2l3.8,3.8v-3.8H29z"/>
			<path class="st2" d="M19.7,19.4h-7.5c-0.7,0-1.3-0.3-1.3-0.6s0.6-0.6,1.3-0.6h7.5c0.7,0,1.3,0.3,1.3,0.6S20.4,19.4,19.7,19.4z"/>
			<path class="st2" d="M19.7,22.1h-7.5c-0.7,0-1.3-0.3-1.3-0.6s0.6-0.6,1.3-0.6h7.5c0.7,0,1.3,0.3,1.3,0.6S20.4,22.1,19.7,22.1z"/>
			<path class="st2" d="M19.7,14h-7.5c-0.7,0-1.3-0.3-1.3-0.6c0-0.3,0.6-0.6,1.3-0.6h7.5c0.7,0,1.3,0.3,1.3,0.6
				C21,13.7,20.4,14,19.7,14z"/>
			<path class="st2" d="M19.7,16.7h-7.5c-0.7,0-1.3-0.3-1.3-0.6c0-0.3,0.6-0.6,1.3-0.6h7.5c0.7,0,1.3,0.3,1.3,0.6
				C21,16.5,20.4,16.7,19.7,16.7z"/>
		</g>
	</g>
</g>
<g id="Layer_4">
	<g>
		<path class="st2" d="M13.6,28.3c0.3,0.1,0.6,0.2,1,0.2c1.6,0,3-1.3,3-3c0-0.4-0.1-0.7-0.2-1.1l4.6-1.3c0.5,0.3,1,0.5,1.6,0.5
			c1.6,0,3-1.3,3-3c0-0.6-0.2-1.2-0.5-1.6l1.7-2.9c0.5,0.3,1,0.5,1.6,0.5c1.6,0,3-1.3,3-3c0-1.6-1.3-3-3-3c-1.6,0-3,1.3-3,3
			c0,0.7,0.2,1.3,0.6,1.8l-1.6,2.8c-0.5-0.3-1.1-0.5-1.7-0.5c-1.6,0-3,1.3-3,3c0,0.6,0.2,1.2,0.5,1.6l-4.3,1.2c-0.5-0.6-1.3-1-2.2-1
			c-1.6,0-3,1.3-3,3c0,0.9,0.4,1.7,1,2.3l-3.9,3.5V7.7H7.7v24.1c0,0.3,0.2,0.5,0.5,0.5h24.1v-1.1h-22L13.6,28.3z M29.4,11.7
			c1.1,0,1.9,0.9,1.9,1.9c0,1.1-0.9,1.9-1.9,1.9c-1.1,0-1.9-0.9-1.9-1.9C27.4,12.6,28.3,11.7,29.4,11.7L29.4,11.7z M23.6,18.7
			c1.1,0,1.9,0.9,1.9,1.9c0,1.1-0.9,1.9-1.9,1.9c-1.1,0-1.9-0.9-1.9-1.9C21.7,19.6,22.5,18.7,23.6,18.7L23.6,18.7z M14.6,23.6
			c1.1,0,1.9,0.9,1.9,1.9c0,1.1-0.9,1.9-1.9,1.9c-1.1,0-1.9-0.9-1.9-1.9C12.7,24.4,13.5,23.6,14.6,23.6L14.6,23.6z M14.6,23.6"/>
	</g>
</g>
<g id="Layer_3" class="st0">
	<g class="st1">
		<path class="st2" d="M32.4,32.4v-1.6l-23.3,0l0-23.3l-1.6,0l0,24.9L32.4,32.4z M32.4,32.4"/>
		<path class="st2" d="M16.9,18.4L12.4,25l1.3,0.9l3.7-5.3l7.3,5l5.2-8.6l2.1,1.5l0.5-6.7l-6,2.9l2.1,1.4l-4.4,7.3L16.9,18.4z
			 M16.9,18.4"/>
	</g>
</g>
<g id="Layer_2" class="st0">
	<g class="st1">
		<path class="st2" d="M35.3,16.6l-10.2-2.1l-5.2-9l-5.2,9L4.7,16.6l7,7.7l-1.1,10.3l9.5-4.2l9.5,4.2l-1.1-10.3L35.3,16.6z M20,28.3
			l-7.2,3.2l0.8-7.9l-5.3-5.9l7.7-1.6L20,9.2l3.9,6.9l7.7,1.6l-5.3,5.9l0.8,7.9L20,28.3z M20,28.3"/>
	</g>
</g>
</svg>
