<svg id="Layer_1" data-name="Layer 1" xmlns="http://www.w3.org/2000/svg" viewBox="0 0 39 39"><defs><style>.cls-1{fill:#595959;}</style></defs><title>Untitled-1</title><path class="cls-1" d="M37.05,18.64,33.2,15.92a1.05,1.05,0,0,0-1.66.86v1.67H13.05a1.05,1.05,0,1,0,0,2.1H31.54v1.67a1.06,1.06,0,0,0,1.66.86l3.85-2.72A1.05,1.05,0,0,0,37.05,18.64Z"/><path class="cls-1" d="M31.77,26.27a1,1,0,0,0-1.44.39,14.32,14.32,0,1,1,0-14.32,1.05,1.05,0,1,0,1.82-1.05,16.43,16.43,0,1,0,0,16.42A1.06,1.06,0,0,0,31.77,26.27Z"/></svg>