<?xml version="1.0" encoding="utf-8"?>
<!-- Generator: Adobe Illustrator 21.0.0, SVG Export Plug-In . SVG Version: 6.00 Build 0)  -->
<svg version="1.1" id="Layer_1" xmlns="http://www.w3.org/2000/svg" xmlns:xlink="http://www.w3.org/1999/xlink" x="0px" y="0px"
	 viewBox="0 0 40 34" style="enable-background:new 0 0 40 34;" xml:space="preserve">
<style type="text/css">
	.st0{fill:#F3F2F7;}
</style>
<g>
	<g>
		<path class="st0" d="M5.2,8.9h29.3c0.8,0,1.4-0.6,1.4-1.4c0-0.8-0.6-1.4-1.4-1.4H5.2c-0.8,0-1.4,0.6-1.4,1.4
			C3.8,8.2,4.4,8.9,5.2,8.9L5.2,8.9z M5.2,8.9"/>
		<path class="st0" d="M5.2,19.1h29.3c0.8,0,1.4-0.6,1.4-1.4c0-0.8-0.6-1.4-1.4-1.4H5.2c-0.8,0-1.4,0.6-1.4,1.4
			C3.8,18.5,4.4,19.1,5.2,19.1L5.2,19.1z M5.2,19.1"/>
		<path class="st0" d="M5.2,29.4h29.3c0.8,0,1.4-0.6,1.4-1.4c0-0.8-0.6-1.4-1.4-1.4H5.2c-0.8,0-1.4,0.6-1.4,1.4
			C3.8,28.8,4.4,29.4,5.2,29.4L5.2,29.4z M5.2,29.4"/>
	</g>
</g>
</svg>
