<?xml version="1.0" encoding="utf-8"?>
<!-- Generator: Adobe Illustrator 21.0.0, SVG Export Plug-In . SVG Version: 6.00 Build 0)  -->
<svg version="1.1" id="Layer_1" xmlns="http://www.w3.org/2000/svg" xmlns:xlink="http://www.w3.org/1999/xlink" x="0px" y="0px"
	 viewBox="0 0 40 34" style="enable-background:new 0 0 40 34;" xml:space="preserve">
<style type="text/css">
	.st0{fill:#F3F2F7;}
</style>
<g>
	<g>
		<path class="st0" d="M28.9,11.3c0-0.1,0-0.2-0.1-0.3l-4.5-4.5c-0.1-0.1-0.2-0.1-0.3-0.1v0H11.8c-0.2,0-0.4,0.2-0.4,0.4v21.1
			c0,0.2,0.2,0.4,0.4,0.4h16.6c0.2,0,0.4-0.2,0.4-0.4L28.9,11.3L28.9,11.3z M24.4,7.9l3,3h-3V7.9z M28,27.5H12.3V7.3h11.2v4
			c0,0.2,0.2,0.4,0.4,0.4h4V27.5z M28,27.5"/>
		<rect x="13.7" y="14" class="st0" width="2.2" height="0.9"/>
		<rect x="16.6" y="14" class="st0" width="9.7" height="0.9"/>
		<rect x="13.7" y="16.5" class="st0" width="2.2" height="0.9"/>
		<rect x="16.6" y="16.5" class="st0" width="9.7" height="0.9"/>
		<rect x="13.7" y="19.1" class="st0" width="2.2" height="0.9"/>
		<rect x="16.6" y="19.1" class="st0" width="9.7" height="0.9"/>
		<rect x="13.7" y="21.7" class="st0" width="2.2" height="0.9"/>
		<rect x="16.6" y="21.7" class="st0" width="9.7" height="0.9"/>
	</g>
</g>
</svg>
