<svg id="Layer_1" data-name="Layer 1" xmlns="http://www.w3.org/2000/svg" viewBox="0 0 35 35"><defs><style>.cls-1{fill:#595959;}</style></defs><title>watchlist_v11</title><path class="cls-1" d="M22.83,10.33a1.17,1.17,0,0,0,0-2.33H11.16a1.17,1.17,0,1,0,0,2.33h4.67a3.49,3.49,0,0,1,3.28,2.34H11.16a1.17,1.17,0,1,0,0,2.33h8a3.48,3.48,0,0,1-3.28,2.33H11.16a1.17,1.17,0,0,0-1.08.72,1.17,1.17,0,0,0,0,.9,1.22,1.22,0,0,0,.26.38l9.33,9.33a1.14,1.14,0,0,0,.82.34,1.16,1.16,0,0,0,.83-.34,1.18,1.18,0,0,0,0-1.65L14,19.67h1.85A5.84,5.84,0,0,0,21.54,15h1.29a1.17,1.17,0,0,0,0-2.33H21.54a5.65,5.65,0,0,0-1.08-2.34Z"/></svg>