<svg id="Layer_1" data-name="Layer 1" xmlns="http://www.w3.org/2000/svg" viewBox="0 0 35 35"><defs><style>.cls-1{fill:#595959;}</style></defs><title>Untitled-1</title><path class="cls-1" d="M29.62,6H6.09a.38.38,0,0,0-.38.38V29.5a.38.38,0,0,0,.38.38H29.62A.38.38,0,0,0,30,29.5V6.38A.38.38,0,0,0,29.62,6Zm-11.76.76H29.24v4.11H6.47V6.76Zm0,22.36H6.47V11.63H29.24V29.12Z"/><path class="cls-1" d="M21.51,8.38H26a.38.38,0,1,0,0-.76H21.51a.38.38,0,0,0,0,.76Z"/><path class="cls-1" d="M27.19,8.38H28a.38.38,0,0,0,0-.76h-.81a.38.38,0,1,0,0,.76Z"/><path class="cls-1" d="M17.73,10.32h0a1.6,1.6,0,1,0,0-3h0a1.59,1.59,0,0,0,0,3ZM18,8h0a.69.69,0,0,1,.28,0,.84.84,0,1,1,0,1.67A.92.92,0,0,1,18,9.6h0a.84.84,0,0,1-.56-.79A.83.83,0,0,1,18,8Z"/><path class="cls-1" d="M13.8,10.41a1.6,1.6,0,1,0-1.6-1.6A1.6,1.6,0,0,0,13.8,10.41ZM13.8,8a.84.84,0,1,1-.84.83A.84.84,0,0,1,13.8,8Z"/><path class="cls-1" d="M9.34,10.41a1.6,1.6,0,1,0-1.6-1.6A1.6,1.6,0,0,0,9.34,10.41ZM9.34,8a.84.84,0,0,1,0,1.67A.84.84,0,1,1,9.34,8Z"/><path class="cls-1" d="M25.11,17.54H10.74a.6.6,0,0,1-.59-.6V15.85a.6.6,0,0,1,.59-.59H25.11a.6.6,0,0,1,.6.59v1.09A.6.6,0,0,1,25.11,17.54ZM10.74,15.31a.54.54,0,0,0-.54.54v1.09a.54.54,0,0,0,.54.55H25.11a.55.55,0,0,0,.55-.55V15.85a.55.55,0,0,0-.55-.54Z"/><path class="cls-1" d="M25,21.51H10.67a.58.58,0,0,1-.59-.59V19.83a.58.58,0,0,1,.59-.59H25a.58.58,0,0,1,.59.59v1.09A.58.58,0,0,1,25,21.51ZM10.67,19.28a.55.55,0,0,0-.54.55v1.09a.55.55,0,0,0,.54.55H25a.55.55,0,0,0,.55-.55V19.83a.55.55,0,0,0-.55-.55Z"/><rect class="cls-1" x="10.1" y="23.24" width="15.51" height="2.23" rx="1.11" ry="1.11"/></svg>