<svg id="Layer_1" data-name="Layer 1" xmlns="http://www.w3.org/2000/svg" viewBox="0 0 35 35"><defs><style>.cls-1{fill:#595959;}</style></defs><title>watchlist_v11</title><path class="cls-1" d="M28.72,15.84H26.4a.86.86,0,0,1-.82-.54.89.89,0,0,1,.19-1l1.64-1.64a1.26,1.26,0,0,0,0-1.8l-2.09-2.1a1.3,1.3,0,0,0-1.8,0l-1.64,1.65a.88.88,0,0,1-1,.19.86.86,0,0,1-.56-.82V7.48A1.27,1.27,0,0,0,19.08,6.2h-3a1.28,1.28,0,0,0-1.28,1.28V9.8a.86.86,0,0,1-.54.82.89.89,0,0,1-1-.19L11.68,8.78a1.31,1.31,0,0,0-1.8,0l-2.1,2.1a1.28,1.28,0,0,0,0,1.8l1.65,1.64a.89.89,0,0,1,.19,1,.86.86,0,0,1-.82.54H6.48A1.28,1.28,0,0,0,5.2,17.12v3a1.27,1.27,0,0,0,1.28,1.27H8.8a.86.86,0,0,1,.82.56.88.88,0,0,1-.19,1L7.78,24.52a1.28,1.28,0,0,0,0,1.8l2.1,2.09a1.29,1.29,0,0,0,1.8,0l1.64-1.64a.89.89,0,0,1,1-.19.86.86,0,0,1,.54.82v2.32A1.28,1.28,0,0,0,16.12,31h3a1.27,1.27,0,0,0,1.27-1.28V27.4a.87.87,0,0,1,.55-.82.89.89,0,0,1,1,.19l1.64,1.64a1.29,1.29,0,0,0,1.8,0l2.09-2.09a1.26,1.26,0,0,0,0-1.8l-1.64-1.64a.88.88,0,0,1-.19-1,.86.86,0,0,1,.82-.56h2.32A1.27,1.27,0,0,0,30,20.08v-3a1.28,1.28,0,0,0-1.28-1.28Zm.36,4.24a.36.36,0,0,1-.36.36H26.4a1.81,1.81,0,0,0-1.28,3.09l1.64,1.64a.33.33,0,0,1,0,.5l-2.09,2.09a.34.34,0,0,1-.5,0l-1.64-1.64a1.82,1.82,0,0,0-2-.39,1.8,1.8,0,0,0-1.11,1.67v2.32a.36.36,0,0,1-.36.36h-3a.36.36,0,0,1-.36-.36V27.4a1.78,1.78,0,0,0-1.12-1.67,1.9,1.9,0,0,0-.7-.14,1.8,1.8,0,0,0-1.27.53L11,27.76a.34.34,0,0,1-.5,0L8.44,25.67a.36.36,0,0,1,0-.51l1.64-1.63a1.82,1.82,0,0,0,.39-2A1.8,1.8,0,0,0,8.8,20.44H6.48a.36.36,0,0,1-.36-.36v-3a.36.36,0,0,1,.36-.36H8.8a1.78,1.78,0,0,0,1.67-1.12,1.8,1.8,0,0,0-.39-2L8.44,12a.35.35,0,0,1,0-.5l2.09-2.09a.35.35,0,0,1,.5,0l1.64,1.63A1.81,1.81,0,0,0,15.76,9.8V7.48a.36.36,0,0,1,.36-.36h3a.36.36,0,0,1,.36.36V9.8a1.8,1.8,0,0,0,1.11,1.67,1.82,1.82,0,0,0,2-.39l1.64-1.64a.35.35,0,0,1,.5,0l2.09,2.09a.33.33,0,0,1,0,.5l-1.64,1.64a1.81,1.81,0,0,0,1.28,3.09h2.32a.36.36,0,0,1,.36.36Zm0,0"/><path class="cls-1" d="M17.6,14.47a4.13,4.13,0,1,0,4.13,4.13,4.13,4.13,0,0,0-4.13-4.13Zm0,7.34a3.22,3.22,0,1,1,3.21-3.21,3.22,3.22,0,0,1-3.21,3.21Zm0,0"/></svg>