<?xml version="1.0" encoding="utf-8"?>
<!-- Generator: Adobe Illustrator 22.0.1, SVG Export Plug-In . SVG Version: 6.00 Build 0)  -->
<svg version="1.1" id="Layer_1" xmlns="http://www.w3.org/2000/svg" xmlns:xlink="http://www.w3.org/1999/xlink" x="0px" y="0px"
	 viewBox="0 0 60.2 60.2" style="enable-background:new 0 0 60.2 60.2;" xml:space="preserve">
<style type="text/css">
	.st0{fill:#108E43;}
</style>
<g>
	<g>
		<g>
			<path class="st0" d="M30.1,3.8c14.7,0,26.4,11.7,26.4,26.3c0,14.7-11.7,26.4-26.4,26.4c-14.7,0-26.3-11.7-26.3-26.4
				C3.8,15.4,15.4,3.8,30.1,3.8L30.1,3.8z M30.1,0C13.5,0,0,13.5,0,30.1c0,16.6,13.5,30.1,30.1,30.1c16.6,0,30.1-13.5,30.1-30.1
				C60.2,13.5,46.7,0,30.1,0L30.1,0z M30.1,0"/>
		</g>
	</g>
	<g>
		<path class="st0" d="M24.7,37.8l-7.4-7.4l-2.5,2.5l9.9,9.9l21.1-21.1l-2.5-2.5L24.7,37.8z M24.7,37.8"/>
	</g>
</g>
</svg>
