<?xml version="1.0" encoding="utf-8"?>
<!-- Generator: Adobe Illustrator 21.0.0, SVG Export Plug-In . SVG Version: 6.00 Build 0)  -->
<svg version="1.1" id="Layer_1" xmlns="http://www.w3.org/2000/svg" xmlns:xlink="http://www.w3.org/1999/xlink" x="0px" y="0px"
	 viewBox="0 0 40 34" style="enable-background:new 0 0 40 34;" xml:space="preserve">
<style type="text/css">
	.st0{fill:#F3F2F7;}
</style>
<g>
	<g>
		<path class="st0" d="M12.1,25c-0.1,0-0.2,0-0.3-0.1c-4-1.7-6.6-5.7-6.6-10c0-6,4.9-10.9,10.9-10.9S27,9,27,15c0,3.6-1.8,7-4.8,9
			c-0.3,0.2-0.7,0.1-0.9-0.2c-0.2-0.3-0.1-0.7,0.2-0.9c2.7-1.8,4.2-4.8,4.2-8c0-5.3-4.3-9.6-9.6-9.6S6.5,9.7,6.5,15
			c0,3.8,2.3,7.3,5.8,8.8c0.3,0.1,0.5,0.5,0.3,0.8C12.5,24.9,12.3,25,12.1,25z"/>
		<path class="st0" d="M9.7,31c-0.2,0-0.3-0.1-0.5-0.2c-0.3-0.3-0.3-0.7,0-0.9l7.7-7.7c0.3-0.3,0.7-0.3,0.9,0l4.7,4.7l9.2-9.2
			c0.3-0.3,0.7-0.3,0.9,0c0.3,0.3,0.3,0.7,0,0.9L23,28.2c-0.3,0.3-0.7,0.3-0.9,0l-4.7-4.7l-7.2,7.2C10,30.9,9.9,31,9.7,31z"/>
		<path class="st0" d="M35.4,22c-0.2,0-0.3-0.1-0.5-0.2l-6.4-6.4c-0.2-0.2-0.2-0.5-0.1-0.7c0.1-0.2,0.3-0.4,0.6-0.4h6.4
			c0.4,0,0.6,0.3,0.6,0.6v6.4c0,0.3-0.2,0.5-0.4,0.6C35.5,22,35.4,22,35.4,22z M30.5,15.6l4.2,4.2v-4.2H30.5z"/>
		<path class="st0" d="M20.3,16.9H12c-0.8,0-1.4-0.3-1.4-0.6c0-0.4,0.6-0.6,1.4-0.6h8.3c0.8,0,1.4,0.3,1.4,0.6
			C21.6,16.6,21,16.9,20.3,16.9z"/>
		<path class="st0" d="M20.3,19.8H12c-0.8,0-1.4-0.3-1.4-0.6s0.6-0.6,1.4-0.6h8.3c0.8,0,1.4,0.3,1.4,0.6S21,19.8,20.3,19.8z"/>
		<path class="st0" d="M20.3,10.9h-8.3c-0.8,0-1.4-0.3-1.4-0.6s0.6-0.6,1.4-0.6h8.3c0.8,0,1.4,0.3,1.4,0.6S21.1,10.9,20.3,10.9z"/>
		<path class="st0" d="M20.3,13.9h-8.3c-0.8,0-1.4-0.3-1.4-0.6s0.6-0.6,1.4-0.6h8.3c0.8,0,1.4,0.3,1.4,0.6S21.1,13.9,20.3,13.9z"/>
	</g>
</g>
</svg>
