<?xml version="1.0" encoding="utf-8"?>
<!-- Generator: Adobe Illustrator 22.0.1, SVG Export Plug-In . SVG Version: 6.00 Build 0)  -->
<svg version="1.1" id="Layer_1" xmlns="http://www.w3.org/2000/svg" xmlns:xlink="http://www.w3.org/1999/xlink" x="0px" y="0px"
	 viewBox="0 0 21 21" style="enable-background:new 0 0 21 21;" xml:space="preserve">
<style type="text/css">
	.st0{fill:#1F1F1F;}
</style>
<g>
	<g>
		<path class="st0" d="M21,10.5C21,4.7,16.3,0,10.5,0S0,4.7,0,10.5c0,3.1,1.3,5.8,3.4,7.7l0,0l0.3,0.3c0,0,0,0,0.1,0.1
			C4,18.7,4.2,18.9,4.4,19c0.1,0,0.1,0.1,0.2,0.1c0.2,0.1,0.4,0.3,0.6,0.4c0,0,0.1,0.1,0.1,0.1C5.6,19.8,5.8,19.9,6,20
			c0,0,0,0,0.1,0c0.8,0.4,1.6,0.6,2.5,0.8c0,0,0,0,0.1,0c0.3,0,0.6,0.1,0.8,0.1c0,0,0.1,0,0.1,0c0.3,0,0.6,0,0.9,0
			c0.3,0,0.6,0,0.8,0c0,0,0.1,0,0.1,0c0.3,0,0.6-0.1,0.8-0.1c0,0,0,0,0.1,0c0.9-0.2,1.7-0.4,2.5-0.8c0,0,0.1,0,0.1,0
			c0.2-0.1,0.5-0.2,0.7-0.4c0.1,0,0.1-0.1,0.2-0.1c0.2-0.1,0.4-0.2,0.6-0.4c0.1,0,0.1-0.1,0.2-0.1c0.2-0.1,0.3-0.2,0.5-0.4
			c0,0,0.1-0.1,0.1-0.1l0.3-0.3l0,0C19.7,16.3,21,13.6,21,10.5L21,10.5z M0.8,10.5c0-5.4,4.4-9.7,9.7-9.7s9.7,4.4,9.7,9.7
			c0,2.9-1.3,5.5-3.3,7.3c-0.1-0.1-0.2-0.1-0.3-0.2L13.4,16c-0.3-0.1-0.5-0.4-0.5-0.8v-1.1c0.1-0.1,0.2-0.2,0.2-0.3
			c0.4-0.6,0.8-1.2,1-2c0.5-0.2,0.8-0.7,0.8-1.3V9.2c0-0.3-0.1-0.7-0.3-0.9V6.5c0-0.2,0.1-1.3-0.7-2.2c-0.7-0.8-1.8-1.2-3.4-1.2
			C9,3.1,7.8,3.5,7.1,4.3c-0.8,0.9-0.7,2-0.7,2.2v1.8C6.2,8.5,6.1,8.9,6.1,9.2v1.4c0,0.4,0.2,0.8,0.5,1.1c0.3,1.2,0.9,2.1,1.2,2.4
			v1.1c0,0.3-0.2,0.6-0.4,0.7l-3,1.6c-0.1,0.1-0.2,0.1-0.3,0.2C2,16,0.8,13.4,0.8,10.5L0.8,10.5z M0.8,10.5"/>
	</g>
</g>
</svg>
