<svg id="Layer_1" data-name="Layer 1" xmlns="http://www.w3.org/2000/svg" xmlns:xlink="http://www.w3.org/1999/xlink" viewBox="0 0 35 35"><defs><style>.cls-1{fill:none;}.cls-2{fill:#595959;}.cls-3{clip-path:url(#clip-path);}</style><clipPath id="clip-path"><rect class="cls-1" x="5" y="8" width="24.24" height="19"/></clipPath></defs><title>watchlist_v11</title><path class="cls-2" d="M8.29,11.38v0a.26.26,0,0,0,.31.19,10.21,10.21,0,0,1,6.39.78.26.26,0,0,0,.34-.11l0,0a.27.27,0,0,0-.11-.36,10.62,10.62,0,0,0-6.77-.82.26.26,0,0,0-.19.32Zm0,0"/><path class="cls-2" d="M8.61,13.19A10.21,10.21,0,0,1,15,14a.26.26,0,0,0,.34-.11l0,0a.25.25,0,0,0-.11-.35,10.6,10.6,0,0,0-6.77-.83.26.26,0,0,0-.19.32v0a.26.26,0,0,0,.31.19Zm0,0"/><path class="cls-2" d="M8.3,14.49a.26.26,0,0,0,.31.18,10.21,10.21,0,0,1,6.39.78.27.27,0,0,0,.34-.1l0,0a.25.25,0,0,0-.11-.35,10.62,10.62,0,0,0-6.77-.82.26.26,0,0,0-.19.32Zm0,0"/><path class="cls-2" d="M15.25,16.58a10.62,10.62,0,0,0-6.77-.82.25.25,0,0,0-.19.31v.05a.26.26,0,0,0,.31.18,10.26,10.26,0,0,1,6.4.78.25.25,0,0,0,.33-.11l0,0a.24.24,0,0,0-.11-.35Zm0,0"/><path class="cls-2" d="M15.25,18.08a10.69,10.69,0,0,0-6.77-.82.26.26,0,0,0-.19.32v0a.26.26,0,0,0,.31.19,10.26,10.26,0,0,1,6.4.78.25.25,0,0,0,.33-.11l0,0a.25.25,0,0,0-.11-.36Zm0,0"/><path class="cls-2" d="M15.25,19.63a10.62,10.62,0,0,0-6.77-.82.26.26,0,0,0-.19.32v0a.26.26,0,0,0,.31.19,10.21,10.21,0,0,1,6.39.78.26.26,0,0,0,.34-.11l0,0a.27.27,0,0,0-.11-.36Zm0,0"/><path class="cls-2" d="M15.25,21.19a10.65,10.65,0,0,0-6.77-.82.25.25,0,0,0-.19.31v.05a.26.26,0,0,0,.31.18,10.21,10.21,0,0,1,6.39.78.26.26,0,0,0,.34-.11l0,0a.25.25,0,0,0-.11-.35Zm0,0"/><path class="cls-2" d="M19,11.88a.25.25,0,0,0-.11.36l0,0a.25.25,0,0,0,.33.11,10.26,10.26,0,0,1,6.4-.78.26.26,0,0,0,.31-.19v0a.27.27,0,0,0-.19-.32,10.62,10.62,0,0,0-6.77.82Zm0,0"/><path class="cls-2" d="M19.23,14a10.26,10.26,0,0,1,6.4-.78.26.26,0,0,0,.31-.19v0a.27.27,0,0,0-.19-.32,10.6,10.6,0,0,0-6.77.83.24.24,0,0,0-.11.35l0,0a.25.25,0,0,0,.33.11Zm0,0"/><path class="cls-2" d="M18.9,15.35a.25.25,0,0,0,.33.1,10.26,10.26,0,0,1,6.4-.78.26.26,0,0,0,.31-.18v0a.27.27,0,0,0-.19-.32A10.62,10.62,0,0,0,19,15a.24.24,0,0,0-.11.35Zm0,0"/><path class="cls-2" d="M18.9,17a.25.25,0,0,0,.33.11,10.26,10.26,0,0,1,6.4-.78.26.26,0,0,0,.31-.18v-.05a.26.26,0,0,0-.19-.31,10.62,10.62,0,0,0-6.77.82.25.25,0,0,0-.12.35Zm0,0"/><path class="cls-2" d="M18.9,18.48a.25.25,0,0,0,.33.11,10.26,10.26,0,0,1,6.4-.78.26.26,0,0,0,.31-.19v0a.27.27,0,0,0-.19-.32,10.69,10.69,0,0,0-6.77.82.26.26,0,0,0-.12.36Zm0,0"/><path class="cls-2" d="M18.9,20a.25.25,0,0,0,.33.11,10.26,10.26,0,0,1,6.4-.78.26.26,0,0,0,.31-.19v0a.27.27,0,0,0-.19-.32,10.62,10.62,0,0,0-6.77.82.25.25,0,0,0-.11.36Zm0,0"/><g class="cls-3"><path class="cls-2" d="M25.76,20.37a10.62,10.62,0,0,0-6.77.82.25.25,0,0,0-.11.35l0,0a.25.25,0,0,0,.33.11,10.26,10.26,0,0,1,6.4-.78.26.26,0,0,0,.31-.18v-.05a.26.26,0,0,0-.19-.31Zm0,0"/><path class="cls-2" d="M29.05,10.76a1.88,1.88,0,0,0-1-.55v-1a.52.52,0,0,0-.35-.49A14,14,0,0,0,23.63,8a9.68,9.68,0,0,0-6.51,2.3A9.68,9.68,0,0,0,10.61,8a14,14,0,0,0-4.09.68.52.52,0,0,0-.35.49v1a1.84,1.84,0,0,0-1,.55.64.64,0,0,0-.19.45V25.62a.39.39,0,0,0,.53.36,14.62,14.62,0,0,1,4.71-1.16,15,15,0,0,1,4.43.64.72.72,0,0,0-.07.28c0,.68,1.13,1.24,2.52,1.24s2.51-.56,2.51-1.24a.71.71,0,0,0-.06-.28A15,15,0,0,1,24,24.82,14.68,14.68,0,0,1,28.71,26a.39.39,0,0,0,.53-.36V11.21a.64.64,0,0,0-.19-.45ZM16.81,24.2A19.76,19.76,0,0,0,10,22.76a8.37,8.37,0,0,0-3.18.55v-14a12.16,12.16,0,0,1,3.75-.6,9.7,9.7,0,0,1,6.2,2.19Zm10.57-.89a8.41,8.41,0,0,0-3.18-.55,19.76,19.76,0,0,0-6.77,1.44V10.88a9.68,9.68,0,0,1,6.2-2.19,12.16,12.16,0,0,1,3.75.6Zm0,0"/></g></svg>